ISO-10303-21;
HEADER;
/* Generated by software containing ST-Developer
 * from STEP Tools, Inc. (www.steptools.com) 
 */
/* OPTION: using custom renumber hook */

FILE_DESCRIPTION(
/* description */ ('STEP AP242 Edition 2',
'CAx-IF Rec.Pracs.---Representation and Presentation of Product Manufa
cturing Information (PMI)---4.0---2014-10-13',
'CAx-IF Rec.Pracs.---3D Tessellated Geometry---0.4---2014-09-14','2;1',
'CAx-IF Rec.Pracs.---User Defined Attributes---1.5---2016-08-15'),
/* implementation_level */ '2;1');

FILE_NAME(
/* name */ 'Part Studio 1 - Arm Mount FL 1',
/* time_stamp */ '2026-06-27T17:58:23Z',
/* author */ (''),
/* organization */ (''),
/* preprocessor_version */ 'ST-DEVELOPER v20',
/* originating_system */ 'ONSHAPE BY PTC INC, 1.217',
/* authorisation */ '  ');

FILE_SCHEMA (('AP242_MANAGED_MODEL_BASED_3D_ENGINEERING_MIM_LF { 1 0 10303 442 3 1 4 }'));
ENDSEC;

DATA;
#10=SHAPE_REPRESENTATION_RELATIONSHIP('','',#370,#11);
#11=ADVANCED_BREP_SHAPE_REPRESENTATION('',(#368),#631);
#12=B_SPLINE_CURVE_WITH_KNOTS('',3,(#559,#560,#561,#562,#563,#564,#565,
#566,#567,#568,#569),.UNSPECIFIED.,.F.,.F.,(4,1,1,1,1,1,1,1,4),(0.,0.00189233903111616,
0.00378467806223233,0.00567701709334849,0.00756935612446465,0.00946169515558081,
0.011354034186697,0.0132463732178131,0.0151387122489293),.UNSPECIFIED.);
#13=CYLINDRICAL_SURFACE('',#375,0.002425);
#14=CYLINDRICAL_SURFACE('',#378,0.002425);
#15=CYLINDRICAL_SURFACE('',#385,0.00805);
#16=CYLINDRICAL_SURFACE('',#401,0.0034798);
#17=CYLINDRICAL_SURFACE('',#403,0.0034798);
#18=CYLINDRICAL_SURFACE('',#405,0.0034798);
#19=CYLINDRICAL_SURFACE('',#407,0.0034798);
#20=CYLINDRICAL_SURFACE('',#409,0.0034798);
#21=CIRCLE('',#374,0.00805);
#22=CIRCLE('',#376,0.002425);
#23=CIRCLE('',#377,0.002425);
#24=CIRCLE('',#379,0.002425);
#25=CIRCLE('',#380,0.002425);
#26=CIRCLE('',#386,0.00805);
#27=CIRCLE('',#387,0.00805);
#28=CIRCLE('',#398,0.0034798);
#29=CIRCLE('',#400,0.0034798);
#30=LINE('',#522,#59);
#31=LINE('',#526,#60);
#32=LINE('',#528,#61);
#33=LINE('',#540,#62);
#34=LINE('',#545,#63);
#35=LINE('',#547,#64);
#36=LINE('',#549,#65);
#37=LINE('',#553,#66);
#38=LINE('',#556,#67);
#39=LINE('',#557,#68);
#40=LINE('',#573,#69);
#41=LINE('',#577,#70);
#42=LINE('',#579,#71);
#43=LINE('',#582,#72);
#44=LINE('',#584,#73);
#45=LINE('',#586,#74);
#46=LINE('',#588,#75);
#47=LINE('',#590,#76);
#48=LINE('',#592,#77);
#49=LINE('',#594,#78);
#50=LINE('',#597,#79);
#51=LINE('',#601,#80);
#52=LINE('',#603,#81);
#53=LINE('',#605,#82);
#54=LINE('',#607,#83);
#55=LINE('',#608,#84);
#56=LINE('',#610,#85);
#57=LINE('',#612,#86);
#58=LINE('',#614,#87);
#59=VECTOR('',#416,1.);
#60=VECTOR('',#419,1.);
#61=VECTOR('',#420,1.);
#62=VECTOR('',#435,1.);
#63=VECTOR('',#438,1.);
#64=VECTOR('',#439,1.);
#65=VECTOR('',#440,1.);
#66=VECTOR('',#445,1.);
#67=VECTOR('',#446,1.);
#68=VECTOR('',#447,1.);
#69=VECTOR('',#452,1.);
#70=VECTOR('',#455,1.);
#71=VECTOR('',#458,1.);
#72=VECTOR('',#459,1.);
#73=VECTOR('',#460,1.);
#74=VECTOR('',#461,1.);
#75=VECTOR('',#464,1.);
#76=VECTOR('',#465,1.);
#77=VECTOR('',#466,1.);
#78=VECTOR('',#469,1.);
#79=VECTOR('',#472,1.);
#80=VECTOR('',#477,1.);
#81=VECTOR('',#478,1.);
#82=VECTOR('',#479,1.);
#83=VECTOR('',#482,1.);
#84=VECTOR('',#483,1.);
#85=VECTOR('',#484,1.);
#86=VECTOR('',#487,1.);
#87=VECTOR('',#488,1.);
#88=ORIENTED_EDGE('',*,*,#186,.T.);
#89=ORIENTED_EDGE('',*,*,#187,.T.);
#90=ORIENTED_EDGE('',*,*,#188,.F.);
#91=ORIENTED_EDGE('',*,*,#189,.F.);
#92=ORIENTED_EDGE('',*,*,#190,.F.);
#93=ORIENTED_EDGE('',*,*,#191,.F.);
#94=ORIENTED_EDGE('',*,*,#192,.T.);
#95=ORIENTED_EDGE('',*,*,#193,.F.);
#96=ORIENTED_EDGE('',*,*,#194,.T.);
#97=ORIENTED_EDGE('',*,*,#194,.F.);
#98=ORIENTED_EDGE('',*,*,#192,.F.);
#99=ORIENTED_EDGE('',*,*,#195,.F.);
#100=ORIENTED_EDGE('',*,*,#196,.T.);
#101=ORIENTED_EDGE('',*,*,#197,.T.);
#102=ORIENTED_EDGE('',*,*,#198,.T.);
#103=ORIENTED_EDGE('',*,*,#199,.F.);
#104=ORIENTED_EDGE('',*,*,#200,.T.);
#105=ORIENTED_EDGE('',*,*,#201,.T.);
#106=ORIENTED_EDGE('',*,*,#202,.T.);
#107=ORIENTED_EDGE('',*,*,#195,.T.);
#108=ORIENTED_EDGE('',*,*,#203,.T.);
#109=ORIENTED_EDGE('',*,*,#188,.T.);
#110=ORIENTED_EDGE('',*,*,#204,.T.);
#111=ORIENTED_EDGE('',*,*,#205,.T.);
#112=ORIENTED_EDGE('',*,*,#206,.T.);
#113=ORIENTED_EDGE('',*,*,#207,.T.);
#114=ORIENTED_EDGE('',*,*,#208,.T.);
#115=ORIENTED_EDGE('',*,*,#209,.T.);
#116=ORIENTED_EDGE('',*,*,#210,.T.);
#117=ORIENTED_EDGE('',*,*,#211,.F.);
#118=ORIENTED_EDGE('',*,*,#212,.T.);
#119=ORIENTED_EDGE('',*,*,#213,.F.);
#120=ORIENTED_EDGE('',*,*,#214,.T.);
#121=ORIENTED_EDGE('',*,*,#215,.T.);
#122=ORIENTED_EDGE('',*,*,#190,.T.);
#123=ORIENTED_EDGE('',*,*,#205,.F.);
#124=ORIENTED_EDGE('',*,*,#216,.T.);
#125=ORIENTED_EDGE('',*,*,#217,.T.);
#126=ORIENTED_EDGE('',*,*,#212,.F.);
#127=ORIENTED_EDGE('',*,*,#218,.F.);
#128=ORIENTED_EDGE('',*,*,#219,.T.);
#129=ORIENTED_EDGE('',*,*,#220,.T.);
#130=ORIENTED_EDGE('',*,*,#221,.T.);
#131=ORIENTED_EDGE('',*,*,#222,.F.);
#132=ORIENTED_EDGE('',*,*,#197,.F.);
#133=ORIENTED_EDGE('',*,*,#222,.T.);
#134=ORIENTED_EDGE('',*,*,#223,.T.);
#135=ORIENTED_EDGE('',*,*,#207,.F.);
#136=ORIENTED_EDGE('',*,*,#224,.T.);
#137=ORIENTED_EDGE('',*,*,#225,.F.);
#138=ORIENTED_EDGE('',*,*,#198,.F.);
#139=ORIENTED_EDGE('',*,*,#226,.F.);
#140=ORIENTED_EDGE('',*,*,#227,.T.);
#141=ORIENTED_EDGE('',*,*,#228,.T.);
#142=ORIENTED_EDGE('',*,*,#199,.T.);
#143=ORIENTED_EDGE('',*,*,#225,.T.);
#144=ORIENTED_EDGE('',*,*,#193,.T.);
#145=ORIENTED_EDGE('',*,*,#211,.T.);
#146=ORIENTED_EDGE('',*,*,#229,.T.);
#147=ORIENTED_EDGE('',*,*,#226,.T.);
#148=ORIENTED_EDGE('',*,*,#224,.F.);
#149=ORIENTED_EDGE('',*,*,#206,.F.);
#150=ORIENTED_EDGE('',*,*,#218,.T.);
#151=ORIENTED_EDGE('',*,*,#191,.T.);
#152=ORIENTED_EDGE('',*,*,#221,.F.);
#153=ORIENTED_EDGE('',*,*,#230,.T.);
#154=ORIENTED_EDGE('',*,*,#213,.T.);
#155=ORIENTED_EDGE('',*,*,#189,.T.);
#156=ORIENTED_EDGE('',*,*,#208,.F.);
#157=ORIENTED_EDGE('',*,*,#223,.F.);
#158=ORIENTED_EDGE('',*,*,#230,.F.);
#159=ORIENTED_EDGE('',*,*,#220,.F.);
#160=ORIENTED_EDGE('',*,*,#231,.F.);
#161=ORIENTED_EDGE('',*,*,#214,.F.);
#162=ORIENTED_EDGE('',*,*,#196,.F.);
#163=ORIENTED_EDGE('',*,*,#202,.F.);
#164=ORIENTED_EDGE('',*,*,#232,.F.);
#165=ORIENTED_EDGE('',*,*,#186,.F.);
#166=ORIENTED_EDGE('',*,*,#215,.F.);
#167=ORIENTED_EDGE('',*,*,#231,.T.);
#168=ORIENTED_EDGE('',*,*,#219,.F.);
#169=ORIENTED_EDGE('',*,*,#232,.T.);
#170=ORIENTED_EDGE('',*,*,#201,.F.);
#171=ORIENTED_EDGE('',*,*,#233,.F.);
#172=ORIENTED_EDGE('',*,*,#216,.F.);
#173=ORIENTED_EDGE('',*,*,#204,.F.);
#174=ORIENTED_EDGE('',*,*,#187,.F.);
#175=ORIENTED_EDGE('',*,*,#200,.F.);
#176=ORIENTED_EDGE('',*,*,#228,.F.);
#177=ORIENTED_EDGE('',*,*,#234,.F.);
#178=ORIENTED_EDGE('',*,*,#209,.F.);
#179=ORIENTED_EDGE('',*,*,#217,.F.);
#180=ORIENTED_EDGE('',*,*,#233,.T.);
#181=ORIENTED_EDGE('',*,*,#203,.F.);
#182=ORIENTED_EDGE('',*,*,#234,.T.);
#183=ORIENTED_EDGE('',*,*,#227,.F.);
#184=ORIENTED_EDGE('',*,*,#229,.F.);
#185=ORIENTED_EDGE('',*,*,#210,.F.);
#186=EDGE_CURVE('',#235,#236,#269,.T.);
#187=EDGE_CURVE('',#236,#237,#30,.T.);
#188=EDGE_CURVE('',#238,#237,#21,.T.);
#189=EDGE_CURVE('',#239,#238,#31,.T.);
#190=EDGE_CURVE('',#235,#239,#32,.F.);
#191=EDGE_CURVE('',#240,#240,#22,.T.);
#192=EDGE_CURVE('',#241,#241,#23,.T.);
#193=EDGE_CURVE('',#242,#242,#24,.T.);
#194=EDGE_CURVE('',#243,#243,#25,.T.);
#195=EDGE_CURVE('',#244,#245,#33,.T.);
#196=EDGE_CURVE('',#244,#246,#270,.T.);
#197=EDGE_CURVE('',#246,#247,#34,.T.);
#198=EDGE_CURVE('',#247,#248,#35,.T.);
#199=EDGE_CURVE('',#249,#248,#36,.T.);
#200=EDGE_CURVE('',#249,#245,#271,.T.);
#201=EDGE_CURVE('',#250,#251,#37,.T.);
#202=EDGE_CURVE('',#251,#244,#38,.F.);
#203=EDGE_CURVE('',#245,#250,#39,.F.);
#204=EDGE_CURVE('',#237,#252,#12,.T.);
#205=EDGE_CURVE('',#252,#253,#26,.T.);
#206=EDGE_CURVE('',#253,#254,#40,.T.);
#207=EDGE_CURVE('',#254,#255,#27,.T.);
#208=EDGE_CURVE('',#255,#238,#41,.F.);
#209=EDGE_CURVE('',#256,#257,#42,.F.);
#210=EDGE_CURVE('',#257,#258,#43,.T.);
#211=EDGE_CURVE('',#259,#258,#44,.T.);
#212=EDGE_CURVE('',#259,#256,#45,.T.);
#213=EDGE_CURVE('',#260,#239,#46,.F.);
#214=EDGE_CURVE('',#260,#261,#47,.F.);
#215=EDGE_CURVE('',#261,#235,#48,.T.);
#216=EDGE_CURVE('',#252,#262,#49,.T.);
#217=EDGE_CURVE('',#262,#256,#272,.T.);
#218=EDGE_CURVE('',#253,#259,#50,.T.);
#219=EDGE_CURVE('',#246,#263,#273,.F.);
#220=EDGE_CURVE('',#263,#264,#51,.F.);
#221=EDGE_CURVE('',#264,#265,#52,.T.);
#222=EDGE_CURVE('',#247,#265,#53,.T.);
#223=EDGE_CURVE('',#265,#255,#54,.T.);
#224=EDGE_CURVE('',#254,#266,#55,.T.);
#225=EDGE_CURVE('',#248,#266,#56,.T.);
#226=EDGE_CURVE('',#267,#266,#57,.T.);
#227=EDGE_CURVE('',#267,#268,#58,.F.);
#228=EDGE_CURVE('',#268,#249,#274,.T.);
#229=EDGE_CURVE('',#258,#267,#28,.F.);
#230=EDGE_CURVE('',#264,#260,#29,.F.);
#231=EDGE_CURVE('',#261,#263,#275,.F.);
#232=EDGE_CURVE('',#236,#251,#276,.F.);
#233=EDGE_CURVE('',#262,#250,#277,.F.);
#234=EDGE_CURVE('',#257,#268,#278,.F.);
#235=VERTEX_POINT('',#520);
#236=VERTEX_POINT('',#521);
#237=VERTEX_POINT('',#523);
#238=VERTEX_POINT('',#525);
#239=VERTEX_POINT('',#527);
#240=VERTEX_POINT('',#531);
#241=VERTEX_POINT('',#533);
#242=VERTEX_POINT('',#536);
#243=VERTEX_POINT('',#538);
#244=VERTEX_POINT('',#541);
#245=VERTEX_POINT('',#542);
#246=VERTEX_POINT('',#544);
#247=VERTEX_POINT('',#546);
#248=VERTEX_POINT('',#548);
#249=VERTEX_POINT('',#550);
#250=VERTEX_POINT('',#554);
#251=VERTEX_POINT('',#555);
#252=VERTEX_POINT('',#570);
#253=VERTEX_POINT('',#572);
#254=VERTEX_POINT('',#574);
#255=VERTEX_POINT('',#576);
#256=VERTEX_POINT('',#580);
#257=VERTEX_POINT('',#581);
#258=VERTEX_POINT('',#583);
#259=VERTEX_POINT('',#585);
#260=VERTEX_POINT('',#589);
#261=VERTEX_POINT('',#591);
#262=VERTEX_POINT('',#595);
#263=VERTEX_POINT('',#600);
#264=VERTEX_POINT('',#602);
#265=VERTEX_POINT('',#604);
#266=VERTEX_POINT('',#609);
#267=VERTEX_POINT('',#613);
#268=VERTEX_POINT('',#615);
#269=ELLIPSE('',#373,0.00508001852903031,0.0034798);
#270=ELLIPSE('',#382,0.0634565252366094,0.0034798);
#271=ELLIPSE('',#383,0.0638646229062973,0.0034798);
#272=ELLIPSE('',#391,0.00511268882914427,0.0034798);
#273=ELLIPSE('',#393,0.0047899547707943,0.0034798);
#274=ELLIPSE('',#396,0.00476288662275252,0.0034798);
#275=ELLIPSE('',#402,0.00506192901428708,0.0034798);
#276=ELLIPSE('',#404,0.00374531777970603,0.0034798);
#277=ELLIPSE('',#406,0.00374084754262991,0.0034798);
#278=ELLIPSE('',#408,0.00506099093269665,0.0034798);
#279=EDGE_LOOP('',(#88,#89,#90,#91,#92));
#280=EDGE_LOOP('',(#93));
#281=EDGE_LOOP('',(#94));
#282=EDGE_LOOP('',(#95));
#283=EDGE_LOOP('',(#96));
#284=EDGE_LOOP('',(#97));
#285=EDGE_LOOP('',(#98));
#286=EDGE_LOOP('',(#99,#100,#101,#102,#103,#104));
#287=EDGE_LOOP('',(#105,#106,#107,#108));
#288=EDGE_LOOP('',(#109,#110,#111,#112,#113,#114));
#289=EDGE_LOOP('',(#115,#116,#117,#118));
#290=EDGE_LOOP('',(#119,#120,#121,#122));
#291=EDGE_LOOP('',(#123,#124,#125,#126,#127));
#292=EDGE_LOOP('',(#128,#129,#130,#131,#132));
#293=EDGE_LOOP('',(#133,#134,#135,#136,#137,#138));
#294=EDGE_LOOP('',(#139,#140,#141,#142,#143));
#295=EDGE_LOOP('',(#144));
#296=EDGE_LOOP('',(#145,#146,#147,#148,#149,#150));
#297=EDGE_LOOP('',(#151));
#298=EDGE_LOOP('',(#152,#153,#154,#155,#156,#157));
#299=EDGE_LOOP('',(#158,#159,#160,#161));
#300=EDGE_LOOP('',(#162,#163,#164,#165,#166,#167,#168));
#301=EDGE_LOOP('',(#169,#170,#171,#172,#173,#174));
#302=EDGE_LOOP('',(#175,#176,#177,#178,#179,#180,#181));
#303=EDGE_LOOP('',(#182,#183,#184,#185));
#304=FACE_BOUND('',#279,.T.);
#305=FACE_BOUND('',#280,.T.);
#306=FACE_BOUND('',#281,.T.);
#307=FACE_BOUND('',#282,.T.);
#308=FACE_BOUND('',#283,.T.);
#309=FACE_BOUND('',#284,.T.);
#310=FACE_BOUND('',#285,.T.);
#311=FACE_BOUND('',#286,.T.);
#312=FACE_BOUND('',#287,.T.);
#313=FACE_BOUND('',#288,.T.);
#314=FACE_BOUND('',#289,.T.);
#315=FACE_BOUND('',#290,.T.);
#316=FACE_BOUND('',#291,.T.);
#317=FACE_BOUND('',#292,.T.);
#318=FACE_BOUND('',#293,.T.);
#319=FACE_BOUND('',#294,.T.);
#320=FACE_BOUND('',#295,.T.);
#321=FACE_BOUND('',#296,.T.);
#322=FACE_BOUND('',#297,.T.);
#323=FACE_BOUND('',#298,.T.);
#324=FACE_BOUND('',#299,.T.);
#325=FACE_BOUND('',#300,.T.);
#326=FACE_BOUND('',#301,.T.);
#327=FACE_BOUND('',#302,.T.);
#328=FACE_BOUND('',#303,.T.);
#329=PLANE('',#372);
#330=PLANE('',#381);
#331=PLANE('',#384);
#332=PLANE('',#388);
#333=PLANE('',#389);
#334=PLANE('',#390);
#335=PLANE('',#392);
#336=PLANE('',#394);
#337=PLANE('',#395);
#338=PLANE('',#397);
#339=PLANE('',#399);
#340=ADVANCED_FACE('',(#304),#329,.T.);
#341=ADVANCED_FACE('',(#305,#306),#13,.F.);
#342=ADVANCED_FACE('',(#307,#308),#14,.F.);
#343=ADVANCED_FACE('',(#309,#310,#311),#330,.T.);
#344=ADVANCED_FACE('',(#312),#331,.F.);
#345=ADVANCED_FACE('',(#313),#15,.F.);
#346=ADVANCED_FACE('',(#314),#332,.T.);
#347=ADVANCED_FACE('',(#315),#333,.F.);
#348=ADVANCED_FACE('',(#316),#334,.T.);
#349=ADVANCED_FACE('',(#317),#335,.F.);
#350=ADVANCED_FACE('',(#318),#336,.F.);
#351=ADVANCED_FACE('',(#319),#337,.T.);
#352=ADVANCED_FACE('',(#320,#321),#338,.F.);
#353=ADVANCED_FACE('',(#322,#323),#339,.F.);
#354=ADVANCED_FACE('',(#324),#16,.T.);
#355=ADVANCED_FACE('',(#325),#17,.T.);
#356=ADVANCED_FACE('',(#326),#18,.T.);
#357=ADVANCED_FACE('',(#327),#19,.T.);
#358=ADVANCED_FACE('',(#328),#20,.T.);
#359=CLOSED_SHELL('',(#340,#341,#342,#343,#344,#345,#346,#347,#348,#349,
#350,#351,#352,#353,#354,#355,#356,#357,#358));
#360=STYLED_ITEM('',(#361),#368);
#361=PRESENTATION_STYLE_ASSIGNMENT((#362));
#362=SURFACE_STYLE_USAGE(.BOTH.,#363);
#363=SURFACE_SIDE_STYLE('',(#364));
#364=SURFACE_STYLE_FILL_AREA(#365);
#365=FILL_AREA_STYLE('',(#366));
#366=FILL_AREA_STYLE_COLOUR('',#367);
#367=COLOUR_RGB('',0.615686274509804,0.811764705882353,0.929411764705882);
#368=MANIFOLD_SOLID_BREP('Arm Mount FL 1',#359);
#369=SHAPE_DEFINITION_REPRESENTATION(#636,#370);
#370=SHAPE_REPRESENTATION('Arm Mount FL 1',(#371),#631);
#371=AXIS2_PLACEMENT_3D('',#517,#410,#411);
#372=AXIS2_PLACEMENT_3D('',#518,#412,#413);
#373=AXIS2_PLACEMENT_3D('',#519,#414,#415);
#374=AXIS2_PLACEMENT_3D('',#524,#417,#418);
#375=AXIS2_PLACEMENT_3D('',#529,#421,#422);
#376=AXIS2_PLACEMENT_3D('',#530,#423,#424);
#377=AXIS2_PLACEMENT_3D('',#532,#425,#426);
#378=AXIS2_PLACEMENT_3D('',#534,#427,#428);
#379=AXIS2_PLACEMENT_3D('',#535,#429,#430);
#380=AXIS2_PLACEMENT_3D('',#537,#431,#432);
#381=AXIS2_PLACEMENT_3D('',#539,#433,#434);
#382=AXIS2_PLACEMENT_3D('',#543,#436,#437);
#383=AXIS2_PLACEMENT_3D('',#551,#441,#442);
#384=AXIS2_PLACEMENT_3D('',#552,#443,#444);
#385=AXIS2_PLACEMENT_3D('',#558,#448,#449);
#386=AXIS2_PLACEMENT_3D('',#571,#450,#451);
#387=AXIS2_PLACEMENT_3D('',#575,#453,#454);
#388=AXIS2_PLACEMENT_3D('',#578,#456,#457);
#389=AXIS2_PLACEMENT_3D('',#587,#462,#463);
#390=AXIS2_PLACEMENT_3D('',#593,#467,#468);
#391=AXIS2_PLACEMENT_3D('',#596,#470,#471);
#392=AXIS2_PLACEMENT_3D('',#598,#473,#474);
#393=AXIS2_PLACEMENT_3D('',#599,#475,#476);
#394=AXIS2_PLACEMENT_3D('',#606,#480,#481);
#395=AXIS2_PLACEMENT_3D('',#611,#485,#486);
#396=AXIS2_PLACEMENT_3D('',#616,#489,#490);
#397=AXIS2_PLACEMENT_3D('',#617,#491,#492);
#398=AXIS2_PLACEMENT_3D('',#618,#493,#494);
#399=AXIS2_PLACEMENT_3D('',#619,#495,#496);
#400=AXIS2_PLACEMENT_3D('',#620,#497,#498);
#401=AXIS2_PLACEMENT_3D('',#621,#499,#500);
#402=AXIS2_PLACEMENT_3D('',#622,#501,#502);
#403=AXIS2_PLACEMENT_3D('',#623,#503,#504);
#404=AXIS2_PLACEMENT_3D('',#624,#505,#506);
#405=AXIS2_PLACEMENT_3D('',#625,#507,#508);
#406=AXIS2_PLACEMENT_3D('',#626,#509,#510);
#407=AXIS2_PLACEMENT_3D('',#627,#511,#512);
#408=AXIS2_PLACEMENT_3D('',#628,#513,#514);
#409=AXIS2_PLACEMENT_3D('',#629,#515,#516);
#410=DIRECTION('',(0.,0.,1.));
#411=DIRECTION('',(1.,0.,0.));
#412=DIRECTION('',(-0.707106781189373,0.707106781183722,0.));
#413=DIRECTION('',(-0.707106781183722,-0.707106781189373,0.));
#414=DIRECTION('',(-0.707106781189373,0.707106781183722,0.));
#415=DIRECTION('',(-0.705100858539179,-0.705100858544815,0.0752699047872223));
#416=DIRECTION('',(0.707106781183722,0.707106781189373,6.98322220106022E-18));
#417=DIRECTION('',(-0.707106781189373,0.707106781183722,0.));
#418=DIRECTION('',(-0.707106781183722,-0.707106781189373,0.));
#419=DIRECTION('',(0.707106781183722,0.707106781189373,0.));
#420=DIRECTION('',(0.,0.,1.));
#421=DIRECTION('',(0.,0.,-1.));
#422=DIRECTION('',(-1.,0.,0.));
#423=DIRECTION('',(0.,0.,1.));
#424=DIRECTION('',(1.,0.,0.));
#425=DIRECTION('',(0.,0.,1.));
#426=DIRECTION('',(1.,0.,0.));
#427=DIRECTION('',(0.,0.,-1.));
#428=DIRECTION('',(-1.,0.,0.));
#429=DIRECTION('',(0.,0.,1.));
#430=DIRECTION('',(1.,0.,0.));
#431=DIRECTION('',(0.,0.,1.));
#432=DIRECTION('',(1.,0.,0.));
#433=DIRECTION('',(0.,0.,1.));
#434=DIRECTION('',(1.,0.,0.));
#435=DIRECTION('',(0.707106781183722,0.707106781189373,0.));
#436=DIRECTION('',(0.,0.,1.));
#437=DIRECTION('',(-0.0293758218716044,-0.999568437421554,0.));
#438=DIRECTION('',(0.707106781189373,-0.707106781183722,0.));
#439=DIRECTION('',(0.707106781183722,0.707106781189373,0.));
#440=DIRECTION('',(0.707106781189374,-0.707106781183721,0.));
#441=DIRECTION('',(0.,0.,1.));
#442=DIRECTION('',(-0.99937326804028,-0.0353987447021912,0.));
#443=DIRECTION('',(0.0564269783258204,-0.0564269783253694,-0.996810910972631));
#444=DIRECTION('',(-0.998401635542598,0.,-0.0565170252743879));
#445=DIRECTION('',(-0.707106781183722,-0.707106781189373,-1.37893438261193E-17));
#446=DIRECTION('',(0.0293316197728918,0.998064376601265,-0.0548375440827389));
#447=DIRECTION('',(0.997888672013555,0.0353461589092582,0.0544871298325145));
#448=DIRECTION('',(0.707106781189373,-0.707106781183722,0.));
#449=DIRECTION('',(0.707106781183722,0.707106781189373,0.));
#450=DIRECTION('',(-0.707106781189373,0.707106781183722,0.));
#451=DIRECTION('',(-0.707106781183722,-0.707106781189373,0.));
#452=DIRECTION('',(0.707106781189373,-0.707106781183722,0.));
#453=DIRECTION('',(0.707106781189373,-0.707106781183722,0.));
#454=DIRECTION('',(0.707106781183722,0.707106781189373,0.));
#455=DIRECTION('',(0.707106781189373,-0.707106781183722,0.));
#456=DIRECTION('',(-0.0353987447021912,0.99937326804028,0.));
#457=DIRECTION('',(-0.99937326804028,-0.0353987447021912,0.));
#458=DIRECTION('',(-0.997888672013555,-0.0353461589092582,-0.0544871298325145));
#459=DIRECTION('',(0.,0.,-1.));
#460=DIRECTION('',(0.99937326804028,0.0353987447021912,0.));
#461=DIRECTION('',(0.,0.,1.));
#462=DIRECTION('',(0.999568437421554,-0.0293758218716044,0.));
#463=DIRECTION('',(0.0293758218716044,0.999568437421554,0.));
#464=DIRECTION('',(-0.0293758218716044,-0.999568437421554,0.));
#465=DIRECTION('',(0.,0.,-1.));
#466=DIRECTION('',(0.0293316197728918,0.998064376601265,-0.0548375440827389));
#467=DIRECTION('',(-0.707106781189373,0.707106781183722,0.));
#468=DIRECTION('',(-0.707106781183722,-0.707106781189373,0.));
#469=DIRECTION('',(0.707106781183722,0.707106781189373,6.98322220106022E-18));
#470=DIRECTION('',(-0.707106781189373,0.707106781183722,0.));
#471=DIRECTION('',(-0.705148532792735,-0.705148532798371,-0.0743713210354437));
#472=DIRECTION('',(0.707106781183722,0.707106781189373,0.));
#473=DIRECTION('',(0.707106781183722,0.707106781189373,0.));
#474=DIRECTION('',(-0.707106781189373,0.707106781183722,0.));
#475=DIRECTION('',(0.707106781183722,0.707106781189373,0.));
#476=DIRECTION('',(0.704851754712304,-0.704851754706671,0.0797997980317889));
#477=DIRECTION('',(0.,0.,1.));
#478=DIRECTION('',(0.707106781189373,-0.707106781183722,0.));
#479=DIRECTION('',(0.,0.,-1.));
#480=DIRECTION('',(-0.707106781189373,0.707106781183722,0.));
#481=DIRECTION('',(-0.707106781183722,-0.707106781189373,0.));
#482=DIRECTION('',(0.707106781183722,0.707106781189373,0.));
#483=DIRECTION('',(0.707106781183722,0.707106781189373,0.));
#484=DIRECTION('',(0.,0.,-1.));
#485=DIRECTION('',(0.707106781183721,0.707106781189374,0.));
#486=DIRECTION('',(-0.707106781189374,0.707106781183721,0.));
#487=DIRECTION('',(0.707106781189374,-0.707106781183721,0.));
#488=DIRECTION('',(0.,0.,-1.));
#489=DIRECTION('',(0.707106781183721,0.707106781189374,0.));
#490=DIRECTION('',(-0.704851754712304,0.70485175470667,-0.0797997980317889));
#491=DIRECTION('',(0.,0.,1.));
#492=DIRECTION('',(1.,0.,0.));
#493=DIRECTION('',(0.,0.,1.));
#494=DIRECTION('',(1.,0.,0.));
#495=DIRECTION('',(0.,0.,1.));
#496=DIRECTION('',(1.,0.,0.));
#497=DIRECTION('',(0.,0.,1.));
#498=DIRECTION('',(1.,0.,0.));
#499=DIRECTION('',(0.,0.,-1.));
#500=DIRECTION('',(-1.,0.,0.));
#501=DIRECTION('',(-0.0213337802696186,-0.725922614237067,-0.687445436350137));
#502=DIRECTION('',(-0.0201942746846689,-0.687148760625085,0.726236030530963));
#503=DIRECTION('',(-0.0293316197728918,-0.998064376601265,0.0548375440827389));
#504=DIRECTION('',(0.,-0.0548611488887984,-0.998493993142974));
#505=DIRECTION('',(-0.39631528202211,-0.917640073382836,0.0295108955756789));
#506=DIRECTION('',(0.916378848158747,-0.393386186639811,0.0741425303603518));
#507=DIRECTION('',(0.707106781183722,0.707106781189373,6.98322220106022E-18));
#508=DIRECTION('',(-0.707106781189373,0.707106781183722,0.));
#509=DIRECTION('',(-0.916450378080379,-0.399075127376044,-0.0292873219350133));
#510=DIRECTION('',(-0.396149846186198,0.915180331315562,-0.0742311291830402));
#511=DIRECTION('',(-0.997888672013555,-0.0353461589092582,-0.0544871298325145));
#512=DIRECTION('',(-0.0545211985323617,0.,0.998512613295693));
#513=DIRECTION('',(-0.725660313940643,-0.0257035734446535,0.68757285801851));
#514=DIRECTION('',(-0.687141934133754,-0.0243392160651532,-0.726115393664297));
#515=DIRECTION('',(0.,0.,-1.));
#516=DIRECTION('',(-1.,0.,0.));
#517=CARTESIAN_POINT('',(0.,0.,0.));
#518=CARTESIAN_POINT('',(-0.0930771706070491,0.0930771706063051,0.0214616004377604));
#519=CARTESIAN_POINT('',(-0.0953276266282016,0.0908267145851346,0.0262256675419671));
#520=CARTESIAN_POINT('',(-0.0989143370857207,0.0872400041275869,0.0264283518579052));
#521=CARTESIAN_POINT('',(-0.0989134854823458,0.0872408557309617,0.0265042432819939));
#522=CARTESIAN_POINT('',(-0.0930771706070491,0.0930771706063051,0.0265042432819939));
#523=CARTESIAN_POINT('',(-0.0974479792143337,0.0887063619989856,0.0265042432819939));
#524=CARTESIAN_POINT('',(-0.0929614452791842,0.093192895934171,0.02155));
#525=CARTESIAN_POINT('',(-0.0986404502976484,0.0875138909156613,0.021002));
#526=CARTESIAN_POINT('',(-0.0930771706070491,0.0930771706063051,0.021002));
#527=CARTESIAN_POINT('',(-0.0989143370857207,0.0872400041275869,0.021002));
#528=CARTESIAN_POINT('',(-0.0989143370857207,0.0872400041275869,0.0214616004377604));
#529=CARTESIAN_POINT('',(-0.0876275974071732,0.0519991176039638,0.01135));
#530=CARTESIAN_POINT('',(-0.0876275974071732,0.0519991176039638,0.021002));
#531=CARTESIAN_POINT('',(-0.0852025974071732,0.0519991176039638,0.021002));
#532=CARTESIAN_POINT('',(-0.0876275974071732,0.0519991176039638,0.03175));
#533=CARTESIAN_POINT('',(-0.0852025974071732,0.0519991176039638,0.03175));
#534=CARTESIAN_POINT('',(-0.0517676669489344,0.0878590480624892,0.01135));
#535=CARTESIAN_POINT('',(-0.0517676669489344,0.0878590480624892,0.021002));
#536=CARTESIAN_POINT('',(-0.0493426669489344,0.0878590480624892,0.021002));
#537=CARTESIAN_POINT('',(-0.0517676669489344,0.0878590480624892,0.03175));
#538=CARTESIAN_POINT('',(-0.0493426669489344,0.0878590480624892,0.03175));
#539=CARTESIAN_POINT('',(7.9804436188255E-5,0.00023140064903196,0.03175));
#540=CARTESIAN_POINT('',(-0.0750009330369741,0.0752323836921044,0.03175));
#541=CARTESIAN_POINT('',(-0.0966235008022157,0.0536098159266899,0.03175));
#542=CARTESIAN_POINT('',(-0.0533989709017766,0.0968343458274745,0.03175));
#543=CARTESIAN_POINT('',(-0.0982824930772458,-0.00971825917491856,0.03175));
#544=CARTESIAN_POINT('',(-0.0980002849415326,0.0482296695145659,0.03175));
#545=CARTESIAN_POINT('',(-0.0929308982660369,0.0431602828391107,0.03175));
#546=CARTESIAN_POINT('',(-0.0858598304541432,0.0360892150272735,0.03175));
#547=CARTESIAN_POINT('',(-0.0608587974131866,0.0610902480684299,0.03175));
#548=CARTESIAN_POINT('',(-0.0358577643722299,0.0860912811095864,0.03175));
#549=CARTESIAN_POINT('',(-0.0429288321841237,0.0931623489214236,0.03175));
#550=CARTESIAN_POINT('',(-0.0480078067135669,0.0982413234508262,0.03175));
#551=CARTESIAN_POINT('',(0.0103239274839692,0.0988881613871645,0.03175));
#552=CARTESIAN_POINT('',(-0.00226418659228833,0.00226418659227024,0.0399979932761734));
#553=CARTESIAN_POINT('',(-0.0908129350290444,0.0908129350283186,0.0299729458899965));
#554=CARTESIAN_POINT('',(-0.0859443109000203,0.0956815591573818,0.0299729458899965));
#555=CARTESIAN_POINT('',(-0.0956729863993126,0.0859528836580117,0.0299729458899965));
#556=CARTESIAN_POINT('',(-0.0980587213528495,0.0047736958881534,0.0344332466404249));
#557=CARTESIAN_POINT('',(-0.0053670569786569,0.0985356815674791,0.0343726584221588));
#558=CARTESIAN_POINT('',(-0.11671599048646,0.116947441141257,0.02155));
#559=CARTESIAN_POINT('',(-0.0974479792143337,0.0887063619989856,0.0265042432819939));
#560=CARTESIAN_POINT('',(-0.0971693865222425,0.0889849546910791,0.0270088271290185));
#561=CARTESIAN_POINT('',(-0.0963874103227911,0.0894641160406301,0.0279011277325818));
#562=CARTESIAN_POINT('',(-0.0948655331904858,0.0900984772901247,0.0288526242215801));
#563=CARTESIAN_POINT('',(-0.0931796985515313,0.0907524638209601,0.0294469506820094));
#564=CARTESIAN_POINT('',(-0.0915153459958358,0.0917398483676223,0.0296764011929157));
#565=CARTESIAN_POINT('',(-0.0905215263004151,0.0934086322562335,0.0294474396287773));
#566=CARTESIAN_POINT('',(-0.0898711945315475,0.0950868160855989,0.0288573709591768));
#567=CARTESIAN_POINT('',(-0.0892332494200051,0.096618169029138,0.0279027667086594));
#568=CARTESIAN_POINT('',(-0.0887536469895247,0.0974006942238641,0.0270090860445534));
#569=CARTESIAN_POINT('',(-0.0884749113440347,0.0976794298693563,0.0265042432819939));
#570=CARTESIAN_POINT('',(-0.0884749113440347,0.0976794298693563,0.0265042432819939));
#571=CARTESIAN_POINT('',(-0.0929614452791842,0.093192895934171,0.02155));
#572=CARTESIAN_POINT('',(-0.0872824402607199,0.0988719009526806,0.021002));
#573=CARTESIAN_POINT('',(-0.111036985467996,0.122626446159766,0.021002));
#574=CARTESIAN_POINT('',(-0.0551797923947223,0.0667692530869396,0.021002));
#575=CARTESIAN_POINT('',(-0.0608587974131866,0.0610902480684299,0.02155));
#576=CARTESIAN_POINT('',(-0.0665378024316508,0.0554112430499203,0.021002));
#577=CARTESIAN_POINT('',(-0.122394995504924,0.111268436122747,0.021002));
#578=CARTESIAN_POINT('',(-0.00360856682964491,0.101876641553924,0.));
#579=CARTESIAN_POINT('',(-0.0052938829312934,0.101816946066429,0.0309039558141562));
#580=CARTESIAN_POINT('',(-0.0872400041283775,0.0989143370850234,0.0264294998250658));
#581=CARTESIAN_POINT('',(-0.0515130447869284,0.100179819716146,0.0283802780298434));
#582=CARTESIAN_POINT('',(-0.0515130447869284,0.100179819716146,0.));
#583=CARTESIAN_POINT('',(-0.0515130447869284,0.100179819716146,0.021002));
#584=CARTESIAN_POINT('',(-0.00360856682964491,0.101876641553924,0.021002));
#585=CARTESIAN_POINT('',(-0.0872400041283775,0.0989143370850234,0.021002));
#586=CARTESIAN_POINT('',(-0.0872400041283775,0.0989143370850234,0.0214616004377604));
#587=CARTESIAN_POINT('',(-0.101390620891134,0.00297971875385778,0.));
#588=CARTESIAN_POINT('',(-0.101390620891134,0.00297971875385778,0.021002));
#589=CARTESIAN_POINT('',(-0.0999578541621166,0.0517323428258975,0.021002));
#590=CARTESIAN_POINT('',(-0.0999578541621166,0.0517323428258975,0.03175));
#591=CARTESIAN_POINT('',(-0.0999578541621166,0.0517323428258975,0.0283792810640323));
#592=CARTESIAN_POINT('',(-0.101340665002211,0.00467956327392559,0.0309645440324224));
#593=CARTESIAN_POINT('',(-0.0930771706070491,0.0930771706063051,0.0214616004377604));
#594=CARTESIAN_POINT('',(-0.0930771706070491,0.0930771706063051,0.0265042432819939));
#595=CARTESIAN_POINT('',(-0.0872408355104115,0.0989135057029894,0.0265042432819939));
#596=CARTESIAN_POINT('',(-0.0908498505669754,0.0953044906463966,0.0262256675419671));
#597=CARTESIAN_POINT('',(-0.0930771706070491,0.0930771706063051,0.021002));
#598=CARTESIAN_POINT('',(-0.0929308982660369,0.0431602828391107,0.03175));
#599=CARTESIAN_POINT('',(-0.0966200530456433,0.0468494376186876,0.02864195041993));
#600=CARTESIAN_POINT('',(-0.0989401460907401,0.0491695306637659,0.0310539540590585));
#601=CARTESIAN_POINT('',(-0.0989401460907402,0.0491695306637659,0.021002));
#602=CARTESIAN_POINT('',(-0.0989401460907402,0.0491695306637659,0.021002));
#603=CARTESIAN_POINT('',(-0.0929308982660369,0.0431602828391107,0.021002));
#604=CARTESIAN_POINT('',(-0.0858598304541432,0.0360892150272735,0.021002));
#605=CARTESIAN_POINT('',(-0.0858598304541432,0.0360892150272735,0.03175));
#606=CARTESIAN_POINT('',(-0.0608587974131866,0.0610902480684299,0.03175));
#607=CARTESIAN_POINT('',(-0.0608587974131866,0.0610902480684299,0.021002));
#608=CARTESIAN_POINT('',(-0.0608587974131866,0.0610902480684299,0.021002));
#609=CARTESIAN_POINT('',(-0.0358577643722299,0.0860912811095864,0.021002));
#610=CARTESIAN_POINT('',(-0.0358577643722299,0.0860912811095864,0.03175));
#611=CARTESIAN_POINT('',(-0.0429288321841237,0.0931623489214236,0.03175));
#612=CARTESIAN_POINT('',(-0.0429288321841237,0.0931623489214236,0.021002));
#613=CARTESIAN_POINT('',(-0.0489292740579506,0.0991627907952026,0.021002));
#614=CARTESIAN_POINT('',(-0.0489292740579506,0.0991627907952026,0.03175));
#615=CARTESIAN_POINT('',(-0.0489292740579506,0.0991627907952026,0.0310691546764636));
#616=CARTESIAN_POINT('',(-0.0466370336281841,0.0968705503654544,0.0286397940516349));
#617=CARTESIAN_POINT('',(0.000680295059272966,0.000231400649031973,0.021002));
#618=CARTESIAN_POINT('',(-0.0513898642351137,0.0967022006180198,0.021002));
#619=CARTESIAN_POINT('',(0.000680295059272966,0.000231400649031973,0.021002));
#620=CARTESIAN_POINT('',(-0.096479555913577,0.0516301208409487,0.021002));
#621=CARTESIAN_POINT('',(-0.096479555913577,0.0516301208409487,0.03175));
#622=CARTESIAN_POINT('',(-0.096479555913577,0.0516301208409487,0.0283792810640323));
#623=CARTESIAN_POINT('',(-0.0978623667536713,0.00457734128897678,0.0309645440324224));
#624=CARTESIAN_POINT('',(-0.0954766318001344,0.0857565290588351,0.0265042432819939));
#625=CARTESIAN_POINT('',(-0.0906165804298663,0.090616580429142,0.0265042432819939));
#626=CARTESIAN_POINT('',(-0.0857479563008421,0.0954852045582051,0.0265042432819939));
#627=CARTESIAN_POINT('',(-0.00517070237947871,0.0983393269683025,0.0309039558141562));
#628=CARTESIAN_POINT('',(-0.0513898642351137,0.0967022006180198,0.0283802780298434));
#629=CARTESIAN_POINT('',(-0.0513898642351137,0.0967022006180198,0.));
#630=MECHANICAL_DESIGN_GEOMETRIC_PRESENTATION_REPRESENTATION('',(#360),
#631);
#631=(
GEOMETRIC_REPRESENTATION_CONTEXT(3)
GLOBAL_UNCERTAINTY_ASSIGNED_CONTEXT((#632))
GLOBAL_UNIT_ASSIGNED_CONTEXT((#635,#634,#633))
REPRESENTATION_CONTEXT('Arm Mount FL 1','TOP_LEVEL_ASSEMBLY_PART')
);
#632=UNCERTAINTY_MEASURE_WITH_UNIT(LENGTH_MEASURE(2.E-5),#635,
'DISTANCE_ACCURACY_VALUE','Maximum Tolerance applied to model');
#633=(
NAMED_UNIT(*)
SI_UNIT($,.STERADIAN.)
SOLID_ANGLE_UNIT()
);
#634=(
NAMED_UNIT(*)
PLANE_ANGLE_UNIT()
SI_UNIT($,.RADIAN.)
);
#635=(
LENGTH_UNIT()
NAMED_UNIT(*)
SI_UNIT($,.METRE.)
);
#636=PRODUCT_DEFINITION_SHAPE('','',#637);
#637=PRODUCT_DEFINITION('','',#639,#638);
#638=PRODUCT_DEFINITION_CONTEXT('',#645,'design');
#639=PRODUCT_DEFINITION_FORMATION_WITH_SPECIFIED_SOURCE('','',#641,
 .NOT_KNOWN.);
#640=PRODUCT_RELATED_PRODUCT_CATEGORY('','',(#641));
#641=PRODUCT('Arm Mount FL 1','Arm Mount FL 1','Arm Mount FL 1',(#643));
#642=PRODUCT_CATEGORY('','');
#643=PRODUCT_CONTEXT('',#645,'mechanical');
#644=APPLICATION_PROTOCOL_DEFINITION('international standard',
'ap242_managed_model_based_3d_engineering',2020,#645);
#645=APPLICATION_CONTEXT('managed model based 3d engineering');
ENDSEC;
END-ISO-10303-21;
