ISO-10303-21;
HEADER;
/* Generated by software containing ST-Developer
 * from STEP Tools, Inc. (www.steptools.com) 
 */
/* OPTION: using custom renumber hook */

FILE_DESCRIPTION(
/* description */ ('STEP AP242 Edition 2',
'CAx-IF Rec.Pracs.---Representation and Presentation of Product Manufa
cturing Information (PMI)---4.0---2014-10-13',
'CAx-IF Rec.Pracs.---3D Tessellated Geometry---0.4---2014-09-14','2;1',
'CAx-IF Rec.Pracs.---User Defined Attributes---1.5---2016-08-15'),
/* implementation_level */ '2;1');

FILE_NAME(
/* name */ 'Part Studio 1 - Arm Mount FR 1',
/* time_stamp */ '2026-06-27T17:58:39Z',
/* author */ (''),
/* organization */ (''),
/* preprocessor_version */ 'ST-DEVELOPER v20',
/* originating_system */ 'ONSHAPE BY PTC INC, 1.217',
/* authorisation */ '  ');

FILE_SCHEMA (('AP242_MANAGED_MODEL_BASED_3D_ENGINEERING_MIM_LF { 1 0 10303 442 3 1 4 }'));
ENDSEC;

DATA;
#10=SHAPE_REPRESENTATION_RELATIONSHIP('','',#370,#11);
#11=ADVANCED_BREP_SHAPE_REPRESENTATION('',(#368),#627);
#12=B_SPLINE_CURVE_WITH_KNOTS('',3,(#562,#563,#564,#565,#566,#567,#568),
 .UNSPECIFIED.,.F.,.F.,(4,1,1,1,4),(0.,0.00268324866559526,0.00536649733119052,
0.00804974599678578,0.010732994662381),.UNSPECIFIED.);
#13=CYLINDRICAL_SURFACE('',#375,0.002425);
#14=CYLINDRICAL_SURFACE('',#378,0.002425);
#15=CYLINDRICAL_SURFACE('',#385,0.007);
#16=CYLINDRICAL_SURFACE('',#401,0.0034798);
#17=CYLINDRICAL_SURFACE('',#403,0.0034798);
#18=CYLINDRICAL_SURFACE('',#405,0.0034798);
#19=CYLINDRICAL_SURFACE('',#407,0.0034798);
#20=CYLINDRICAL_SURFACE('',#409,0.0034798);
#21=ELLIPSE('',#374,0.00509048223403191,0.0034798);
#22=ELLIPSE('',#382,0.0671145680703843,0.0034798);
#23=ELLIPSE('',#383,0.0672482885372659,0.0034798);
#24=ELLIPSE('',#391,0.0051006246171323,0.0034798);
#25=ELLIPSE('',#393,0.00477139817817314,0.0034798);
#26=ELLIPSE('',#396,0.00477979549167594,0.0034798);
#27=ELLIPSE('',#402,0.00505394426952676,0.0034798);
#28=ELLIPSE('',#404,0.00374364406006758,0.0034798);
#29=ELLIPSE('',#406,0.00374225694228892,0.0034798);
#30=ELLIPSE('',#408,0.00505366951712138,0.0034798);
#31=LINE('',#522,#60);
#32=LINE('',#526,#61);
#33=LINE('',#528,#62);
#34=LINE('',#540,#63);
#35=LINE('',#545,#64);
#36=LINE('',#549,#65);
#37=LINE('',#551,#66);
#38=LINE('',#553,#67);
#39=LINE('',#555,#68);
#40=LINE('',#557,#69);
#41=LINE('',#569,#70);
#42=LINE('',#573,#71);
#43=LINE('',#575,#72);
#44=LINE('',#577,#73);
#45=LINE('',#579,#74);
#46=LINE('',#581,#75);
#47=LINE('',#584,#76);
#48=LINE('',#586,#77);
#49=LINE('',#588,#78);
#50=LINE('',#592,#79);
#51=LINE('',#593,#80);
#52=LINE('',#597,#81);
#53=LINE('',#599,#82);
#54=LINE('',#601,#83);
#55=LINE('',#603,#84);
#56=LINE('',#604,#85);
#57=LINE('',#606,#86);
#58=LINE('',#608,#87);
#59=LINE('',#610,#88);
#60=VECTOR('',#416,1.);
#61=VECTOR('',#419,1.);
#62=VECTOR('',#420,1.);
#63=VECTOR('',#435,1.);
#64=VECTOR('',#438,1.);
#65=VECTOR('',#441,1.);
#66=VECTOR('',#442,1.);
#67=VECTOR('',#445,1.);
#68=VECTOR('',#446,1.);
#69=VECTOR('',#447,1.);
#70=VECTOR('',#452,1.);
#71=VECTOR('',#455,1.);
#72=VECTOR('',#458,1.);
#73=VECTOR('',#459,1.);
#74=VECTOR('',#460,1.);
#75=VECTOR('',#463,1.);
#76=VECTOR('',#464,1.);
#77=VECTOR('',#465,1.);
#78=VECTOR('',#466,1.);
#79=VECTOR('',#471,1.);
#80=VECTOR('',#472,1.);
#81=VECTOR('',#477,1.);
#82=VECTOR('',#478,1.);
#83=VECTOR('',#479,1.);
#84=VECTOR('',#482,1.);
#85=VECTOR('',#483,1.);
#86=VECTOR('',#484,1.);
#87=VECTOR('',#487,1.);
#88=VECTOR('',#488,1.);
#89=ORIENTED_EDGE('',*,*,#187,.F.);
#90=ORIENTED_EDGE('',*,*,#188,.T.);
#91=ORIENTED_EDGE('',*,*,#189,.T.);
#92=ORIENTED_EDGE('',*,*,#190,.F.);
#93=ORIENTED_EDGE('',*,*,#191,.F.);
#94=ORIENTED_EDGE('',*,*,#192,.F.);
#95=ORIENTED_EDGE('',*,*,#193,.T.);
#96=ORIENTED_EDGE('',*,*,#194,.F.);
#97=ORIENTED_EDGE('',*,*,#195,.T.);
#98=ORIENTED_EDGE('',*,*,#195,.F.);
#99=ORIENTED_EDGE('',*,*,#193,.F.);
#100=ORIENTED_EDGE('',*,*,#196,.T.);
#101=ORIENTED_EDGE('',*,*,#197,.T.);
#102=ORIENTED_EDGE('',*,*,#198,.T.);
#103=ORIENTED_EDGE('',*,*,#199,.T.);
#104=ORIENTED_EDGE('',*,*,#200,.T.);
#105=ORIENTED_EDGE('',*,*,#201,.T.);
#106=ORIENTED_EDGE('',*,*,#198,.F.);
#107=ORIENTED_EDGE('',*,*,#202,.T.);
#108=ORIENTED_EDGE('',*,*,#203,.T.);
#109=ORIENTED_EDGE('',*,*,#204,.T.);
#110=ORIENTED_EDGE('',*,*,#205,.T.);
#111=ORIENTED_EDGE('',*,*,#206,.T.);
#112=ORIENTED_EDGE('',*,*,#187,.T.);
#113=ORIENTED_EDGE('',*,*,#207,.T.);
#114=ORIENTED_EDGE('',*,*,#208,.T.);
#115=ORIENTED_EDGE('',*,*,#209,.T.);
#116=ORIENTED_EDGE('',*,*,#210,.T.);
#117=ORIENTED_EDGE('',*,*,#211,.T.);
#118=ORIENTED_EDGE('',*,*,#212,.F.);
#119=ORIENTED_EDGE('',*,*,#190,.T.);
#120=ORIENTED_EDGE('',*,*,#213,.F.);
#121=ORIENTED_EDGE('',*,*,#214,.T.);
#122=ORIENTED_EDGE('',*,*,#215,.T.);
#123=ORIENTED_EDGE('',*,*,#216,.T.);
#124=ORIENTED_EDGE('',*,*,#217,.T.);
#125=ORIENTED_EDGE('',*,*,#218,.T.);
#126=ORIENTED_EDGE('',*,*,#205,.F.);
#127=ORIENTED_EDGE('',*,*,#219,.F.);
#128=ORIENTED_EDGE('',*,*,#216,.F.);
#129=ORIENTED_EDGE('',*,*,#220,.T.);
#130=ORIENTED_EDGE('',*,*,#221,.T.);
#131=ORIENTED_EDGE('',*,*,#222,.T.);
#132=ORIENTED_EDGE('',*,*,#223,.F.);
#133=ORIENTED_EDGE('',*,*,#200,.F.);
#134=ORIENTED_EDGE('',*,*,#223,.T.);
#135=ORIENTED_EDGE('',*,*,#224,.T.);
#136=ORIENTED_EDGE('',*,*,#208,.F.);
#137=ORIENTED_EDGE('',*,*,#225,.T.);
#138=ORIENTED_EDGE('',*,*,#226,.F.);
#139=ORIENTED_EDGE('',*,*,#201,.F.);
#140=ORIENTED_EDGE('',*,*,#227,.T.);
#141=ORIENTED_EDGE('',*,*,#228,.T.);
#142=ORIENTED_EDGE('',*,*,#229,.T.);
#143=ORIENTED_EDGE('',*,*,#196,.F.);
#144=ORIENTED_EDGE('',*,*,#226,.T.);
#145=ORIENTED_EDGE('',*,*,#192,.T.);
#146=ORIENTED_EDGE('',*,*,#212,.T.);
#147=ORIENTED_EDGE('',*,*,#230,.T.);
#148=ORIENTED_EDGE('',*,*,#227,.F.);
#149=ORIENTED_EDGE('',*,*,#225,.F.);
#150=ORIENTED_EDGE('',*,*,#207,.F.);
#151=ORIENTED_EDGE('',*,*,#191,.T.);
#152=ORIENTED_EDGE('',*,*,#194,.T.);
#153=ORIENTED_EDGE('',*,*,#222,.F.);
#154=ORIENTED_EDGE('',*,*,#231,.T.);
#155=ORIENTED_EDGE('',*,*,#213,.T.);
#156=ORIENTED_EDGE('',*,*,#219,.T.);
#157=ORIENTED_EDGE('',*,*,#209,.F.);
#158=ORIENTED_EDGE('',*,*,#224,.F.);
#159=ORIENTED_EDGE('',*,*,#230,.F.);
#160=ORIENTED_EDGE('',*,*,#211,.F.);
#161=ORIENTED_EDGE('',*,*,#232,.F.);
#162=ORIENTED_EDGE('',*,*,#228,.F.);
#163=ORIENTED_EDGE('',*,*,#210,.F.);
#164=ORIENTED_EDGE('',*,*,#189,.F.);
#165=ORIENTED_EDGE('',*,*,#233,.F.);
#166=ORIENTED_EDGE('',*,*,#202,.F.);
#167=ORIENTED_EDGE('',*,*,#197,.F.);
#168=ORIENTED_EDGE('',*,*,#229,.F.);
#169=ORIENTED_EDGE('',*,*,#232,.T.);
#170=ORIENTED_EDGE('',*,*,#206,.F.);
#171=ORIENTED_EDGE('',*,*,#218,.F.);
#172=ORIENTED_EDGE('',*,*,#234,.F.);
#173=ORIENTED_EDGE('',*,*,#203,.F.);
#174=ORIENTED_EDGE('',*,*,#233,.T.);
#175=ORIENTED_EDGE('',*,*,#188,.F.);
#176=ORIENTED_EDGE('',*,*,#217,.F.);
#177=ORIENTED_EDGE('',*,*,#215,.F.);
#178=ORIENTED_EDGE('',*,*,#235,.F.);
#179=ORIENTED_EDGE('',*,*,#220,.F.);
#180=ORIENTED_EDGE('',*,*,#199,.F.);
#181=ORIENTED_EDGE('',*,*,#204,.F.);
#182=ORIENTED_EDGE('',*,*,#234,.T.);
#183=ORIENTED_EDGE('',*,*,#235,.T.);
#184=ORIENTED_EDGE('',*,*,#214,.F.);
#185=ORIENTED_EDGE('',*,*,#231,.F.);
#186=ORIENTED_EDGE('',*,*,#221,.F.);
#187=EDGE_CURVE('',#236,#237,#270,.T.);
#188=EDGE_CURVE('',#236,#238,#31,.T.);
#189=EDGE_CURVE('',#238,#239,#21,.T.);
#190=EDGE_CURVE('',#240,#239,#32,.T.);
#191=EDGE_CURVE('',#237,#240,#33,.T.);
#192=EDGE_CURVE('',#241,#241,#271,.T.);
#193=EDGE_CURVE('',#242,#242,#272,.T.);
#194=EDGE_CURVE('',#243,#243,#273,.T.);
#195=EDGE_CURVE('',#244,#244,#274,.T.);
#196=EDGE_CURVE('',#245,#246,#34,.T.);
#197=EDGE_CURVE('',#246,#247,#22,.T.);
#198=EDGE_CURVE('',#247,#248,#35,.T.);
#199=EDGE_CURVE('',#248,#249,#23,.T.);
#200=EDGE_CURVE('',#249,#250,#36,.T.);
#201=EDGE_CURVE('',#250,#245,#37,.T.);
#202=EDGE_CURVE('',#247,#251,#38,.F.);
#203=EDGE_CURVE('',#251,#252,#39,.T.);
#204=EDGE_CURVE('',#252,#248,#40,.F.);
#205=EDGE_CURVE('',#253,#254,#275,.T.);
#206=EDGE_CURVE('',#254,#236,#12,.T.);
#207=EDGE_CURVE('',#237,#255,#41,.T.);
#208=EDGE_CURVE('',#255,#256,#276,.T.);
#209=EDGE_CURVE('',#256,#253,#42,.F.);
#210=EDGE_CURVE('',#239,#257,#43,.F.);
#211=EDGE_CURVE('',#257,#258,#44,.T.);
#212=EDGE_CURVE('',#240,#258,#45,.T.);
#213=EDGE_CURVE('',#259,#260,#46,.F.);
#214=EDGE_CURVE('',#259,#261,#47,.F.);
#215=EDGE_CURVE('',#261,#262,#48,.T.);
#216=EDGE_CURVE('',#262,#260,#49,.F.);
#217=EDGE_CURVE('',#262,#263,#24,.T.);
#218=EDGE_CURVE('',#263,#254,#50,.T.);
#219=EDGE_CURVE('',#260,#253,#51,.T.);
#220=EDGE_CURVE('',#249,#264,#25,.F.);
#221=EDGE_CURVE('',#264,#265,#52,.F.);
#222=EDGE_CURVE('',#265,#266,#53,.T.);
#223=EDGE_CURVE('',#250,#266,#54,.T.);
#224=EDGE_CURVE('',#266,#256,#55,.T.);
#225=EDGE_CURVE('',#255,#267,#56,.T.);
#226=EDGE_CURVE('',#245,#267,#57,.T.);
#227=EDGE_CURVE('',#267,#268,#58,.T.);
#228=EDGE_CURVE('',#268,#269,#59,.F.);
#229=EDGE_CURVE('',#269,#246,#26,.F.);
#230=EDGE_CURVE('',#258,#268,#277,.F.);
#231=EDGE_CURVE('',#265,#259,#278,.F.);
#232=EDGE_CURVE('',#269,#257,#27,.T.);
#233=EDGE_CURVE('',#251,#238,#28,.T.);
#234=EDGE_CURVE('',#252,#263,#29,.T.);
#235=EDGE_CURVE('',#264,#261,#30,.T.);
#236=VERTEX_POINT('',#520);
#237=VERTEX_POINT('',#521);
#238=VERTEX_POINT('',#523);
#239=VERTEX_POINT('',#525);
#240=VERTEX_POINT('',#527);
#241=VERTEX_POINT('',#531);
#242=VERTEX_POINT('',#533);
#243=VERTEX_POINT('',#536);
#244=VERTEX_POINT('',#538);
#245=VERTEX_POINT('',#541);
#246=VERTEX_POINT('',#542);
#247=VERTEX_POINT('',#544);
#248=VERTEX_POINT('',#546);
#249=VERTEX_POINT('',#548);
#250=VERTEX_POINT('',#550);
#251=VERTEX_POINT('',#554);
#252=VERTEX_POINT('',#556);
#253=VERTEX_POINT('',#560);
#254=VERTEX_POINT('',#561);
#255=VERTEX_POINT('',#570);
#256=VERTEX_POINT('',#572);
#257=VERTEX_POINT('',#576);
#258=VERTEX_POINT('',#578);
#259=VERTEX_POINT('',#582);
#260=VERTEX_POINT('',#583);
#261=VERTEX_POINT('',#585);
#262=VERTEX_POINT('',#587);
#263=VERTEX_POINT('',#591);
#264=VERTEX_POINT('',#596);
#265=VERTEX_POINT('',#598);
#266=VERTEX_POINT('',#600);
#267=VERTEX_POINT('',#605);
#268=VERTEX_POINT('',#609);
#269=VERTEX_POINT('',#611);
#270=CIRCLE('',#373,0.007);
#271=CIRCLE('',#376,0.002425);
#272=CIRCLE('',#377,0.002425);
#273=CIRCLE('',#379,0.002425);
#274=CIRCLE('',#380,0.002425);
#275=CIRCLE('',#386,0.007);
#276=CIRCLE('',#387,0.007);
#277=CIRCLE('',#398,0.0034798);
#278=CIRCLE('',#400,0.0034798);
#279=EDGE_LOOP('',(#89,#90,#91,#92,#93));
#280=EDGE_LOOP('',(#94));
#281=EDGE_LOOP('',(#95));
#282=EDGE_LOOP('',(#96));
#283=EDGE_LOOP('',(#97));
#284=EDGE_LOOP('',(#98));
#285=EDGE_LOOP('',(#99));
#286=EDGE_LOOP('',(#100,#101,#102,#103,#104,#105));
#287=EDGE_LOOP('',(#106,#107,#108,#109));
#288=EDGE_LOOP('',(#110,#111,#112,#113,#114,#115));
#289=EDGE_LOOP('',(#116,#117,#118,#119));
#290=EDGE_LOOP('',(#120,#121,#122,#123));
#291=EDGE_LOOP('',(#124,#125,#126,#127,#128));
#292=EDGE_LOOP('',(#129,#130,#131,#132,#133));
#293=EDGE_LOOP('',(#134,#135,#136,#137,#138,#139));
#294=EDGE_LOOP('',(#140,#141,#142,#143,#144));
#295=EDGE_LOOP('',(#145));
#296=EDGE_LOOP('',(#146,#147,#148,#149,#150,#151));
#297=EDGE_LOOP('',(#152));
#298=EDGE_LOOP('',(#153,#154,#155,#156,#157,#158));
#299=EDGE_LOOP('',(#159,#160,#161,#162));
#300=EDGE_LOOP('',(#163,#164,#165,#166,#167,#168,#169));
#301=EDGE_LOOP('',(#170,#171,#172,#173,#174,#175));
#302=EDGE_LOOP('',(#176,#177,#178,#179,#180,#181,#182));
#303=EDGE_LOOP('',(#183,#184,#185,#186));
#304=FACE_BOUND('',#279,.T.);
#305=FACE_BOUND('',#280,.T.);
#306=FACE_BOUND('',#281,.T.);
#307=FACE_BOUND('',#282,.T.);
#308=FACE_BOUND('',#283,.T.);
#309=FACE_BOUND('',#284,.T.);
#310=FACE_BOUND('',#285,.T.);
#311=FACE_BOUND('',#286,.T.);
#312=FACE_BOUND('',#287,.T.);
#313=FACE_BOUND('',#288,.T.);
#314=FACE_BOUND('',#289,.T.);
#315=FACE_BOUND('',#290,.T.);
#316=FACE_BOUND('',#291,.T.);
#317=FACE_BOUND('',#292,.T.);
#318=FACE_BOUND('',#293,.T.);
#319=FACE_BOUND('',#294,.T.);
#320=FACE_BOUND('',#295,.T.);
#321=FACE_BOUND('',#296,.T.);
#322=FACE_BOUND('',#297,.T.);
#323=FACE_BOUND('',#298,.T.);
#324=FACE_BOUND('',#299,.T.);
#325=FACE_BOUND('',#300,.T.);
#326=FACE_BOUND('',#301,.T.);
#327=FACE_BOUND('',#302,.T.);
#328=FACE_BOUND('',#303,.T.);
#329=PLANE('',#372);
#330=PLANE('',#381);
#331=PLANE('',#384);
#332=PLANE('',#388);
#333=PLANE('',#389);
#334=PLANE('',#390);
#335=PLANE('',#392);
#336=PLANE('',#394);
#337=PLANE('',#395);
#338=PLANE('',#397);
#339=PLANE('',#399);
#340=ADVANCED_FACE('',(#304),#329,.T.);
#341=ADVANCED_FACE('',(#305,#306),#13,.F.);
#342=ADVANCED_FACE('',(#307,#308),#14,.F.);
#343=ADVANCED_FACE('',(#309,#310,#311),#330,.T.);
#344=ADVANCED_FACE('',(#312),#331,.F.);
#345=ADVANCED_FACE('',(#313),#15,.F.);
#346=ADVANCED_FACE('',(#314),#332,.T.);
#347=ADVANCED_FACE('',(#315),#333,.F.);
#348=ADVANCED_FACE('',(#316),#334,.T.);
#349=ADVANCED_FACE('',(#317),#335,.F.);
#350=ADVANCED_FACE('',(#318),#336,.F.);
#351=ADVANCED_FACE('',(#319),#337,.F.);
#352=ADVANCED_FACE('',(#320,#321),#338,.F.);
#353=ADVANCED_FACE('',(#322,#323),#339,.F.);
#354=ADVANCED_FACE('',(#324),#16,.T.);
#355=ADVANCED_FACE('',(#325),#17,.T.);
#356=ADVANCED_FACE('',(#326),#18,.T.);
#357=ADVANCED_FACE('',(#327),#19,.T.);
#358=ADVANCED_FACE('',(#328),#20,.T.);
#359=CLOSED_SHELL('',(#340,#341,#342,#343,#344,#345,#346,#347,#348,#349,
#350,#351,#352,#353,#354,#355,#356,#357,#358));
#360=STYLED_ITEM('',(#361),#368);
#361=PRESENTATION_STYLE_ASSIGNMENT((#362));
#362=SURFACE_STYLE_USAGE(.BOTH.,#363);
#363=SURFACE_SIDE_STYLE('',(#364));
#364=SURFACE_STYLE_FILL_AREA(#365);
#365=FILL_AREA_STYLE('',(#366));
#366=FILL_AREA_STYLE_COLOUR('',#367);
#367=COLOUR_RGB('',0.615686274509804,0.811764705882353,0.929411764705882);
#368=MANIFOLD_SOLID_BREP('Arm Mount FR 1',#359);
#369=SHAPE_DEFINITION_REPRESENTATION(#632,#370);
#370=SHAPE_REPRESENTATION('Arm Mount FR 1',(#371),#627);
#371=AXIS2_PLACEMENT_3D('',#517,#410,#411);
#372=AXIS2_PLACEMENT_3D('',#518,#412,#413);
#373=AXIS2_PLACEMENT_3D('',#519,#414,#415);
#374=AXIS2_PLACEMENT_3D('',#524,#417,#418);
#375=AXIS2_PLACEMENT_3D('',#529,#421,#422);
#376=AXIS2_PLACEMENT_3D('',#530,#423,#424);
#377=AXIS2_PLACEMENT_3D('',#532,#425,#426);
#378=AXIS2_PLACEMENT_3D('',#534,#427,#428);
#379=AXIS2_PLACEMENT_3D('',#535,#429,#430);
#380=AXIS2_PLACEMENT_3D('',#537,#431,#432);
#381=AXIS2_PLACEMENT_3D('',#539,#433,#434);
#382=AXIS2_PLACEMENT_3D('',#543,#436,#437);
#383=AXIS2_PLACEMENT_3D('',#547,#439,#440);
#384=AXIS2_PLACEMENT_3D('',#552,#443,#444);
#385=AXIS2_PLACEMENT_3D('',#558,#448,#449);
#386=AXIS2_PLACEMENT_3D('',#559,#450,#451);
#387=AXIS2_PLACEMENT_3D('',#571,#453,#454);
#388=AXIS2_PLACEMENT_3D('',#574,#456,#457);
#389=AXIS2_PLACEMENT_3D('',#580,#461,#462);
#390=AXIS2_PLACEMENT_3D('',#589,#467,#468);
#391=AXIS2_PLACEMENT_3D('',#590,#469,#470);
#392=AXIS2_PLACEMENT_3D('',#594,#473,#474);
#393=AXIS2_PLACEMENT_3D('',#595,#475,#476);
#394=AXIS2_PLACEMENT_3D('',#602,#480,#481);
#395=AXIS2_PLACEMENT_3D('',#607,#485,#486);
#396=AXIS2_PLACEMENT_3D('',#612,#489,#490);
#397=AXIS2_PLACEMENT_3D('',#613,#491,#492);
#398=AXIS2_PLACEMENT_3D('',#614,#493,#494);
#399=AXIS2_PLACEMENT_3D('',#615,#495,#496);
#400=AXIS2_PLACEMENT_3D('',#616,#497,#498);
#401=AXIS2_PLACEMENT_3D('',#617,#499,#500);
#402=AXIS2_PLACEMENT_3D('',#618,#501,#502);
#403=AXIS2_PLACEMENT_3D('',#619,#503,#504);
#404=AXIS2_PLACEMENT_3D('',#620,#505,#506);
#405=AXIS2_PLACEMENT_3D('',#621,#507,#508);
#406=AXIS2_PLACEMENT_3D('',#622,#509,#510);
#407=AXIS2_PLACEMENT_3D('',#623,#511,#512);
#408=AXIS2_PLACEMENT_3D('',#624,#513,#514);
#409=AXIS2_PLACEMENT_3D('',#625,#515,#516);
#410=DIRECTION('',(0.,0.,1.));
#411=DIRECTION('',(1.,0.,0.));
#412=DIRECTION('',(0.707106781186546,0.707106781186549,0.));
#413=DIRECTION('',(-0.707106781186549,0.707106781186546,0.));
#414=DIRECTION('',(0.707106781186546,0.707106781186549,0.));
#415=DIRECTION('',(-0.707106781186549,0.707106781186546,0.));
#416=DIRECTION('',(0.707106781186549,-0.707106781186546,1.38777878078145E-17));
#417=DIRECTION('',(0.707106781186546,0.707106781186549,0.));
#418=DIRECTION('',(-0.705320327391746,0.705320327391742,-0.0710385214936681));
#419=DIRECTION('',(0.,0.,1.));
#420=DIRECTION('',(0.707106781186549,-0.707106781186546,0.));
#421=DIRECTION('',(0.,0.,-1.));
#422=DIRECTION('',(-1.,0.,0.));
#423=DIRECTION('',(0.,0.,1.));
#424=DIRECTION('',(1.,0.,0.));
#425=DIRECTION('',(0.,0.,1.));
#426=DIRECTION('',(1.,0.,0.));
#427=DIRECTION('',(0.,0.,-1.));
#428=DIRECTION('',(-1.,0.,0.));
#429=DIRECTION('',(0.,0.,1.));
#430=DIRECTION('',(1.,0.,0.));
#431=DIRECTION('',(0.,0.,1.));
#432=DIRECTION('',(1.,0.,0.));
#433=DIRECTION('',(0.,0.,1.));
#434=DIRECTION('',(1.,0.,0.));
#435=DIRECTION('',(0.707106781186546,0.70710678118655,0.));
#436=DIRECTION('',(0.,0.,1.));
#437=DIRECTION('',(-0.031461418898769,0.999504967031618,0.));
#438=DIRECTION('',(-0.707106781186549,0.707106781186546,0.));
#439=DIRECTION('',(0.,0.,1.));
#440=DIRECTION('',(-0.999444370830935,0.0333309107939762,0.));
#441=DIRECTION('',(-0.707106781186546,-0.707106781186549,0.));
#442=DIRECTION('',(0.707106781186549,-0.707106781186546,0.));
#443=DIRECTION('',(-0.0534787797636228,-0.053478779763623,-0.997135918633958));
#444=DIRECTION('',(0.,0.998564878798465,-0.0535554183085802));
#445=DIRECTION('',(0.0314191018424606,-0.998160586852629,0.051848653728214));
#446=DIRECTION('',(-0.707106781186549,0.707106781186546,-3.94631676659089E-20));
#447=DIRECTION('',(0.99810541658937,-0.0332862574188756,-0.051745554804293));
#448=DIRECTION('',(-0.707106781186546,-0.707106781186549,0.));
#449=DIRECTION('',(0.707106781186549,-0.707106781186546,0.));
#450=DIRECTION('',(0.707106781186546,0.707106781186549,0.));
#451=DIRECTION('',(-0.707106781186549,0.707106781186546,0.));
#452=DIRECTION('',(-0.707106781186546,-0.707106781186549,0.));
#453=DIRECTION('',(-0.707106781186546,-0.707106781186549,0.));
#454=DIRECTION('',(0.707106781186549,-0.707106781186546,0.));
#455=DIRECTION('',(-0.707106781186546,-0.707106781186549,0.));
#456=DIRECTION('',(0.999504967031618,0.031461418898769,0.));
#457=DIRECTION('',(-0.031461418898769,0.999504967031618,0.));
#458=DIRECTION('',(-0.0314191018424606,0.998160586852629,-0.051848653728214));
#459=DIRECTION('',(0.,0.,-1.));
#460=DIRECTION('',(0.031461418898769,-0.999504967031618,0.));
#461=DIRECTION('',(-0.0333309107939762,-0.999444370830935,0.));
#462=DIRECTION('',(0.999444370830935,-0.0333309107939762,0.));
#463=DIRECTION('',(-0.999444370830935,0.0333309107939762,0.));
#464=DIRECTION('',(0.,0.,-1.));
#465=DIRECTION('',(0.99810541658937,-0.0332862574188756,-0.051745554804293));
#466=DIRECTION('',(0.,0.,1.));
#467=DIRECTION('',(0.707106781186546,0.707106781186549,0.));
#468=DIRECTION('',(-0.707106781186549,0.707106781186546,0.));
#469=DIRECTION('',(0.707106781186546,0.707106781186549,0.));
#470=DIRECTION('',(-0.705333621337582,0.705333621337579,0.070774043417268));
#471=DIRECTION('',(0.707106781186549,-0.707106781186546,1.38777878078145E-17));
#472=DIRECTION('',(0.707106781186549,-0.707106781186546,0.));
#473=DIRECTION('',(0.707106781186549,-0.707106781186546,0.));
#474=DIRECTION('',(0.707106781186546,0.707106781186549,0.));
#475=DIRECTION('',(0.707106781186549,-0.707106781186546,0.));
#476=DIRECTION('',(-0.705081569830748,-0.705081569830751,0.0756304156408793));
#477=DIRECTION('',(0.,0.,1.));
#478=DIRECTION('',(-0.707106781186546,-0.707106781186549,0.));
#479=DIRECTION('',(0.,0.,-1.));
#480=DIRECTION('',(0.707106781186546,0.707106781186549,0.));
#481=DIRECTION('',(-0.707106781186549,0.707106781186546,0.));
#482=DIRECTION('',(0.707106781186549,-0.707106781186546,0.));
#483=DIRECTION('',(0.707106781186549,-0.707106781186546,0.));
#484=DIRECTION('',(0.,0.,-1.));
#485=DIRECTION('',(-0.70710678118655,0.707106781186545,0.));
#486=DIRECTION('',(-0.707106781186546,-0.70710678118655,0.));
#487=DIRECTION('',(0.707106781186546,0.70710678118655,0.));
#488=DIRECTION('',(0.,0.,-1.));
#489=DIRECTION('',(-0.70710678118655,0.707106781186545,0.));
#490=DIRECTION('',(0.705081569830747,0.705081569830751,-0.0756304156408793));
#491=DIRECTION('',(0.,0.,1.));
#492=DIRECTION('',(1.,0.,0.));
#493=DIRECTION('',(0.,0.,1.));
#494=DIRECTION('',(1.,0.,0.));
#495=DIRECTION('',(0.,0.,1.));
#496=DIRECTION('',(1.,0.,0.));
#497=DIRECTION('',(0.,0.,1.));
#498=DIRECTION('',(1.,0.,0.));
#499=DIRECTION('',(0.,0.,1.));
#500=DIRECTION('',(1.,0.,0.));
#501=DIRECTION('',(-0.0228160224309416,0.724847401860928,0.688531533871829));
#502=DIRECTION('',(-0.0216621790121535,0.688190688062792,-0.725206402939265));
#503=DIRECTION('',(-0.0314191018424606,0.998160586852629,-0.051848653728214));
#504=DIRECTION('',(0.,0.0518742641484461,0.998653623995356));
#505=DIRECTION('',(-0.397261054544473,0.917281747972142,-0.027889951225951));
#506=DIRECTION('',(0.916146098969595,0.394631746001466,-0.0703001450256415));
#507=DIRECTION('',(0.707106781186549,-0.707106781186546,1.38777878078145E-17));
#508=DIRECTION('',(0.707106781186546,0.707106781186549,0.));
#509=DIRECTION('',(-0.916912205471962,0.398117849983264,0.0278241797946659));
#510=DIRECTION('',(-0.395489604884296,-0.915774097493316,0.0703262027182349));
#511=DIRECTION('',(-0.99810541658937,0.0332862574188756,0.051745554804293));
#512=DIRECTION('',(0.0517742450363465,0.,0.998658814386033));
#513=DIRECTION('',(-0.724767934750766,0.0241706052728357,-0.688568967205068));
#514=DIRECTION('',(-0.688186378201976,0.0229506308214124,0.725170860833601));
#515=DIRECTION('',(0.,0.,-1.));
#516=DIRECTION('',(-1.,0.,0.));
#517=CARTESIAN_POINT('',(0.,0.,0.));
#518=CARTESIAN_POINT('',(0.0931569750428657,0.0931569750428661,0.0215684697031975));
#519=CARTESIAN_POINT('',(0.0931210541513888,0.093192895934343,0.0215392));
#520=CARTESIAN_POINT('',(0.0965424935696298,0.0897714565161021,0.0265976092968654));
#521=CARTESIAN_POINT('',(0.0980562044104995,0.0882577456752323,0.021002));
#522=CARTESIAN_POINT('',(0.0931569750428657,0.0931569750428661,0.0265976092968654));
#523=CARTESIAN_POINT('',(0.0989933832739754,0.0873205668117564,0.0265976092968654));
#524=CARTESIAN_POINT('',(0.0953994685270328,0.090914481558699,0.0263336746462034));
#525=CARTESIAN_POINT('',(0.0989941415215606,0.0873198085641712,0.0265260838835029));
#526=CARTESIAN_POINT('',(0.0989941415215606,0.0873198085641712,0.0215684697031975));
#527=CARTESIAN_POINT('',(0.0989941415215606,0.0873198085641712,0.021002));
#528=CARTESIAN_POINT('',(0.0931569750428657,0.0931569750428661,0.021002));
#529=CARTESIAN_POINT('',(0.0877872062795427,0.0519991176041145,0.01135));
#530=CARTESIAN_POINT('',(0.0877872062795427,0.0519991176041145,0.021002));
#531=CARTESIAN_POINT('',(0.0902122062795427,0.0519991176041145,0.021002));
#532=CARTESIAN_POINT('',(0.0877872062795427,0.0519991176041145,0.03175));
#533=CARTESIAN_POINT('',(0.0902122062795427,0.0519991176041145,0.03175));
#534=CARTESIAN_POINT('',(0.0519272758211604,0.0878590480624965,0.01135));
#535=CARTESIAN_POINT('',(0.0519272758211604,0.0878590480624965,0.021002));
#536=CARTESIAN_POINT('',(0.0543522758211604,0.0878590480624965,0.021002));
#537=CARTESIAN_POINT('',(0.0519272758211604,0.0878590480624965,0.03175));
#538=CARTESIAN_POINT('',(0.0543522758211604,0.0878590480624965,0.03175));
#539=CARTESIAN_POINT('',(7.9804436188255E-5,0.00023140064903196,0.03175));
#540=CARTESIAN_POINT('',(0.0930905071384416,0.0431602828392828,0.03175));
#541=CARTESIAN_POINT('',(0.0860194393265762,0.0360892150274173,0.03175));
#542=CARTESIAN_POINT('',(0.0981323726261134,0.0482021483269546,0.03175));
#543=CARTESIAN_POINT('',(0.0986816381817144,-0.0133575121187069,0.03175));
#544=CARTESIAN_POINT('',(0.0967650936197375,0.0536278319817179,0.03175));
#545=CARTESIAN_POINT('',(0.0536950427741267,0.0966978828273284,0.03175));
#546=CARTESIAN_POINT('',(0.0535624272076337,0.0968304983938215,0.03175));
#547=CARTESIAN_POINT('',(-0.0135523096309231,0.0988764356939299,0.03175));
#548=CARTESIAN_POINT('',(0.0481333329323139,0.098207240797381,0.03175));
#549=CARTESIAN_POINT('',(0.0430884410563286,0.0931623489213957,0.03175));
#550=CARTESIAN_POINT('',(0.0360173732444631,0.0860912811095302,0.03175));
#551=CARTESIAN_POINT('',(0.0610184062855196,0.0610902480684738,0.03175));
#552=CARTESIAN_POINT('',(0.00212320892900536,0.00212320892900537,0.0395881861035971));
#553=CARTESIAN_POINT('',(0.0982996880499819,0.00487495276976335,0.0342824293363301));
#554=CARTESIAN_POINT('',(0.0957455023645926,0.0860194582824363,0.0300674428665278));
#555=CARTESIAN_POINT('',(0.0908824803235142,0.0908824803235146,0.0300674428665278));
#556=CARTESIAN_POINT('',(0.0860167973461161,0.0957481633009127,0.0300674428665278));
#557=CARTESIAN_POINT('',(0.00505959184263558,0.0984480408263848,0.0342645701885072));
#558=CARTESIAN_POINT('',(0.0989150871164315,0.0989869288993856,0.0215392));
#559=CARTESIAN_POINT('',(0.0931210541513888,0.093192895934343,0.0215392));
#560=CARTESIAN_POINT('',(0.0881859038922782,0.0981280461934536,0.021002));
#561=CARTESIAN_POINT('',(0.0896996147331479,0.0966143353525839,0.0265976092968654));
#562=CARTESIAN_POINT('',(0.0896996147331479,0.0966143353525839,0.0265976092968654));
#563=CARTESIAN_POINT('',(0.0901621887671144,0.0961517613186175,0.027223366898034));
#564=CARTESIAN_POINT('',(0.0909996796431341,0.0948530203496382,0.0281902239025355));
#565=CARTESIAN_POINT('',(0.0926050313117275,0.0926836830074093,0.0287136247127911));
#566=CARTESIAN_POINT('',(0.0947827967327318,0.0910698350805712,0.0281904738362352));
#567=CARTESIAN_POINT('',(0.0960801674182655,0.0902337826674664,0.0272230315691761));
#568=CARTESIAN_POINT('',(0.0965424935696298,0.0897714565161021,0.0265976092968654));
#569=CARTESIAN_POINT('',(0.103850237375542,0.0940517786402749,0.021002));
#570=CARTESIAN_POINT('',(0.0659535565446304,0.056155097809363,0.021002));
#571=CARTESIAN_POINT('',(0.0610184062855197,0.0610902480684737,0.0215392));
#572=CARTESIAN_POINT('',(0.056083256026409,0.0660253983275843,0.021002));
#573=CARTESIAN_POINT('',(0.0939799368573208,0.103922079158496,0.021002));
#574=CARTESIAN_POINT('',(0.101642000171686,0.00319938534633516,0.));
#575=CARTESIAN_POINT('',(0.101591669976437,0.00479833675742583,0.0308125957666677));
#576=CARTESIAN_POINT('',(0.100114195669647,0.0517365537860411,0.0283744276067624));
#577=CARTESIAN_POINT('',(0.100114195669647,0.0517365537860411,0.021002));
#578=CARTESIAN_POINT('',(0.100114195669647,0.0517365537860411,0.021002));
#579=CARTESIAN_POINT('',(0.101642000171686,0.00319938534633516,0.021002));
#580=CARTESIAN_POINT('',(0.00339473947332765,0.101792995637793,0.));
#581=CARTESIAN_POINT('',(0.00339473947332765,0.101792995637793,0.021002));
#582=CARTESIAN_POINT('',(0.0516684841234851,0.100183093252443,0.021002));
#583=CARTESIAN_POINT('',(0.0873198085641707,0.0989941415215611,0.021002));
#584=CARTESIAN_POINT('',(0.0516684841234851,0.100183093252443,0.03175));
#585=CARTESIAN_POINT('',(0.0516684841234851,0.100183093252443,0.028374720797593));
#586=CARTESIAN_POINT('',(0.004989481288195,0.101739811890181,0.0307947366188447));
#587=CARTESIAN_POINT('',(0.0873198085641707,0.0989941415215611,0.0265264214776725));
#588=CARTESIAN_POINT('',(0.0873198085641707,0.0989941415215611,0.0215684697031975));
#589=CARTESIAN_POINT('',(0.0931569750428657,0.0931569750428661,0.0215684697031975));
#590=CARTESIAN_POINT('',(0.0909216629466435,0.0953922871390883,0.0263336746462034));
#591=CARTESIAN_POINT('',(0.0873205611762436,0.0989933889094881,0.0265976092968654));
#592=CARTESIAN_POINT('',(0.0931569750428657,0.0931569750428661,0.0265976092968654));
#593=CARTESIAN_POINT('',(0.0931569750428657,0.0931569750428661,0.021002));
#594=CARTESIAN_POINT('',(0.0430884410563286,0.0931623489213957,0.03175));
#595=CARTESIAN_POINT('',(0.046790140853765,0.0968640487188321,0.0286216194435148));
#596=CARTESIAN_POINT('',(0.0490919090429313,0.0991658169079984,0.0310510406764404));
#597=CARTESIAN_POINT('',(0.0490919090429313,0.0991658169079984,0.021002));
#598=CARTESIAN_POINT('',(0.0490919090429313,0.0991658169079984,0.021002));
#599=CARTESIAN_POINT('',(0.0430884410563286,0.0931623489213957,0.021002));
#600=CARTESIAN_POINT('',(0.0360173732444631,0.0860912811095302,0.021002));
#601=CARTESIAN_POINT('',(0.0360173732444631,0.0860912811095302,0.03175));
#602=CARTESIAN_POINT('',(0.0610184062855196,0.0610902480684738,0.03175));
#603=CARTESIAN_POINT('',(0.0610184062855196,0.0610902480684738,0.021002));
#604=CARTESIAN_POINT('',(0.0610184062855196,0.0610902480684738,0.021002));
#605=CARTESIAN_POINT('',(0.0860194393265762,0.0360892150274173,0.021002));
#606=CARTESIAN_POINT('',(0.0860194393265762,0.0360892150274173,0.03175));
#607=CARTESIAN_POINT('',(0.0930905071384416,0.0431602828392828,0.03175));
#608=CARTESIAN_POINT('',(0.0930905071384416,0.0431602828392828,0.021002));
#609=CARTESIAN_POINT('',(0.099096708462543,0.0491664841633842,0.021002));
#610=CARTESIAN_POINT('',(0.099096708462543,0.0491664841633842,0.03175));
#611=CARTESIAN_POINT('',(0.099096708462543,0.0491664841633842,0.0310463361354813));
#612=CARTESIAN_POINT('',(0.0967862951667092,0.0468560708675503,0.028622253568102));
#613=CARTESIAN_POINT('',(0.000680295059272966,0.000231400649031973,0.021002));
#614=CARTESIAN_POINT('',(0.0966361182853701,0.0516270743405571,0.021002));
#615=CARTESIAN_POINT('',(0.000680295059272966,0.000231400649031973,0.021002));
#616=CARTESIAN_POINT('',(0.0515524992201042,0.0967052267308254,0.021002));
#617=CARTESIAN_POINT('',(0.0966361182853701,0.0516270743405571,0.));
#618=CARTESIAN_POINT('',(0.0966361182853701,0.0516270743405571,0.0283744276067624));
#619=CARTESIAN_POINT('',(0.0981135925921604,0.00468885731194189,0.0308125957666677));
#620=CARTESIAN_POINT('',(0.0955594069067711,0.0858333628246148,0.0265976092968654));
#621=CARTESIAN_POINT('',(0.0906963848656927,0.0906963848656932,0.0265976092968654));
#622=CARTESIAN_POINT('',(0.0858307018882947,0.0955620678430912,0.0265976092968654));
#623=CARTESIAN_POINT('',(0.00487349638481412,0.0982619453685634,0.0307947366188447));
#624=CARTESIAN_POINT('',(0.0515524992201042,0.0967052267308254,0.028374720797593));
#625=CARTESIAN_POINT('',(0.0515524992201042,0.0967052267308254,0.03175));
#626=MECHANICAL_DESIGN_GEOMETRIC_PRESENTATION_REPRESENTATION('',(#360),
#627);
#627=(
GEOMETRIC_REPRESENTATION_CONTEXT(3)
GLOBAL_UNCERTAINTY_ASSIGNED_CONTEXT((#628))
GLOBAL_UNIT_ASSIGNED_CONTEXT((#631,#630,#629))
REPRESENTATION_CONTEXT('Arm Mount FR 1','TOP_LEVEL_ASSEMBLY_PART')
);
#628=UNCERTAINTY_MEASURE_WITH_UNIT(LENGTH_MEASURE(2.E-5),#631,
'DISTANCE_ACCURACY_VALUE','Maximum Tolerance applied to model');
#629=(
NAMED_UNIT(*)
SI_UNIT($,.STERADIAN.)
SOLID_ANGLE_UNIT()
);
#630=(
NAMED_UNIT(*)
PLANE_ANGLE_UNIT()
SI_UNIT($,.RADIAN.)
);
#631=(
LENGTH_UNIT()
NAMED_UNIT(*)
SI_UNIT($,.METRE.)
);
#632=PRODUCT_DEFINITION_SHAPE('','',#633);
#633=PRODUCT_DEFINITION('','',#635,#634);
#634=PRODUCT_DEFINITION_CONTEXT('',#641,'design');
#635=PRODUCT_DEFINITION_FORMATION_WITH_SPECIFIED_SOURCE('','',#637,
 .NOT_KNOWN.);
#636=PRODUCT_RELATED_PRODUCT_CATEGORY('','',(#637));
#637=PRODUCT('Arm Mount FR 1','Arm Mount FR 1','Arm Mount FR 1',(#639));
#638=PRODUCT_CATEGORY('','');
#639=PRODUCT_CONTEXT('',#641,'mechanical');
#640=APPLICATION_PROTOCOL_DEFINITION('international standard',
'ap242_managed_model_based_3d_engineering',2020,#641);
#641=APPLICATION_CONTEXT('managed model based 3d engineering');
ENDSEC;
END-ISO-10303-21;
