ISO-10303-21;
HEADER;
/* Generated by software containing ST-Developer
 * from STEP Tools, Inc. (www.steptools.com) 
 */
/* OPTION: using custom renumber hook */

FILE_DESCRIPTION(
/* description */ ('STEP AP242 Edition 2',
'CAx-IF Rec.Pracs.---Representation and Presentation of Product Manufa
cturing Information (PMI)---4.0---2014-10-13',
'CAx-IF Rec.Pracs.---3D Tessellated Geometry---0.4---2014-09-14','2;1',
'CAx-IF Rec.Pracs.---User Defined Attributes---1.5---2016-08-15'),
/* implementation_level */ '2;1');

FILE_NAME(
/* name */ 'Part Studio 1 - Arm Mount RL 1',
/* time_stamp */ '2026-06-27T17:59:10Z',
/* author */ (''),
/* organization */ (''),
/* preprocessor_version */ 'ST-DEVELOPER v20',
/* originating_system */ 'ONSHAPE BY PTC INC, 1.217',
/* authorisation */ '  ');

FILE_SCHEMA (('AP242_MANAGED_MODEL_BASED_3D_ENGINEERING_MIM_LF { 1 0 10303 442 3 1 4 }'));
ENDSEC;

DATA;
#10=SHAPE_REPRESENTATION_RELATIONSHIP('','',#370,#11);
#11=ADVANCED_BREP_SHAPE_REPRESENTATION('',(#368),#631);
#12=B_SPLINE_CURVE_WITH_KNOTS('',3,(#604,#605,#606,#607,#608,#609,#610,
#611,#612,#613,#614),.UNSPECIFIED.,.F.,.F.,(4,1,1,1,1,1,1,1,4),(0.,0.00183823689196842,
0.00367647378393683,0.00551471067590525,0.00735294756787367,0.00919118445984208,
0.0110294213518105,0.0128676582437789,0.0147058951357473),.UNSPECIFIED.);
#13=CYLINDRICAL_SURFACE('',#375,0.002425);
#14=CYLINDRICAL_SURFACE('',#378,0.002425);
#15=CYLINDRICAL_SURFACE('',#396,0.008);
#16=CYLINDRICAL_SURFACE('',#401,0.0034798);
#17=CYLINDRICAL_SURFACE('',#403,0.0034798);
#18=CYLINDRICAL_SURFACE('',#405,0.0034798);
#19=CYLINDRICAL_SURFACE('',#407,0.0034798);
#20=CYLINDRICAL_SURFACE('',#409,0.0034798);
#21=CIRCLE('',#374,0.008);
#22=CIRCLE('',#376,0.002425);
#23=CIRCLE('',#377,0.002425);
#24=CIRCLE('',#379,0.002425);
#25=CIRCLE('',#380,0.002425);
#26=CIRCLE('',#385,0.008);
#27=CIRCLE('',#395,0.008);
#28=CIRCLE('',#398,0.0034798);
#29=CIRCLE('',#400,0.0034798);
#30=ELLIPSE('',#373,0.00510704403957445,0.0034798);
#31=ELLIPSE('',#382,0.0663234819617655,0.0034798);
#32=ELLIPSE('',#383,0.0660307059825428,0.0034798);
#33=ELLIPSE('',#387,0.00478516713252949,0.0034798);
#34=ELLIPSE('',#389,0.00476649802850101,0.0034798);
#35=ELLIPSE('',#394,0.00508449968913637,0.0034798);
#36=ELLIPSE('',#402,0.00505621403427525,0.0034798);
#37=ELLIPSE('',#404,0.00374452963231152,0.0034798);
#38=ELLIPSE('',#406,0.00374144596328678,0.0034798);
#39=ELLIPSE('',#408,0.00505559330207264,0.0034798);
#40=ORIENTED_EDGE('',*,*,#138,.T.);
#41=ORIENTED_EDGE('',*,*,#139,.T.);
#42=ORIENTED_EDGE('',*,*,#140,.T.);
#43=ORIENTED_EDGE('',*,*,#141,.F.);
#44=ORIENTED_EDGE('',*,*,#142,.F.);
#45=ORIENTED_EDGE('',*,*,#143,.F.);
#46=ORIENTED_EDGE('',*,*,#144,.T.);
#47=ORIENTED_EDGE('',*,*,#145,.F.);
#48=ORIENTED_EDGE('',*,*,#146,.T.);
#49=ORIENTED_EDGE('',*,*,#146,.F.);
#50=ORIENTED_EDGE('',*,*,#144,.F.);
#51=ORIENTED_EDGE('',*,*,#147,.F.);
#52=ORIENTED_EDGE('',*,*,#148,.T.);
#53=ORIENTED_EDGE('',*,*,#149,.T.);
#54=ORIENTED_EDGE('',*,*,#150,.T.);
#55=ORIENTED_EDGE('',*,*,#151,.F.);
#56=ORIENTED_EDGE('',*,*,#152,.F.);
#57=ORIENTED_EDGE('',*,*,#153,.F.);
#58=ORIENTED_EDGE('',*,*,#154,.F.);
#59=ORIENTED_EDGE('',*,*,#152,.T.);
#60=ORIENTED_EDGE('',*,*,#155,.T.);
#61=ORIENTED_EDGE('',*,*,#156,.F.);
#62=ORIENTED_EDGE('',*,*,#157,.F.);
#63=ORIENTED_EDGE('',*,*,#158,.T.);
#64=ORIENTED_EDGE('',*,*,#159,.T.);
#65=ORIENTED_EDGE('',*,*,#160,.F.);
#66=ORIENTED_EDGE('',*,*,#155,.F.);
#67=ORIENTED_EDGE('',*,*,#151,.T.);
#68=ORIENTED_EDGE('',*,*,#161,.F.);
#69=ORIENTED_EDGE('',*,*,#162,.T.);
#70=ORIENTED_EDGE('',*,*,#163,.T.);
#71=ORIENTED_EDGE('',*,*,#147,.T.);
#72=ORIENTED_EDGE('',*,*,#154,.T.);
#73=ORIENTED_EDGE('',*,*,#149,.F.);
#74=ORIENTED_EDGE('',*,*,#164,.T.);
#75=ORIENTED_EDGE('',*,*,#165,.T.);
#76=ORIENTED_EDGE('',*,*,#166,.T.);
#77=ORIENTED_EDGE('',*,*,#167,.F.);
#78=ORIENTED_EDGE('',*,*,#168,.T.);
#79=ORIENTED_EDGE('',*,*,#169,.T.);
#80=ORIENTED_EDGE('',*,*,#170,.F.);
#81=ORIENTED_EDGE('',*,*,#171,.T.);
#82=ORIENTED_EDGE('',*,*,#172,.T.);
#83=ORIENTED_EDGE('',*,*,#173,.F.);
#84=ORIENTED_EDGE('',*,*,#140,.F.);
#85=ORIENTED_EDGE('',*,*,#174,.T.);
#86=ORIENTED_EDGE('',*,*,#175,.T.);
#87=ORIENTED_EDGE('',*,*,#176,.F.);
#88=ORIENTED_EDGE('',*,*,#177,.F.);
#89=ORIENTED_EDGE('',*,*,#170,.T.);
#90=ORIENTED_EDGE('',*,*,#176,.T.);
#91=ORIENTED_EDGE('',*,*,#178,.T.);
#92=ORIENTED_EDGE('',*,*,#142,.T.);
#93=ORIENTED_EDGE('',*,*,#179,.T.);
#94=ORIENTED_EDGE('',*,*,#157,.T.);
#95=ORIENTED_EDGE('',*,*,#180,.T.);
#96=ORIENTED_EDGE('',*,*,#143,.T.);
#97=ORIENTED_EDGE('',*,*,#173,.T.);
#98=ORIENTED_EDGE('',*,*,#181,.T.);
#99=ORIENTED_EDGE('',*,*,#161,.T.);
#100=ORIENTED_EDGE('',*,*,#153,.T.);
#101=ORIENTED_EDGE('',*,*,#179,.F.);
#102=ORIENTED_EDGE('',*,*,#141,.T.);
#103=ORIENTED_EDGE('',*,*,#145,.T.);
#104=ORIENTED_EDGE('',*,*,#160,.T.);
#105=ORIENTED_EDGE('',*,*,#182,.T.);
#106=ORIENTED_EDGE('',*,*,#167,.T.);
#107=ORIENTED_EDGE('',*,*,#177,.T.);
#108=ORIENTED_EDGE('',*,*,#180,.F.);
#109=ORIENTED_EDGE('',*,*,#156,.T.);
#110=ORIENTED_EDGE('',*,*,#182,.F.);
#111=ORIENTED_EDGE('',*,*,#159,.F.);
#112=ORIENTED_EDGE('',*,*,#183,.F.);
#113=ORIENTED_EDGE('',*,*,#168,.F.);
#114=ORIENTED_EDGE('',*,*,#150,.F.);
#115=ORIENTED_EDGE('',*,*,#166,.F.);
#116=ORIENTED_EDGE('',*,*,#184,.F.);
#117=ORIENTED_EDGE('',*,*,#174,.F.);
#118=ORIENTED_EDGE('',*,*,#169,.F.);
#119=ORIENTED_EDGE('',*,*,#183,.T.);
#120=ORIENTED_EDGE('',*,*,#158,.F.);
#121=ORIENTED_EDGE('',*,*,#184,.T.);
#122=ORIENTED_EDGE('',*,*,#165,.F.);
#123=ORIENTED_EDGE('',*,*,#185,.F.);
#124=ORIENTED_EDGE('',*,*,#138,.F.);
#125=ORIENTED_EDGE('',*,*,#178,.F.);
#126=ORIENTED_EDGE('',*,*,#175,.F.);
#127=ORIENTED_EDGE('',*,*,#148,.F.);
#128=ORIENTED_EDGE('',*,*,#163,.F.);
#129=ORIENTED_EDGE('',*,*,#186,.F.);
#130=ORIENTED_EDGE('',*,*,#171,.F.);
#131=ORIENTED_EDGE('',*,*,#139,.F.);
#132=ORIENTED_EDGE('',*,*,#185,.T.);
#133=ORIENTED_EDGE('',*,*,#164,.F.);
#134=ORIENTED_EDGE('',*,*,#186,.T.);
#135=ORIENTED_EDGE('',*,*,#162,.F.);
#136=ORIENTED_EDGE('',*,*,#181,.F.);
#137=ORIENTED_EDGE('',*,*,#172,.F.);
#138=EDGE_CURVE('',#187,#188,#221,.F.);
#139=EDGE_CURVE('',#188,#189,#30,.T.);
#140=EDGE_CURVE('',#189,#190,#222,.F.);
#141=EDGE_CURVE('',#191,#190,#223,.T.);
#142=EDGE_CURVE('',#187,#191,#21,.T.);
#143=EDGE_CURVE('',#192,#192,#22,.T.);
#144=EDGE_CURVE('',#193,#193,#23,.T.);
#145=EDGE_CURVE('',#194,#194,#24,.T.);
#146=EDGE_CURVE('',#195,#195,#25,.T.);
#147=EDGE_CURVE('',#196,#197,#224,.T.);
#148=EDGE_CURVE('',#196,#198,#31,.T.);
#149=EDGE_CURVE('',#198,#199,#225,.T.);
#150=EDGE_CURVE('',#199,#200,#32,.T.);
#151=EDGE_CURVE('',#201,#200,#226,.T.);
#152=EDGE_CURVE('',#197,#201,#227,.T.);
#153=EDGE_CURVE('',#202,#203,#228,.T.);
#154=EDGE_CURVE('',#197,#202,#229,.T.);
#155=EDGE_CURVE('',#201,#204,#230,.T.);
#156=EDGE_CURVE('',#205,#204,#231,.T.);
#157=EDGE_CURVE('',#203,#205,#26,.T.);
#158=EDGE_CURVE('',#200,#206,#33,.T.);
#159=EDGE_CURVE('',#206,#207,#232,.T.);
#160=EDGE_CURVE('',#204,#207,#233,.T.);
#161=EDGE_CURVE('',#208,#202,#234,.T.);
#162=EDGE_CURVE('',#208,#209,#235,.F.);
#163=EDGE_CURVE('',#209,#196,#34,.T.);
#164=EDGE_CURVE('',#198,#210,#236,.T.);
#165=EDGE_CURVE('',#210,#211,#237,.F.);
#166=EDGE_CURVE('',#211,#199,#238,.F.);
#167=EDGE_CURVE('',#212,#213,#239,.T.);
#168=EDGE_CURVE('',#212,#214,#240,.F.);
#169=EDGE_CURVE('',#214,#215,#241,.F.);
#170=EDGE_CURVE('',#213,#215,#242,.T.);
#171=EDGE_CURVE('',#189,#216,#243,.T.);
#172=EDGE_CURVE('',#216,#217,#244,.T.);
#173=EDGE_CURVE('',#190,#217,#245,.T.);
#174=EDGE_CURVE('',#215,#218,#35,.T.);
#175=EDGE_CURVE('',#218,#219,#246,.F.);
#176=EDGE_CURVE('',#220,#219,#27,.T.);
#177=EDGE_CURVE('',#213,#220,#247,.T.);
#178=EDGE_CURVE('',#219,#187,#12,.T.);
#179=EDGE_CURVE('',#191,#203,#248,.T.);
#180=EDGE_CURVE('',#205,#220,#249,.F.);
#181=EDGE_CURVE('',#217,#208,#28,.F.);
#182=EDGE_CURVE('',#207,#212,#29,.F.);
#183=EDGE_CURVE('',#214,#206,#36,.F.);
#184=EDGE_CURVE('',#218,#211,#37,.F.);
#185=EDGE_CURVE('',#188,#210,#38,.F.);
#186=EDGE_CURVE('',#216,#209,#39,.T.);
#187=VERTEX_POINT('',#520);
#188=VERTEX_POINT('',#521);
#189=VERTEX_POINT('',#523);
#190=VERTEX_POINT('',#525);
#191=VERTEX_POINT('',#527);
#192=VERTEX_POINT('',#531);
#193=VERTEX_POINT('',#533);
#194=VERTEX_POINT('',#536);
#195=VERTEX_POINT('',#538);
#196=VERTEX_POINT('',#541);
#197=VERTEX_POINT('',#542);
#198=VERTEX_POINT('',#544);
#199=VERTEX_POINT('',#546);
#200=VERTEX_POINT('',#548);
#201=VERTEX_POINT('',#550);
#202=VERTEX_POINT('',#554);
#203=VERTEX_POINT('',#555);
#204=VERTEX_POINT('',#558);
#205=VERTEX_POINT('',#560);
#206=VERTEX_POINT('',#564);
#207=VERTEX_POINT('',#566);
#208=VERTEX_POINT('',#570);
#209=VERTEX_POINT('',#572);
#210=VERTEX_POINT('',#576);
#211=VERTEX_POINT('',#578);
#212=VERTEX_POINT('',#582);
#213=VERTEX_POINT('',#583);
#214=VERTEX_POINT('',#585);
#215=VERTEX_POINT('',#587);
#216=VERTEX_POINT('',#591);
#217=VERTEX_POINT('',#593);
#218=VERTEX_POINT('',#597);
#219=VERTEX_POINT('',#599);
#220=VERTEX_POINT('',#601);
#221=LINE('',#519,#250);
#222=LINE('',#524,#251);
#223=LINE('',#526,#252);
#224=LINE('',#540,#253);
#225=LINE('',#545,#254);
#226=LINE('',#549,#255);
#227=LINE('',#551,#256);
#228=LINE('',#553,#257);
#229=LINE('',#556,#258);
#230=LINE('',#557,#259);
#231=LINE('',#559,#260);
#232=LINE('',#565,#261);
#233=LINE('',#567,#262);
#234=LINE('',#569,#263);
#235=LINE('',#571,#264);
#236=LINE('',#575,#265);
#237=LINE('',#577,#266);
#238=LINE('',#579,#267);
#239=LINE('',#581,#268);
#240=LINE('',#584,#269);
#241=LINE('',#586,#270);
#242=LINE('',#588,#271);
#243=LINE('',#590,#272);
#244=LINE('',#592,#273);
#245=LINE('',#594,#274);
#246=LINE('',#598,#275);
#247=LINE('',#602,#276);
#248=LINE('',#615,#277);
#249=LINE('',#616,#278);
#250=VECTOR('',#414,1.);
#251=VECTOR('',#417,1.);
#252=VECTOR('',#418,1.);
#253=VECTOR('',#435,1.);
#254=VECTOR('',#438,1.);
#255=VECTOR('',#441,1.);
#256=VECTOR('',#442,1.);
#257=VECTOR('',#445,1.);
#258=VECTOR('',#446,1.);
#259=VECTOR('',#447,1.);
#260=VECTOR('',#448,1.);
#261=VECTOR('',#455,1.);
#262=VECTOR('',#456,1.);
#263=VECTOR('',#459,1.);
#264=VECTOR('',#460,1.);
#265=VECTOR('',#465,1.);
#266=VECTOR('',#466,1.);
#267=VECTOR('',#467,1.);
#268=VECTOR('',#470,1.);
#269=VECTOR('',#471,1.);
#270=VECTOR('',#472,1.);
#271=VECTOR('',#473,1.);
#272=VECTOR('',#476,1.);
#273=VECTOR('',#477,1.);
#274=VECTOR('',#478,1.);
#275=VECTOR('',#483,1.);
#276=VECTOR('',#486,1.);
#277=VECTOR('',#489,1.);
#278=VECTOR('',#490,1.);
#279=EDGE_LOOP('',(#40,#41,#42,#43,#44));
#280=EDGE_LOOP('',(#45));
#281=EDGE_LOOP('',(#46));
#282=EDGE_LOOP('',(#47));
#283=EDGE_LOOP('',(#48));
#284=EDGE_LOOP('',(#49));
#285=EDGE_LOOP('',(#50));
#286=EDGE_LOOP('',(#51,#52,#53,#54,#55,#56));
#287=EDGE_LOOP('',(#57,#58,#59,#60,#61,#62));
#288=EDGE_LOOP('',(#63,#64,#65,#66,#67));
#289=EDGE_LOOP('',(#68,#69,#70,#71,#72));
#290=EDGE_LOOP('',(#73,#74,#75,#76));
#291=EDGE_LOOP('',(#77,#78,#79,#80));
#292=EDGE_LOOP('',(#81,#82,#83,#84));
#293=EDGE_LOOP('',(#85,#86,#87,#88,#89));
#294=EDGE_LOOP('',(#90,#91,#92,#93,#94,#95));
#295=EDGE_LOOP('',(#96));
#296=EDGE_LOOP('',(#97,#98,#99,#100,#101,#102));
#297=EDGE_LOOP('',(#103));
#298=EDGE_LOOP('',(#104,#105,#106,#107,#108,#109));
#299=EDGE_LOOP('',(#110,#111,#112,#113));
#300=EDGE_LOOP('',(#114,#115,#116,#117,#118,#119,#120));
#301=EDGE_LOOP('',(#121,#122,#123,#124,#125,#126));
#302=EDGE_LOOP('',(#127,#128,#129,#130,#131,#132,#133));
#303=EDGE_LOOP('',(#134,#135,#136,#137));
#304=FACE_BOUND('',#279,.T.);
#305=FACE_BOUND('',#280,.T.);
#306=FACE_BOUND('',#281,.T.);
#307=FACE_BOUND('',#282,.T.);
#308=FACE_BOUND('',#283,.T.);
#309=FACE_BOUND('',#284,.T.);
#310=FACE_BOUND('',#285,.T.);
#311=FACE_BOUND('',#286,.T.);
#312=FACE_BOUND('',#287,.T.);
#313=FACE_BOUND('',#288,.T.);
#314=FACE_BOUND('',#289,.T.);
#315=FACE_BOUND('',#290,.T.);
#316=FACE_BOUND('',#291,.T.);
#317=FACE_BOUND('',#292,.T.);
#318=FACE_BOUND('',#293,.T.);
#319=FACE_BOUND('',#294,.T.);
#320=FACE_BOUND('',#295,.T.);
#321=FACE_BOUND('',#296,.T.);
#322=FACE_BOUND('',#297,.T.);
#323=FACE_BOUND('',#298,.T.);
#324=FACE_BOUND('',#299,.T.);
#325=FACE_BOUND('',#300,.T.);
#326=FACE_BOUND('',#301,.T.);
#327=FACE_BOUND('',#302,.T.);
#328=FACE_BOUND('',#303,.T.);
#329=PLANE('',#372);
#330=PLANE('',#381);
#331=PLANE('',#384);
#332=PLANE('',#386);
#333=PLANE('',#388);
#334=PLANE('',#390);
#335=PLANE('',#391);
#336=PLANE('',#392);
#337=PLANE('',#393);
#338=PLANE('',#397);
#339=PLANE('',#399);
#340=ADVANCED_FACE('',(#304),#329,.T.);
#341=ADVANCED_FACE('',(#305,#306),#13,.F.);
#342=ADVANCED_FACE('',(#307,#308),#14,.F.);
#343=ADVANCED_FACE('',(#309,#310,#311),#330,.T.);
#344=ADVANCED_FACE('',(#312),#331,.T.);
#345=ADVANCED_FACE('',(#313),#332,.T.);
#346=ADVANCED_FACE('',(#314),#333,.T.);
#347=ADVANCED_FACE('',(#315),#334,.F.);
#348=ADVANCED_FACE('',(#316),#335,.T.);
#349=ADVANCED_FACE('',(#317),#336,.T.);
#350=ADVANCED_FACE('',(#318),#337,.T.);
#351=ADVANCED_FACE('',(#319),#15,.F.);
#352=ADVANCED_FACE('',(#320,#321),#338,.F.);
#353=ADVANCED_FACE('',(#322,#323),#339,.F.);
#354=ADVANCED_FACE('',(#324),#16,.T.);
#355=ADVANCED_FACE('',(#325),#17,.T.);
#356=ADVANCED_FACE('',(#326),#18,.T.);
#357=ADVANCED_FACE('',(#327),#19,.T.);
#358=ADVANCED_FACE('',(#328),#20,.T.);
#359=CLOSED_SHELL('',(#340,#341,#342,#343,#344,#345,#346,#347,#348,#349,
#350,#351,#352,#353,#354,#355,#356,#357,#358));
#360=STYLED_ITEM('',(#361),#368);
#361=PRESENTATION_STYLE_ASSIGNMENT((#362));
#362=SURFACE_STYLE_USAGE(.BOTH.,#363);
#363=SURFACE_SIDE_STYLE('',(#364));
#364=SURFACE_STYLE_FILL_AREA(#365);
#365=FILL_AREA_STYLE('',(#366));
#366=FILL_AREA_STYLE_COLOUR('',#367);
#367=COLOUR_RGB('',0.615686274509804,0.811764705882353,0.929411764705882);
#368=MANIFOLD_SOLID_BREP('Arm Mount RL 1',#359);
#369=SHAPE_DEFINITION_REPRESENTATION(#636,#370);
#370=SHAPE_REPRESENTATION('Arm Mount RL 1',(#371),#631);
#371=AXIS2_PLACEMENT_3D('',#517,#410,#411);
#372=AXIS2_PLACEMENT_3D('',#518,#412,#413);
#373=AXIS2_PLACEMENT_3D('',#522,#415,#416);
#374=AXIS2_PLACEMENT_3D('',#528,#419,#420);
#375=AXIS2_PLACEMENT_3D('',#529,#421,#422);
#376=AXIS2_PLACEMENT_3D('',#530,#423,#424);
#377=AXIS2_PLACEMENT_3D('',#532,#425,#426);
#378=AXIS2_PLACEMENT_3D('',#534,#427,#428);
#379=AXIS2_PLACEMENT_3D('',#535,#429,#430);
#380=AXIS2_PLACEMENT_3D('',#537,#431,#432);
#381=AXIS2_PLACEMENT_3D('',#539,#433,#434);
#382=AXIS2_PLACEMENT_3D('',#543,#436,#437);
#383=AXIS2_PLACEMENT_3D('',#547,#439,#440);
#384=AXIS2_PLACEMENT_3D('',#552,#443,#444);
#385=AXIS2_PLACEMENT_3D('',#561,#449,#450);
#386=AXIS2_PLACEMENT_3D('',#562,#451,#452);
#387=AXIS2_PLACEMENT_3D('',#563,#453,#454);
#388=AXIS2_PLACEMENT_3D('',#568,#457,#458);
#389=AXIS2_PLACEMENT_3D('',#573,#461,#462);
#390=AXIS2_PLACEMENT_3D('',#574,#463,#464);
#391=AXIS2_PLACEMENT_3D('',#580,#468,#469);
#392=AXIS2_PLACEMENT_3D('',#589,#474,#475);
#393=AXIS2_PLACEMENT_3D('',#595,#479,#480);
#394=AXIS2_PLACEMENT_3D('',#596,#481,#482);
#395=AXIS2_PLACEMENT_3D('',#600,#484,#485);
#396=AXIS2_PLACEMENT_3D('',#603,#487,#488);
#397=AXIS2_PLACEMENT_3D('',#617,#491,#492);
#398=AXIS2_PLACEMENT_3D('',#618,#493,#494);
#399=AXIS2_PLACEMENT_3D('',#619,#495,#496);
#400=AXIS2_PLACEMENT_3D('',#620,#497,#498);
#401=AXIS2_PLACEMENT_3D('',#621,#499,#500);
#402=AXIS2_PLACEMENT_3D('',#622,#501,#502);
#403=AXIS2_PLACEMENT_3D('',#623,#503,#504);
#404=AXIS2_PLACEMENT_3D('',#624,#505,#506);
#405=AXIS2_PLACEMENT_3D('',#625,#507,#508);
#406=AXIS2_PLACEMENT_3D('',#626,#509,#510);
#407=AXIS2_PLACEMENT_3D('',#627,#511,#512);
#408=AXIS2_PLACEMENT_3D('',#628,#513,#514);
#409=AXIS2_PLACEMENT_3D('',#629,#515,#516);
#410=DIRECTION('',(0.,0.,1.));
#411=DIRECTION('',(1.,0.,0.));
#412=DIRECTION('',(-0.707108195398695,-0.707105366971571,0.));
#413=DIRECTION('',(0.707105366971571,-0.707108195398695,0.));
#414=DIRECTION('',(0.707105366971571,-0.707108195398695,0.));
#415=DIRECTION('',(-0.707108195398695,-0.707105366971571,0.));
#416=DIRECTION('',(-0.70528633647003,0.705289157621018,0.0716825483009536));
#417=DIRECTION('',(0.,0.,1.));
#418=DIRECTION('',(-0.707105366971571,0.707108195398695,0.));
#419=DIRECTION('',(-0.707108195398695,-0.707105366971571,0.));
#420=DIRECTION('',(0.707105366971571,-0.707108195398695,0.));
#421=DIRECTION('',(0.,0.,-1.));
#422=DIRECTION('',(-1.,0.,0.));
#423=DIRECTION('',(0.,0.,1.));
#424=DIRECTION('',(1.,0.,0.));
#425=DIRECTION('',(0.,0.,1.));
#426=DIRECTION('',(1.,0.,0.));
#427=DIRECTION('',(0.,0.,-1.));
#428=DIRECTION('',(-1.,0.,0.));
#429=DIRECTION('',(0.,0.,1.));
#430=DIRECTION('',(1.,0.,0.));
#431=DIRECTION('',(0.,0.,1.));
#432=DIRECTION('',(1.,0.,0.));
#433=DIRECTION('',(0.,0.,1.));
#434=DIRECTION('',(1.,0.,0.));
#435=DIRECTION('',(0.707108195398695,0.707105366971571,0.));
#436=DIRECTION('',(0.,0.,1.));
#437=DIRECTION('',(-0.034468268325012,0.999405792698179,0.));
#438=DIRECTION('',(0.707105366971572,-0.707108195398695,0.));
#439=DIRECTION('',(0.,0.,1.));
#440=DIRECTION('',(0.999540346319673,-0.030316597420354,0.));
#441=DIRECTION('',(-0.707108195398695,-0.707105366971571,0.));
#442=DIRECTION('',(0.707105366971572,-0.707108195398695,0.));
#443=DIRECTION('',(0.707108195398695,0.707105366971572,0.));
#444=DIRECTION('',(-0.707105366971572,0.707108195398695,0.));
#445=DIRECTION('',(0.707105366971572,-0.707108195398695,0.));
#446=DIRECTION('',(0.,0.,-1.));
#447=DIRECTION('',(0.,0.,-1.));
#448=DIRECTION('',(0.707105366971572,-0.707108195398695,0.));
#449=DIRECTION('',(0.707108195398695,0.707105366971572,0.));
#450=DIRECTION('',(-0.707105366971572,0.707108195398695,0.));
#451=DIRECTION('',(0.707105366971571,-0.707108195398695,0.));
#452=DIRECTION('',(0.707108195398695,0.707105366971571,0.));
#453=DIRECTION('',(0.707105366971571,-0.707108195398695,0.));
#454=DIRECTION('',(0.705021138107054,0.705018318028143,0.0767747749394417));
#455=DIRECTION('',(0.,0.,-1.));
#456=DIRECTION('',(-0.707108195398695,-0.707105366971571,0.));
#457=DIRECTION('',(-0.707105366971571,0.707108195398695,0.));
#458=DIRECTION('',(-0.707108195398695,-0.707105366971571,0.));
#459=DIRECTION('',(0.707108195398695,0.707105366971571,0.));
#460=DIRECTION('',(0.,0.,-1.));
#461=DIRECTION('',(-0.707105366971571,0.707108195398695,0.));
#462=DIRECTION('',(0.705021138107054,0.705018318028143,0.0767747749394417));
#463=DIRECTION('',(0.0542880725595696,0.0542878554077137,-0.997048461175784));
#464=DIRECTION('',(-0.998520953017746,0.,-0.0543682479442902));
#465=DIRECTION('',(0.0344207935855468,-0.998029264896406,-0.0524670885344357));
#466=DIRECTION('',(-0.707105366971571,0.707108195398695,0.));
#467=DIRECTION('',(-0.998151389093948,0.0302744695990995,-0.0526997242906958));
#468=DIRECTION('',(-0.030316597420354,-0.999540346319673,0.));
#469=DIRECTION('',(0.999540346319673,-0.030316597420354,0.));
#470=DIRECTION('',(-0.999540346319673,0.030316597420354,0.));
#471=DIRECTION('',(0.,0.,-1.));
#472=DIRECTION('',(0.998151389093948,-0.0302744695990995,0.0526997242906958));
#473=DIRECTION('',(0.,0.,1.));
#474=DIRECTION('',(-0.999405792698179,-0.034468268325012,0.));
#475=DIRECTION('',(0.034468268325012,-0.999405792698179,0.));
#476=DIRECTION('',(-0.0344207935855468,0.998029264896406,0.0524670885344358));
#477=DIRECTION('',(0.,0.,-1.));
#478=DIRECTION('',(-0.034468268325012,0.999405792698179,0.));
#479=DIRECTION('',(-0.707108195398695,-0.707105366971571,0.));
#480=DIRECTION('',(0.707105366971571,-0.707108195398695,0.));
#481=DIRECTION('',(-0.707108195398695,-0.707105366971571,0.));
#482=DIRECTION('',(0.705255885500619,-0.705258706529802,0.0722792697157995));
#483=DIRECTION('',(0.707105366971571,-0.707108195398695,0.));
#484=DIRECTION('',(-0.707108195398695,-0.707105366971571,0.));
#485=DIRECTION('',(0.707105366971571,-0.707108195398695,0.));
#486=DIRECTION('',(-0.707105366971571,0.707108195398695,0.));
#487=DIRECTION('',(0.707108195398695,0.707105366971572,0.));
#488=DIRECTION('',(-0.707105366971572,0.707108195398695,0.));
#489=DIRECTION('',(0.707108195398695,0.707105366971572,0.));
#490=DIRECTION('',(0.707108195398695,0.707105366971572,0.));
#491=DIRECTION('',(0.,0.,1.));
#492=DIRECTION('',(1.,0.,0.));
#493=DIRECTION('',(0.,0.,1.));
#494=DIRECTION('',(1.,0.,0.));
#495=DIRECTION('',(0.,0.,1.));
#496=DIRECTION('',(1.,0.,0.));
#497=DIRECTION('',(0.,0.,1.));
#498=DIRECTION('',(1.,0.,0.));
#499=DIRECTION('',(0.,0.,-1.));
#500=DIRECTION('',(-1.,0.,0.));
#501=DIRECTION('',(0.725166254076119,-0.0219946833247897,-0.688222447944451));
#502=DIRECTION('',(0.68790610396337,-0.0208645628899824,0.72549973269833));
#503=DIRECTION('',(0.998151389093948,-0.0302744695990995,0.0526997242906958));
#504=DIRECTION('',(0.0527238916999525,0.,-0.998609128360047));
#505=DIRECTION('',(0.917493024568473,-0.396739933248617,0.0283544570408008));
#506=DIRECTION('',(0.394029637268521,0.916324317106729,0.0713469749388389));
#507=DIRECTION('',(0.707105366971571,-0.707108195398695,0.));
#508=DIRECTION('',(0.707108195398695,0.707105366971571,0.));
#509=DIRECTION('',(0.39864073511236,-0.916673324281594,-0.0282060429626092));
#510=DIRECTION('',(0.915498972957832,0.395932879798788,0.0714057785294255));
#511=DIRECTION('',(-0.0344207935855468,0.998029264896406,0.0524670885344358));
#512=DIRECTION('',(0.,-0.0524981974482989,0.998621018837817));
#513=DIRECTION('',(-0.0250039561904585,0.724988514696642,-0.688306948775604));
#514=DIRECTION('',(-0.0237247486003678,0.687897951760747,0.725419564298633));
#515=DIRECTION('',(0.,0.,-1.));
#516=DIRECTION('',(-1.,0.,0.));
#517=CARTESIAN_POINT('',(0.,0.,0.));
#518=CARTESIAN_POINT('',(-0.0928816834727155,-0.0928098567619957,0.0215391479432583));
#519=CARTESIAN_POINT('',(-0.0928816834727155,-0.0928098567619957,0.0265719985059308));
#520=CARTESIAN_POINT('',(-0.0973649035397865,-0.0883266187620086,0.0265719985059308));
#521=CARTESIAN_POINT('',(-0.0987180661426726,-0.0869734507464613,0.0265719985059308));
#522=CARTESIAN_POINT('',(-0.0951125939251681,-0.0905789373858835,0.0263040467741572));
#523=CARTESIAN_POINT('',(-0.0987188382770658,-0.0869726786089795,0.0264999357612031));
#524=CARTESIAN_POINT('',(-0.0987188382770658,-0.0869726786089795,0.0215391479432583));
#525=CARTESIAN_POINT('',(-0.0987188382770658,-0.0869726786089795,0.021002));
#526=CARTESIAN_POINT('',(-0.0928816834727155,-0.0928098567619957,0.021002));
#527=CARTESIAN_POINT('',(-0.0986050868721365,-0.0870864304689154,0.021002));
#528=CARTESIAN_POINT('',(-0.0929615312021171,-0.0927300087132026,0.02155));
#529=CARTESIAN_POINT('',(-0.0876276009427248,-0.0515362410507522,0.01135));
#530=CARTESIAN_POINT('',(-0.0876276009427248,-0.0515362410507522,0.021002));
#531=CARTESIAN_POINT('',(-0.0852026009427248,-0.0515362410507522,0.021002));
#532=CARTESIAN_POINT('',(-0.0876276009427248,-0.0515362410507522,0.03175));
#533=CARTESIAN_POINT('',(-0.0852026009427248,-0.0515362410507522,0.03175));
#534=CARTESIAN_POINT('',(-0.0517677422042753,-0.0873962432289235,0.01135));
#535=CARTESIAN_POINT('',(-0.0517677422042753,-0.0873962432289235,0.021002));
#536=CARTESIAN_POINT('',(-0.0493427422042753,-0.0873962432289235,0.021002));
#537=CARTESIAN_POINT('',(-0.0517677422042753,-0.0873962432289235,0.03175));
#538=CARTESIAN_POINT('',(-0.0493427422042753,-0.0873962432289235,0.03175));
#539=CARTESIAN_POINT('',(7.9804436188255E-5,0.00023140064903196,0.03175));
#540=CARTESIAN_POINT('',(-0.0929308841239438,-0.0426973956793364,0.03175));
#541=CARTESIAN_POINT('',(-0.097986184099226,-0.0477526754334592,0.03175));
#542=CARTESIAN_POINT('',(-0.0858598021699568,-0.0356263420096206,0.03175));
#543=CARTESIAN_POINT('',(-0.0986853866434117,0.0130140167205895,0.03175));
#544=CARTESIAN_POINT('',(-0.0965981294841195,-0.0531722995582369,0.03175));
#545=CARTESIAN_POINT('',(-0.0964664392430729,-0.0533039903260455,0.03175));
#546=CARTESIAN_POINT('',(-0.0533895529779602,-0.0963810488990479,0.03175));
#547=CARTESIAN_POINT('',(0.012513467643796,-0.0981852823629248,0.03175));
#548=CARTESIAN_POINT('',(-0.047977521947821,-0.0977481454728644,0.03175));
#549=CARTESIAN_POINT('',(-0.0429289180460629,-0.0926995617654815,0.03175));
#550=CARTESIAN_POINT('',(-0.0358578360920759,-0.0856285080957658,0.03175));
#551=CARTESIAN_POINT('',(-0.0608588191310164,-0.0606274250526932,0.03175));
#552=CARTESIAN_POINT('',(-0.0608588191310164,-0.0606274250526932,0.03175));
#553=CARTESIAN_POINT('',(-0.0608588191310164,-0.0606274250526932,0.021002));
#554=CARTESIAN_POINT('',(-0.0858598021699568,-0.0356263420096206,0.021002));
#555=CARTESIAN_POINT('',(-0.0665023748010357,-0.054983846808406,0.021002));
#556=CARTESIAN_POINT('',(-0.0858598021699568,-0.0356263420096206,0.03175));
#557=CARTESIAN_POINT('',(-0.0358578360920759,-0.0856285080957658,0.03175));
#558=CARTESIAN_POINT('',(-0.0358578360920759,-0.0856285080957658,0.021002));
#559=CARTESIAN_POINT('',(-0.0608588191310164,-0.0606274250526932,0.021002));
#560=CARTESIAN_POINT('',(-0.0552152634609969,-0.0662710032969805,0.021002));
#561=CARTESIAN_POINT('',(-0.0608588191310163,-0.0606274250526932,0.02155));
#562=CARTESIAN_POINT('',(-0.0429289180460629,-0.0926995617654815,0.03175));
#563=CARTESIAN_POINT('',(-0.046621070984104,-0.0963916999349404,0.0286278544860047));
#564=CARTESIAN_POINT('',(-0.0489368069484973,-0.0987074266364084,0.0310469844395285));
#565=CARTESIAN_POINT('',(-0.0489368069484973,-0.0987074266364084,0.03175));
#566=CARTESIAN_POINT('',(-0.0489368069484973,-0.0987074266364084,0.021002));
#567=CARTESIAN_POINT('',(-0.0429289180460629,-0.0926995617654815,0.021002));
#568=CARTESIAN_POINT('',(-0.0929308841239438,-0.0426973956793364,0.03175));
#569=CARTESIAN_POINT('',(-0.0929308841239438,-0.0426973956793364,0.021002));
#570=CARTESIAN_POINT('',(-0.098932697118657,-0.0486991846668456,0.021002));
#571=CARTESIAN_POINT('',(-0.098932697118657,-0.0486991846668456,0.03175));
#572=CARTESIAN_POINT('',(-0.098932697118657,-0.0486991846668457,0.0310574504656901));
#573=CARTESIAN_POINT('',(-0.0966361785074343,-0.046402675241679,0.0286264234203782));
#574=CARTESIAN_POINT('',(-0.00215996090094356,-0.00215995226111724,0.0396695920659651));
#575=CARTESIAN_POINT('',(-0.0982529675376521,-0.0051903492878293,0.034272444302426));
#576=CARTESIAN_POINT('',(-0.0954772940687793,-0.0856708688565212,0.0300415277411303));
#577=CARTESIAN_POINT('',(-0.0905742724168957,-0.0905739101205307,0.0300415277411303));
#578=CARTESIAN_POINT('',(-0.0857486209118373,-0.0953995809282337,0.0300415277411303));
#579=CARTESIAN_POINT('',(-0.00477982478933333,-0.0978554081539129,0.0343164636661095));
#580=CARTESIAN_POINT('',(-0.00306927006943435,-0.101194049767977,0.));
#581=CARTESIAN_POINT('',(-0.00306927006943435,-0.101194049767977,0.021002));
#582=CARTESIAN_POINT('',(-0.0515028879001884,-0.0997250320351833,0.021002));
#583=CARTESIAN_POINT('',(-0.0870445286683652,-0.0986470349150119,0.021002));
#584=CARTESIAN_POINT('',(-0.0515028879001884,-0.0997250320351833,0.));
#585=CARTESIAN_POINT('',(-0.0515028879001884,-0.0997250320351833,0.0283756774974355));
#586=CARTESIAN_POINT('',(-0.00469640885014389,-0.101144697771788,0.03084693443091));
#587=CARTESIAN_POINT('',(-0.0870445286683652,-0.0986470349150119,0.0264991739031039));
#588=CARTESIAN_POINT('',(-0.0870445286683652,-0.0986470349150119,0.0215391479432583));
#589=CARTESIAN_POINT('',(-0.101597570533881,-0.00350397440951067,0.));
#590=CARTESIAN_POINT('',(-0.10154178818019,-0.00512138108869891,0.0308029150672265));
#591=CARTESIAN_POINT('',(-0.0999498441401005,-0.0512797224453114,0.0283763391463175));
#592=CARTESIAN_POINT('',(-0.0999498441401005,-0.0512797224453114,0.));
#593=CARTESIAN_POINT('',(-0.0999498441401005,-0.0512797224453114,0.021002));
#594=CARTESIAN_POINT('',(-0.101597570533881,-0.00350397440951067,0.021002));
#595=CARTESIAN_POINT('',(-0.0928816834727155,-0.0928098567619957,0.0215391479432583));
#596=CARTESIAN_POINT('',(-0.0906348097045037,-0.0950567395177206,0.0263040467741572));
#597=CARTESIAN_POINT('',(-0.0870453137133152,-0.0986462498669217,0.0265719985059308));
#598=CARTESIAN_POINT('',(-0.0928816834727155,-0.0928098567619957,0.0265719985059308));
#599=CARTESIAN_POINT('',(-0.0885581588644477,-0.0971333986643966,0.0265719985059308));
#600=CARTESIAN_POINT('',(-0.0929615312021171,-0.0927300087132026,0.02155));
#601=CARTESIAN_POINT('',(-0.0873179755320977,-0.0983735869574898,0.021002));
#602=CARTESIAN_POINT('',(-0.0928816834727155,-0.0928098567619957,0.021002));
#603=CARTESIAN_POINT('',(-0.10109044701642,-0.100858892011908,0.02155));
#604=CARTESIAN_POINT('',(-0.0885581588644477,-0.0971333986643966,0.0265719985059308));
#605=CARTESIAN_POINT('',(-0.0888340654535155,-0.0968574909717003,0.0270558394709746));
#606=CARTESIAN_POINT('',(-0.0893152332079854,-0.0960977198768189,0.0279117523465294));
#607=CARTESIAN_POINT('',(-0.0899675521843889,-0.0946330961853876,0.0288297052775173));
#608=CARTESIAN_POINT('',(-0.0906626020139871,-0.0930161415351313,0.0294059015291009));
#609=CARTESIAN_POINT('',(-0.0916843840011656,-0.0914499396343251,0.0296222911860826));
#610=CARTESIAN_POINT('',(-0.0932515564472701,-0.0904292871073737,0.0294049321495381));
#611=CARTESIAN_POINT('',(-0.0948666239748168,-0.0897351516063651,0.0288284454168276));
#612=CARTESIAN_POINT('',(-0.0963281195460165,-0.0890841901949705,0.0279124917162083));
#613=CARTESIAN_POINT('',(-0.0970888169864382,-0.0886027064197054,0.0270561550636231));
#614=CARTESIAN_POINT('',(-0.0973649035397865,-0.0883266187620086,0.0265719985059308));
#615=CARTESIAN_POINT('',(-0.10673400268644,-0.0952153137676206,0.021002));
#616=CARTESIAN_POINT('',(-0.0954468913464011,-0.106502470256195,0.021002));
#617=CARTESIAN_POINT('',(0.000680295059272966,0.000231400649031973,0.021002));
#618=CARTESIAN_POINT('',(-0.0964721118626693,-0.051159779765194,0.021002));
#619=CARTESIAN_POINT('',(0.000680295059272966,0.000231400649031973,0.021002));
#620=CARTESIAN_POINT('',(-0.051397392204485,-0.0962468315380601,0.021002));
#621=CARTESIAN_POINT('',(-0.051397392204485,-0.0962468315380601,0.03175));
#622=CARTESIAN_POINT('',(-0.051397392204485,-0.0962468315380601,0.0283756774974355));
#623=CARTESIAN_POINT('',(-0.00459091315444054,-0.0976664972746652,0.03084693443091));
#624=CARTESIAN_POINT('',(-0.0855597092769445,-0.095210670048986,0.0265719985059308));
#625=CARTESIAN_POINT('',(-0.0904210883743671,-0.090349271506008,0.0265719985059308));
#626=CARTESIAN_POINT('',(-0.0952883824338866,-0.0854819579772734,0.0265719985059308));
#627=CARTESIAN_POINT('',(-0.0980640559027593,-0.00500143840858153,0.0308029150672266));
#628=CARTESIAN_POINT('',(-0.0964721118626694,-0.051159779765194,0.0283763391463175));
#629=CARTESIAN_POINT('',(-0.0964721118626693,-0.051159779765194,0.));
#630=MECHANICAL_DESIGN_GEOMETRIC_PRESENTATION_REPRESENTATION('',(#360),
#631);
#631=(
GEOMETRIC_REPRESENTATION_CONTEXT(3)
GLOBAL_UNCERTAINTY_ASSIGNED_CONTEXT((#632))
GLOBAL_UNIT_ASSIGNED_CONTEXT((#635,#634,#633))
REPRESENTATION_CONTEXT('Arm Mount RL 1','TOP_LEVEL_ASSEMBLY_PART')
);
#632=UNCERTAINTY_MEASURE_WITH_UNIT(LENGTH_MEASURE(2.E-5),#635,
'DISTANCE_ACCURACY_VALUE','Maximum Tolerance applied to model');
#633=(
NAMED_UNIT(*)
SI_UNIT($,.STERADIAN.)
SOLID_ANGLE_UNIT()
);
#634=(
NAMED_UNIT(*)
PLANE_ANGLE_UNIT()
SI_UNIT($,.RADIAN.)
);
#635=(
LENGTH_UNIT()
NAMED_UNIT(*)
SI_UNIT($,.METRE.)
);
#636=PRODUCT_DEFINITION_SHAPE('','',#637);
#637=PRODUCT_DEFINITION('','',#639,#638);
#638=PRODUCT_DEFINITION_CONTEXT('',#645,'design');
#639=PRODUCT_DEFINITION_FORMATION_WITH_SPECIFIED_SOURCE('','',#641,
 .NOT_KNOWN.);
#640=PRODUCT_RELATED_PRODUCT_CATEGORY('','',(#641));
#641=PRODUCT('Arm Mount RL 1','Arm Mount RL 1','Arm Mount RL 1',(#643));
#642=PRODUCT_CATEGORY('','');
#643=PRODUCT_CONTEXT('',#645,'mechanical');
#644=APPLICATION_PROTOCOL_DEFINITION('international standard',
'ap242_managed_model_based_3d_engineering',2020,#645);
#645=APPLICATION_CONTEXT('managed model based 3d engineering');
ENDSEC;
END-ISO-10303-21;
