ISO-10303-21;
HEADER;
/* Generated by software containing ST-Developer
 * from STEP Tools, Inc. (www.steptools.com) 
 */
/* OPTION: using custom renumber hook */

FILE_DESCRIPTION(
/* description */ ('STEP AP242 Edition 2',
'CAx-IF Rec.Pracs.---Representation and Presentation of Product Manufa
cturing Information (PMI)---4.0---2014-10-13',
'CAx-IF Rec.Pracs.---3D Tessellated Geometry---0.4---2014-09-14','2;1',
'CAx-IF Rec.Pracs.---User Defined Attributes---1.5---2016-08-15'),
/* implementation_level */ '2;1');

FILE_NAME(
/* name */ 'Part Studio 1 - Motor Mount Top RL',
/* time_stamp */ '2026-06-27T17:59:53Z',
/* author */ (''),
/* organization */ (''),
/* preprocessor_version */ 'ST-DEVELOPER v20',
/* originating_system */ 'ONSHAPE BY PTC INC, 1.217',
/* authorisation */ '  ');

FILE_SCHEMA (('AP242_MANAGED_MODEL_BASED_3D_ENGINEERING_MIM_LF { 1 0 10303 442 3 1 4 }'));
ENDSEC;

DATA;
#10=SHAPE_REPRESENTATION_RELATIONSHIP('','',#795,#11);
#11=ADVANCED_BREP_SHAPE_REPRESENTATION('',(#793),#1437);
#12=ELLIPSE('',#874,0.0049211803543459,0.0034798);
#13=ELLIPSE('',#876,0.00492233156961979,0.0034798);
#14=SPHERICAL_SURFACE('',#869,0.0034798);
#15=SPHERICAL_SURFACE('',#871,0.0034798);
#16=B_SPLINE_CURVE_WITH_KNOTS('',3,(#1145,#1146,#1147,#1148),
 .UNSPECIFIED.,.F.,.F.,(4,4),(0.,8.15066187381567E-5),.UNSPECIFIED.);
#17=B_SPLINE_CURVE_WITH_KNOTS('',3,(#1150,#1151,#1152,#1153,#1154,#1155,
#1156,#1157,#1158,#1159,#1160,#1161,#1162,#1163,#1164),.UNSPECIFIED.,.F.,
 .F.,(4,1,1,1,1,1,1,1,1,1,1,1,4),(0.,0.00195600778423547,0.00391201556847095,
0.00489001946058869,0.00586802335270642,0.00684602724482416,0.0078240311369419,
0.00880203502905964,0.00978003892117738,0.0107580428132951,0.0117360467054128,
0.0136920544896483,0.0156480622738838),.UNSPECIFIED.);
#18=B_SPLINE_CURVE_WITH_KNOTS('',3,(#1166,#1167,#1168,#1169),
 .UNSPECIFIED.,.F.,.F.,(4,4),(0.000461986850531499,0.000543493469269664),
 .UNSPECIFIED.);
#19=B_SPLINE_CURVE_WITH_KNOTS('',3,(#1174,#1175,#1176,#1177),
 .UNSPECIFIED.,.F.,.F.,(4,4),(0.,8.15152601867535E-5),.UNSPECIFIED.);
#20=B_SPLINE_CURVE_WITH_KNOTS('',3,(#1179,#1180,#1181,#1182,#1183,#1184,
#1185,#1186,#1187,#1188,#1189,#1190,#1191,#1192,#1193),.UNSPECIFIED.,.F.,
 .F.,(4,1,1,1,1,1,1,1,1,1,1,1,4),(0.,0.00195199068918083,0.00390398137836166,
0.00487997672295208,0.00585597206754249,0.00683196741213291,0.00780796275672332,
0.00878395810131374,0.00975995344590416,0.0107359487904946,0.011711944135085,
0.0136639348242658,0.0156159255134466),.UNSPECIFIED.);
#21=B_SPLINE_CURVE_WITH_KNOTS('',3,(#1195,#1196,#1197,#1198),
 .UNSPECIFIED.,.F.,.F.,(4,4),(0.000461951434339828,0.000543466694526578),
 .UNSPECIFIED.);
#22=B_SPLINE_CURVE_WITH_KNOTS('',3,(#1203,#1204,#1205,#1206),
 .UNSPECIFIED.,.F.,.F.,(4,4),(0.,8.15070046825407E-5),.UNSPECIFIED.);
#23=B_SPLINE_CURVE_WITH_KNOTS('',3,(#1208,#1209,#1210,#1211,#1212,#1213,
#1214,#1215,#1216,#1217,#1218,#1219,#1220,#1221,#1222),.UNSPECIFIED.,.F.,
 .F.,(4,1,1,1,1,1,1,1,1,1,1,1,4),(0.,0.00195543513603948,0.00391087027207896,
0.0048885878400987,0.00586630540811844,0.00684402297613818,0.00782174054415793,
0.00879945811217767,0.00977717568019741,0.0107548932482171,0.0117326108162369,
0.0136880459522764,0.0156434810883159),.UNSPECIFIED.);
#24=B_SPLINE_CURVE_WITH_KNOTS('',3,(#1224,#1225,#1226,#1227),
 .UNSPECIFIED.,.F.,.F.,(4,4),(0.000461982539433245,0.00054348954411579),
 .UNSPECIFIED.);
#25=B_SPLINE_CURVE_WITH_KNOTS('',3,(#1232,#1233,#1234,#1235),
 .UNSPECIFIED.,.F.,.F.,(4,4),(0.,8.15156207589479E-5),.UNSPECIFIED.);
#26=B_SPLINE_CURVE_WITH_KNOTS('',3,(#1237,#1238,#1239,#1240,#1241,#1242,
#1243,#1244,#1245,#1246,#1247,#1248,#1249,#1250,#1251),.UNSPECIFIED.,.F.,
 .F.,(4,1,1,1,1,1,1,1,1,1,1,1,4),(0.,0.00195141996004298,0.00390283992008595,
0.00487854990010744,0.00585425988012893,0.00682996986015041,0.0078056798401719,
0.00878138982019339,0.00975709980021488,0.0107328097802364,0.0117085197602579,
0.0136599397203008,0.0156113596803438),.UNSPECIFIED.);
#27=B_SPLINE_CURVE_WITH_KNOTS('',3,(#1253,#1254,#1255,#1256),
 .UNSPECIFIED.,.F.,.F.,(4,4),(0.000461947409156693,0.000543463029915644),
 .UNSPECIFIED.);
#28=B_SPLINE_CURVE_WITH_KNOTS('',3,(#1258,#1259,#1260,#1261,#1262),
 .UNSPECIFIED.,.F.,.F.,(4,1,4),(0.,0.00140416367122875,0.00280832734245749),
 .UNSPECIFIED.);
#29=B_SPLINE_CURVE_WITH_KNOTS('',3,(#1263,#1264,#1265,#1266,#1267),
 .UNSPECIFIED.,.F.,.F.,(4,1,4),(0.,0.00140772417920429,0.00281544835840858),
 .UNSPECIFIED.);
#30=B_SPLINE_CURVE_WITH_KNOTS('',3,(#1337,#1338,#1339,#1340,#1341),
 .UNSPECIFIED.,.F.,.F.,(4,1,4),(0.,0.00140772417920388,0.00281544835840775),
 .UNSPECIFIED.);
#31=B_SPLINE_CURVE_WITH_KNOTS('',3,(#1342,#1343,#1344,#1345,#1346),
 .UNSPECIFIED.,.F.,.F.,(4,1,4),(0.,0.00141127947799803,0.00282255895599607),
 .UNSPECIFIED.);
#32=B_SPLINE_CURVE_WITH_KNOTS('',3,(#1348,#1349,#1350,#1351,#1352),
 .UNSPECIFIED.,.F.,.F.,(4,1,4),(0.,0.00140772417920429,0.00281544835840858),
 .UNSPECIFIED.);
#33=B_SPLINE_CURVE_WITH_KNOTS('',3,(#1353,#1354,#1355,#1356,#1357),
 .UNSPECIFIED.,.F.,.F.,(4,1,4),(0.,0.00140772417920413,0.00281544835840826),
 .UNSPECIFIED.);
#34=B_SPLINE_CURVE_WITH_KNOTS('',3,(#1361,#1362,#1363,#1364,#1365),
 .UNSPECIFIED.,.F.,.F.,(4,1,4),(0.,0.00140772417920405,0.0028154483584081),
 .UNSPECIFIED.);
#35=B_SPLINE_CURVE_WITH_KNOTS('',3,(#1395,#1396,#1397,#1398,#1399),
 .UNSPECIFIED.,.F.,.F.,(4,1,4),(0.,0.00140772417920429,0.00281544835840858),
 .UNSPECIFIED.);
#36=CYLINDRICAL_SURFACE('',#813,0.0016);
#37=CYLINDRICAL_SURFACE('',#815,0.00159999999999997);
#38=CYLINDRICAL_SURFACE('',#817,0.0016);
#39=CYLINDRICAL_SURFACE('',#819,0.0016);
#40=CYLINDRICAL_SURFACE('',#821,0.002);
#41=CYLINDRICAL_SURFACE('',#828,0.008);
#42=CYLINDRICAL_SURFACE('',#837,0.002);
#43=CYLINDRICAL_SURFACE('',#838,0.002);
#44=CYLINDRICAL_SURFACE('',#840,0.00199999999999998);
#45=CYLINDRICAL_SURFACE('',#847,0.002);
#46=CYLINDRICAL_SURFACE('',#853,0.002);
#47=CYLINDRICAL_SURFACE('',#859,0.008);
#48=CYLINDRICAL_SURFACE('',#862,0.0034798);
#49=CYLINDRICAL_SURFACE('',#864,0.0034798);
#50=CYLINDRICAL_SURFACE('',#866,0.0034798);
#51=CYLINDRICAL_SURFACE('',#873,0.0034798);
#52=CYLINDRICAL_SURFACE('',#875,0.0034798);
#53=CYLINDRICAL_SURFACE('',#877,0.0034798);
#54=LINE('',#1105,#104);
#55=LINE('',#1109,#105);
#56=LINE('',#1115,#106);
#57=LINE('',#1119,#107);
#58=LINE('',#1121,#108);
#59=LINE('',#1124,#109);
#60=LINE('',#1128,#110);
#61=LINE('',#1131,#111);
#62=LINE('',#1138,#112);
#63=LINE('',#1140,#113);
#64=LINE('',#1268,#114);
#65=LINE('',#1273,#115);
#66=LINE('',#1277,#116);
#67=LINE('',#1280,#117);
#68=LINE('',#1282,#118);
#69=LINE('',#1284,#119);
#70=LINE('',#1286,#120);
#71=LINE('',#1288,#121);
#72=LINE('',#1290,#122);
#73=LINE('',#1292,#123);
#74=LINE('',#1294,#124);
#75=LINE('',#1296,#125);
#76=LINE('',#1298,#126);
#77=LINE('',#1303,#127);
#78=LINE('',#1308,#128);
#79=LINE('',#1314,#129);
#80=LINE('',#1317,#130);
#81=LINE('',#1319,#131);
#82=LINE('',#1321,#132);
#83=LINE('',#1323,#133);
#84=LINE('',#1326,#134);
#85=LINE('',#1328,#135);
#86=LINE('',#1331,#136);
#87=LINE('',#1366,#137);
#88=LINE('',#1368,#138);
#89=LINE('',#1372,#139);
#90=LINE('',#1374,#140);
#91=LINE('',#1376,#141);
#92=LINE('',#1379,#142);
#93=LINE('',#1381,#143);
#94=LINE('',#1383,#144);
#95=LINE('',#1385,#145);
#96=LINE('',#1387,#146);
#97=LINE('',#1393,#147);
#98=LINE('',#1402,#148);
#99=LINE('',#1409,#149);
#100=LINE('',#1411,#150);
#101=LINE('',#1413,#151);
#102=LINE('',#1415,#152);
#103=LINE('',#1417,#153);
#104=VECTOR('',#892,1.);
#105=VECTOR('',#895,1.);
#106=VECTOR('',#900,1.);
#107=VECTOR('',#903,1.);
#108=VECTOR('',#906,1.);
#109=VECTOR('',#907,1.);
#110=VECTOR('',#912,1.);
#111=VECTOR('',#913,1.);
#112=VECTOR('',#920,1.);
#113=VECTOR('',#921,1.);
#114=VECTOR('',#940,1.);
#115=VECTOR('',#943,1.);
#116=VECTOR('',#948,1.);
#117=VECTOR('',#949,1.);
#118=VECTOR('',#950,1.);
#119=VECTOR('',#951,1.);
#120=VECTOR('',#952,1.);
#121=VECTOR('',#953,1.);
#122=VECTOR('',#956,1.);
#123=VECTOR('',#957,1.);
#124=VECTOR('',#958,1.);
#125=VECTOR('',#959,1.);
#126=VECTOR('',#960,1.);
#127=VECTOR('',#967,1.);
#128=VECTOR('',#970,1.);
#129=VECTOR('',#977,1.);
#130=VECTOR('',#978,1.);
#131=VECTOR('',#979,1.);
#132=VECTOR('',#980,1.);
#133=VECTOR('',#981,1.);
#134=VECTOR('',#984,1.);
#135=VECTOR('',#987,1.);
#136=VECTOR('',#988,1.);
#137=VECTOR('',#1001,1.);
#138=VECTOR('',#1002,1.);
#139=VECTOR('',#1005,1.);
#140=VECTOR('',#1006,1.);
#141=VECTOR('',#1009,1.);
#142=VECTOR('',#1010,1.);
#143=VECTOR('',#1011,1.);
#144=VECTOR('',#1012,1.);
#145=VECTOR('',#1013,1.);
#146=VECTOR('',#1016,1.);
#147=VECTOR('',#1023,1.);
#148=VECTOR('',#1030,1.);
#149=VECTOR('',#1043,1.);
#150=VECTOR('',#1046,1.);
#151=VECTOR('',#1049,1.);
#152=VECTOR('',#1052,1.);
#153=VECTOR('',#1055,1.);
#154=ORIENTED_EDGE('',*,*,#380,.F.);
#155=ORIENTED_EDGE('',*,*,#381,.F.);
#156=ORIENTED_EDGE('',*,*,#382,.F.);
#157=ORIENTED_EDGE('',*,*,#383,.F.);
#158=ORIENTED_EDGE('',*,*,#384,.F.);
#159=ORIENTED_EDGE('',*,*,#385,.T.);
#160=ORIENTED_EDGE('',*,*,#386,.F.);
#161=ORIENTED_EDGE('',*,*,#387,.T.);
#162=ORIENTED_EDGE('',*,*,#388,.F.);
#163=ORIENTED_EDGE('',*,*,#389,.F.);
#164=ORIENTED_EDGE('',*,*,#390,.T.);
#165=ORIENTED_EDGE('',*,*,#391,.F.);
#166=ORIENTED_EDGE('',*,*,#392,.T.);
#167=ORIENTED_EDGE('',*,*,#393,.T.);
#168=ORIENTED_EDGE('',*,*,#394,.T.);
#169=ORIENTED_EDGE('',*,*,#395,.F.);
#170=ORIENTED_EDGE('',*,*,#396,.T.);
#171=ORIENTED_EDGE('',*,*,#397,.T.);
#172=ORIENTED_EDGE('',*,*,#398,.F.);
#173=ORIENTED_EDGE('',*,*,#399,.F.);
#174=ORIENTED_EDGE('',*,*,#400,.T.);
#175=ORIENTED_EDGE('',*,*,#401,.T.);
#176=ORIENTED_EDGE('',*,*,#383,.T.);
#177=ORIENTED_EDGE('',*,*,#402,.F.);
#178=ORIENTED_EDGE('',*,*,#403,.F.);
#179=ORIENTED_EDGE('',*,*,#404,.F.);
#180=ORIENTED_EDGE('',*,*,#405,.F.);
#181=ORIENTED_EDGE('',*,*,#380,.T.);
#182=ORIENTED_EDGE('',*,*,#406,.F.);
#183=ORIENTED_EDGE('',*,*,#407,.F.);
#184=ORIENTED_EDGE('',*,*,#408,.F.);
#185=ORIENTED_EDGE('',*,*,#409,.F.);
#186=ORIENTED_EDGE('',*,*,#381,.T.);
#187=ORIENTED_EDGE('',*,*,#410,.F.);
#188=ORIENTED_EDGE('',*,*,#411,.F.);
#189=ORIENTED_EDGE('',*,*,#412,.F.);
#190=ORIENTED_EDGE('',*,*,#413,.F.);
#191=ORIENTED_EDGE('',*,*,#382,.T.);
#192=ORIENTED_EDGE('',*,*,#414,.F.);
#193=ORIENTED_EDGE('',*,*,#415,.F.);
#194=ORIENTED_EDGE('',*,*,#416,.F.);
#195=ORIENTED_EDGE('',*,*,#417,.F.);
#196=ORIENTED_EDGE('',*,*,#398,.T.);
#197=ORIENTED_EDGE('',*,*,#418,.T.);
#198=ORIENTED_EDGE('',*,*,#391,.T.);
#199=ORIENTED_EDGE('',*,*,#419,.T.);
#200=ORIENTED_EDGE('',*,*,#420,.F.);
#201=ORIENTED_EDGE('',*,*,#421,.F.);
#202=ORIENTED_EDGE('',*,*,#422,.F.);
#203=ORIENTED_EDGE('',*,*,#423,.F.);
#204=ORIENTED_EDGE('',*,*,#424,.T.);
#205=ORIENTED_EDGE('',*,*,#425,.T.);
#206=ORIENTED_EDGE('',*,*,#426,.F.);
#207=ORIENTED_EDGE('',*,*,#427,.F.);
#208=ORIENTED_EDGE('',*,*,#428,.F.);
#209=ORIENTED_EDGE('',*,*,#429,.T.);
#210=ORIENTED_EDGE('',*,*,#428,.T.);
#211=ORIENTED_EDGE('',*,*,#430,.F.);
#212=ORIENTED_EDGE('',*,*,#431,.F.);
#213=ORIENTED_EDGE('',*,*,#432,.F.);
#214=ORIENTED_EDGE('',*,*,#433,.F.);
#215=ORIENTED_EDGE('',*,*,#434,.T.);
#216=ORIENTED_EDGE('',*,*,#435,.T.);
#217=ORIENTED_EDGE('',*,*,#436,.F.);
#218=ORIENTED_EDGE('',*,*,#421,.T.);
#219=ORIENTED_EDGE('',*,*,#437,.F.);
#220=ORIENTED_EDGE('',*,*,#438,.T.);
#221=ORIENTED_EDGE('',*,*,#439,.T.);
#222=ORIENTED_EDGE('',*,*,#440,.F.);
#223=ORIENTED_EDGE('',*,*,#441,.F.);
#224=ORIENTED_EDGE('',*,*,#442,.T.);
#225=ORIENTED_EDGE('',*,*,#443,.T.);
#226=ORIENTED_EDGE('',*,*,#444,.T.);
#227=ORIENTED_EDGE('',*,*,#445,.T.);
#228=ORIENTED_EDGE('',*,*,#446,.T.);
#229=ORIENTED_EDGE('',*,*,#447,.F.);
#230=ORIENTED_EDGE('',*,*,#431,.T.);
#231=ORIENTED_EDGE('',*,*,#448,.F.);
#232=ORIENTED_EDGE('',*,*,#449,.T.);
#233=ORIENTED_EDGE('',*,*,#450,.T.);
#234=ORIENTED_EDGE('',*,*,#451,.F.);
#235=ORIENTED_EDGE('',*,*,#452,.F.);
#236=ORIENTED_EDGE('',*,*,#395,.T.);
#237=ORIENTED_EDGE('',*,*,#453,.T.);
#238=ORIENTED_EDGE('',*,*,#384,.T.);
#239=ORIENTED_EDGE('',*,*,#454,.T.);
#240=ORIENTED_EDGE('',*,*,#435,.F.);
#241=ORIENTED_EDGE('',*,*,#386,.T.);
#242=ORIENTED_EDGE('',*,*,#455,.T.);
#243=ORIENTED_EDGE('',*,*,#399,.T.);
#244=ORIENTED_EDGE('',*,*,#456,.T.);
#245=ORIENTED_EDGE('',*,*,#457,.F.);
#246=ORIENTED_EDGE('',*,*,#388,.T.);
#247=ORIENTED_EDGE('',*,*,#458,.T.);
#248=ORIENTED_EDGE('',*,*,#452,.T.);
#249=ORIENTED_EDGE('',*,*,#459,.F.);
#250=ORIENTED_EDGE('',*,*,#460,.F.);
#251=ORIENTED_EDGE('',*,*,#461,.F.);
#252=ORIENTED_EDGE('',*,*,#462,.T.);
#253=ORIENTED_EDGE('',*,*,#463,.T.);
#254=ORIENTED_EDGE('',*,*,#464,.F.);
#255=ORIENTED_EDGE('',*,*,#465,.T.);
#256=ORIENTED_EDGE('',*,*,#466,.T.);
#257=ORIENTED_EDGE('',*,*,#467,.F.);
#258=ORIENTED_EDGE('',*,*,#468,.F.);
#259=ORIENTED_EDGE('',*,*,#467,.T.);
#260=ORIENTED_EDGE('',*,*,#469,.T.);
#261=ORIENTED_EDGE('',*,*,#429,.F.);
#262=ORIENTED_EDGE('',*,*,#434,.F.);
#263=ORIENTED_EDGE('',*,*,#433,.T.);
#264=ORIENTED_EDGE('',*,*,#470,.T.);
#265=ORIENTED_EDGE('',*,*,#471,.F.);
#266=ORIENTED_EDGE('',*,*,#438,.F.);
#267=ORIENTED_EDGE('',*,*,#472,.T.);
#268=ORIENTED_EDGE('',*,*,#473,.T.);
#269=ORIENTED_EDGE('',*,*,#468,.T.);
#270=ORIENTED_EDGE('',*,*,#451,.T.);
#271=ORIENTED_EDGE('',*,*,#474,.T.);
#272=ORIENTED_EDGE('',*,*,#389,.T.);
#273=ORIENTED_EDGE('',*,*,#463,.F.);
#274=ORIENTED_EDGE('',*,*,#462,.F.);
#275=ORIENTED_EDGE('',*,*,#475,.F.);
#276=ORIENTED_EDGE('',*,*,#460,.T.);
#277=ORIENTED_EDGE('',*,*,#459,.T.);
#278=ORIENTED_EDGE('',*,*,#476,.T.);
#279=ORIENTED_EDGE('',*,*,#426,.T.);
#280=ORIENTED_EDGE('',*,*,#477,.T.);
#281=ORIENTED_EDGE('',*,*,#442,.F.);
#282=ORIENTED_EDGE('',*,*,#478,.T.);
#283=ORIENTED_EDGE('',*,*,#423,.T.);
#284=ORIENTED_EDGE('',*,*,#422,.T.);
#285=ORIENTED_EDGE('',*,*,#436,.T.);
#286=ORIENTED_EDGE('',*,*,#420,.T.);
#287=ORIENTED_EDGE('',*,*,#478,.F.);
#288=ORIENTED_EDGE('',*,*,#448,.T.);
#289=ORIENTED_EDGE('',*,*,#430,.T.);
#290=ORIENTED_EDGE('',*,*,#427,.T.);
#291=ORIENTED_EDGE('',*,*,#476,.F.);
#292=ORIENTED_EDGE('',*,*,#479,.F.);
#293=ORIENTED_EDGE('',*,*,#414,.T.);
#294=ORIENTED_EDGE('',*,*,#480,.F.);
#295=ORIENTED_EDGE('',*,*,#410,.T.);
#296=ORIENTED_EDGE('',*,*,#481,.F.);
#297=ORIENTED_EDGE('',*,*,#406,.T.);
#298=ORIENTED_EDGE('',*,*,#482,.F.);
#299=ORIENTED_EDGE('',*,*,#402,.T.);
#300=ORIENTED_EDGE('',*,*,#415,.T.);
#301=ORIENTED_EDGE('',*,*,#479,.T.);
#302=ORIENTED_EDGE('',*,*,#417,.T.);
#303=ORIENTED_EDGE('',*,*,#416,.T.);
#304=ORIENTED_EDGE('',*,*,#411,.T.);
#305=ORIENTED_EDGE('',*,*,#480,.T.);
#306=ORIENTED_EDGE('',*,*,#413,.T.);
#307=ORIENTED_EDGE('',*,*,#412,.T.);
#308=ORIENTED_EDGE('',*,*,#407,.T.);
#309=ORIENTED_EDGE('',*,*,#481,.T.);
#310=ORIENTED_EDGE('',*,*,#409,.T.);
#311=ORIENTED_EDGE('',*,*,#408,.T.);
#312=ORIENTED_EDGE('',*,*,#403,.T.);
#313=ORIENTED_EDGE('',*,*,#482,.T.);
#314=ORIENTED_EDGE('',*,*,#405,.T.);
#315=ORIENTED_EDGE('',*,*,#404,.T.);
#316=ORIENTED_EDGE('',*,*,#447,.T.);
#317=ORIENTED_EDGE('',*,*,#483,.T.);
#318=ORIENTED_EDGE('',*,*,#472,.F.);
#319=ORIENTED_EDGE('',*,*,#437,.T.);
#320=ORIENTED_EDGE('',*,*,#441,.T.);
#321=ORIENTED_EDGE('',*,*,#440,.T.);
#322=ORIENTED_EDGE('',*,*,#439,.F.);
#323=ORIENTED_EDGE('',*,*,#471,.T.);
#324=ORIENTED_EDGE('',*,*,#470,.F.);
#325=ORIENTED_EDGE('',*,*,#432,.T.);
#326=ORIENTED_EDGE('',*,*,#446,.F.);
#327=ORIENTED_EDGE('',*,*,#484,.T.);
#328=ORIENTED_EDGE('',*,*,#464,.T.);
#329=ORIENTED_EDGE('',*,*,#473,.F.);
#330=ORIENTED_EDGE('',*,*,#483,.F.);
#331=ORIENTED_EDGE('',*,*,#457,.T.);
#332=ORIENTED_EDGE('',*,*,#461,.T.);
#333=ORIENTED_EDGE('',*,*,#475,.T.);
#334=ORIENTED_EDGE('',*,*,#484,.F.);
#335=ORIENTED_EDGE('',*,*,#445,.F.);
#336=ORIENTED_EDGE('',*,*,#485,.F.);
#337=ORIENTED_EDGE('',*,*,#465,.F.);
#338=ORIENTED_EDGE('',*,*,#477,.F.);
#339=ORIENTED_EDGE('',*,*,#425,.F.);
#340=ORIENTED_EDGE('',*,*,#486,.F.);
#341=ORIENTED_EDGE('',*,*,#443,.F.);
#342=ORIENTED_EDGE('',*,*,#487,.F.);
#343=ORIENTED_EDGE('',*,*,#444,.F.);
#344=ORIENTED_EDGE('',*,*,#488,.F.);
#345=ORIENTED_EDGE('',*,*,#396,.F.);
#346=ORIENTED_EDGE('',*,*,#419,.F.);
#347=ORIENTED_EDGE('',*,*,#390,.F.);
#348=ORIENTED_EDGE('',*,*,#474,.F.);
#349=ORIENTED_EDGE('',*,*,#450,.F.);
#350=ORIENTED_EDGE('',*,*,#485,.T.);
#351=ORIENTED_EDGE('',*,*,#487,.T.);
#352=ORIENTED_EDGE('',*,*,#489,.F.);
#353=ORIENTED_EDGE('',*,*,#488,.T.);
#354=ORIENTED_EDGE('',*,*,#486,.T.);
#355=ORIENTED_EDGE('',*,*,#490,.F.);
#356=ORIENTED_EDGE('',*,*,#456,.F.);
#357=ORIENTED_EDGE('',*,*,#401,.F.);
#358=ORIENTED_EDGE('',*,*,#491,.F.);
#359=ORIENTED_EDGE('',*,*,#466,.F.);
#360=ORIENTED_EDGE('',*,*,#489,.T.);
#361=ORIENTED_EDGE('',*,*,#449,.F.);
#362=ORIENTED_EDGE('',*,*,#458,.F.);
#363=ORIENTED_EDGE('',*,*,#387,.F.);
#364=ORIENTED_EDGE('',*,*,#490,.T.);
#365=ORIENTED_EDGE('',*,*,#424,.F.);
#366=ORIENTED_EDGE('',*,*,#492,.F.);
#367=ORIENTED_EDGE('',*,*,#393,.F.);
#368=ORIENTED_EDGE('',*,*,#454,.F.);
#369=ORIENTED_EDGE('',*,*,#392,.F.);
#370=ORIENTED_EDGE('',*,*,#418,.F.);
#371=ORIENTED_EDGE('',*,*,#397,.F.);
#372=ORIENTED_EDGE('',*,*,#453,.F.);
#373=ORIENTED_EDGE('',*,*,#394,.F.);
#374=ORIENTED_EDGE('',*,*,#492,.T.);
#375=ORIENTED_EDGE('',*,*,#469,.F.);
#376=ORIENTED_EDGE('',*,*,#491,.T.);
#377=ORIENTED_EDGE('',*,*,#400,.F.);
#378=ORIENTED_EDGE('',*,*,#455,.F.);
#379=ORIENTED_EDGE('',*,*,#385,.F.);
#380=EDGE_CURVE('',#493,#493,#573,.T.);
#381=EDGE_CURVE('',#494,#494,#574,.T.);
#382=EDGE_CURVE('',#495,#495,#575,.T.);
#383=EDGE_CURVE('',#496,#496,#576,.T.);
#384=EDGE_CURVE('',#497,#498,#577,.T.);
#385=EDGE_CURVE('',#497,#499,#54,.F.);
#386=EDGE_CURVE('',#500,#499,#578,.T.);
#387=EDGE_CURVE('',#500,#501,#55,.F.);
#388=EDGE_CURVE('',#502,#501,#579,.T.);
#389=EDGE_CURVE('',#503,#502,#580,.T.);
#390=EDGE_CURVE('',#503,#504,#56,.T.);
#391=EDGE_CURVE('',#505,#504,#581,.T.);
#392=EDGE_CURVE('',#505,#498,#57,.F.);
#393=EDGE_CURVE('',#506,#507,#58,.F.);
#394=EDGE_CURVE('',#507,#508,#59,.F.);
#395=EDGE_CURVE('',#506,#508,#582,.T.);
#396=EDGE_CURVE('',#509,#510,#60,.T.);
#397=EDGE_CURVE('',#510,#511,#61,.F.);
#398=EDGE_CURVE('',#509,#511,#583,.T.);
#399=EDGE_CURVE('',#512,#513,#584,.T.);
#400=EDGE_CURVE('',#512,#514,#62,.F.);
#401=EDGE_CURVE('',#514,#513,#63,.F.);
#402=EDGE_CURVE('',#515,#516,#585,.F.);
#403=EDGE_CURVE('',#517,#515,#16,.T.);
#404=EDGE_CURVE('',#518,#517,#17,.T.);
#405=EDGE_CURVE('',#516,#518,#18,.T.);
#406=EDGE_CURVE('',#519,#520,#586,.F.);
#407=EDGE_CURVE('',#521,#519,#19,.T.);
#408=EDGE_CURVE('',#522,#521,#20,.T.);
#409=EDGE_CURVE('',#520,#522,#21,.T.);
#410=EDGE_CURVE('',#523,#524,#587,.F.);
#411=EDGE_CURVE('',#525,#523,#22,.T.);
#412=EDGE_CURVE('',#526,#525,#23,.T.);
#413=EDGE_CURVE('',#524,#526,#24,.T.);
#414=EDGE_CURVE('',#527,#528,#588,.F.);
#415=EDGE_CURVE('',#529,#527,#25,.T.);
#416=EDGE_CURVE('',#530,#529,#26,.T.);
#417=EDGE_CURVE('',#528,#530,#27,.T.);
#418=EDGE_CURVE('',#511,#505,#28,.T.);
#419=EDGE_CURVE('',#504,#509,#29,.T.);
#420=EDGE_CURVE('',#531,#532,#64,.F.);
#421=EDGE_CURVE('',#533,#531,#589,.T.);
#422=EDGE_CURVE('',#534,#533,#65,.T.);
#423=EDGE_CURVE('',#532,#534,#590,.F.);
#424=EDGE_CURVE('',#535,#536,#66,.T.);
#425=EDGE_CURVE('',#536,#537,#67,.F.);
#426=EDGE_CURVE('',#538,#537,#68,.T.);
#427=EDGE_CURVE('',#539,#538,#69,.T.);
#428=EDGE_CURVE('',#540,#539,#70,.T.);
#429=EDGE_CURVE('',#540,#535,#71,.T.);
#430=EDGE_CURVE('',#541,#539,#72,.T.);
#431=EDGE_CURVE('',#542,#541,#73,.T.);
#432=EDGE_CURVE('',#543,#542,#74,.T.);
#433=EDGE_CURVE('',#544,#543,#75,.T.);
#434=EDGE_CURVE('',#544,#540,#76,.T.);
#435=EDGE_CURVE('',#545,#545,#591,.T.);
#436=EDGE_CURVE('',#533,#531,#592,.F.);
#437=EDGE_CURVE('',#546,#547,#77,.F.);
#438=EDGE_CURVE('',#546,#548,#593,.F.);
#439=EDGE_CURVE('',#548,#549,#78,.T.);
#440=EDGE_CURVE('',#550,#549,#594,.F.);
#441=EDGE_CURVE('',#547,#550,#595,.F.);
#442=EDGE_CURVE('',#551,#552,#79,.T.);
#443=EDGE_CURVE('',#552,#553,#80,.T.);
#444=EDGE_CURVE('',#553,#554,#81,.F.);
#445=EDGE_CURVE('',#554,#555,#82,.F.);
#446=EDGE_CURVE('',#555,#556,#83,.T.);
#447=EDGE_CURVE('',#542,#556,#596,.T.);
#448=EDGE_CURVE('',#551,#541,#84,.T.);
#449=EDGE_CURVE('',#557,#558,#85,.F.);
#450=EDGE_CURVE('',#558,#559,#86,.T.);
#451=EDGE_CURVE('',#560,#559,#597,.T.);
#452=EDGE_CURVE('',#557,#560,#598,.T.);
#453=EDGE_CURVE('',#508,#497,#30,.T.);
#454=EDGE_CURVE('',#498,#506,#31,.T.);
#455=EDGE_CURVE('',#499,#512,#32,.T.);
#456=EDGE_CURVE('',#513,#500,#33,.T.);
#457=EDGE_CURVE('',#561,#561,#599,.T.);
#458=EDGE_CURVE('',#501,#557,#34,.T.);
#459=EDGE_CURVE('',#562,#560,#87,.T.);
#460=EDGE_CURVE('',#563,#562,#88,.T.);
#461=EDGE_CURVE('',#564,#563,#600,.T.);
#462=EDGE_CURVE('',#564,#565,#89,.T.);
#463=EDGE_CURVE('',#565,#502,#90,.T.);
#464=EDGE_CURVE('',#566,#567,#91,.T.);
#465=EDGE_CURVE('',#566,#568,#92,.T.);
#466=EDGE_CURVE('',#568,#569,#93,.T.);
#467=EDGE_CURVE('',#570,#569,#94,.T.);
#468=EDGE_CURVE('',#567,#570,#95,.T.);
#469=EDGE_CURVE('',#569,#535,#96,.T.);
#470=EDGE_CURVE('',#543,#571,#601,.T.);
#471=EDGE_CURVE('',#548,#571,#602,.F.);
#472=EDGE_CURVE('',#546,#572,#603,.T.);
#473=EDGE_CURVE('',#572,#567,#97,.T.);
#474=EDGE_CURVE('',#559,#503,#35,.T.);
#475=EDGE_CURVE('',#563,#564,#604,.T.);
#476=EDGE_CURVE('',#551,#538,#98,.T.);
#477=EDGE_CURVE('',#537,#552,#605,.T.);
#478=EDGE_CURVE('',#534,#532,#606,.T.);
#479=EDGE_CURVE('',#527,#528,#99,.F.);
#480=EDGE_CURVE('',#523,#524,#100,.T.);
#481=EDGE_CURVE('',#519,#520,#101,.F.);
#482=EDGE_CURVE('',#515,#516,#102,.T.);
#483=EDGE_CURVE('',#556,#572,#103,.F.);
#484=EDGE_CURVE('',#555,#566,#607,.F.);
#485=EDGE_CURVE('',#568,#554,#608,.T.);
#486=EDGE_CURVE('',#553,#536,#609,.T.);
#487=EDGE_CURVE('',#554,#558,#610,.T.);
#488=EDGE_CURVE('',#510,#553,#611,.T.);
#489=EDGE_CURVE('',#568,#558,#612,.F.);
#490=EDGE_CURVE('',#510,#536,#613,.F.);
#491=EDGE_CURVE('',#569,#514,#12,.F.);
#492=EDGE_CURVE('',#507,#535,#13,.T.);
#493=VERTEX_POINT('',#1095);
#494=VERTEX_POINT('',#1097);
#495=VERTEX_POINT('',#1099);
#496=VERTEX_POINT('',#1101);
#497=VERTEX_POINT('',#1103);
#498=VERTEX_POINT('',#1104);
#499=VERTEX_POINT('',#1106);
#500=VERTEX_POINT('',#1108);
#501=VERTEX_POINT('',#1110);
#502=VERTEX_POINT('',#1112);
#503=VERTEX_POINT('',#1114);
#504=VERTEX_POINT('',#1116);
#505=VERTEX_POINT('',#1118);
#506=VERTEX_POINT('',#1122);
#507=VERTEX_POINT('',#1123);
#508=VERTEX_POINT('',#1125);
#509=VERTEX_POINT('',#1129);
#510=VERTEX_POINT('',#1130);
#511=VERTEX_POINT('',#1132);
#512=VERTEX_POINT('',#1136);
#513=VERTEX_POINT('',#1137);
#514=VERTEX_POINT('',#1139);
#515=VERTEX_POINT('',#1143);
#516=VERTEX_POINT('',#1144);
#517=VERTEX_POINT('',#1149);
#518=VERTEX_POINT('',#1165);
#519=VERTEX_POINT('',#1172);
#520=VERTEX_POINT('',#1173);
#521=VERTEX_POINT('',#1178);
#522=VERTEX_POINT('',#1194);
#523=VERTEX_POINT('',#1201);
#524=VERTEX_POINT('',#1202);
#525=VERTEX_POINT('',#1207);
#526=VERTEX_POINT('',#1223);
#527=VERTEX_POINT('',#1230);
#528=VERTEX_POINT('',#1231);
#529=VERTEX_POINT('',#1236);
#530=VERTEX_POINT('',#1252);
#531=VERTEX_POINT('',#1269);
#532=VERTEX_POINT('',#1270);
#533=VERTEX_POINT('',#1272);
#534=VERTEX_POINT('',#1274);
#535=VERTEX_POINT('',#1278);
#536=VERTEX_POINT('',#1279);
#537=VERTEX_POINT('',#1281);
#538=VERTEX_POINT('',#1283);
#539=VERTEX_POINT('',#1285);
#540=VERTEX_POINT('',#1287);
#541=VERTEX_POINT('',#1291);
#542=VERTEX_POINT('',#1293);
#543=VERTEX_POINT('',#1295);
#544=VERTEX_POINT('',#1297);
#545=VERTEX_POINT('',#1300);
#546=VERTEX_POINT('',#1304);
#547=VERTEX_POINT('',#1305);
#548=VERTEX_POINT('',#1307);
#549=VERTEX_POINT('',#1309);
#550=VERTEX_POINT('',#1311);
#551=VERTEX_POINT('',#1315);
#552=VERTEX_POINT('',#1316);
#553=VERTEX_POINT('',#1318);
#554=VERTEX_POINT('',#1320);
#555=VERTEX_POINT('',#1322);
#556=VERTEX_POINT('',#1324);
#557=VERTEX_POINT('',#1329);
#558=VERTEX_POINT('',#1330);
#559=VERTEX_POINT('',#1332);
#560=VERTEX_POINT('',#1334);
#561=VERTEX_POINT('',#1359);
#562=VERTEX_POINT('',#1367);
#563=VERTEX_POINT('',#1369);
#564=VERTEX_POINT('',#1371);
#565=VERTEX_POINT('',#1373);
#566=VERTEX_POINT('',#1377);
#567=VERTEX_POINT('',#1378);
#568=VERTEX_POINT('',#1380);
#569=VERTEX_POINT('',#1382);
#570=VERTEX_POINT('',#1384);
#571=VERTEX_POINT('',#1389);
#572=VERTEX_POINT('',#1392);
#573=CIRCLE('',#798,0.00159999999999997);
#574=CIRCLE('',#799,0.0016);
#575=CIRCLE('',#800,0.0016);
#576=CIRCLE('',#801,0.0016);
#577=CIRCLE('',#802,0.002);
#578=CIRCLE('',#803,0.002);
#579=CIRCLE('',#804,0.002);
#580=CIRCLE('',#805,0.002);
#581=CIRCLE('',#806,0.002);
#582=CIRCLE('',#808,0.002);
#583=CIRCLE('',#810,0.002);
#584=CIRCLE('',#812,0.002);
#585=CIRCLE('',#814,0.0016);
#586=CIRCLE('',#816,0.00159999999999997);
#587=CIRCLE('',#818,0.0016);
#588=CIRCLE('',#820,0.0016);
#589=CIRCLE('',#822,0.002);
#590=CIRCLE('',#823,0.002);
#591=CIRCLE('',#826,0.002);
#592=CIRCLE('',#827,0.002);
#593=CIRCLE('',#829,0.008);
#594=CIRCLE('',#830,0.008);
#595=CIRCLE('',#831,0.008);
#596=CIRCLE('',#833,0.008);
#597=CIRCLE('',#835,0.002);
#598=CIRCLE('',#836,0.002);
#599=CIRCLE('',#839,0.002);
#600=CIRCLE('',#841,0.00199999999999998);
#601=CIRCLE('',#844,0.008);
#602=CIRCLE('',#845,0.008);
#603=CIRCLE('',#846,0.008);
#604=CIRCLE('',#848,0.002);
#605=CIRCLE('',#850,0.0034798);
#606=CIRCLE('',#852,0.002);
#607=CIRCLE('',#861,0.0034798);
#608=CIRCLE('',#863,0.0034798);
#609=CIRCLE('',#865,0.0034798);
#610=CIRCLE('',#867,0.0034798);
#611=CIRCLE('',#868,0.0034798);
#612=CIRCLE('',#870,0.0034798);
#613=CIRCLE('',#872,0.0034798);
#614=EDGE_LOOP('',(#154));
#615=EDGE_LOOP('',(#155));
#616=EDGE_LOOP('',(#156));
#617=EDGE_LOOP('',(#157));
#618=EDGE_LOOP('',(#158,#159,#160,#161,#162,#163,#164,#165,#166));
#619=EDGE_LOOP('',(#167,#168,#169));
#620=EDGE_LOOP('',(#170,#171,#172));
#621=EDGE_LOOP('',(#173,#174,#175));
#622=EDGE_LOOP('',(#176));
#623=EDGE_LOOP('',(#177,#178,#179,#180));
#624=EDGE_LOOP('',(#181));
#625=EDGE_LOOP('',(#182,#183,#184,#185));
#626=EDGE_LOOP('',(#186));
#627=EDGE_LOOP('',(#187,#188,#189,#190));
#628=EDGE_LOOP('',(#191));
#629=EDGE_LOOP('',(#192,#193,#194,#195));
#630=EDGE_LOOP('',(#196,#197,#198,#199));
#631=EDGE_LOOP('',(#200,#201,#202,#203));
#632=EDGE_LOOP('',(#204,#205,#206,#207,#208,#209));
#633=EDGE_LOOP('',(#210,#211,#212,#213,#214,#215));
#634=EDGE_LOOP('',(#216));
#635=EDGE_LOOP('',(#217,#218));
#636=EDGE_LOOP('',(#219,#220,#221,#222,#223));
#637=EDGE_LOOP('',(#224,#225,#226,#227,#228,#229,#230,#231));
#638=EDGE_LOOP('',(#232,#233,#234,#235));
#639=EDGE_LOOP('',(#236,#237,#238,#239));
#640=EDGE_LOOP('',(#240));
#641=EDGE_LOOP('',(#241,#242,#243,#244));
#642=EDGE_LOOP('',(#245));
#643=EDGE_LOOP('',(#246,#247,#248,#249,#250,#251,#252,#253));
#644=EDGE_LOOP('',(#254,#255,#256,#257,#258));
#645=EDGE_LOOP('',(#259,#260,#261,#262,#263,#264,#265,#266,#267,#268,#269));
#646=EDGE_LOOP('',(#270,#271,#272,#273,#274,#275,#276,#277));
#647=EDGE_LOOP('',(#278,#279,#280,#281));
#648=EDGE_LOOP('',(#282,#283));
#649=EDGE_LOOP('',(#284,#285,#286,#287));
#650=EDGE_LOOP('',(#288,#289,#290,#291));
#651=EDGE_LOOP('',(#292,#293));
#652=EDGE_LOOP('',(#294,#295));
#653=EDGE_LOOP('',(#296,#297));
#654=EDGE_LOOP('',(#298,#299));
#655=EDGE_LOOP('',(#300,#301,#302,#303));
#656=EDGE_LOOP('',(#304,#305,#306,#307));
#657=EDGE_LOOP('',(#308,#309,#310,#311));
#658=EDGE_LOOP('',(#312,#313,#314,#315));
#659=EDGE_LOOP('',(#316,#317,#318,#319,#320,#321,#322,#323,#324,#325));
#660=EDGE_LOOP('',(#326,#327,#328,#329,#330));
#661=EDGE_LOOP('',(#331));
#662=EDGE_LOOP('',(#332,#333));
#663=EDGE_LOOP('',(#334,#335,#336,#337));
#664=EDGE_LOOP('',(#338,#339,#340,#341));
#665=EDGE_LOOP('',(#342,#343,#344,#345,#346,#347,#348,#349));
#666=EDGE_LOOP('',(#350,#351,#352));
#667=EDGE_LOOP('',(#353,#354,#355));
#668=EDGE_LOOP('',(#356,#357,#358,#359,#360,#361,#362,#363));
#669=EDGE_LOOP('',(#364,#365,#366,#367,#368,#369,#370,#371));
#670=EDGE_LOOP('',(#372,#373,#374,#375,#376,#377,#378,#379));
#671=FACE_BOUND('',#614,.T.);
#672=FACE_BOUND('',#615,.T.);
#673=FACE_BOUND('',#616,.T.);
#674=FACE_BOUND('',#617,.T.);
#675=FACE_BOUND('',#618,.T.);
#676=FACE_BOUND('',#619,.T.);
#677=FACE_BOUND('',#620,.T.);
#678=FACE_BOUND('',#621,.T.);
#679=FACE_BOUND('',#622,.T.);
#680=FACE_BOUND('',#623,.T.);
#681=FACE_BOUND('',#624,.T.);
#682=FACE_BOUND('',#625,.T.);
#683=FACE_BOUND('',#626,.T.);
#684=FACE_BOUND('',#627,.T.);
#685=FACE_BOUND('',#628,.T.);
#686=FACE_BOUND('',#629,.T.);
#687=FACE_BOUND('',#630,.T.);
#688=FACE_BOUND('',#631,.T.);
#689=FACE_BOUND('',#632,.T.);
#690=FACE_BOUND('',#633,.T.);
#691=FACE_BOUND('',#634,.T.);
#692=FACE_BOUND('',#635,.T.);
#693=FACE_BOUND('',#636,.T.);
#694=FACE_BOUND('',#637,.T.);
#695=FACE_BOUND('',#638,.T.);
#696=FACE_BOUND('',#639,.T.);
#697=FACE_BOUND('',#640,.T.);
#698=FACE_BOUND('',#641,.T.);
#699=FACE_BOUND('',#642,.T.);
#700=FACE_BOUND('',#643,.T.);
#701=FACE_BOUND('',#644,.T.);
#702=FACE_BOUND('',#645,.T.);
#703=FACE_BOUND('',#646,.T.);
#704=FACE_BOUND('',#647,.T.);
#705=FACE_BOUND('',#648,.T.);
#706=FACE_BOUND('',#649,.T.);
#707=FACE_BOUND('',#650,.T.);
#708=FACE_BOUND('',#651,.T.);
#709=FACE_BOUND('',#652,.T.);
#710=FACE_BOUND('',#653,.T.);
#711=FACE_BOUND('',#654,.T.);
#712=FACE_BOUND('',#655,.T.);
#713=FACE_BOUND('',#656,.T.);
#714=FACE_BOUND('',#657,.T.);
#715=FACE_BOUND('',#658,.T.);
#716=FACE_BOUND('',#659,.T.);
#717=FACE_BOUND('',#660,.T.);
#718=FACE_BOUND('',#661,.T.);
#719=FACE_BOUND('',#662,.T.);
#720=FACE_BOUND('',#663,.T.);
#721=FACE_BOUND('',#664,.T.);
#722=FACE_BOUND('',#665,.T.);
#723=FACE_BOUND('',#666,.T.);
#724=FACE_BOUND('',#667,.T.);
#725=FACE_BOUND('',#668,.T.);
#726=FACE_BOUND('',#669,.T.);
#727=FACE_BOUND('',#670,.T.);
#728=PLANE('',#797);
#729=PLANE('',#807);
#730=PLANE('',#809);
#731=PLANE('',#811);
#732=PLANE('',#824);
#733=PLANE('',#825);
#734=PLANE('',#832);
#735=PLANE('',#834);
#736=PLANE('',#842);
#737=PLANE('',#843);
#738=PLANE('',#849);
#739=PLANE('',#851);
#740=PLANE('',#854);
#741=PLANE('',#855);
#742=PLANE('',#856);
#743=PLANE('',#857);
#744=PLANE('',#858);
#745=PLANE('',#860);
#746=ADVANCED_FACE('',(#671,#672,#673,#674,#675),#728,.T.);
#747=ADVANCED_FACE('',(#676),#729,.T.);
#748=ADVANCED_FACE('',(#677),#730,.T.);
#749=ADVANCED_FACE('',(#678),#731,.T.);
#750=ADVANCED_FACE('',(#679,#680),#36,.F.);
#751=ADVANCED_FACE('',(#681,#682),#37,.F.);
#752=ADVANCED_FACE('',(#683,#684),#38,.F.);
#753=ADVANCED_FACE('',(#685,#686),#39,.F.);
#754=ADVANCED_FACE('',(#687,#688),#40,.F.);
#755=ADVANCED_FACE('',(#689),#732,.F.);
#756=ADVANCED_FACE('',(#690,#691,#692),#733,.F.);
#757=ADVANCED_FACE('',(#693),#41,.T.);
#758=ADVANCED_FACE('',(#694),#734,.F.);
#759=ADVANCED_FACE('',(#695),#735,.T.);
#760=ADVANCED_FACE('',(#696,#697),#42,.F.);
#761=ADVANCED_FACE('',(#698,#699),#43,.F.);
#762=ADVANCED_FACE('',(#700),#44,.F.);
#763=ADVANCED_FACE('',(#701),#736,.F.);
#764=ADVANCED_FACE('',(#702),#737,.F.);
#765=ADVANCED_FACE('',(#703),#45,.F.);
#766=ADVANCED_FACE('',(#704),#738,.F.);
#767=ADVANCED_FACE('',(#705),#739,.F.);
#768=ADVANCED_FACE('',(#706),#46,.F.);
#769=ADVANCED_FACE('',(#707),#740,.F.);
#770=ADVANCED_FACE('',(#708),#741,.F.);
#771=ADVANCED_FACE('',(#709),#742,.F.);
#772=ADVANCED_FACE('',(#710),#743,.F.);
#773=ADVANCED_FACE('',(#711),#744,.F.);
#774=ADVANCED_FACE('',(#712,#713,#714,#715,#716),#47,.F.);
#775=ADVANCED_FACE('',(#717,#718,#719),#745,.F.);
#776=ADVANCED_FACE('',(#720),#48,.T.);
#777=ADVANCED_FACE('',(#721),#49,.T.);
#778=ADVANCED_FACE('',(#722),#50,.T.);
#779=ADVANCED_FACE('',(#723),#14,.T.);
#780=ADVANCED_FACE('',(#724),#15,.T.);
#781=ADVANCED_FACE('',(#725),#51,.T.);
#782=ADVANCED_FACE('',(#726),#52,.T.);
#783=ADVANCED_FACE('',(#727),#53,.T.);
#784=CLOSED_SHELL('',(#746,#747,#748,#749,#750,#751,#752,#753,#754,#755,
#756,#757,#758,#759,#760,#761,#762,#763,#764,#765,#766,#767,#768,#769,#770,
#771,#772,#773,#774,#775,#776,#777,#778,#779,#780,#781,#782,#783));
#785=STYLED_ITEM('',(#786),#793);
#786=PRESENTATION_STYLE_ASSIGNMENT((#787));
#787=SURFACE_STYLE_USAGE(.BOTH.,#788);
#788=SURFACE_SIDE_STYLE('',(#789));
#789=SURFACE_STYLE_FILL_AREA(#790);
#790=FILL_AREA_STYLE('',(#791));
#791=FILL_AREA_STYLE_COLOUR('',#792);
#792=COLOUR_RGB('',0.231372549019608,0.380392156862745,0.705882352941177);
#793=MANIFOLD_SOLID_BREP('Motor Mount Top RL',#784);
#794=SHAPE_DEFINITION_REPRESENTATION(#1442,#795);
#795=SHAPE_REPRESENTATION('Motor Mount Top RL',(#796),#1437);
#796=AXIS2_PLACEMENT_3D('',#1092,#878,#879);
#797=AXIS2_PLACEMENT_3D('',#1093,#880,#881);
#798=AXIS2_PLACEMENT_3D('',#1094,#882,#883);
#799=AXIS2_PLACEMENT_3D('',#1096,#884,#885);
#800=AXIS2_PLACEMENT_3D('',#1098,#886,#887);
#801=AXIS2_PLACEMENT_3D('',#1100,#888,#889);
#802=AXIS2_PLACEMENT_3D('',#1102,#890,#891);
#803=AXIS2_PLACEMENT_3D('',#1107,#893,#894);
#804=AXIS2_PLACEMENT_3D('',#1111,#896,#897);
#805=AXIS2_PLACEMENT_3D('',#1113,#898,#899);
#806=AXIS2_PLACEMENT_3D('',#1117,#901,#902);
#807=AXIS2_PLACEMENT_3D('',#1120,#904,#905);
#808=AXIS2_PLACEMENT_3D('',#1126,#908,#909);
#809=AXIS2_PLACEMENT_3D('',#1127,#910,#911);
#810=AXIS2_PLACEMENT_3D('',#1133,#914,#915);
#811=AXIS2_PLACEMENT_3D('',#1134,#916,#917);
#812=AXIS2_PLACEMENT_3D('',#1135,#918,#919);
#813=AXIS2_PLACEMENT_3D('',#1141,#922,#923);
#814=AXIS2_PLACEMENT_3D('',#1142,#924,#925);
#815=AXIS2_PLACEMENT_3D('',#1170,#926,#927);
#816=AXIS2_PLACEMENT_3D('',#1171,#928,#929);
#817=AXIS2_PLACEMENT_3D('',#1199,#930,#931);
#818=AXIS2_PLACEMENT_3D('',#1200,#932,#933);
#819=AXIS2_PLACEMENT_3D('',#1228,#934,#935);
#820=AXIS2_PLACEMENT_3D('',#1229,#936,#937);
#821=AXIS2_PLACEMENT_3D('',#1257,#938,#939);
#822=AXIS2_PLACEMENT_3D('',#1271,#941,#942);
#823=AXIS2_PLACEMENT_3D('',#1275,#944,#945);
#824=AXIS2_PLACEMENT_3D('',#1276,#946,#947);
#825=AXIS2_PLACEMENT_3D('',#1289,#954,#955);
#826=AXIS2_PLACEMENT_3D('',#1299,#961,#962);
#827=AXIS2_PLACEMENT_3D('',#1301,#963,#964);
#828=AXIS2_PLACEMENT_3D('',#1302,#965,#966);
#829=AXIS2_PLACEMENT_3D('',#1306,#968,#969);
#830=AXIS2_PLACEMENT_3D('',#1310,#971,#972);
#831=AXIS2_PLACEMENT_3D('',#1312,#973,#974);
#832=AXIS2_PLACEMENT_3D('',#1313,#975,#976);
#833=AXIS2_PLACEMENT_3D('',#1325,#982,#983);
#834=AXIS2_PLACEMENT_3D('',#1327,#985,#986);
#835=AXIS2_PLACEMENT_3D('',#1333,#989,#990);
#836=AXIS2_PLACEMENT_3D('',#1335,#991,#992);
#837=AXIS2_PLACEMENT_3D('',#1336,#993,#994);
#838=AXIS2_PLACEMENT_3D('',#1347,#995,#996);
#839=AXIS2_PLACEMENT_3D('',#1358,#997,#998);
#840=AXIS2_PLACEMENT_3D('',#1360,#999,#1000);
#841=AXIS2_PLACEMENT_3D('',#1370,#1003,#1004);
#842=AXIS2_PLACEMENT_3D('',#1375,#1007,#1008);
#843=AXIS2_PLACEMENT_3D('',#1386,#1014,#1015);
#844=AXIS2_PLACEMENT_3D('',#1388,#1017,#1018);
#845=AXIS2_PLACEMENT_3D('',#1390,#1019,#1020);
#846=AXIS2_PLACEMENT_3D('',#1391,#1021,#1022);
#847=AXIS2_PLACEMENT_3D('',#1394,#1024,#1025);
#848=AXIS2_PLACEMENT_3D('',#1400,#1026,#1027);
#849=AXIS2_PLACEMENT_3D('',#1401,#1028,#1029);
#850=AXIS2_PLACEMENT_3D('',#1403,#1031,#1032);
#851=AXIS2_PLACEMENT_3D('',#1404,#1033,#1034);
#852=AXIS2_PLACEMENT_3D('',#1405,#1035,#1036);
#853=AXIS2_PLACEMENT_3D('',#1406,#1037,#1038);
#854=AXIS2_PLACEMENT_3D('',#1407,#1039,#1040);
#855=AXIS2_PLACEMENT_3D('',#1408,#1041,#1042);
#856=AXIS2_PLACEMENT_3D('',#1410,#1044,#1045);
#857=AXIS2_PLACEMENT_3D('',#1412,#1047,#1048);
#858=AXIS2_PLACEMENT_3D('',#1414,#1050,#1051);
#859=AXIS2_PLACEMENT_3D('',#1416,#1053,#1054);
#860=AXIS2_PLACEMENT_3D('',#1418,#1056,#1057);
#861=AXIS2_PLACEMENT_3D('',#1419,#1058,#1059);
#862=AXIS2_PLACEMENT_3D('',#1420,#1060,#1061);
#863=AXIS2_PLACEMENT_3D('',#1421,#1062,#1063);
#864=AXIS2_PLACEMENT_3D('',#1422,#1064,#1065);
#865=AXIS2_PLACEMENT_3D('',#1423,#1066,#1067);
#866=AXIS2_PLACEMENT_3D('',#1424,#1068,#1069);
#867=AXIS2_PLACEMENT_3D('',#1425,#1070,#1071);
#868=AXIS2_PLACEMENT_3D('',#1426,#1072,#1073);
#869=AXIS2_PLACEMENT_3D('',#1427,#1074,#1075);
#870=AXIS2_PLACEMENT_3D('',#1428,#1076,#1077);
#871=AXIS2_PLACEMENT_3D('',#1429,#1078,#1079);
#872=AXIS2_PLACEMENT_3D('',#1430,#1080,#1081);
#873=AXIS2_PLACEMENT_3D('',#1431,#1082,#1083);
#874=AXIS2_PLACEMENT_3D('',#1432,#1084,#1085);
#875=AXIS2_PLACEMENT_3D('',#1433,#1086,#1087);
#876=AXIS2_PLACEMENT_3D('',#1434,#1088,#1089);
#877=AXIS2_PLACEMENT_3D('',#1435,#1090,#1091);
#878=DIRECTION('',(0.,0.,1.));
#879=DIRECTION('',(1.,0.,0.));
#880=DIRECTION('',(0.,0.,1.));
#881=DIRECTION('',(1.,0.,0.));
#882=DIRECTION('',(0.,0.,1.));
#883=DIRECTION('',(1.,0.,0.));
#884=DIRECTION('',(0.,0.,1.));
#885=DIRECTION('',(1.,0.,0.));
#886=DIRECTION('',(0.,0.,1.));
#887=DIRECTION('',(1.,0.,0.));
#888=DIRECTION('',(0.,0.,1.));
#889=DIRECTION('',(1.,0.,0.));
#890=DIRECTION('',(0.,0.,1.));
#891=DIRECTION('',(1.,0.,0.));
#892=DIRECTION('',(0.707105366971572,-0.707108195398695,0.));
#893=DIRECTION('',(0.,0.,1.));
#894=DIRECTION('',(1.,0.,0.));
#895=DIRECTION('',(0.707108195398694,0.707105366971573,0.));
#896=DIRECTION('',(5.04579357066498E-21,5.04579357331583E-15,1.));
#897=DIRECTION('',(1.,-1.38777878078144E-14,0.));
#898=DIRECTION('',(0.,0.,1.));
#899=DIRECTION('',(1.,0.,0.));
#900=DIRECTION('',(0.707105366971572,-0.707108195398695,0.));
#901=DIRECTION('',(0.,0.,1.));
#902=DIRECTION('',(1.,0.,0.));
#903=DIRECTION('',(-0.707438829350368,-0.706774577023949,0.));
#904=DIRECTION('',(0.,0.,1.));
#905=DIRECTION('',(1.,0.,0.));
#906=DIRECTION('',(-0.707438829350368,-0.706774577023949,0.));
#907=DIRECTION('',(0.707105366971572,-0.707108195398695,0.));
#908=DIRECTION('',(0.,0.,1.));
#909=DIRECTION('',(1.,0.,0.));
#910=DIRECTION('',(0.,0.,1.));
#911=DIRECTION('',(1.,0.,0.));
#912=DIRECTION('',(0.707105366971572,-0.707108195398695,0.));
#913=DIRECTION('',(-0.707438829350368,-0.706774577023949,0.));
#914=DIRECTION('',(0.,0.,1.));
#915=DIRECTION('',(1.,0.,0.));
#916=DIRECTION('',(0.,0.,1.));
#917=DIRECTION('',(1.,0.,0.));
#918=DIRECTION('',(0.,0.,1.));
#919=DIRECTION('',(1.,0.,0.));
#920=DIRECTION('',(0.707105366971572,-0.707108195398695,0.));
#921=DIRECTION('',(0.707108195398694,0.707105366971573,0.));
#922=DIRECTION('',(0.,0.,1.));
#923=DIRECTION('',(1.,0.,0.));
#924=DIRECTION('',(0.,0.,-1.));
#925=DIRECTION('',(-1.,0.,0.));
#926=DIRECTION('',(0.,0.,1.));
#927=DIRECTION('',(1.,0.,0.));
#928=DIRECTION('',(0.,0.,-1.));
#929=DIRECTION('',(-1.,0.,0.));
#930=DIRECTION('',(0.,0.,1.));
#931=DIRECTION('',(1.,0.,0.));
#932=DIRECTION('',(0.,0.,-1.));
#933=DIRECTION('',(-1.,0.,0.));
#934=DIRECTION('',(0.,0.,1.));
#935=DIRECTION('',(1.,0.,0.));
#936=DIRECTION('',(0.,0.,-1.));
#937=DIRECTION('',(-1.,0.,0.));
#938=DIRECTION('',(0.,0.,1.));
#939=DIRECTION('',(1.,0.,0.));
#940=DIRECTION('',(0.,0.,-1.));
#941=DIRECTION('',(0.,0.,1.));
#942=DIRECTION('',(1.,0.,0.));
#943=DIRECTION('',(0.,0.,-1.));
#944=DIRECTION('',(0.,0.,-1.));
#945=DIRECTION('',(-1.,0.,0.));
#946=DIRECTION('',(-0.706774577023949,0.707438829350368,0.));
#947=DIRECTION('',(-0.707438829350368,-0.706774577023949,0.));
#948=DIRECTION('',(-0.707438829350368,-0.706774577023949,0.));
#949=DIRECTION('',(0.,0.,1.));
#950=DIRECTION('',(-0.707438829350368,-0.706774577023949,0.));
#951=DIRECTION('',(0.,0.,1.));
#952=DIRECTION('',(-0.707438829350368,-0.706774577023949,0.));
#953=DIRECTION('',(0.,0.,1.));
#954=DIRECTION('',(0.,0.,1.));
#955=DIRECTION('',(1.,0.,0.));
#956=DIRECTION('',(0.707108195398695,0.707105366971572,0.));
#957=DIRECTION('',(0.707105366971572,-0.707108195398695,0.));
#958=DIRECTION('',(-0.707108195398695,-0.707105366971572,0.));
#959=DIRECTION('',(-0.707105366971572,0.707108195398695,0.));
#960=DIRECTION('',(0.707105366971572,-0.707108195398695,0.));
#961=DIRECTION('',(0.,0.,1.));
#962=DIRECTION('',(1.,0.,0.));
#963=DIRECTION('',(0.,0.,1.));
#964=DIRECTION('',(1.,0.,0.));
#965=DIRECTION('',(0.707108195398695,0.707105366971572,0.));
#966=DIRECTION('',(-0.707105366971572,0.707108195398695,0.));
#967=DIRECTION('',(-0.707108195398695,-0.707105366971572,0.));
#968=DIRECTION('',(-0.707108195398695,-0.707105366971572,0.));
#969=DIRECTION('',(0.707105366971572,-0.707108195398695,0.));
#970=DIRECTION('',(0.707108195398695,0.707105366971572,0.));
#971=DIRECTION('',(-0.707108195398695,-0.707105366971572,0.));
#972=DIRECTION('',(0.707105366971572,-0.707108195398695,0.));
#973=DIRECTION('',(-0.707108195398695,-0.707105366971572,0.));
#974=DIRECTION('',(0.707105366971572,-0.707108195398695,0.));
#975=DIRECTION('',(0.707108195398695,0.707105366971572,0.));
#976=DIRECTION('',(-0.707105366971572,0.707108195398695,0.));
#977=DIRECTION('',(-0.707105366971576,0.707108195398691,0.));
#978=DIRECTION('',(0.,0.,1.));
#979=DIRECTION('',(0.707105366971572,-0.707108195398695,0.));
#980=DIRECTION('',(0.,0.,1.));
#981=DIRECTION('',(0.707105366971572,-0.707108195398695,0.));
#982=DIRECTION('',(-0.707108195398695,-0.707105366971572,0.));
#983=DIRECTION('',(0.707105366971572,-0.707108195398695,0.));
#984=DIRECTION('',(0.,0.,-1.));
#985=DIRECTION('',(0.,0.,1.));
#986=DIRECTION('',(1.,0.,0.));
#987=DIRECTION('',(0.707108195398694,0.707105366971573,0.));
#988=DIRECTION('',(0.707105366971572,-0.707108195398695,0.));
#989=DIRECTION('',(0.,0.,1.));
#990=DIRECTION('',(1.,0.,0.));
#991=DIRECTION('',(5.04579357066498E-21,5.04579357331583E-15,1.));
#992=DIRECTION('',(1.,-1.38777878078144E-14,0.));
#993=DIRECTION('',(0.,0.,1.));
#994=DIRECTION('',(1.,0.,0.));
#995=DIRECTION('',(0.,0.,1.));
#996=DIRECTION('',(1.,0.,0.));
#997=DIRECTION('',(0.,0.,1.));
#998=DIRECTION('',(1.,0.,0.));
#999=DIRECTION('',(0.,0.,1.));
#1000=DIRECTION('',(1.00000005498477E-6,0.9999999999995,0.));
#1001=DIRECTION('',(0.,0.,1.));
#1002=DIRECTION('',(0.,0.,1.));
#1003=DIRECTION('',(0.,0.,1.));
#1004=DIRECTION('',(1.,0.,0.));
#1005=DIRECTION('',(0.,0.,1.));
#1006=DIRECTION('',(0.,0.,1.));
#1007=DIRECTION('',(0.707105366971572,-0.707108195398694,0.));
#1008=DIRECTION('',(0.707108195398694,0.707105366971573,0.));
#1009=DIRECTION('',(0.707108195398694,0.707105366971573,0.));
#1010=DIRECTION('',(0.,0.,1.));
#1011=DIRECTION('',(0.707108195398694,0.707105366971573,0.));
#1012=DIRECTION('',(0.,0.,1.));
#1013=DIRECTION('',(0.,0.,1.));
#1014=DIRECTION('',(-0.707108195398695,-0.707105366971572,0.));
#1015=DIRECTION('',(0.707105366971572,-0.707108195398695,0.));
#1016=DIRECTION('',(0.707105366971572,-0.707108195398695,0.));
#1017=DIRECTION('',(-0.707108195398695,-0.707105366971572,0.));
#1018=DIRECTION('',(0.707105366971572,-0.707108195398695,0.));
#1019=DIRECTION('',(-0.707108195398695,-0.707105366971572,0.));
#1020=DIRECTION('',(0.707105366971572,-0.707108195398695,0.));
#1021=DIRECTION('',(-0.707108195398695,-0.707105366971572,0.));
#1022=DIRECTION('',(0.707105366971572,-0.707108195398695,0.));
#1023=DIRECTION('',(-0.707105366971572,0.707108195398695,0.));
#1024=DIRECTION('',(0.,0.,1.));
#1025=DIRECTION('',(1.,0.,0.));
#1026=DIRECTION('',(0.,0.,1.));
#1027=DIRECTION('',(1.,0.,0.));
#1028=DIRECTION('',(0.,0.,-1.));
#1029=DIRECTION('',(1.,0.,0.));
#1030=DIRECTION('',(0.707108195398695,0.707105366971572,0.));
#1031=DIRECTION('',(0.,0.,-1.));
#1032=DIRECTION('',(-1.,0.,0.));
#1033=DIRECTION('',(0.,0.,-1.));
#1034=DIRECTION('',(1.,0.,0.));
#1035=DIRECTION('',(0.,0.,-1.));
#1036=DIRECTION('',(-1.,0.,0.));
#1037=DIRECTION('',(0.,0.,-1.));
#1038=DIRECTION('',(-1.,0.,0.));
#1039=DIRECTION('',(-0.707105366971572,0.707108195398694,0.));
#1040=DIRECTION('',(-0.707108195398695,-0.707105366971572,0.));
#1041=DIRECTION('',(0.,0.,-1.));
#1042=DIRECTION('',(1.,0.,0.));
#1043=DIRECTION('',(0.707108195398695,0.707105366971572,0.));
#1044=DIRECTION('',(0.,0.,-1.));
#1045=DIRECTION('',(1.,0.,0.));
#1046=DIRECTION('',(0.707108195398695,0.707105366971572,0.));
#1047=DIRECTION('',(0.,0.,-1.));
#1048=DIRECTION('',(1.,0.,0.));
#1049=DIRECTION('',(0.707108195398695,0.707105366971572,0.));
#1050=DIRECTION('',(0.,0.,-1.));
#1051=DIRECTION('',(1.,0.,0.));
#1052=DIRECTION('',(0.707108195398695,0.707105366971572,0.));
#1053=DIRECTION('',(-0.707108195398695,-0.707105366971572,0.));
#1054=DIRECTION('',(0.707105366971572,-0.707108195398695,0.));
#1055=DIRECTION('',(-0.707108195398695,-0.707105366971572,0.));
#1056=DIRECTION('',(0.,0.,1.));
#1057=DIRECTION('',(1.,0.,0.));
#1058=DIRECTION('',(0.,0.,1.));
#1059=DIRECTION('',(1.,0.,0.));
#1060=DIRECTION('',(0.,0.,1.));
#1061=DIRECTION('',(1.,0.,0.));
#1062=DIRECTION('',(0.,0.,1.));
#1063=DIRECTION('',(1.,0.,0.));
#1064=DIRECTION('',(0.,0.,1.));
#1065=DIRECTION('',(1.,0.,0.));
#1066=DIRECTION('',(0.,0.,1.));
#1067=DIRECTION('',(1.,0.,0.));
#1068=DIRECTION('',(-0.707105366971572,0.707108195398695,0.));
#1069=DIRECTION('',(-0.707108195398695,-0.707105366971572,0.));
#1070=DIRECTION('',(-0.707105366971568,0.707108195398699,0.));
#1071=DIRECTION('',(-0.707108195398699,-0.707105366971568,0.));
#1072=DIRECTION('',(0.707105366971572,-0.707108195398695,0.));
#1073=DIRECTION('',(0.707108195398695,0.707105366971572,0.));
#1074=DIRECTION('',(-0.707108195398699,-0.707105366971568,0.));
#1075=DIRECTION('',(0.707105366971568,-0.707108195398699,0.));
#1076=DIRECTION('',(-0.707108195398691,-0.707105366971575,0.));
#1077=DIRECTION('',(0.707105366971576,-0.707108195398691,0.));
#1078=DIRECTION('',(0.,0.,1.));
#1079=DIRECTION('',(1.,0.,0.));
#1080=DIRECTION('',(-0.70743882935037,-0.706774577023947,0.));
#1081=DIRECTION('',(0.706774577023947,-0.70743882935037,0.));
#1082=DIRECTION('',(-0.707108195398694,-0.707105366971573,0.));
#1083=DIRECTION('',(0.707105366971573,-0.707108195398694,0.));
#1084=DIRECTION('',(-0.999999999998,1.99999999826481E-6,0.));
#1085=DIRECTION('',(-1.9999999981863E-6,-0.999999999998,0.));
#1086=DIRECTION('',(0.707438829350368,0.706774577023949,0.));
#1087=DIRECTION('',(-0.706774577023949,0.707438829350368,0.));
#1088=DIRECTION('',(0.000235848668662955,0.999999972187702,0.));
#1089=DIRECTION('',(0.999999972187702,-0.000235848668663013,0.));
#1090=DIRECTION('',(-0.707105366971572,0.707108195398695,0.));
#1091=DIRECTION('',(-0.707108195398695,-0.707105366971572,0.));
#1092=CARTESIAN_POINT('',(0.,0.,0.));
#1093=CARTESIAN_POINT('',(-0.248243086086521,-0.247114137869981,0.0362382));
#1094=CARTESIAN_POINT('',(-0.248247460791229,-0.237620752374036,0.0362382));
#1095=CARTESIAN_POINT('',(-0.246647460791229,-0.237620752374036,0.0362382));
#1096=CARTESIAN_POINT('',(-0.238749701873353,-0.247120771109697,0.0362382));
#1097=CARTESIAN_POINT('',(-0.237149701873353,-0.247120771109697,0.0362382));
#1098=CARTESIAN_POINT('',(-0.257749701873314,-0.247120733109697,0.0362382));
#1099=CARTESIAN_POINT('',(-0.256149701873314,-0.247120733109697,0.0362382));
#1100=CARTESIAN_POINT('',(-0.248251942955438,-0.256620751845357,0.0362382));
#1101=CARTESIAN_POINT('',(-0.246651942955438,-0.256620751845357,0.0362382));
#1102=CARTESIAN_POINT('',(-0.227029882650967,-0.247120794549335,0.0362382));
#1103=CARTESIAN_POINT('',(-0.226873899558301,-0.245126886508627,0.0362382));
#1104=CARTESIAN_POINT('',(-0.226878425332076,-0.249115051473745,0.0362382));
#1105=CARTESIAN_POINT('',(-0.250703624616327,-0.221297066131511,0.0362382));
#1106=CARTESIAN_POINT('',(-0.246249134995489,-0.225751573570343,0.0362382));
#1107=CARTESIAN_POINT('',(-0.248243043660114,-0.225907548687375,0.0362382));
#1108=CARTESIAN_POINT('',(-0.250236951700822,-0.225751565594709,0.0362382));
#1109=CARTESIAN_POINT('',(-0.274066772077939,-0.249581290652735,0.0362382));
#1110=CARTESIAN_POINT('',(-0.269612264639106,-0.245126801031897,0.0362382));
#1111=CARTESIAN_POINT('',(-0.269456289522075,-0.247120709696522,0.0362382));
#1112=CARTESIAN_POINT('',(-0.267456289522079,-0.247120713696522,0.0362382));
#1113=CARTESIAN_POINT('',(-0.269456289522075,-0.247120709696522,0.0362382));
#1114=CARTESIAN_POINT('',(-0.26961227261474,-0.249114617737231,0.0362382));
#1115=CARTESIAN_POINT('',(-0.245795776009697,-0.272931209608451,0.0362382));
#1116=CARTESIAN_POINT('',(-0.250250265630535,-0.268476702169618,0.0362382));
#1117=CARTESIAN_POINT('',(-0.24825635696591,-0.268320727052587,0.0362382));
#1118=CARTESIAN_POINT('',(-0.246262807910482,-0.268481233013857,0.0362382));
#1119=CARTESIAN_POINT('',(-0.222418249012244,-0.244659063053098,0.0362382));
#1120=CARTESIAN_POINT('',(-0.248243086086521,-0.247114137869981,0.0362382));
#1121=CARTESIAN_POINT('',(-0.222418249012244,-0.244659063053098,0.0362382));
#1122=CARTESIAN_POINT('',(-0.225035768884665,-0.247274125195476,0.0362382));
#1123=CARTESIAN_POINT('',(-0.224881146271834,-0.247119647766123,0.0362382));
#1124=CARTESIAN_POINT('',(-0.250703624616327,-0.221297066131511,0.0362382));
#1125=CARTESIAN_POINT('',(-0.225035973986342,-0.246964819432304,0.0362382));
#1126=CARTESIAN_POINT('',(-0.227029882650967,-0.247120794549335,0.0362382));
#1127=CARTESIAN_POINT('',(-0.248243086086521,-0.247114137869981,0.0362382));
#1128=CARTESIAN_POINT('',(-0.245795776009697,-0.272931209608451,0.0362382));
#1129=CARTESIAN_POINT('',(-0.248412340058575,-0.270314635093296,0.0362382));
#1130=CARTESIAN_POINT('',(-0.248255210725532,-0.270471765054856,0.0362382));
#1131=CARTESIAN_POINT('',(-0.222418249012244,-0.244659063053098,0.0362382));
#1132=CARTESIAN_POINT('',(-0.248097723804568,-0.270314426006823,0.0362382));
#1133=CARTESIAN_POINT('',(-0.24825635696591,-0.268320727052587,0.0362382));
#1134=CARTESIAN_POINT('',(-0.248243086086521,-0.247114137869981,0.0362382));
#1135=CARTESIAN_POINT('',(-0.248243043660114,-0.225907548687375,0.0362382));
#1136=CARTESIAN_POINT('',(-0.248087060567449,-0.223913640646666,0.0362382));
#1137=CARTESIAN_POINT('',(-0.248399018777146,-0.223913640022749,0.0362382));
#1138=CARTESIAN_POINT('',(-0.250703624616327,-0.221297066131511,0.0362382));
#1139=CARTESIAN_POINT('',(-0.248243039360339,-0.223757661229859,0.0362382));
#1140=CARTESIAN_POINT('',(-0.274066772077939,-0.249581290652735,0.0362382));
#1141=CARTESIAN_POINT('',(-0.248251942955438,-0.256620751845357,0.02031621));
#1142=CARTESIAN_POINT('',(-0.248251942955438,-0.256620751845357,0.0207772));
#1143=CARTESIAN_POINT('',(-0.248010331279144,-0.258202674318041,0.0207772));
#1144=CARTESIAN_POINT('',(-0.246670021449214,-0.25686236984934,0.0207772));
#1145=CARTESIAN_POINT('',(-0.24800977900494,-0.258202319618512,0.0208588000000097));
#1146=CARTESIAN_POINT('',(-0.248009809678339,-0.258202324315112,0.0208315876794624));
#1147=CARTESIAN_POINT('',(-0.248010072249825,-0.258202364570042,0.0208043889026485));
#1148=CARTESIAN_POINT('',(-0.248010565653714,-0.258202439867128,0.0207772036044429));
#1149=CARTESIAN_POINT('',(-0.248009583507369,-0.258202515116866,0.0208588001865761));
#1150=CARTESIAN_POINT('',(-0.246670376150952,-0.256862922122124,0.0208588000000096));
#1151=CARTESIAN_POINT('',(-0.246670262281625,-0.256862178463774,0.0215185469618968));
#1152=CARTESIAN_POINT('',(-0.246613652110579,-0.256572254776869,0.0228079075340188));
#1153=CARTESIAN_POINT('',(-0.246752064213668,-0.255920155595413,0.0242906327201655));
#1154=CARTESIAN_POINT('',(-0.24718650022514,-0.255383873867304,0.0254264651893788));
#1155=CARTESIAN_POINT('',(-0.247722677377423,-0.255058606809813,0.0261972028114997));
#1156=CARTESIAN_POINT('',(-0.248527060466189,-0.254957051657795,0.0268246264247235));
#1157=CARTESIAN_POINT('',(-0.24945667454954,-0.255403395796143,0.0270986670748569));
#1158=CARTESIAN_POINT('',(-0.249914905420779,-0.256334575301364,0.0268308018963856));
#1159=CARTESIAN_POINT('',(-0.249817182768567,-0.257141813260476,0.026206338868082));
#1160=CARTESIAN_POINT('',(-0.249492347861148,-0.257681898974035,0.0254339378382737));
#1161=CARTESIAN_POINT('',(-0.2489620701868,-0.258115778042741,0.0243111285431016));
#1162=CARTESIAN_POINT('',(-0.248300258317796,-0.258260585744743,0.0228101694651264));
#1163=CARTESIAN_POINT('',(-0.248010523211615,-0.258202433568752,0.0215190330108558));
#1164=CARTESIAN_POINT('',(-0.248009779004941,-0.258202319618512,0.0208588000000096));
#1165=CARTESIAN_POINT('',(-0.246670180653381,-0.256863117620478,0.0208588001865761));
#1166=CARTESIAN_POINT('',(-0.246670255899189,-0.256862135473832,0.0207772036044429));
#1167=CARTESIAN_POINT('',(-0.246670331198249,-0.256862628877419,0.0208043889026485));
#1168=CARTESIAN_POINT('',(-0.24667037145423,-0.256862891448744,0.0208315876794624));
#1169=CARTESIAN_POINT('',(-0.246670376150952,-0.256862922122124,0.0208588000000096));
#1170=CARTESIAN_POINT('',(-0.248247460791229,-0.237620752374036,0.02031621));
#1171=CARTESIAN_POINT('',(-0.248247460791229,-0.237620752374036,0.0207772));
#1172=CARTESIAN_POINT('',(-0.248470385091071,-0.236036536834986,0.0207772));
#1173=CARTESIAN_POINT('',(-0.249831675438569,-0.237397821737335,0.0207772));
#1174=CARTESIAN_POINT('',(-0.248471317541572,-0.23603648972052,0.0208587999999902));
#1175=CARTESIAN_POINT('',(-0.248471287288479,-0.23603648544575,0.0208315860810812));
#1176=CARTESIAN_POINT('',(-0.248471028302889,-0.236036448801705,0.0208043852990203));
#1177=CARTESIAN_POINT('',(-0.248470541602374,-0.236036380273898,0.0207771975928332));
#1178=CARTESIAN_POINT('',(-0.248471122044936,-0.236036685217939,0.0208587998134504));
#1179=CARTESIAN_POINT('',(-0.249831722549305,-0.237396889286644,0.0208587999999902));
#1180=CARTESIAN_POINT('',(-0.249831825943656,-0.237397621000473,0.0215170074723963));
#1181=CARTESIAN_POINT('',(-0.249884378581491,-0.2376825687831,0.0228046425061576));
#1182=CARTESIAN_POINT('',(-0.24974295865835,-0.238329539014652,0.0242856602959653));
#1183=CARTESIAN_POINT('',(-0.249307841680842,-0.238861677589228,0.0254196644933784));
#1184=CARTESIAN_POINT('',(-0.248772243820173,-0.239184102650442,0.0261891722116784));
#1185=CARTESIAN_POINT('',(-0.247969937713568,-0.239283616345907,0.0268156420086261));
#1186=CARTESIAN_POINT('',(-0.24704295895963,-0.238837625603486,0.0270894229562459));
#1187=CARTESIAN_POINT('',(-0.246585312531052,-0.237909030176957,0.026821669200886));
#1188=CARTESIAN_POINT('',(-0.246681124781173,-0.237103960273823,0.0261980766054093));
#1189=CARTESIAN_POINT('',(-0.247003129948992,-0.236564566211063,0.0254269229301254));
#1190=CARTESIAN_POINT('',(-0.247529287385578,-0.236130110094127,0.0243059800701796));
#1191=CARTESIAN_POINT('',(-0.248185847088724,-0.235982312822341,0.0228067805826281));
#1192=CARTESIAN_POINT('',(-0.248470585139968,-0.236036386231972,0.0215176257833137));
#1193=CARTESIAN_POINT('',(-0.248471317541572,-0.236036489720521,0.0208587999999902));
#1194=CARTESIAN_POINT('',(-0.249831527052669,-0.237397084784063,0.0208587998134505));
#1195=CARTESIAN_POINT('',(-0.249831831999032,-0.237397665225404,0.0207771975928332));
#1196=CARTESIAN_POINT('',(-0.249831763469278,-0.237397178525164,0.0208043852990203));
#1197=CARTESIAN_POINT('',(-0.249831726824196,-0.23739691953972,0.0208315860810812));
#1198=CARTESIAN_POINT('',(-0.249831722549305,-0.237396889286644,0.0208587999999902));
#1199=CARTESIAN_POINT('',(-0.238749701873353,-0.247120771109697,0.02031621));
#1200=CARTESIAN_POINT('',(-0.238749701873353,-0.247120771109697,0.0207772));
#1201=CARTESIAN_POINT('',(-0.238510710149201,-0.248703091186506,0.0207772));
#1202=CARTESIAN_POINT('',(-0.237167382752522,-0.247359769163127,0.0207772));
#1203=CARTESIAN_POINT('',(-0.238510159446022,-0.248702738057996,0.0208588000000097));
#1204=CARTESIAN_POINT('',(-0.238510190058057,-0.248702742693289,0.0208315877392189));
#1205=CARTESIAN_POINT('',(-0.238510452103533,-0.248702782423071,0.0208043889622004));
#1206=CARTESIAN_POINT('',(-0.238510944523902,-0.248702856735725,0.0207772036044483));
#1207=CARTESIAN_POINT('',(-0.23850996394845,-0.248702933556349,0.0208588001865761));
#1208=CARTESIAN_POINT('',(-0.237167735883236,-0.247360319864893,0.0208588000000096));
#1209=CARTESIAN_POINT('',(-0.237167623537509,-0.247359577940272,0.0215183268316757));
#1210=CARTESIAN_POINT('',(-0.237111602215704,-0.247070373628824,0.022807445158991));
#1211=CARTESIAN_POINT('',(-0.237250445045995,-0.24641900547263,0.0242899280609839));
#1212=CARTESIAN_POINT('',(-0.237684979651688,-0.245883315178335,0.0254254998429129));
#1213=CARTESIAN_POINT('',(-0.238221074792258,-0.245558453657371,0.026196061911438));
#1214=CARTESIAN_POINT('',(-0.239025161808601,-0.245457189957155,0.0268233493176929));
#1215=CARTESIAN_POINT('',(-0.239954399839031,-0.245903483248376,0.0270973531399368));
#1216=CARTESIAN_POINT('',(-0.240412548143308,-0.246834293657925,0.0268295046573277));
#1217=CARTESIAN_POINT('',(-0.240315098993433,-0.24764122313923,0.0262051663829859));
#1218=CARTESIAN_POINT('',(-0.239990667946403,-0.248181211398398,0.0254329432427633));
#1219=CARTESIAN_POINT('',(-0.239460979127763,-0.248615174190557,0.024310401298968));
#1220=CARTESIAN_POINT('',(-0.238799915819439,-0.248760410873467,0.0228096940585481));
#1221=CARTESIAN_POINT('',(-0.238510901937993,-0.248702850486595,0.0215188307722293));
#1222=CARTESIAN_POINT('',(-0.238510159446022,-0.248702738057996,0.0208588000000096));
#1223=CARTESIAN_POINT('',(-0.237167540385665,-0.247360515363247,0.0208588001865761));
#1224=CARTESIAN_POINT('',(-0.237167617202367,-0.247359534787488,0.0207772036044483));
#1225=CARTESIAN_POINT('',(-0.237167691516991,-0.247360027207559,0.0208043889622004));
#1226=CARTESIAN_POINT('',(-0.23716773124782,-0.247360289252877,0.0208315877392189));
#1227=CARTESIAN_POINT('',(-0.237167735883236,-0.247360319864893,0.0208588000000096));
#1228=CARTESIAN_POINT('',(-0.257749701873314,-0.247120733109697,0.02031621));
#1229=CARTESIAN_POINT('',(-0.257749701873314,-0.247120733109697,0.0207772));
#1230=CARTESIAN_POINT('',(-0.257970042139829,-0.245536155885193,0.0207772));
#1231=CARTESIAN_POINT('',(-0.259334278216444,-0.246900386504875,0.0207772));
#1232=CARTESIAN_POINT('',(-0.257970973090695,-0.245536107271097,0.0208587999999902));
#1233=CARTESIAN_POINT('',(-0.257970942896176,-0.245536103054847,0.0208315861368217));
#1234=CARTESIAN_POINT('',(-0.25797068441268,-0.245536066912093,0.0208043853545731));
#1235=CARTESIAN_POINT('',(-0.257970198651216,-0.245535999324188,0.0207771975928298));
#1236=CARTESIAN_POINT('',(-0.257970777594059,-0.245536302768516,0.0208587998134504));
#1237=CARTESIAN_POINT('',(-0.259334326826817,-0.246899455553815,0.0208587999999902));
#1238=CARTESIAN_POINT('',(-0.259334428772207,-0.246900185610726,0.0215167896181116));
#1239=CARTESIAN_POINT('',(-0.259386418518054,-0.247184439527669,0.0228041746619988));
#1240=CARTESIAN_POINT('',(-0.259244573894867,-0.247830680995028,0.0242849483944494));
#1241=CARTESIAN_POINT('',(-0.25880936215912,-0.248362232013081,0.0254186929170324));
#1242=CARTESIAN_POINT('',(-0.258273847339163,-0.24868425382983,0.0261880261857496));
#1243=CARTESIAN_POINT('',(-0.257471836307253,-0.248783478042254,0.0268143607656052));
#1244=CARTESIAN_POINT('',(-0.256545231476236,-0.24833753684519,0.0270881045225471));
#1245=CARTESIAN_POINT('',(-0.256087669112423,-0.247409307580378,0.0268203654932923));
#1246=CARTESIAN_POINT('',(-0.256183211513449,-0.246604546490491,0.0261968956674862));
#1247=CARTESIAN_POINT('',(-0.256504815288963,-0.246065252222281,0.0254259191116301));
#1248=CARTESIAN_POINT('',(-0.257030389332983,-0.245630716064861,0.0243052397223015));
#1249=CARTESIAN_POINT('',(-0.257686202709569,-0.245482497832448,0.0228062889397882));
#1250=CARTESIAN_POINT('',(-0.257970242325212,-0.245536005229742,0.0215174278751647));
#1251=CARTESIAN_POINT('',(-0.257970973090695,-0.245536107271097,0.0208587999999902));
#1252=CARTESIAN_POINT('',(-0.259334131330181,-0.246899651051233,0.0208587998134505));
#1253=CARTESIAN_POINT('',(-0.259334434776824,-0.246900229992862,0.0207771975928298));
#1254=CARTESIAN_POINT('',(-0.259334367186975,-0.246899744231668,0.0208043853545731));
#1255=CARTESIAN_POINT('',(-0.259334331043187,-0.246899485748317,0.0208315861368217));
#1256=CARTESIAN_POINT('',(-0.259334326826817,-0.246899455553815,0.0208587999999902));
#1257=CARTESIAN_POINT('',(-0.24825635696591,-0.268320727052587,0.02031621));
#1258=CARTESIAN_POINT('',(-0.248097723804568,-0.270314426006823,0.0362382));
#1259=CARTESIAN_POINT('',(-0.247624308105313,-0.270276757617199,0.0362382));
#1260=CARTESIAN_POINT('',(-0.246723289800215,-0.269855837299754,0.0361723763325578));
#1261=CARTESIAN_POINT('',(-0.246300916662712,-0.268954559153339,0.0362382));
#1262=CARTESIAN_POINT('',(-0.246262807910482,-0.268481233013857,0.0362382));
#1263=CARTESIAN_POINT('',(-0.250250265630535,-0.268476702169618,0.0362382));
#1264=CARTESIAN_POINT('',(-0.250213134385261,-0.268951369623558,0.0362382));
#1265=CARTESIAN_POINT('',(-0.249791411344807,-0.269855130385107,0.0361717270150252));
#1266=CARTESIAN_POINT('',(-0.248886950648969,-0.270277506386159,0.0362382));
#1267=CARTESIAN_POINT('',(-0.248412340058575,-0.270314635093296,0.0362382));
#1268=CARTESIAN_POINT('',(-0.246836497510196,-0.266912182013896,0.0132207));
#1269=CARTESIAN_POINT('',(-0.246836497510196,-0.266912182013896,0.0203162));
#1270=CARTESIAN_POINT('',(-0.246836497510196,-0.266912182013896,0.0207772));
#1271=CARTESIAN_POINT('',(-0.24825635696591,-0.268320727052587,0.02031621));
#1272=CARTESIAN_POINT('',(-0.249665165067069,-0.269740325493734,0.02031621));
#1273=CARTESIAN_POINT('',(-0.249665165067069,-0.269740325493734,0.0132207));
#1274=CARTESIAN_POINT('',(-0.249665165067069,-0.269740325493734,0.0207772));
#1275=CARTESIAN_POINT('',(-0.24825635696591,-0.268320727052587,0.0207772));
#1276=CARTESIAN_POINT('',(-0.23410759297358,-0.261256301777955,0.02031621));
#1277=CARTESIAN_POINT('',(-0.248256371108045,-0.275391794864438,0.0327584));
#1278=CARTESIAN_POINT('',(-0.219958814839116,-0.247120808691471,0.0327584));
#1279=CARTESIAN_POINT('',(-0.245795776552405,-0.272933510693229,0.0327584));
#1280=CARTESIAN_POINT('',(-0.245795776552405,-0.272933510693229,0.02031621));
#1281=CARTESIAN_POINT('',(-0.245795776552405,-0.272933510693229,0.0207772));
#1282=CARTESIAN_POINT('',(-0.23410759297358,-0.261256301777955,0.0207772));
#1283=CARTESIAN_POINT('',(-0.224613797203879,-0.251771420243187,0.0207772));
#1284=CARTESIAN_POINT('',(-0.224613797203881,-0.25177142024319,0.02031621));
#1285=CARTESIAN_POINT('',(-0.224613797203902,-0.251771420243211,0.02031621));
#1286=CARTESIAN_POINT('',(-0.23410759297358,-0.261256301777955,0.02031621));
#1287=CARTESIAN_POINT('',(-0.219958814839116,-0.247120808691471,0.02031621));
#1288=CARTESIAN_POINT('',(-0.219958814839116,-0.247120808691471,0.02031621));
#1289=CARTESIAN_POINT('',(-0.248243086086521,-0.247114137869981,0.02031621));
#1290=CARTESIAN_POINT('',(-0.234103155845515,-0.261260740927465,0.0203162));
#1291=CARTESIAN_POINT('',(-0.24824531875164,-0.275402847265052,0.0203162));
#1292=CARTESIAN_POINT('',(-0.262384654819645,-0.261263454639591,0.0203162));
#1293=CARTESIAN_POINT('',(-0.256740189091143,-0.266907942946001,0.0203162));
#1294=CARTESIAN_POINT('',(-0.228362522993403,-0.238530390358697,0.0203162));
#1295=CARTESIAN_POINT('',(-0.228455861275196,-0.238623728267138,0.0203162));
#1296=CARTESIAN_POINT('',(-0.234100922178547,-0.232978644783497,0.0203162));
#1297=CARTESIAN_POINT('',(-0.219960990935693,-0.24711863258619,0.0203162));
#1298=CARTESIAN_POINT('',(-0.234100922178547,-0.232978644783497,0.02031621));
#1299=CARTESIAN_POINT('',(-0.227029882650967,-0.247120794549335,0.02031621));
#1300=CARTESIAN_POINT('',(-0.225029882650967,-0.247120794549335,0.02031621));
#1301=CARTESIAN_POINT('',(-0.248245305611353,-0.268331780455045,0.0203162));
#1302=CARTESIAN_POINT('',(-0.262384654819645,-0.261263454639591,0.0208642));
#1303=CARTESIAN_POINT('',(-0.253845065496054,-0.24142541202364,0.0204496697211072));
#1304=CARTESIAN_POINT('',(-0.239749570728975,-0.227329973638429,0.0204496697210927));
#1305=CARTESIAN_POINT('',(-0.239656282000703,-0.22723658617627,0.0204496664419878));
#1306=CARTESIAN_POINT('',(-0.234100327003696,-0.232979239960729,0.0208642));
#1307=CARTESIAN_POINT('',(-0.239756973154133,-0.227322571183662,0.0208587998134505));
#1308=CARTESIAN_POINT('',(-0.268041496466717,-0.255606590365107,0.0208587999999902));
#1309=CARTESIAN_POINT('',(-0.239663634946852,-0.22722923320071,0.0208587998390126));
#1310=CARTESIAN_POINT('',(-0.234006988721904,-0.232885902052288,0.0208642));
#1311=CARTESIAN_POINT('',(-0.239659783815484,-0.227233084347482,0.0205626234729881));
#1312=CARTESIAN_POINT('',(-0.234006988721904,-0.232885902052288,0.0208642));
#1313=CARTESIAN_POINT('',(-0.262384654819645,-0.261263454639591,0.0219588));
#1314=CARTESIAN_POINT('',(-0.250013083170918,-0.2736350777784,0.0207772));
#1315=CARTESIAN_POINT('',(-0.248245319753489,-0.275402848266896,0.0207772));
#1316=CARTESIAN_POINT('',(-0.250715805823881,-0.272932350310844,0.0207772));
#1317=CARTESIAN_POINT('',(-0.250715805823881,-0.272932350310844,0.0219588));
#1318=CARTESIAN_POINT('',(-0.250715805823881,-0.272932350310844,0.0327584));
#1319=CARTESIAN_POINT('',(-0.276527357333926,-0.247120695554386,0.0327584));
#1320=CARTESIAN_POINT('',(-0.274066772077939,-0.249581290652735,0.0327584));
#1321=CARTESIAN_POINT('',(-0.274066772077939,-0.249581290652735,0.0219588));
#1322=CARTESIAN_POINT('',(-0.274066772077939,-0.249581290652735,0.0203162));
#1323=CARTESIAN_POINT('',(-0.262384654819645,-0.261263454639591,0.0203162));
#1324=CARTESIAN_POINT('',(-0.268028338559373,-0.255619748325082,0.0203162));
#1325=CARTESIAN_POINT('',(-0.262384263825258,-0.261263845635542,0.0208534019599676));
#1326=CARTESIAN_POINT('',(-0.248245319753489,-0.275402848266896,0.0207772));
#1327=CARTESIAN_POINT('',(-0.248243086086521,-0.247114137869981,0.0362382));
#1328=CARTESIAN_POINT('',(-0.274066772077939,-0.249581290652735,0.0362382));
#1329=CARTESIAN_POINT('',(-0.271450197562783,-0.246964726603856,0.0362382));
#1330=CARTESIAN_POINT('',(-0.27160617697959,-0.247120705396747,0.0362382));
#1331=CARTESIAN_POINT('',(-0.245795776009697,-0.272931209608451,0.0362382));
#1332=CARTESIAN_POINT('',(-0.2714501981867,-0.247276684813553,0.0362382));
#1333=CARTESIAN_POINT('',(-0.269456289522075,-0.247120709696522,0.0362382));
#1334=CARTESIAN_POINT('',(-0.271456289522071,-0.247120705696522,0.0362382));
#1335=CARTESIAN_POINT('',(-0.269456289522075,-0.247120709696522,0.0362382));
#1336=CARTESIAN_POINT('',(-0.227029882650967,-0.247120794549335,0.02031621));
#1337=CARTESIAN_POINT('',(-0.225035973986342,-0.246964819432304,0.0362382));
#1338=CARTESIAN_POINT('',(-0.225073105231616,-0.246490151978364,0.0362382));
#1339=CARTESIAN_POINT('',(-0.22549482827207,-0.245586391216815,0.0361717270150251));
#1340=CARTESIAN_POINT('',(-0.226399288967907,-0.245164015215764,0.0362382));
#1341=CARTESIAN_POINT('',(-0.226873899558301,-0.245126886508627,0.0362382));
#1342=CARTESIAN_POINT('',(-0.226878425332076,-0.249115051473745,0.0362382));
#1343=CARTESIAN_POINT('',(-0.226402474547144,-0.249078904561616,0.0362382));
#1344=CARTESIAN_POINT('',(-0.225495579153231,-0.248657229182725,0.0361710741582106));
#1345=CARTESIAN_POINT('',(-0.225072358317602,-0.247749982395313,0.0362382));
#1346=CARTESIAN_POINT('',(-0.225035768884665,-0.247274125195476,0.0362382));
#1347=CARTESIAN_POINT('',(-0.248243043660114,-0.225907548687375,0.02031621));
#1348=CARTESIAN_POINT('',(-0.246249134995489,-0.225751573570343,0.0362382));
#1349=CARTESIAN_POINT('',(-0.246286266240763,-0.225276906116404,0.0362382));
#1350=CARTESIAN_POINT('',(-0.246707989281217,-0.224373145354854,0.0361717270150251));
#1351=CARTESIAN_POINT('',(-0.247612449977054,-0.223950769353803,0.0362382));
#1352=CARTESIAN_POINT('',(-0.248087060567449,-0.223913640646666,0.0362382));
#1353=CARTESIAN_POINT('',(-0.248399018777146,-0.22391364002275,0.0362382));
#1354=CARTESIAN_POINT('',(-0.248873686231085,-0.223950771268023,0.0362382));
#1355=CARTESIAN_POINT('',(-0.249777446992634,-0.224372494308478,0.0361717270150251));
#1356=CARTESIAN_POINT('',(-0.250199822993686,-0.225276955004315,0.0362382));
#1357=CARTESIAN_POINT('',(-0.250236951700823,-0.22575156559471,0.0362382));
#1358=CARTESIAN_POINT('',(-0.248243043660114,-0.225907548687375,0.02031621));
#1359=CARTESIAN_POINT('',(-0.246243043660114,-0.225907548687375,0.02031621));
#1360=CARTESIAN_POINT('',(-0.269456289522075,-0.247120709696522,0.02031621));
#1361=CARTESIAN_POINT('',(-0.269612264639106,-0.245126801031897,0.0362382));
#1362=CARTESIAN_POINT('',(-0.270086932093046,-0.24516393227717,0.0362382));
#1363=CARTESIAN_POINT('',(-0.270990692854595,-0.245585655317625,0.0361717270150252));
#1364=CARTESIAN_POINT('',(-0.271413068855647,-0.246490116013462,0.0362382));
#1365=CARTESIAN_POINT('',(-0.271450197562784,-0.246964726603856,0.0362382));
#1366=CARTESIAN_POINT('',(-0.271456289522071,-0.247120705696522,0.02031621));
#1367=CARTESIAN_POINT('',(-0.271456289522071,-0.247120705696522,0.0207772));
#1368=CARTESIAN_POINT('',(-0.271456289522071,-0.247120705696522,0.02031621));
#1369=CARTESIAN_POINT('',(-0.27145792146015,-0.247120707470006,0.020316205));
#1370=CARTESIAN_POINT('',(-0.269456289522075,-0.247120709696522,0.0203162));
#1371=CARTESIAN_POINT('',(-0.26745792264203,-0.247119623552111,0.020316205));
#1372=CARTESIAN_POINT('',(-0.267456289522079,-0.247120713696522,0.02031621));
#1373=CARTESIAN_POINT('',(-0.267456289522079,-0.247120713696522,0.0207772));
#1374=CARTESIAN_POINT('',(-0.267456289522079,-0.247120713696522,0.02031621));
#1375=CARTESIAN_POINT('',(-0.262385193425953,-0.232978588214954,0.02031621));
#1376=CARTESIAN_POINT('',(-0.262385193425953,-0.232978588214954,0.02031621));
#1377=CARTESIAN_POINT('',(-0.274067850283866,-0.244659022245758,0.020316205));
#1378=CARTESIAN_POINT('',(-0.248244662091335,-0.218834849297484,0.020316205));
#1379=CARTESIAN_POINT('',(-0.274066762235578,-0.244660110298398,0.02031621));
#1380=CARTESIAN_POINT('',(-0.274066762235578,-0.244660110298398,0.0327584));
#1381=CARTESIAN_POINT('',(-0.248243029517978,-0.218836480875523,0.0327584));
#1382=CARTESIAN_POINT('',(-0.248243029517978,-0.218836480875523,0.0327584));
#1383=CARTESIAN_POINT('',(-0.248243029517978,-0.218836480875523,0.02031621));
#1384=CARTESIAN_POINT('',(-0.248243029517978,-0.218836480875523,0.0207772));
#1385=CARTESIAN_POINT('',(-0.248243029517978,-0.218836480875523,0.02031621));
#1386=CARTESIAN_POINT('',(-0.234100922178547,-0.232978644783497,0.02031621));
#1387=CARTESIAN_POINT('',(-0.219958814839116,-0.247120808691471,0.0327584));
#1388=CARTESIAN_POINT('',(-0.234099936009311,-0.232979630956678,0.0208534019599676));
#1389=CARTESIAN_POINT('',(-0.228443289215081,-0.23863630037754,0.0208561009799886));
#1390=CARTESIAN_POINT('',(-0.234100327003696,-0.232979239960729,0.0208534));
#1391=CARTESIAN_POINT('',(-0.234099936009311,-0.232979630956678,0.0208534019599676));
#1392=CARTESIAN_POINT('',(-0.239744304309633,-0.227335240579762,0.020316205));
#1393=CARTESIAN_POINT('',(-0.234100922178547,-0.232978644783497,0.0203162));
#1394=CARTESIAN_POINT('',(-0.269456289522075,-0.247120709696522,0.02031621));
#1395=CARTESIAN_POINT('',(-0.2714501981867,-0.247276684813553,0.0362382));
#1396=CARTESIAN_POINT('',(-0.271413066941426,-0.247751352267493,0.0362382));
#1397=CARTESIAN_POINT('',(-0.270991343900972,-0.248655113029042,0.0361717270150251));
#1398=CARTESIAN_POINT('',(-0.270086883205135,-0.249077489030094,0.0362382));
#1399=CARTESIAN_POINT('',(-0.26961227261474,-0.249114617737231,0.0362382));
#1400=CARTESIAN_POINT('',(-0.269456289522075,-0.247120709696522,0.02031621));
#1401=CARTESIAN_POINT('',(-0.248245263184946,-0.247118577019491,0.0207772));
#1402=CARTESIAN_POINT('',(-0.234103155845515,-0.261260740927465,0.0207772));
#1403=CARTESIAN_POINT('',(-0.248255210725532,-0.270471765054856,0.0207772));
#1404=CARTESIAN_POINT('',(-0.248245263184946,-0.247118577019491,0.0207772));
#1405=CARTESIAN_POINT('',(-0.248245305611353,-0.268331780455045,0.0207772));
#1406=CARTESIAN_POINT('',(-0.248245305611353,-0.268331780455045,0.0207772));
#1407=CARTESIAN_POINT('',(-0.234103155845515,-0.261260740927465,0.0207772));
#1408=CARTESIAN_POINT('',(-0.248245263184946,-0.247118577019491,0.0207772));
#1409=CARTESIAN_POINT('',(-0.268041163240494,-0.255606923592663,0.0207772));
#1410=CARTESIAN_POINT('',(-0.248245263184946,-0.247118577019491,0.0207772));
#1411=CARTESIAN_POINT('',(-0.256728146398795,-0.26691998568652,0.0207772));
#1412=CARTESIAN_POINT('',(-0.248245263184946,-0.247118577019491,0.0207772));
#1413=CARTESIAN_POINT('',(-0.268041163240494,-0.255606923592663,0.0207772));
#1414=CARTESIAN_POINT('',(-0.248245263184946,-0.247118577019491,0.0207772));
#1415=CARTESIAN_POINT('',(-0.256728146398795,-0.26691998568652,0.0207772));
#1416=CARTESIAN_POINT('',(-0.234006597727518,-0.232886293048238,0.0208534019599676));
#1417=CARTESIAN_POINT('',(-0.239650672461633,-0.227242195737779,0.0203162));
#1418=CARTESIAN_POINT('',(0.000680295059272966,0.00112040064903197,0.0203162));
#1419=CARTESIAN_POINT('',(-0.27160617697959,-0.247120705396747,0.0203162));
#1420=CARTESIAN_POINT('',(-0.27160617697959,-0.247120705396747,0.02031621));
#1421=CARTESIAN_POINT('',(-0.27160617697959,-0.247120705396747,0.0327584));
#1422=CARTESIAN_POINT('',(-0.248255210725532,-0.270471765054856,0.0219588));
#1423=CARTESIAN_POINT('',(-0.248255210725532,-0.270471765054856,0.0327584));
#1424=CARTESIAN_POINT('',(-0.259927962022621,-0.25879896706667,0.0327584));
#1425=CARTESIAN_POINT('',(-0.27160617697959,-0.247120705396747,0.0327584));
#1426=CARTESIAN_POINT('',(-0.248255210725532,-0.270471765054856,0.0327584));
#1427=CARTESIAN_POINT('',(-0.27160617697959,-0.247120705396747,0.0327584));
#1428=CARTESIAN_POINT('',(-0.27160617697959,-0.247120705396747,0.0327584));
#1429=CARTESIAN_POINT('',(-0.248255210725532,-0.270471765054856,0.0327584));
#1430=CARTESIAN_POINT('',(-0.248255210725532,-0.270471765054856,0.0327584));
#1431=CARTESIAN_POINT('',(-0.259924608169964,-0.235439183313303,0.0327584));
#1432=CARTESIAN_POINT('',(-0.248243039360339,-0.223757661229859,0.0327584));
#1433=CARTESIAN_POINT('',(-0.236567027146709,-0.258794556139581,0.0327584));
#1434=CARTESIAN_POINT('',(-0.224881146271834,-0.247119647766123,0.0327584));
#1435=CARTESIAN_POINT('',(-0.236561517276896,-0.235439230039485,0.0327584));
#1436=MECHANICAL_DESIGN_GEOMETRIC_PRESENTATION_REPRESENTATION('',(#785),
#1437);
#1437=(
GEOMETRIC_REPRESENTATION_CONTEXT(3)
GLOBAL_UNCERTAINTY_ASSIGNED_CONTEXT((#1438))
GLOBAL_UNIT_ASSIGNED_CONTEXT((#1441,#1440,#1439))
REPRESENTATION_CONTEXT('Motor Mount Top RL','TOP_LEVEL_ASSEMBLY_PART')
);
#1438=UNCERTAINTY_MEASURE_WITH_UNIT(LENGTH_MEASURE(2.54264730318121E-5),
#1441,'DISTANCE_ACCURACY_VALUE','Maximum Tolerance applied to model');
#1439=(
NAMED_UNIT(*)
SI_UNIT($,.STERADIAN.)
SOLID_ANGLE_UNIT()
);
#1440=(
NAMED_UNIT(*)
PLANE_ANGLE_UNIT()
SI_UNIT($,.RADIAN.)
);
#1441=(
LENGTH_UNIT()
NAMED_UNIT(*)
SI_UNIT($,.METRE.)
);
#1442=PRODUCT_DEFINITION_SHAPE('','',#1443);
#1443=PRODUCT_DEFINITION('','',#1445,#1444);
#1444=PRODUCT_DEFINITION_CONTEXT('',#1451,'design');
#1445=PRODUCT_DEFINITION_FORMATION_WITH_SPECIFIED_SOURCE('','',#1447,
 .NOT_KNOWN.);
#1446=PRODUCT_RELATED_PRODUCT_CATEGORY('','',(#1447));
#1447=PRODUCT('Motor Mount Top RL','Motor Mount Top RL',
'Motor Mount Top RL',(#1449));
#1448=PRODUCT_CATEGORY('','');
#1449=PRODUCT_CONTEXT('',#1451,'mechanical');
#1450=APPLICATION_PROTOCOL_DEFINITION('international standard',
'ap242_managed_model_based_3d_engineering',2020,#1451);
#1451=APPLICATION_CONTEXT('managed model based 3d engineering');
ENDSEC;
END-ISO-10303-21;
