ISO-10303-21;
HEADER;
/* Generated by software containing ST-Developer
 * from STEP Tools, Inc. (www.steptools.com) 
 */
/* OPTION: using custom renumber hook */

FILE_DESCRIPTION(
/* description */ ('STEP AP242 Edition 2',
'CAx-IF Rec.Pracs.---Representation and Presentation of Product Manufa
cturing Information (PMI)---4.0---2014-10-13',
'CAx-IF Rec.Pracs.---3D Tessellated Geometry---0.4---2014-09-14','2;1',
'CAx-IF Rec.Pracs.---User Defined Attributes---1.5---2016-08-15'),
/* implementation_level */ '2;1');

FILE_NAME(
/* name */ 'Part Studio 1 - Motor Mount Bottom RR',
/* time_stamp */ '2026-06-27T18:00:09Z',
/* author */ (''),
/* organization */ (''),
/* preprocessor_version */ 'ST-DEVELOPER v20',
/* originating_system */ 'ONSHAPE BY PTC INC, 1.217',
/* authorisation */ '  ');

FILE_SCHEMA (('AP242_MANAGED_MODEL_BASED_3D_ENGINEERING_MIM_LF { 1 0 10303 442 3 1 4 }'));
ENDSEC;

DATA;
#10=SHAPE_REPRESENTATION_RELATIONSHIP('','',#488,#11);
#11=ADVANCED_BREP_SHAPE_REPRESENTATION('',(#486),#855);
#12=SPHERICAL_SURFACE('',#533,0.0034798);
#13=SPHERICAL_SURFACE('',#539,0.0034798);
#14=ELLIPSE('',#528,0.0049211803543459,0.0034798);
#15=ELLIPSE('',#532,0.0049211803543459,0.0034798);
#16=(
BOUNDED_CURVE()
B_SPLINE_CURVE(3,(#804,#805,#806,#807),.CIRCULAR_ARC.,.F.,.F.)
B_SPLINE_CURVE_WITH_KNOTS((4,4),(0.,1.),.PIECEWISE_BEZIER_KNOTS.)
CURVE()
GEOMETRIC_REPRESENTATION_ITEM()
RATIONAL_B_SPLINE_CURVE((1.,0.333334000000009,0.333334000000009,1.))
REPRESENTATION_ITEM('')
);
#17=B_SPLINE_CURVE_WITH_KNOTS('',3,(#777,#778,#779,#780,#781),
 .UNSPECIFIED.,.F.,.F.,(4,1,4),(0.,0.00140772417920409,0.00281544835840819),
 .UNSPECIFIED.);
#18=B_SPLINE_CURVE_WITH_KNOTS('',3,(#782,#783,#784,#785,#786),
 .UNSPECIFIED.,.F.,.F.,(4,1,4),(0.,0.00140772633483134,0.00281545266966268),
 .UNSPECIFIED.);
#19=B_SPLINE_CURVE_WITH_KNOTS('',3,(#791,#792,#793,#794,#795),
 .UNSPECIFIED.,.F.,.F.,(4,1,4),(0.,0.00140772417920392,0.00281544835840784),
 .UNSPECIFIED.);
#20=B_SPLINE_CURVE_WITH_KNOTS('',3,(#796,#797,#798,#799,#800),
 .UNSPECIFIED.,.F.,.F.,(4,1,4),(0.,0.00140772633483134,0.00281545266966269),
 .UNSPECIFIED.);
#21=B_SPLINE_CURVE_WITH_KNOTS('',3,(#809,#810,#811,#812,#813),
 .UNSPECIFIED.,.F.,.F.,(4,1,4),(0.,0.00140772202357423,0.00281544404714846),
 .UNSPECIFIED.);
#22=B_SPLINE_CURVE_WITH_KNOTS('',3,(#814,#815,#816,#817,#818),
 .UNSPECIFIED.,.F.,.F.,(4,1,4),(0.,0.00140772417920425,0.00281544835840851),
 .UNSPECIFIED.);
#23=B_SPLINE_CURVE_WITH_KNOTS('',3,(#826,#827,#828,#829,#830),
 .UNSPECIFIED.,.F.,.F.,(4,1,4),(0.,0.00140772202357409,0.00281544404714817),
 .UNSPECIFIED.);
#24=B_SPLINE_CURVE_WITH_KNOTS('',3,(#831,#832,#833,#834,#835),
 .UNSPECIFIED.,.F.,.F.,(4,1,4),(0.,0.00140772417920425,0.00281544835840849),
 .UNSPECIFIED.);
#25=CYLINDRICAL_SURFACE('',#506,0.008);
#26=CYLINDRICAL_SURFACE('',#509,0.008);
#27=CYLINDRICAL_SURFACE('',#516,0.002);
#28=CYLINDRICAL_SURFACE('',#517,0.002);
#29=CYLINDRICAL_SURFACE('',#520,0.002);
#30=CYLINDRICAL_SURFACE('',#523,0.002);
#31=CYLINDRICAL_SURFACE('',#526,0.0034798);
#32=CYLINDRICAL_SURFACE('',#529,0.0034798);
#33=CYLINDRICAL_SURFACE('',#531,0.0034798);
#34=CYLINDRICAL_SURFACE('',#535,0.0034798);
#35=CYLINDRICAL_SURFACE('',#537,0.0034798);
#36=CYLINDRICAL_SURFACE('',#541,0.0034798);
#37=LINE('',#685,#69);
#38=LINE('',#689,#70);
#39=LINE('',#693,#71);
#40=LINE('',#697,#72);
#41=LINE('',#702,#73);
#42=LINE('',#704,#74);
#43=LINE('',#706,#75);
#44=LINE('',#709,#76);
#45=LINE('',#716,#77);
#46=LINE('',#718,#78);
#47=LINE('',#720,#79);
#48=LINE('',#725,#80);
#49=LINE('',#727,#81);
#50=LINE('',#729,#82);
#51=LINE('',#737,#83);
#52=LINE('',#742,#84);
#53=LINE('',#746,#85);
#54=LINE('',#751,#86);
#55=LINE('',#754,#87);
#56=LINE('',#756,#88);
#57=LINE('',#758,#89);
#58=LINE('',#760,#90);
#59=LINE('',#762,#91);
#60=LINE('',#764,#92);
#61=LINE('',#766,#93);
#62=LINE('',#767,#94);
#63=LINE('',#769,#95);
#64=LINE('',#772,#96);
#65=LINE('',#773,#97);
#66=LINE('',#775,#98);
#67=LINE('',#822,#99);
#68=LINE('',#824,#100);
#69=VECTOR('',#548,1.);
#70=VECTOR('',#551,1.);
#71=VECTOR('',#554,1.);
#72=VECTOR('',#557,1.);
#73=VECTOR('',#562,1.);
#74=VECTOR('',#563,1.);
#75=VECTOR('',#566,1.);
#76=VECTOR('',#567,1.);
#77=VECTOR('',#574,1.);
#78=VECTOR('',#575,1.);
#79=VECTOR('',#578,1.);
#80=VECTOR('',#581,1.);
#81=VECTOR('',#582,1.);
#82=VECTOR('',#583,1.);
#83=VECTOR('',#592,1.);
#84=VECTOR('',#595,1.);
#85=VECTOR('',#600,1.);
#86=VECTOR('',#607,1.);
#87=VECTOR('',#608,1.);
#88=VECTOR('',#609,1.);
#89=VECTOR('',#610,1.);
#90=VECTOR('',#613,1.);
#91=VECTOR('',#614,1.);
#92=VECTOR('',#615,1.);
#93=VECTOR('',#618,1.);
#94=VECTOR('',#619,1.);
#95=VECTOR('',#622,1.);
#96=VECTOR('',#623,1.);
#97=VECTOR('',#624,1.);
#98=VECTOR('',#625,1.);
#99=VECTOR('',#640,1.);
#100=VECTOR('',#641,1.);
#101=ORIENTED_EDGE('',*,*,#237,.F.);
#102=ORIENTED_EDGE('',*,*,#238,.T.);
#103=ORIENTED_EDGE('',*,*,#239,.F.);
#104=ORIENTED_EDGE('',*,*,#240,.T.);
#105=ORIENTED_EDGE('',*,*,#241,.F.);
#106=ORIENTED_EDGE('',*,*,#242,.T.);
#107=ORIENTED_EDGE('',*,*,#243,.F.);
#108=ORIENTED_EDGE('',*,*,#244,.T.);
#109=ORIENTED_EDGE('',*,*,#245,.F.);
#110=ORIENTED_EDGE('',*,*,#246,.T.);
#111=ORIENTED_EDGE('',*,*,#247,.T.);
#112=ORIENTED_EDGE('',*,*,#248,.T.);
#113=ORIENTED_EDGE('',*,*,#249,.T.);
#114=ORIENTED_EDGE('',*,*,#250,.F.);
#115=ORIENTED_EDGE('',*,*,#251,.F.);
#116=ORIENTED_EDGE('',*,*,#252,.T.);
#117=ORIENTED_EDGE('',*,*,#253,.T.);
#118=ORIENTED_EDGE('',*,*,#254,.T.);
#119=ORIENTED_EDGE('',*,*,#255,.T.);
#120=ORIENTED_EDGE('',*,*,#256,.F.);
#121=ORIENTED_EDGE('',*,*,#257,.T.);
#122=ORIENTED_EDGE('',*,*,#258,.T.);
#123=ORIENTED_EDGE('',*,*,#259,.F.);
#124=ORIENTED_EDGE('',*,*,#260,.F.);
#125=ORIENTED_EDGE('',*,*,#261,.T.);
#126=ORIENTED_EDGE('',*,*,#262,.F.);
#127=ORIENTED_EDGE('',*,*,#263,.F.);
#128=ORIENTED_EDGE('',*,*,#264,.F.);
#129=ORIENTED_EDGE('',*,*,#265,.F.);
#130=ORIENTED_EDGE('',*,*,#266,.F.);
#131=ORIENTED_EDGE('',*,*,#267,.T.);
#132=ORIENTED_EDGE('',*,*,#258,.F.);
#133=ORIENTED_EDGE('',*,*,#268,.F.);
#134=ORIENTED_EDGE('',*,*,#262,.T.);
#135=ORIENTED_EDGE('',*,*,#265,.T.);
#136=ORIENTED_EDGE('',*,*,#264,.T.);
#137=ORIENTED_EDGE('',*,*,#269,.T.);
#138=ORIENTED_EDGE('',*,*,#270,.T.);
#139=ORIENTED_EDGE('',*,*,#271,.T.);
#140=ORIENTED_EDGE('',*,*,#272,.T.);
#141=ORIENTED_EDGE('',*,*,#256,.T.);
#142=ORIENTED_EDGE('',*,*,#273,.T.);
#143=ORIENTED_EDGE('',*,*,#274,.T.);
#144=ORIENTED_EDGE('',*,*,#275,.F.);
#145=ORIENTED_EDGE('',*,*,#275,.T.);
#146=ORIENTED_EDGE('',*,*,#276,.T.);
#147=ORIENTED_EDGE('',*,*,#272,.F.);
#148=ORIENTED_EDGE('',*,*,#277,.F.);
#149=ORIENTED_EDGE('',*,*,#263,.T.);
#150=ORIENTED_EDGE('',*,*,#268,.T.);
#151=ORIENTED_EDGE('',*,*,#257,.F.);
#152=ORIENTED_EDGE('',*,*,#278,.T.);
#153=ORIENTED_EDGE('',*,*,#279,.T.);
#154=ORIENTED_EDGE('',*,*,#254,.F.);
#155=ORIENTED_EDGE('',*,*,#267,.F.);
#156=ORIENTED_EDGE('',*,*,#280,.F.);
#157=ORIENTED_EDGE('',*,*,#281,.T.);
#158=ORIENTED_EDGE('',*,*,#241,.T.);
#159=ORIENTED_EDGE('',*,*,#282,.T.);
#160=ORIENTED_EDGE('',*,*,#251,.T.);
#161=ORIENTED_EDGE('',*,*,#283,.T.);
#162=ORIENTED_EDGE('',*,*,#261,.F.);
#163=ORIENTED_EDGE('',*,*,#260,.T.);
#164=ORIENTED_EDGE('',*,*,#284,.T.);
#165=ORIENTED_EDGE('',*,*,#285,.T.);
#166=ORIENTED_EDGE('',*,*,#243,.T.);
#167=ORIENTED_EDGE('',*,*,#286,.T.);
#168=ORIENTED_EDGE('',*,*,#287,.T.);
#169=ORIENTED_EDGE('',*,*,#288,.T.);
#170=ORIENTED_EDGE('',*,*,#250,.T.);
#171=ORIENTED_EDGE('',*,*,#289,.T.);
#172=ORIENTED_EDGE('',*,*,#237,.T.);
#173=ORIENTED_EDGE('',*,*,#290,.T.);
#174=ORIENTED_EDGE('',*,*,#291,.T.);
#175=ORIENTED_EDGE('',*,*,#292,.T.);
#176=ORIENTED_EDGE('',*,*,#293,.T.);
#177=ORIENTED_EDGE('',*,*,#284,.F.);
#178=ORIENTED_EDGE('',*,*,#239,.T.);
#179=ORIENTED_EDGE('',*,*,#294,.T.);
#180=ORIENTED_EDGE('',*,*,#245,.T.);
#181=ORIENTED_EDGE('',*,*,#295,.T.);
#182=ORIENTED_EDGE('',*,*,#259,.T.);
#183=ORIENTED_EDGE('',*,*,#271,.F.);
#184=ORIENTED_EDGE('',*,*,#296,.T.);
#185=ORIENTED_EDGE('',*,*,#280,.T.);
#186=ORIENTED_EDGE('',*,*,#266,.T.);
#187=ORIENTED_EDGE('',*,*,#277,.T.);
#188=ORIENTED_EDGE('',*,*,#291,.F.);
#189=ORIENTED_EDGE('',*,*,#288,.F.);
#190=ORIENTED_EDGE('',*,*,#287,.F.);
#191=ORIENTED_EDGE('',*,*,#297,.F.);
#192=ORIENTED_EDGE('',*,*,#269,.F.);
#193=ORIENTED_EDGE('',*,*,#298,.F.);
#194=ORIENTED_EDGE('',*,*,#248,.F.);
#195=ORIENTED_EDGE('',*,*,#290,.F.);
#196=ORIENTED_EDGE('',*,*,#244,.F.);
#197=ORIENTED_EDGE('',*,*,#285,.F.);
#198=ORIENTED_EDGE('',*,*,#293,.F.);
#199=ORIENTED_EDGE('',*,*,#296,.F.);
#200=ORIENTED_EDGE('',*,*,#270,.F.);
#201=ORIENTED_EDGE('',*,*,#299,.F.);
#202=ORIENTED_EDGE('',*,*,#281,.F.);
#203=ORIENTED_EDGE('',*,*,#298,.T.);
#204=ORIENTED_EDGE('',*,*,#276,.F.);
#205=ORIENTED_EDGE('',*,*,#300,.F.);
#206=ORIENTED_EDGE('',*,*,#246,.F.);
#207=ORIENTED_EDGE('',*,*,#294,.F.);
#208=ORIENTED_EDGE('',*,*,#238,.F.);
#209=ORIENTED_EDGE('',*,*,#289,.F.);
#210=ORIENTED_EDGE('',*,*,#249,.F.);
#211=ORIENTED_EDGE('',*,*,#299,.T.);
#212=ORIENTED_EDGE('',*,*,#297,.T.);
#213=ORIENTED_EDGE('',*,*,#301,.F.);
#214=ORIENTED_EDGE('',*,*,#300,.T.);
#215=ORIENTED_EDGE('',*,*,#274,.F.);
#216=ORIENTED_EDGE('',*,*,#302,.F.);
#217=ORIENTED_EDGE('',*,*,#252,.F.);
#218=ORIENTED_EDGE('',*,*,#282,.F.);
#219=ORIENTED_EDGE('',*,*,#240,.F.);
#220=ORIENTED_EDGE('',*,*,#295,.F.);
#221=ORIENTED_EDGE('',*,*,#247,.F.);
#222=ORIENTED_EDGE('',*,*,#283,.F.);
#223=ORIENTED_EDGE('',*,*,#253,.F.);
#224=ORIENTED_EDGE('',*,*,#303,.F.);
#225=ORIENTED_EDGE('',*,*,#278,.F.);
#226=ORIENTED_EDGE('',*,*,#301,.T.);
#227=ORIENTED_EDGE('',*,*,#292,.F.);
#228=ORIENTED_EDGE('',*,*,#286,.F.);
#229=ORIENTED_EDGE('',*,*,#242,.F.);
#230=ORIENTED_EDGE('',*,*,#303,.T.);
#231=ORIENTED_EDGE('',*,*,#302,.T.);
#232=ORIENTED_EDGE('',*,*,#304,.F.);
#233=ORIENTED_EDGE('',*,*,#255,.F.);
#234=ORIENTED_EDGE('',*,*,#279,.F.);
#235=ORIENTED_EDGE('',*,*,#304,.T.);
#236=ORIENTED_EDGE('',*,*,#273,.F.);
#237=EDGE_CURVE('',#305,#306,#350,.T.);
#238=EDGE_CURVE('',#305,#307,#37,.T.);
#239=EDGE_CURVE('',#308,#307,#351,.T.);
#240=EDGE_CURVE('',#308,#309,#38,.F.);
#241=EDGE_CURVE('',#310,#309,#352,.T.);
#242=EDGE_CURVE('',#310,#311,#39,.T.);
#243=EDGE_CURVE('',#312,#311,#353,.T.);
#244=EDGE_CURVE('',#312,#306,#40,.T.);
#245=EDGE_CURVE('',#313,#314,#354,.T.);
#246=EDGE_CURVE('',#313,#315,#41,.T.);
#247=EDGE_CURVE('',#315,#314,#42,.F.);
#248=EDGE_CURVE('',#316,#317,#43,.T.);
#249=EDGE_CURVE('',#317,#318,#44,.T.);
#250=EDGE_CURVE('',#316,#318,#355,.T.);
#251=EDGE_CURVE('',#319,#320,#356,.T.);
#252=EDGE_CURVE('',#319,#321,#45,.F.);
#253=EDGE_CURVE('',#321,#320,#46,.T.);
#254=EDGE_CURVE('',#322,#323,#47,.T.);
#255=EDGE_CURVE('',#323,#324,#357,.T.);
#256=EDGE_CURVE('',#325,#324,#48,.T.);
#257=EDGE_CURVE('',#325,#326,#49,.T.);
#258=EDGE_CURVE('',#326,#322,#50,.T.);
#259=EDGE_CURVE('',#327,#327,#358,.T.);
#260=EDGE_CURVE('',#328,#329,#359,.T.);
#261=EDGE_CURVE('',#328,#329,#360,.F.);
#262=EDGE_CURVE('',#330,#331,#51,.F.);
#263=EDGE_CURVE('',#332,#330,#361,.F.);
#264=EDGE_CURVE('',#333,#332,#52,.T.);
#265=EDGE_CURVE('',#331,#333,#362,.F.);
#266=EDGE_CURVE('',#334,#332,#53,.F.);
#267=EDGE_CURVE('',#334,#322,#363,.T.);
#268=EDGE_CURVE('',#330,#326,#364,.T.);
#269=EDGE_CURVE('',#335,#336,#54,.F.);
#270=EDGE_CURVE('',#336,#337,#55,.F.);
#271=EDGE_CURVE('',#337,#338,#56,.T.);
#272=EDGE_CURVE('',#338,#335,#57,.T.);
#273=EDGE_CURVE('',#324,#339,#58,.T.);
#274=EDGE_CURVE('',#339,#340,#59,.T.);
#275=EDGE_CURVE('',#325,#340,#60,.T.);
#276=EDGE_CURVE('',#340,#335,#61,.F.);
#277=EDGE_CURVE('',#332,#338,#62,.T.);
#278=EDGE_CURVE('',#341,#342,#63,.F.);
#279=EDGE_CURVE('',#342,#323,#64,.F.);
#280=EDGE_CURVE('',#343,#334,#65,.T.);
#281=EDGE_CURVE('',#343,#341,#66,.T.);
#282=EDGE_CURVE('',#309,#319,#17,.T.);
#283=EDGE_CURVE('',#320,#310,#18,.T.);
#284=EDGE_CURVE('',#344,#345,#365,.T.);
#285=EDGE_CURVE('',#345,#312,#19,.T.);
#286=EDGE_CURVE('',#311,#344,#20,.T.);
#287=EDGE_CURVE('',#346,#347,#366,.T.);
#288=EDGE_CURVE('',#347,#346,#16,.T.);
#289=EDGE_CURVE('',#318,#305,#21,.T.);
#290=EDGE_CURVE('',#306,#316,#22,.T.);
#291=EDGE_CURVE('',#348,#348,#367,.T.);
#292=EDGE_CURVE('',#344,#349,#67,.T.);
#293=EDGE_CURVE('',#349,#345,#68,.T.);
#294=EDGE_CURVE('',#307,#313,#23,.T.);
#295=EDGE_CURVE('',#314,#308,#24,.T.);
#296=EDGE_CURVE('',#337,#343,#368,.T.);
#297=EDGE_CURVE('',#336,#349,#369,.T.);
#298=EDGE_CURVE('',#317,#335,#14,.T.);
#299=EDGE_CURVE('',#341,#336,#370,.T.);
#300=EDGE_CURVE('',#315,#340,#15,.T.);
#301=EDGE_CURVE('',#341,#349,#371,.F.);
#302=EDGE_CURVE('',#321,#339,#372,.T.);
#303=EDGE_CURVE('',#342,#321,#373,.T.);
#304=EDGE_CURVE('',#342,#339,#374,.F.);
#305=VERTEX_POINT('',#683);
#306=VERTEX_POINT('',#684);
#307=VERTEX_POINT('',#686);
#308=VERTEX_POINT('',#688);
#309=VERTEX_POINT('',#690);
#310=VERTEX_POINT('',#692);
#311=VERTEX_POINT('',#694);
#312=VERTEX_POINT('',#696);
#313=VERTEX_POINT('',#700);
#314=VERTEX_POINT('',#701);
#315=VERTEX_POINT('',#703);
#316=VERTEX_POINT('',#707);
#317=VERTEX_POINT('',#708);
#318=VERTEX_POINT('',#710);
#319=VERTEX_POINT('',#714);
#320=VERTEX_POINT('',#715);
#321=VERTEX_POINT('',#717);
#322=VERTEX_POINT('',#721);
#323=VERTEX_POINT('',#722);
#324=VERTEX_POINT('',#724);
#325=VERTEX_POINT('',#726);
#326=VERTEX_POINT('',#728);
#327=VERTEX_POINT('',#731);
#328=VERTEX_POINT('',#733);
#329=VERTEX_POINT('',#734);
#330=VERTEX_POINT('',#738);
#331=VERTEX_POINT('',#739);
#332=VERTEX_POINT('',#741);
#333=VERTEX_POINT('',#743);
#334=VERTEX_POINT('',#747);
#335=VERTEX_POINT('',#752);
#336=VERTEX_POINT('',#753);
#337=VERTEX_POINT('',#755);
#338=VERTEX_POINT('',#757);
#339=VERTEX_POINT('',#761);
#340=VERTEX_POINT('',#763);
#341=VERTEX_POINT('',#770);
#342=VERTEX_POINT('',#771);
#343=VERTEX_POINT('',#774);
#344=VERTEX_POINT('',#789);
#345=VERTEX_POINT('',#790);
#346=VERTEX_POINT('',#802);
#347=VERTEX_POINT('',#803);
#348=VERTEX_POINT('',#820);
#349=VERTEX_POINT('',#823);
#350=CIRCLE('',#491,0.002);
#351=CIRCLE('',#492,0.002);
#352=CIRCLE('',#493,0.002);
#353=CIRCLE('',#494,0.002);
#354=CIRCLE('',#496,0.002);
#355=CIRCLE('',#498,0.002);
#356=CIRCLE('',#500,0.002);
#357=CIRCLE('',#502,0.0034798);
#358=CIRCLE('',#503,0.002);
#359=CIRCLE('',#504,0.002);
#360=CIRCLE('',#505,0.002);
#361=CIRCLE('',#507,0.008);
#362=CIRCLE('',#508,0.008);
#363=CIRCLE('',#510,0.008);
#364=CIRCLE('',#511,0.008);
#365=CIRCLE('',#518,0.002);
#366=CIRCLE('',#519,0.002);
#367=CIRCLE('',#521,0.002);
#368=CIRCLE('',#525,0.0034798);
#369=CIRCLE('',#527,0.0034798);
#370=CIRCLE('',#530,0.0034798);
#371=CIRCLE('',#534,0.0034798);
#372=CIRCLE('',#536,0.0034798);
#373=CIRCLE('',#538,0.0034798);
#374=CIRCLE('',#540,0.0034798);
#375=EDGE_LOOP('',(#101,#102,#103,#104,#105,#106,#107,#108));
#376=EDGE_LOOP('',(#109,#110,#111));
#377=EDGE_LOOP('',(#112,#113,#114));
#378=EDGE_LOOP('',(#115,#116,#117));
#379=EDGE_LOOP('',(#118,#119,#120,#121,#122));
#380=EDGE_LOOP('',(#123));
#381=EDGE_LOOP('',(#124,#125));
#382=EDGE_LOOP('',(#126,#127,#128,#129));
#383=EDGE_LOOP('',(#130,#131,#132,#133,#134,#135,#136));
#384=EDGE_LOOP('',(#137,#138,#139,#140));
#385=EDGE_LOOP('',(#141,#142,#143,#144));
#386=EDGE_LOOP('',(#145,#146,#147,#148,#149,#150,#151));
#387=EDGE_LOOP('',(#152,#153,#154,#155,#156,#157));
#388=EDGE_LOOP('',(#158,#159,#160,#161));
#389=EDGE_LOOP('',(#162,#163));
#390=EDGE_LOOP('',(#164,#165,#166,#167));
#391=EDGE_LOOP('',(#168,#169));
#392=EDGE_LOOP('',(#170,#171,#172,#173));
#393=EDGE_LOOP('',(#174));
#394=EDGE_LOOP('',(#175,#176,#177));
#395=EDGE_LOOP('',(#178,#179,#180,#181));
#396=EDGE_LOOP('',(#182));
#397=EDGE_LOOP('',(#183,#184,#185,#186,#187));
#398=EDGE_LOOP('',(#188));
#399=EDGE_LOOP('',(#189,#190));
#400=EDGE_LOOP('',(#191,#192,#193,#194,#195,#196,#197,#198));
#401=EDGE_LOOP('',(#199,#200,#201,#202));
#402=EDGE_LOOP('',(#203,#204,#205,#206,#207,#208,#209,#210));
#403=EDGE_LOOP('',(#211,#212,#213));
#404=EDGE_LOOP('',(#214,#215,#216,#217,#218,#219,#220,#221));
#405=EDGE_LOOP('',(#222,#223,#224,#225,#226,#227,#228,#229));
#406=EDGE_LOOP('',(#230,#231,#232));
#407=EDGE_LOOP('',(#233,#234,#235,#236));
#408=FACE_BOUND('',#375,.T.);
#409=FACE_BOUND('',#376,.T.);
#410=FACE_BOUND('',#377,.T.);
#411=FACE_BOUND('',#378,.T.);
#412=FACE_BOUND('',#379,.T.);
#413=FACE_BOUND('',#380,.T.);
#414=FACE_BOUND('',#381,.T.);
#415=FACE_BOUND('',#382,.T.);
#416=FACE_BOUND('',#383,.T.);
#417=FACE_BOUND('',#384,.T.);
#418=FACE_BOUND('',#385,.T.);
#419=FACE_BOUND('',#386,.T.);
#420=FACE_BOUND('',#387,.T.);
#421=FACE_BOUND('',#388,.T.);
#422=FACE_BOUND('',#389,.T.);
#423=FACE_BOUND('',#390,.T.);
#424=FACE_BOUND('',#391,.T.);
#425=FACE_BOUND('',#392,.T.);
#426=FACE_BOUND('',#393,.T.);
#427=FACE_BOUND('',#394,.T.);
#428=FACE_BOUND('',#395,.T.);
#429=FACE_BOUND('',#396,.T.);
#430=FACE_BOUND('',#397,.T.);
#431=FACE_BOUND('',#398,.T.);
#432=FACE_BOUND('',#399,.T.);
#433=FACE_BOUND('',#400,.T.);
#434=FACE_BOUND('',#401,.T.);
#435=FACE_BOUND('',#402,.T.);
#436=FACE_BOUND('',#403,.T.);
#437=FACE_BOUND('',#404,.T.);
#438=FACE_BOUND('',#405,.T.);
#439=FACE_BOUND('',#406,.T.);
#440=FACE_BOUND('',#407,.T.);
#441=PLANE('',#490);
#442=PLANE('',#495);
#443=PLANE('',#497);
#444=PLANE('',#499);
#445=PLANE('',#501);
#446=PLANE('',#512);
#447=PLANE('',#513);
#448=PLANE('',#514);
#449=PLANE('',#515);
#450=PLANE('',#522);
#451=PLANE('',#524);
#452=ADVANCED_FACE('',(#408),#441,.T.);
#453=ADVANCED_FACE('',(#409),#442,.T.);
#454=ADVANCED_FACE('',(#410),#443,.T.);
#455=ADVANCED_FACE('',(#411),#444,.T.);
#456=ADVANCED_FACE('',(#412,#413,#414),#445,.T.);
#457=ADVANCED_FACE('',(#415),#25,.T.);
#458=ADVANCED_FACE('',(#416),#26,.F.);
#459=ADVANCED_FACE('',(#417),#446,.T.);
#460=ADVANCED_FACE('',(#418),#447,.F.);
#461=ADVANCED_FACE('',(#419),#448,.F.);
#462=ADVANCED_FACE('',(#420),#449,.F.);
#463=ADVANCED_FACE('',(#421,#422),#27,.F.);
#464=ADVANCED_FACE('',(#423,#424),#28,.F.);
#465=ADVANCED_FACE('',(#425,#426),#29,.F.);
#466=ADVANCED_FACE('',(#427),#450,.T.);
#467=ADVANCED_FACE('',(#428,#429),#30,.F.);
#468=ADVANCED_FACE('',(#430,#431,#432),#451,.T.);
#469=ADVANCED_FACE('',(#433),#31,.T.);
#470=ADVANCED_FACE('',(#434),#32,.T.);
#471=ADVANCED_FACE('',(#435),#33,.T.);
#472=ADVANCED_FACE('',(#436),#12,.T.);
#473=ADVANCED_FACE('',(#437),#34,.T.);
#474=ADVANCED_FACE('',(#438),#35,.T.);
#475=ADVANCED_FACE('',(#439),#13,.T.);
#476=ADVANCED_FACE('',(#440),#36,.T.);
#477=CLOSED_SHELL('',(#452,#453,#454,#455,#456,#457,#458,#459,#460,#461,
#462,#463,#464,#465,#466,#467,#468,#469,#470,#471,#472,#473,#474,#475,#476));
#478=STYLED_ITEM('',(#479),#486);
#479=PRESENTATION_STYLE_ASSIGNMENT((#480));
#480=SURFACE_STYLE_USAGE(.BOTH.,#481);
#481=SURFACE_SIDE_STYLE('',(#482));
#482=SURFACE_STYLE_FILL_AREA(#483);
#483=FILL_AREA_STYLE('',(#484));
#484=FILL_AREA_STYLE_COLOUR('',#485);
#485=COLOUR_RGB('',0.231372549019608,0.380392156862745,0.705882352941177);
#486=MANIFOLD_SOLID_BREP('Motor Mount Bottom RR',#477);
#487=SHAPE_DEFINITION_REPRESENTATION(#860,#488);
#488=SHAPE_REPRESENTATION('Motor Mount Bottom RR',(#489),#855);
#489=AXIS2_PLACEMENT_3D('',#680,#542,#543);
#490=AXIS2_PLACEMENT_3D('',#681,#544,#545);
#491=AXIS2_PLACEMENT_3D('',#682,#546,#547);
#492=AXIS2_PLACEMENT_3D('',#687,#549,#550);
#493=AXIS2_PLACEMENT_3D('',#691,#552,#553);
#494=AXIS2_PLACEMENT_3D('',#695,#555,#556);
#495=AXIS2_PLACEMENT_3D('',#698,#558,#559);
#496=AXIS2_PLACEMENT_3D('',#699,#560,#561);
#497=AXIS2_PLACEMENT_3D('',#705,#564,#565);
#498=AXIS2_PLACEMENT_3D('',#711,#568,#569);
#499=AXIS2_PLACEMENT_3D('',#712,#570,#571);
#500=AXIS2_PLACEMENT_3D('',#713,#572,#573);
#501=AXIS2_PLACEMENT_3D('',#719,#576,#577);
#502=AXIS2_PLACEMENT_3D('',#723,#579,#580);
#503=AXIS2_PLACEMENT_3D('',#730,#584,#585);
#504=AXIS2_PLACEMENT_3D('',#732,#586,#587);
#505=AXIS2_PLACEMENT_3D('',#735,#588,#589);
#506=AXIS2_PLACEMENT_3D('',#736,#590,#591);
#507=AXIS2_PLACEMENT_3D('',#740,#593,#594);
#508=AXIS2_PLACEMENT_3D('',#744,#596,#597);
#509=AXIS2_PLACEMENT_3D('',#745,#598,#599);
#510=AXIS2_PLACEMENT_3D('',#748,#601,#602);
#511=AXIS2_PLACEMENT_3D('',#749,#603,#604);
#512=AXIS2_PLACEMENT_3D('',#750,#605,#606);
#513=AXIS2_PLACEMENT_3D('',#759,#611,#612);
#514=AXIS2_PLACEMENT_3D('',#765,#616,#617);
#515=AXIS2_PLACEMENT_3D('',#768,#620,#621);
#516=AXIS2_PLACEMENT_3D('',#776,#626,#627);
#517=AXIS2_PLACEMENT_3D('',#787,#628,#629);
#518=AXIS2_PLACEMENT_3D('',#788,#630,#631);
#519=AXIS2_PLACEMENT_3D('',#801,#632,#633);
#520=AXIS2_PLACEMENT_3D('',#808,#634,#635);
#521=AXIS2_PLACEMENT_3D('',#819,#636,#637);
#522=AXIS2_PLACEMENT_3D('',#821,#638,#639);
#523=AXIS2_PLACEMENT_3D('',#825,#642,#643);
#524=AXIS2_PLACEMENT_3D('',#836,#644,#645);
#525=AXIS2_PLACEMENT_3D('',#837,#646,#647);
#526=AXIS2_PLACEMENT_3D('',#838,#648,#649);
#527=AXIS2_PLACEMENT_3D('',#839,#650,#651);
#528=AXIS2_PLACEMENT_3D('',#840,#652,#653);
#529=AXIS2_PLACEMENT_3D('',#841,#654,#655);
#530=AXIS2_PLACEMENT_3D('',#842,#656,#657);
#531=AXIS2_PLACEMENT_3D('',#843,#658,#659);
#532=AXIS2_PLACEMENT_3D('',#844,#660,#661);
#533=AXIS2_PLACEMENT_3D('',#845,#662,#663);
#534=AXIS2_PLACEMENT_3D('',#846,#664,#665);
#535=AXIS2_PLACEMENT_3D('',#847,#666,#667);
#536=AXIS2_PLACEMENT_3D('',#848,#668,#669);
#537=AXIS2_PLACEMENT_3D('',#849,#670,#671);
#538=AXIS2_PLACEMENT_3D('',#850,#672,#673);
#539=AXIS2_PLACEMENT_3D('',#851,#674,#675);
#540=AXIS2_PLACEMENT_3D('',#852,#676,#677);
#541=AXIS2_PLACEMENT_3D('',#853,#678,#679);
#542=DIRECTION('',(0.,0.,1.));
#543=DIRECTION('',(1.,0.,0.));
#544=DIRECTION('',(0.,0.,-1.));
#545=DIRECTION('',(6.12323399573677E-17,1.,0.));
#546=DIRECTION('',(0.,0.,-1.));
#547=DIRECTION('',(-6.12323399573677E-17,-1.,0.));
#548=DIRECTION('',(0.707108195398695,0.707105366971572,0.));
#549=DIRECTION('',(0.,0.,-1.));
#550=DIRECTION('',(-6.12323399573677E-17,-1.,0.));
#551=DIRECTION('',(-0.707105366971572,0.707108195398695,0.));
#552=DIRECTION('',(0.,0.,-1.));
#553=DIRECTION('',(-6.12323399573677E-17,-1.,0.));
#554=DIRECTION('',(-0.707108195398695,-0.707105366971572,0.));
#555=DIRECTION('',(0.,0.,-1.));
#556=DIRECTION('',(-6.12323399573677E-17,-1.,0.));
#557=DIRECTION('',(-0.707105366971571,0.707108195398695,0.));
#558=DIRECTION('',(0.,0.,-1.));
#559=DIRECTION('',(6.12323399573677E-17,1.,0.));
#560=DIRECTION('',(0.,0.,-1.));
#561=DIRECTION('',(-6.12323399573677E-17,-1.,0.));
#562=DIRECTION('',(0.707108195398695,0.707105366971572,0.));
#563=DIRECTION('',(-0.707105366971572,0.707108195398695,0.));
#564=DIRECTION('',(0.,0.,-1.));
#565=DIRECTION('',(6.12323399573677E-17,1.,0.));
#566=DIRECTION('',(-0.707105366971571,0.707108195398695,0.));
#567=DIRECTION('',(0.707108195398695,0.707105366971572,0.));
#568=DIRECTION('',(0.,0.,-1.));
#569=DIRECTION('',(-6.12323399573677E-17,-1.,0.));
#570=DIRECTION('',(0.,0.,-1.));
#571=DIRECTION('',(6.12323399573677E-17,1.,0.));
#572=DIRECTION('',(0.,0.,-1.));
#573=DIRECTION('',(-6.12323399573677E-17,-1.,0.));
#574=DIRECTION('',(-0.707105366971572,0.707108195398695,0.));
#575=DIRECTION('',(-0.707108195398695,-0.707105366971572,0.));
#576=DIRECTION('',(0.,0.,1.));
#577=DIRECTION('',(6.12323399573677E-17,1.,0.));
#578=DIRECTION('',(0.707108195398695,0.707105366971572,0.));
#579=DIRECTION('',(0.,0.,1.));
#580=DIRECTION('',(6.12323399573677E-17,1.,0.));
#581=DIRECTION('',(0.707105366971572,-0.707108195398695,0.));
#582=DIRECTION('',(-0.707108195398695,-0.707105366971572,0.));
#583=DIRECTION('',(0.707105366971572,-0.707108195398695,0.));
#584=DIRECTION('',(0.,0.,1.));
#585=DIRECTION('',(6.12323399573677E-17,1.,0.));
#586=DIRECTION('',(0.,0.,1.));
#587=DIRECTION('',(6.12323399573677E-17,1.,0.));
#588=DIRECTION('',(0.,0.,1.));
#589=DIRECTION('',(6.12323399573677E-17,1.,0.));
#590=DIRECTION('',(-0.707105366971572,0.707108195398695,0.));
#591=DIRECTION('',(-0.707108195398695,-0.707105366971572,0.));
#592=DIRECTION('',(0.707105366971572,-0.707108195398695,0.));
#593=DIRECTION('',(-0.707105366971488,0.707108195398779,0.));
#594=DIRECTION('',(-0.707108195398779,-0.707105366971488,0.));
#595=DIRECTION('',(0.707105366971572,-0.707108195398695,0.));
#596=DIRECTION('',(0.707105366971572,-0.707108195398695,0.));
#597=DIRECTION('',(0.707108195398695,0.707105366971572,0.));
#598=DIRECTION('',(0.707105366971572,-0.707108195398695,0.));
#599=DIRECTION('',(0.707108195398695,0.707105366971572,0.));
#600=DIRECTION('',(0.707105366971572,-0.707108195398695,0.));
#601=DIRECTION('',(0.707105366971572,-0.707108195398695,0.));
#602=DIRECTION('',(0.707108195398695,0.707105366971572,0.));
#603=DIRECTION('',(0.707105366971572,-0.707108195398695,0.));
#604=DIRECTION('',(0.707108195398695,0.707105366971572,0.));
#605=DIRECTION('',(-0.707108195398695,-0.707105366971571,0.));
#606=DIRECTION('',(0.707105366971571,-0.707108195398695,0.));
#607=DIRECTION('',(-0.707105366971571,0.707108195398695,0.));
#608=DIRECTION('',(0.,0.,-1.));
#609=DIRECTION('',(-0.707105366971573,0.707108195398694,0.));
#610=DIRECTION('',(0.,0.,-1.));
#611=DIRECTION('',(-0.707108195398694,-0.707105366971572,0.));
#612=DIRECTION('',(0.707105366971572,-0.707108195398695,0.));
#613=DIRECTION('',(0.,0.,-1.));
#614=DIRECTION('',(-0.707105366971572,0.707108195398695,0.));
#615=DIRECTION('',(0.,0.,-1.));
#616=DIRECTION('',(0.707105366971572,-0.707108195398695,0.));
#617=DIRECTION('',(0.707108195398695,0.707105366971572,0.));
#618=DIRECTION('',(0.707108195398695,0.707105366971572,0.));
#619=DIRECTION('',(-0.707108195398695,-0.707105366971572,0.));
#620=DIRECTION('',(-0.707105366971572,0.707108195398695,0.));
#621=DIRECTION('',(-0.707108195398695,-0.707105366971572,0.));
#622=DIRECTION('',(-0.707108195398695,-0.707105366971572,0.));
#623=DIRECTION('',(0.,0.,-1.));
#624=DIRECTION('',(0.707108195398695,0.707105366971572,0.));
#625=DIRECTION('',(0.,0.,-1.));
#626=DIRECTION('',(0.,0.,-1.));
#627=DIRECTION('',(-6.12323399573677E-17,-1.,0.));
#628=DIRECTION('',(0.,0.,-1.));
#629=DIRECTION('',(-6.12323399573677E-17,-1.,0.));
#630=DIRECTION('',(0.,0.,-1.));
#631=DIRECTION('',(-6.12323399573677E-17,-1.,0.));
#632=DIRECTION('',(0.,0.,1.));
#633=DIRECTION('',(6.12323399573677E-17,1.,0.));
#634=DIRECTION('',(0.,0.,-1.));
#635=DIRECTION('',(-6.12323399573677E-17,-1.,0.));
#636=DIRECTION('',(0.,0.,1.));
#637=DIRECTION('',(6.12323399573677E-17,1.,0.));
#638=DIRECTION('',(0.,0.,-1.));
#639=DIRECTION('',(6.12323399573677E-17,1.,0.));
#640=DIRECTION('',(-0.707108195398695,-0.707105366971572,0.));
#641=DIRECTION('',(-0.707105366971571,0.707108195398695,0.));
#642=DIRECTION('',(0.,0.,-1.));
#643=DIRECTION('',(-6.12323399573677E-17,-1.,0.));
#644=DIRECTION('',(0.,0.,1.));
#645=DIRECTION('',(6.12323399573677E-17,1.,0.));
#646=DIRECTION('',(0.,0.,1.));
#647=DIRECTION('',(6.12323399573677E-17,1.,0.));
#648=DIRECTION('',(-0.707105366971571,0.707108195398695,0.));
#649=DIRECTION('',(-0.707108195398695,-0.707105366971571,0.));
#650=DIRECTION('',(0.707105366971576,-0.707108195398691,-1.12800706855677E-14));
#651=DIRECTION('',(0.707108195398691,0.707105366971576,0.));
#652=DIRECTION('',(1.99999999911108E-6,0.999999999998,0.));
#653=DIRECTION('',(-0.999999999998,1.99999999903258E-6,0.));
#654=DIRECTION('',(0.,0.,1.));
#655=DIRECTION('',(6.12323399573677E-17,1.,0.));
#656=DIRECTION('',(0.,0.,-1.));
#657=DIRECTION('',(-6.12323399573677E-17,-1.,0.));
#658=DIRECTION('',(-0.707108195398695,-0.707105366971572,0.));
#659=DIRECTION('',(0.707105366971572,-0.707108195398695,0.));
#660=DIRECTION('',(0.999999999998,-1.99999999856155E-6,0.));
#661=DIRECTION('',(-1.99999999856155E-6,-0.999999999998,0.));
#662=DIRECTION('',(-0.707108195398695,-0.707105366971572,0.));
#663=DIRECTION('',(0.707105366971572,-0.707108195398695,0.));
#664=DIRECTION('',(-0.707108195398695,-0.707105366971572,0.));
#665=DIRECTION('',(0.707105366971572,-0.707108195398695,0.));
#666=DIRECTION('',(0.707105366971572,-0.707108195398695,0.));
#667=DIRECTION('',(0.707108195398695,0.707105366971572,0.));
#668=DIRECTION('',(0.707105366971556,-0.707108195398711,0.));
#669=DIRECTION('',(0.707108195398711,0.707105366971556,0.));
#670=DIRECTION('',(0.707108195398695,0.707105366971572,0.));
#671=DIRECTION('',(-0.707105366971572,0.707108195398695,0.));
#672=DIRECTION('',(0.707108195398691,0.707105366971576,5.63996766249533E-15));
#673=DIRECTION('',(-0.707105366971576,0.707108195398691,0.));
#674=DIRECTION('',(-1.5952397043295E-14,1.5952397043295E-14,-1.));
#675=DIRECTION('',(-6.12323399573677E-17,-1.,-1.5952397043295E-14));
#676=DIRECTION('',(0.,0.,-1.));
#677=DIRECTION('',(-6.12323399573677E-17,-1.,0.));
#678=DIRECTION('',(0.,0.,-1.));
#679=DIRECTION('',(-6.12323399573677E-17,-1.,0.));
#680=CARTESIAN_POINT('',(0.,0.,0.));
#681=CARTESIAN_POINT('',(0.248319911626516,-0.247242748999004,0.0057658));
#682=CARTESIAN_POINT('',(0.227106708190961,-0.247242706572597,0.0057658));
#683=CARTESIAN_POINT('',(0.226950730900188,-0.245248798078015,0.0057658));
#684=CARTESIAN_POINT('',(0.226950725098297,-0.249236614613305,0.0057658));
#685=CARTESIAN_POINT('',(0.250780552449201,-0.221419071848098,0.0057658));
#686=CARTESIAN_POINT('',(0.246326046182267,-0.225873560297044,0.0057658));
#687=CARTESIAN_POINT('',(0.248319954052923,-0.22602954556345,0.0057658));
#688=CARTESIAN_POINT('',(0.250313862717548,-0.225873570446417,0.0057658));
#689=CARTESIAN_POINT('',(0.274143587775573,-0.249703390823533,0.0057658));
#690=CARTESIAN_POINT('',(0.269689098154735,-0.245248883384701,0.0057658));
#691=CARTESIAN_POINT('',(0.26953311506207,-0.24724279142541,0.0057658));
#692=CARTESIAN_POINT('',(0.269689088005363,-0.249236700260076,0.0057658));
#693=CARTESIAN_POINT('',(0.245859268800141,-0.273066424146212,0.0057658));
#694=CARTESIAN_POINT('',(0.250313777410868,-0.268611933353485,0.0057658));
#695=CARTESIAN_POINT('',(0.248319869200109,-0.268455952434557,0.0057658));
#696=CARTESIAN_POINT('',(0.246325960535484,-0.268611927551589,0.0057658));
#697=CARTESIAN_POINT('',(0.23663834281689,-0.258924271082447,0.0057658));
#698=CARTESIAN_POINT('',(0.248319911626516,-0.247242748999004,0.0057658));
#699=CARTESIAN_POINT('',(0.248319954052923,-0.22602954556345,0.0057658));
#700=CARTESIAN_POINT('',(0.24816397676215,-0.224035637068868,0.0057658));
#701=CARTESIAN_POINT('',(0.248475937145587,-0.22403563752274,0.0057658));
#702=CARTESIAN_POINT('',(0.250780552449201,-0.221419071848098,0.0057658));
#703=CARTESIAN_POINT('',(0.248319957350853,-0.223879657104085,0.0057658));
#704=CARTESIAN_POINT('',(0.274143587775573,-0.249703390823533,0.0057658));
#705=CARTESIAN_POINT('',(0.248319911626516,-0.247242748999004,0.0057658));
#706=CARTESIAN_POINT('',(0.23663834281689,-0.258924271082447,0.0057658));
#707=CARTESIAN_POINT('',(0.225112799526337,-0.247398681689628,0.0057658));
#708=CARTESIAN_POINT('',(0.224956819731602,-0.247242701270973,0.0057658));
#709=CARTESIAN_POINT('',(0.250780552449201,-0.221419071848098,0.0057658));
#710=CARTESIAN_POINT('',(0.225112800320306,-0.247086721306191,0.0057658));
#711=CARTESIAN_POINT('',(0.227106708190961,-0.247242706572597,0.0057658));
#712=CARTESIAN_POINT('',(0.248319911626516,-0.247242748999004,0.0057658));
#713=CARTESIAN_POINT('',(0.26953311506207,-0.24724279142541,0.0057658));
#714=CARTESIAN_POINT('',(0.271527023726695,-0.247086816308378,0.0057658));
#715=CARTESIAN_POINT('',(0.271527023272828,-0.247398772344337,0.0057658));
#716=CARTESIAN_POINT('',(0.274143587775573,-0.249703390823533,0.0057658));
#717=CARTESIAN_POINT('',(0.27168300151774,-0.247242794723336,0.0057658));
#718=CARTESIAN_POINT('',(0.245859268800141,-0.273066424146212,0.0057658));
#719=CARTESIAN_POINT('',(8.09339579925244E-5,0.00168280924521629,0.0204178));
#720=CARTESIAN_POINT('',(0.262464789246616,-0.261382140633701,0.0204178));
#721=CARTESIAN_POINT('',(0.268109277553025,-0.2557376749052,0.0204178));
#722=CARTESIAN_POINT('',(0.274143586773729,-0.249703389821685,0.0204178));
#723=CARTESIAN_POINT('',(0.27168300151774,-0.247242794723337,0.0204178));
#724=CARTESIAN_POINT('',(0.274143596616089,-0.244782209467349,0.02041781));
#725=CARTESIAN_POINT('',(0.2624587674194,-0.233097333531249,0.02041781));
#726=CARTESIAN_POINT('',(0.248319967193214,-0.21895847674975,0.0204178));
#727=CARTESIAN_POINT('',(0.234179979390522,-0.233098407992604,0.0204178));
#728=CARTESIAN_POINT('',(0.239825062874162,-0.227453347089252,0.0204178));
#729=CARTESIAN_POINT('',(0.239731724965722,-0.227360008807459,0.0204178));
#730=CARTESIAN_POINT('',(0.24832212915636,-0.226027368465023,0.02041781));
#731=CARTESIAN_POINT('',(0.248322126789946,-0.224029546743647,0.02041781));
#732=CARTESIAN_POINT('',(0.26953311506207,-0.24724279142541,0.02041781));
#733=CARTESIAN_POINT('',(0.270941660100758,-0.248662650881126,0.0204178));
#734=CARTESIAN_POINT('',(0.26811351662092,-0.245833983324253,0.02041781));
#735=CARTESIAN_POINT('',(0.26953311506207,-0.24724279142541,0.0204178));
#736=CARTESIAN_POINT('',(0.262464789246616,-0.261382140633701,0.020955));
#737=CARTESIAN_POINT('',(0.248296259432525,-0.247173061186256,0.012955051239951));
#738=CARTESIAN_POINT('',(0.234200821548876,-0.233077566919461,0.0129550512399542));
#739=CARTESIAN_POINT('',(0.234107483138929,-0.23298422813733,0.0129550512160414));
#740=CARTESIAN_POINT('',(0.234180575569599,-0.233097813819603,0.020955));
#741=CARTESIAN_POINT('',(0.228536575186786,-0.23874179012369,0.020417805));
#742=CARTESIAN_POINT('',(0.228443530344803,-0.238648158275689,0.0204178));
#743=CARTESIAN_POINT('',(0.228443398835302,-0.238648289784665,0.0204178));
#744=CARTESIAN_POINT('',(0.234087236659312,-0.23300447453596,0.020955));
#745=CARTESIAN_POINT('',(0.234087627655263,-0.233004083541575,0.0209550019599676));
#746=CARTESIAN_POINT('',(0.228443530344803,-0.238648158275689,0.0204178));
#747=CARTESIAN_POINT('',(0.256821082932106,-0.26702582437343,0.0204178));
#748=CARTESIAN_POINT('',(0.262465180242566,-0.261381749639315,0.0209550019599676));
#749=CARTESIAN_POINT('',(0.234180965563703,-0.233097421823367,0.0209550019599676));
#750=CARTESIAN_POINT('',(0.234177747718541,-0.261384856338435,0.0208788));
#751=CARTESIAN_POINT('',(0.234177747718541,-0.261384856338435,0.0092456));
#752=CARTESIAN_POINT('',(0.22003564037911,-0.247242692430461,0.0092456));
#753=CARTESIAN_POINT('',(0.245859268800141,-0.273066424146212,0.0092456));
#754=CARTESIAN_POINT('',(0.245859268800141,-0.273066424146212,0.02041781));
#755=CARTESIAN_POINT('',(0.245859268800141,-0.273066424146212,0.020417805));
#756=CARTESIAN_POINT('',(0.234179922821979,-0.261382679240009,0.02041781));
#757=CARTESIAN_POINT('',(0.220036183904508,-0.247242147905393,0.020417805));
#758=CARTESIAN_POINT('',(0.22003564037911,-0.247242692430461,0.0208788));
#759=CARTESIAN_POINT('',(0.26246207553449,-0.233100641659572,0.0208788));
#760=CARTESIAN_POINT('',(0.274143596616089,-0.244782209467349,0.0208788));
#761=CARTESIAN_POINT('',(0.274143596616089,-0.244782209467349,0.0092456));
#762=CARTESIAN_POINT('',(0.248319968195058,-0.218958477751598,0.0092456));
#763=CARTESIAN_POINT('',(0.248319968195058,-0.218958477751598,0.0092456));
#764=CARTESIAN_POINT('',(0.248319968195058,-0.218958477751598,0.0208788));
#765=CARTESIAN_POINT('',(0.234179979390522,-0.233098407992604,0.02041781));
#766=CARTESIAN_POINT('',(0.220035639377266,-0.247242691428612,0.0092456));
#767=CARTESIAN_POINT('',(0.234179979390522,-0.233098407992604,0.0204178));
#768=CARTESIAN_POINT('',(0.262464789246616,-0.261382140633701,0.0220604));
#769=CARTESIAN_POINT('',(0.276604181872077,-0.247242804565697,0.0092456));
#770=CARTESIAN_POINT('',(0.250780449154478,-0.273066433988572,0.0092456));
#771=CARTESIAN_POINT('',(0.274143586773729,-0.249703389821685,0.0092456));
#772=CARTESIAN_POINT('',(0.274143586773729,-0.249703389821685,0.0220604));
#773=CARTESIAN_POINT('',(0.262464789246616,-0.261382140633701,0.0204178));
#774=CARTESIAN_POINT('',(0.250780449154478,-0.273066433988572,0.0204178));
#775=CARTESIAN_POINT('',(0.250780449154478,-0.273066433988572,0.0057658));
#776=CARTESIAN_POINT('',(0.26953311506207,-0.24724279142541,0.0208788));
#777=CARTESIAN_POINT('',(0.269689098154735,-0.245248883384701,0.0057658));
#778=CARTESIAN_POINT('',(0.270163765460146,-0.245286016528645,0.00576580000000002));
#779=CARTESIAN_POINT('',(0.271067524534795,-0.245707743184139,0.00583227298497485));
#780=CARTESIAN_POINT('',(0.271489896918001,-0.246612205569472,0.00576580000000002));
#781=CARTESIAN_POINT('',(0.271527023726695,-0.247086816308378,0.0057658));
#782=CARTESIAN_POINT('',(0.271527023272828,-0.247398772344337,0.0057658));
#783=CARTESIAN_POINT('',(0.271489890589435,-0.247873440417932,0.00576580000000003));
#784=CARTESIAN_POINT('',(0.271068163704375,-0.248777201272849,0.00583227337945063));
#785=CARTESIAN_POINT('',(0.270163699510799,-0.249199573912002,0.00576580000000002));
#786=CARTESIAN_POINT('',(0.269689088005363,-0.249236700260076,0.0057658));
#787=CARTESIAN_POINT('',(0.248319869200109,-0.268455952434557,0.0208788));
#788=CARTESIAN_POINT('',(0.248319869200109,-0.268455952434557,0.0057658));
#789=CARTESIAN_POINT('',(0.248475842143402,-0.270449861269223,0.0057658));
#790=CARTESIAN_POINT('',(0.248163886107443,-0.270449860475266,0.0057658));
#791=CARTESIAN_POINT('',(0.248163886107443,-0.270449860475266,0.0057658));
#792=CARTESIAN_POINT('',(0.247689218802033,-0.270412727331323,0.00576580000000001));
#793=CARTESIAN_POINT('',(0.246785459727383,-0.269991000675829,0.00583227298497484));
#794=CARTESIAN_POINT('',(0.246363087344178,-0.269086538290495,0.00576579999999998));
#795=CARTESIAN_POINT('',(0.246325960535484,-0.268611927551589,0.0057658));
#796=CARTESIAN_POINT('',(0.250313777410868,-0.268611933353485,0.0057658));
#797=CARTESIAN_POINT('',(0.250276644727475,-0.269086601427079,0.00576580000000002));
#798=CARTESIAN_POINT('',(0.249854917842414,-0.269990362281997,0.00583227337945078));
#799=CARTESIAN_POINT('',(0.248950453648838,-0.270412734921149,0.00576580000000001));
#800=CARTESIAN_POINT('',(0.248475842143402,-0.270449861269223,0.0057658));
#801=CARTESIAN_POINT('',(0.248322044303546,-0.268453775336132,0.02041781));
#802=CARTESIAN_POINT('',(0.24832204207703,-0.270455407274206,0.020417805));
#803=CARTESIAN_POINT('',(0.248320958159135,-0.266455408456088,0.020417805));
#804=CARTESIAN_POINT('',(0.248322044303546,-0.266453775336132,0.02041781));
#805=CARTESIAN_POINT('',(0.244322052303532,-0.266453775336132,0.02041781));
#806=CARTESIAN_POINT('',(0.24432204830354,-0.270453767336144,0.02041781));
#807=CARTESIAN_POINT('',(0.248322040303546,-0.270453775336128,0.02041781));
#808=CARTESIAN_POINT('',(0.227106708190961,-0.247242706572597,0.0208788));
#809=CARTESIAN_POINT('',(0.225112800320306,-0.247086721306191,0.0057658));
#810=CARTESIAN_POINT('',(0.225149933924798,-0.246612054768966,0.00576579999999999));
#811=CARTESIAN_POINT('',(0.225571660350723,-0.245708297474585,0.00583227259050021));
#812=CARTESIAN_POINT('',(0.226476120927814,-0.245285925347329,0.00576580000000003));
#813=CARTESIAN_POINT('',(0.226950730900188,-0.245248798078015,0.0057658));
#814=CARTESIAN_POINT('',(0.226950725098297,-0.249236614613305,0.0057658));
#815=CARTESIAN_POINT('',(0.226476057792886,-0.249199481469362,0.00576579999999999));
#816=CARTESIAN_POINT('',(0.225572298718236,-0.248777754813868,0.00583227298497489));
#817=CARTESIAN_POINT('',(0.225149926335031,-0.247873292428534,0.00576579999999999));
#818=CARTESIAN_POINT('',(0.225112799526337,-0.247398681689628,0.0057658));
#819=CARTESIAN_POINT('',(0.227108883294399,-0.247240529474171,0.02041781));
#820=CARTESIAN_POINT('',(0.227108880927985,-0.245242707752793,0.02041781));
#821=CARTESIAN_POINT('',(0.248319911626516,-0.247242748999004,0.0057658));
#822=CARTESIAN_POINT('',(0.245859268800141,-0.273066424146212,0.0057658));
#823=CARTESIAN_POINT('',(0.24831986389849,-0.270605838890224,0.0057658));
#824=CARTESIAN_POINT('',(0.23663834281689,-0.258924271082447,0.0057658));
#825=CARTESIAN_POINT('',(0.248319954052923,-0.22602954556345,0.0208788));
#826=CARTESIAN_POINT('',(0.246326046182267,-0.225873560297044,0.0057658));
#827=CARTESIAN_POINT('',(0.246363179786759,-0.225398893759818,0.0057658));
#828=CARTESIAN_POINT('',(0.246784906212685,-0.224495136465438,0.00583227259050015));
#829=CARTESIAN_POINT('',(0.247689366789775,-0.224072764338182,0.00576580000000001));
#830=CARTESIAN_POINT('',(0.24816397676215,-0.224035637068868,0.0057658));
#831=CARTESIAN_POINT('',(0.248475937145587,-0.22403563752274,0.0057658));
#832=CARTESIAN_POINT('',(0.248950604450998,-0.224072770666684,0.00576580000000001));
#833=CARTESIAN_POINT('',(0.249854363525648,-0.224494497322178,0.00583227298497483));
#834=CARTESIAN_POINT('',(0.250276735908853,-0.225398959707512,0.00576580000000001));
#835=CARTESIAN_POINT('',(0.250313862717548,-0.225873570446417,0.0057658));
#836=CARTESIAN_POINT('',(8.09339579925244E-5,0.00168280924521629,0.0204178));
#837=CARTESIAN_POINT('',(0.24831986389849,-0.270605838890224,0.0204178));
#838=CARTESIAN_POINT('',(0.23663834281689,-0.258924271082447,0.0092456));
#839=CARTESIAN_POINT('',(0.24831986389849,-0.270605838890224,0.0092456));
#840=CARTESIAN_POINT('',(0.224956819731602,-0.247242701270973,0.0092456));
#841=CARTESIAN_POINT('',(0.24831986389849,-0.270605838890224,0.0220604));
#842=CARTESIAN_POINT('',(0.24831986389849,-0.270605838890224,0.0092456));
#843=CARTESIAN_POINT('',(0.236638388541228,-0.23556117918753,0.0092456));
#844=CARTESIAN_POINT('',(0.248319957350853,-0.223879657104085,0.0092456));
#845=CARTESIAN_POINT('',(0.24831986389849,-0.270605838890224,0.0092456));
#846=CARTESIAN_POINT('',(0.24831986389849,-0.270605838890224,0.0092456));
#847=CARTESIAN_POINT('',(0.260001480436141,-0.23556122691556,0.0092456));
#848=CARTESIAN_POINT('',(0.27168300151774,-0.247242794723336,0.0092456));
#849=CARTESIAN_POINT('',(0.260001432708115,-0.25892431680678,0.0092456));
#850=CARTESIAN_POINT('',(0.27168300151774,-0.247242794723337,0.0092456));
#851=CARTESIAN_POINT('',(0.27168300151774,-0.247242794723337,0.0092456));
#852=CARTESIAN_POINT('',(0.27168300151774,-0.247242794723337,0.0092456));
#853=CARTESIAN_POINT('',(0.27168300151774,-0.247242794723337,0.0208788));
#854=MECHANICAL_DESIGN_GEOMETRIC_PRESENTATION_REPRESENTATION('',(#478),
#855);
#855=(
GEOMETRIC_REPRESENTATION_CONTEXT(3)
GLOBAL_UNCERTAINTY_ASSIGNED_CONTEXT((#856))
GLOBAL_UNIT_ASSIGNED_CONTEXT((#859,#858,#857))
REPRESENTATION_CONTEXT('Motor Mount Bottom RR',
'TOP_LEVEL_ASSEMBLY_PART')
);
#856=UNCERTAINTY_MEASURE_WITH_UNIT(LENGTH_MEASURE(2.4616239991639E-5),#859,
'DISTANCE_ACCURACY_VALUE','Maximum Tolerance applied to model');
#857=(
NAMED_UNIT(*)
SI_UNIT($,.STERADIAN.)
SOLID_ANGLE_UNIT()
);
#858=(
NAMED_UNIT(*)
PLANE_ANGLE_UNIT()
SI_UNIT($,.RADIAN.)
);
#859=(
LENGTH_UNIT()
NAMED_UNIT(*)
SI_UNIT($,.METRE.)
);
#860=PRODUCT_DEFINITION_SHAPE('','',#861);
#861=PRODUCT_DEFINITION('','',#863,#862);
#862=PRODUCT_DEFINITION_CONTEXT('',#869,'design');
#863=PRODUCT_DEFINITION_FORMATION_WITH_SPECIFIED_SOURCE('','',#865,
 .NOT_KNOWN.);
#864=PRODUCT_RELATED_PRODUCT_CATEGORY('','',(#865));
#865=PRODUCT('Motor Mount Bottom RR','Motor Mount Bottom RR',
'Motor Mount Bottom RR',(#867));
#866=PRODUCT_CATEGORY('','');
#867=PRODUCT_CONTEXT('',#869,'mechanical');
#868=APPLICATION_PROTOCOL_DEFINITION('international standard',
'ap242_managed_model_based_3d_engineering',2020,#869);
#869=APPLICATION_CONTEXT('managed model based 3d engineering');
ENDSEC;
END-ISO-10303-21;
