ISO-10303-21;
HEADER;
/* Generated by software containing ST-Developer
 * from STEP Tools, Inc. (www.steptools.com) 
 */
/* OPTION: using custom renumber hook */

FILE_DESCRIPTION(
/* description */ ('STEP AP242 Edition 2',
'CAx-IF Rec.Pracs.---Representation and Presentation of Product Manufa
cturing Information (PMI)---4.0---2014-10-13',
'CAx-IF Rec.Pracs.---3D Tessellated Geometry---0.4---2014-09-14','2;1',
'CAx-IF Rec.Pracs.---User Defined Attributes---1.5---2016-08-15'),
/* implementation_level */ '2;1');

FILE_NAME(
/* name */ 'Part Studio 1 - Arm Mount RR 1',
/* time_stamp */ '2026-06-27T17:59:00Z',
/* author */ (''),
/* organization */ (''),
/* preprocessor_version */ 'ST-DEVELOPER v20',
/* originating_system */ 'ONSHAPE BY PTC INC, 1.217',
/* authorisation */ '  ');

FILE_SCHEMA (('AP242_MANAGED_MODEL_BASED_3D_ENGINEERING_MIM_LF { 1 0 10303 442 3 1 4 }'));
ENDSEC;

DATA;
#10=SHAPE_REPRESENTATION_RELATIONSHIP('','',#311,#11);
#11=ADVANCED_BREP_SHAPE_REPRESENTATION('',(#309),#521);
#12=ELLIPSE('',#320,0.065115306344739,0.0034798);
#13=ELLIPSE('',#321,0.0649669305402898,0.0034798);
#14=ELLIPSE('',#326,0.00510167901338742,0.0034798);
#15=ELLIPSE('',#327,0.00509005400891236,0.0034798);
#16=ELLIPSE('',#329,0.00478162134698823,0.0034798);
#17=ELLIPSE('',#331,0.0047713350407808,0.0034798);
#18=ELLIPSE('',#337,0.00505819236370262,0.0034798);
#19=ELLIPSE('',#339,0.00505851860571802,0.0034798);
#20=ELLIPSE('',#341,0.00374224650023858,0.0034798);
#21=ELLIPSE('',#343,0.00374383700549867,0.0034798);
#22=LINE('',#447,#46);
#23=LINE('',#452,#47);
#24=LINE('',#454,#48);
#25=LINE('',#456,#49);
#26=LINE('',#460,#50);
#27=LINE('',#463,#51);
#28=LINE('',#464,#52);
#29=LINE('',#466,#53);
#30=LINE('',#469,#54);
#31=LINE('',#471,#55);
#32=LINE('',#473,#56);
#33=LINE('',#475,#57);
#34=LINE('',#478,#58);
#35=LINE('',#480,#59);
#36=LINE('',#482,#60);
#37=LINE('',#486,#61);
#38=LINE('',#489,#62);
#39=LINE('',#491,#63);
#40=LINE('',#494,#64);
#41=LINE('',#497,#65);
#42=LINE('',#501,#66);
#43=LINE('',#503,#67);
#44=LINE('',#505,#68);
#45=LINE('',#507,#69);
#46=VECTOR('',#361,1.);
#47=VECTOR('',#364,1.);
#48=VECTOR('',#365,1.);
#49=VECTOR('',#366,1.);
#50=VECTOR('',#371,1.);
#51=VECTOR('',#372,1.);
#52=VECTOR('',#373,1.);
#53=VECTOR('',#376,1.);
#54=VECTOR('',#377,1.);
#55=VECTOR('',#378,1.);
#56=VECTOR('',#379,1.);
#57=VECTOR('',#382,1.);
#58=VECTOR('',#383,1.);
#59=VECTOR('',#384,1.);
#60=VECTOR('',#385,1.);
#61=VECTOR('',#390,1.);
#62=VECTOR('',#393,1.);
#63=VECTOR('',#396,1.);
#64=VECTOR('',#397,1.);
#65=VECTOR('',#400,1.);
#66=VECTOR('',#405,1.);
#67=VECTOR('',#406,1.);
#68=VECTOR('',#407,1.);
#69=VECTOR('',#410,1.);
#70=PLANE('',#319);
#71=PLANE('',#322);
#72=PLANE('',#323);
#73=PLANE('',#324);
#74=PLANE('',#325);
#75=PLANE('',#328);
#76=PLANE('',#330);
#77=PLANE('',#332);
#78=PLANE('',#333);
#79=ORIENTED_EDGE('',*,*,#159,.F.);
#80=ORIENTED_EDGE('',*,*,#160,.T.);
#81=ORIENTED_EDGE('',*,*,#161,.F.);
#82=ORIENTED_EDGE('',*,*,#162,.T.);
#83=ORIENTED_EDGE('',*,*,#162,.F.);
#84=ORIENTED_EDGE('',*,*,#160,.F.);
#85=ORIENTED_EDGE('',*,*,#163,.T.);
#86=ORIENTED_EDGE('',*,*,#164,.T.);
#87=ORIENTED_EDGE('',*,*,#165,.T.);
#88=ORIENTED_EDGE('',*,*,#166,.T.);
#89=ORIENTED_EDGE('',*,*,#167,.T.);
#90=ORIENTED_EDGE('',*,*,#168,.T.);
#91=ORIENTED_EDGE('',*,*,#169,.T.);
#92=ORIENTED_EDGE('',*,*,#170,.T.);
#93=ORIENTED_EDGE('',*,*,#163,.F.);
#94=ORIENTED_EDGE('',*,*,#171,.T.);
#95=ORIENTED_EDGE('',*,*,#172,.T.);
#96=ORIENTED_EDGE('',*,*,#173,.T.);
#97=ORIENTED_EDGE('',*,*,#174,.F.);
#98=ORIENTED_EDGE('',*,*,#175,.F.);
#99=ORIENTED_EDGE('',*,*,#176,.F.);
#100=ORIENTED_EDGE('',*,*,#177,.T.);
#101=ORIENTED_EDGE('',*,*,#178,.T.);
#102=ORIENTED_EDGE('',*,*,#179,.F.);
#103=ORIENTED_EDGE('',*,*,#179,.T.);
#104=ORIENTED_EDGE('',*,*,#180,.T.);
#105=ORIENTED_EDGE('',*,*,#181,.T.);
#106=ORIENTED_EDGE('',*,*,#182,.T.);
#107=ORIENTED_EDGE('',*,*,#175,.T.);
#108=ORIENTED_EDGE('',*,*,#183,.F.);
#109=ORIENTED_EDGE('',*,*,#184,.T.);
#110=ORIENTED_EDGE('',*,*,#185,.T.);
#111=ORIENTED_EDGE('',*,*,#186,.T.);
#112=ORIENTED_EDGE('',*,*,#167,.F.);
#113=ORIENTED_EDGE('',*,*,#187,.T.);
#114=ORIENTED_EDGE('',*,*,#188,.T.);
#115=ORIENTED_EDGE('',*,*,#189,.T.);
#116=ORIENTED_EDGE('',*,*,#190,.T.);
#117=ORIENTED_EDGE('',*,*,#191,.F.);
#118=ORIENTED_EDGE('',*,*,#165,.F.);
#119=ORIENTED_EDGE('',*,*,#191,.T.);
#120=ORIENTED_EDGE('',*,*,#192,.T.);
#121=ORIENTED_EDGE('',*,*,#187,.F.);
#122=ORIENTED_EDGE('',*,*,#166,.F.);
#123=ORIENTED_EDGE('',*,*,#159,.T.);
#124=ORIENTED_EDGE('',*,*,#161,.T.);
#125=ORIENTED_EDGE('',*,*,#190,.F.);
#126=ORIENTED_EDGE('',*,*,#193,.T.);
#127=ORIENTED_EDGE('',*,*,#176,.T.);
#128=ORIENTED_EDGE('',*,*,#183,.T.);
#129=ORIENTED_EDGE('',*,*,#174,.T.);
#130=ORIENTED_EDGE('',*,*,#194,.T.);
#131=ORIENTED_EDGE('',*,*,#184,.F.);
#132=ORIENTED_EDGE('',*,*,#192,.F.);
#133=ORIENTED_EDGE('',*,*,#193,.F.);
#134=ORIENTED_EDGE('',*,*,#189,.F.);
#135=ORIENTED_EDGE('',*,*,#195,.F.);
#136=ORIENTED_EDGE('',*,*,#177,.F.);
#137=ORIENTED_EDGE('',*,*,#194,.F.);
#138=ORIENTED_EDGE('',*,*,#173,.F.);
#139=ORIENTED_EDGE('',*,*,#196,.F.);
#140=ORIENTED_EDGE('',*,*,#185,.F.);
#141=ORIENTED_EDGE('',*,*,#164,.F.);
#142=ORIENTED_EDGE('',*,*,#170,.F.);
#143=ORIENTED_EDGE('',*,*,#197,.F.);
#144=ORIENTED_EDGE('',*,*,#180,.F.);
#145=ORIENTED_EDGE('',*,*,#178,.F.);
#146=ORIENTED_EDGE('',*,*,#195,.T.);
#147=ORIENTED_EDGE('',*,*,#188,.F.);
#148=ORIENTED_EDGE('',*,*,#172,.F.);
#149=ORIENTED_EDGE('',*,*,#182,.F.);
#150=ORIENTED_EDGE('',*,*,#198,.F.);
#151=ORIENTED_EDGE('',*,*,#171,.F.);
#152=ORIENTED_EDGE('',*,*,#168,.F.);
#153=ORIENTED_EDGE('',*,*,#186,.F.);
#154=ORIENTED_EDGE('',*,*,#196,.T.);
#155=ORIENTED_EDGE('',*,*,#197,.T.);
#156=ORIENTED_EDGE('',*,*,#169,.F.);
#157=ORIENTED_EDGE('',*,*,#198,.T.);
#158=ORIENTED_EDGE('',*,*,#181,.F.);
#159=EDGE_CURVE('',#199,#199,#227,.T.);
#160=EDGE_CURVE('',#200,#200,#228,.T.);
#161=EDGE_CURVE('',#201,#201,#229,.T.);
#162=EDGE_CURVE('',#202,#202,#230,.T.);
#163=EDGE_CURVE('',#203,#204,#22,.T.);
#164=EDGE_CURVE('',#204,#205,#12,.T.);
#165=EDGE_CURVE('',#205,#206,#23,.T.);
#166=EDGE_CURVE('',#206,#207,#24,.T.);
#167=EDGE_CURVE('',#207,#208,#25,.T.);
#168=EDGE_CURVE('',#208,#203,#13,.T.);
#169=EDGE_CURVE('',#209,#210,#26,.F.);
#170=EDGE_CURVE('',#210,#204,#27,.T.);
#171=EDGE_CURVE('',#203,#209,#28,.F.);
#172=EDGE_CURVE('',#211,#212,#29,.T.);
#173=EDGE_CURVE('',#212,#213,#30,.T.);
#174=EDGE_CURVE('',#214,#213,#31,.F.);
#175=EDGE_CURVE('',#211,#214,#32,.F.);
#176=EDGE_CURVE('',#215,#216,#33,.F.);
#177=EDGE_CURVE('',#215,#217,#34,.F.);
#178=EDGE_CURVE('',#217,#218,#35,.F.);
#179=EDGE_CURVE('',#216,#218,#36,.T.);
#180=EDGE_CURVE('',#218,#219,#14,.T.);
#181=EDGE_CURVE('',#219,#220,#37,.F.);
#182=EDGE_CURVE('',#220,#211,#15,.T.);
#183=EDGE_CURVE('',#216,#214,#38,.T.);
#184=EDGE_CURVE('',#221,#222,#39,.T.);
#185=EDGE_CURVE('',#222,#223,#40,.T.);
#186=EDGE_CURVE('',#223,#208,#16,.F.);
#187=EDGE_CURVE('',#207,#221,#41,.T.);
#188=EDGE_CURVE('',#205,#224,#17,.F.);
#189=EDGE_CURVE('',#224,#225,#42,.F.);
#190=EDGE_CURVE('',#225,#226,#43,.T.);
#191=EDGE_CURVE('',#206,#226,#44,.T.);
#192=EDGE_CURVE('',#226,#221,#45,.T.);
#193=EDGE_CURVE('',#225,#215,#231,.F.);
#194=EDGE_CURVE('',#213,#222,#232,.F.);
#195=EDGE_CURVE('',#217,#224,#18,.T.);
#196=EDGE_CURVE('',#223,#212,#19,.T.);
#197=EDGE_CURVE('',#219,#210,#20,.T.);
#198=EDGE_CURVE('',#209,#220,#21,.T.);
#199=VERTEX_POINT('',#438);
#200=VERTEX_POINT('',#440);
#201=VERTEX_POINT('',#443);
#202=VERTEX_POINT('',#445);
#203=VERTEX_POINT('',#448);
#204=VERTEX_POINT('',#449);
#205=VERTEX_POINT('',#451);
#206=VERTEX_POINT('',#453);
#207=VERTEX_POINT('',#455);
#208=VERTEX_POINT('',#457);
#209=VERTEX_POINT('',#461);
#210=VERTEX_POINT('',#462);
#211=VERTEX_POINT('',#467);
#212=VERTEX_POINT('',#468);
#213=VERTEX_POINT('',#470);
#214=VERTEX_POINT('',#472);
#215=VERTEX_POINT('',#476);
#216=VERTEX_POINT('',#477);
#217=VERTEX_POINT('',#479);
#218=VERTEX_POINT('',#481);
#219=VERTEX_POINT('',#485);
#220=VERTEX_POINT('',#487);
#221=VERTEX_POINT('',#492);
#222=VERTEX_POINT('',#493);
#223=VERTEX_POINT('',#495);
#224=VERTEX_POINT('',#500);
#225=VERTEX_POINT('',#502);
#226=VERTEX_POINT('',#504);
#227=CIRCLE('',#314,0.002425);
#228=CIRCLE('',#315,0.002425);
#229=CIRCLE('',#317,0.002425);
#230=CIRCLE('',#318,0.002425);
#231=CIRCLE('',#334,0.0034798);
#232=CIRCLE('',#335,0.0034798);
#233=EDGE_LOOP('',(#79));
#234=EDGE_LOOP('',(#80));
#235=EDGE_LOOP('',(#81));
#236=EDGE_LOOP('',(#82));
#237=EDGE_LOOP('',(#83));
#238=EDGE_LOOP('',(#84));
#239=EDGE_LOOP('',(#85,#86,#87,#88,#89,#90));
#240=EDGE_LOOP('',(#91,#92,#93,#94));
#241=EDGE_LOOP('',(#95,#96,#97,#98));
#242=EDGE_LOOP('',(#99,#100,#101,#102));
#243=EDGE_LOOP('',(#103,#104,#105,#106,#107,#108));
#244=EDGE_LOOP('',(#109,#110,#111,#112,#113));
#245=EDGE_LOOP('',(#114,#115,#116,#117,#118));
#246=EDGE_LOOP('',(#119,#120,#121,#122));
#247=EDGE_LOOP('',(#123));
#248=EDGE_LOOP('',(#124));
#249=EDGE_LOOP('',(#125,#126,#127,#128,#129,#130,#131,#132));
#250=EDGE_LOOP('',(#133,#134,#135,#136));
#251=EDGE_LOOP('',(#137,#138,#139,#140));
#252=EDGE_LOOP('',(#141,#142,#143,#144,#145,#146,#147));
#253=EDGE_LOOP('',(#148,#149,#150,#151,#152,#153,#154));
#254=EDGE_LOOP('',(#155,#156,#157,#158));
#255=FACE_BOUND('',#233,.T.);
#256=FACE_BOUND('',#234,.T.);
#257=FACE_BOUND('',#235,.T.);
#258=FACE_BOUND('',#236,.T.);
#259=FACE_BOUND('',#237,.T.);
#260=FACE_BOUND('',#238,.T.);
#261=FACE_BOUND('',#239,.T.);
#262=FACE_BOUND('',#240,.T.);
#263=FACE_BOUND('',#241,.T.);
#264=FACE_BOUND('',#242,.T.);
#265=FACE_BOUND('',#243,.T.);
#266=FACE_BOUND('',#244,.T.);
#267=FACE_BOUND('',#245,.T.);
#268=FACE_BOUND('',#246,.T.);
#269=FACE_BOUND('',#247,.T.);
#270=FACE_BOUND('',#248,.T.);
#271=FACE_BOUND('',#249,.T.);
#272=FACE_BOUND('',#250,.T.);
#273=FACE_BOUND('',#251,.T.);
#274=FACE_BOUND('',#252,.T.);
#275=FACE_BOUND('',#253,.T.);
#276=FACE_BOUND('',#254,.T.);
#277=CYLINDRICAL_SURFACE('',#313,0.002425);
#278=CYLINDRICAL_SURFACE('',#316,0.002425);
#279=CYLINDRICAL_SURFACE('',#336,0.0034798);
#280=CYLINDRICAL_SURFACE('',#338,0.0034798);
#281=CYLINDRICAL_SURFACE('',#340,0.0034798);
#282=CYLINDRICAL_SURFACE('',#342,0.0034798);
#283=CYLINDRICAL_SURFACE('',#344,0.0034798);
#284=ADVANCED_FACE('',(#255,#256),#277,.F.);
#285=ADVANCED_FACE('',(#257,#258),#278,.F.);
#286=ADVANCED_FACE('',(#259,#260,#261),#70,.T.);
#287=ADVANCED_FACE('',(#262),#71,.F.);
#288=ADVANCED_FACE('',(#263),#72,.F.);
#289=ADVANCED_FACE('',(#264),#73,.F.);
#290=ADVANCED_FACE('',(#265),#74,.T.);
#291=ADVANCED_FACE('',(#266),#75,.F.);
#292=ADVANCED_FACE('',(#267),#76,.F.);
#293=ADVANCED_FACE('',(#268),#77,.F.);
#294=ADVANCED_FACE('',(#269,#270,#271),#78,.F.);
#295=ADVANCED_FACE('',(#272),#279,.T.);
#296=ADVANCED_FACE('',(#273),#280,.T.);
#297=ADVANCED_FACE('',(#274),#281,.T.);
#298=ADVANCED_FACE('',(#275),#282,.T.);
#299=ADVANCED_FACE('',(#276),#283,.T.);
#300=CLOSED_SHELL('',(#284,#285,#286,#287,#288,#289,#290,#291,#292,#293,
#294,#295,#296,#297,#298,#299));
#301=STYLED_ITEM('',(#302),#309);
#302=PRESENTATION_STYLE_ASSIGNMENT((#303));
#303=SURFACE_STYLE_USAGE(.BOTH.,#304);
#304=SURFACE_SIDE_STYLE('',(#305));
#305=SURFACE_STYLE_FILL_AREA(#306);
#306=FILL_AREA_STYLE('',(#307));
#307=FILL_AREA_STYLE_COLOUR('',#308);
#308=COLOUR_RGB('',0.615686274509804,0.811764705882353,0.929411764705882);
#309=MANIFOLD_SOLID_BREP('Arm Mount RR 1',#300);
#310=SHAPE_DEFINITION_REPRESENTATION(#526,#311);
#311=SHAPE_REPRESENTATION('Arm Mount RR 1',(#312),#521);
#312=AXIS2_PLACEMENT_3D('',#435,#345,#346);
#313=AXIS2_PLACEMENT_3D('',#436,#347,#348);
#314=AXIS2_PLACEMENT_3D('',#437,#349,#350);
#315=AXIS2_PLACEMENT_3D('',#439,#351,#352);
#316=AXIS2_PLACEMENT_3D('',#441,#353,#354);
#317=AXIS2_PLACEMENT_3D('',#442,#355,#356);
#318=AXIS2_PLACEMENT_3D('',#444,#357,#358);
#319=AXIS2_PLACEMENT_3D('',#446,#359,#360);
#320=AXIS2_PLACEMENT_3D('',#450,#362,#363);
#321=AXIS2_PLACEMENT_3D('',#458,#367,#368);
#322=AXIS2_PLACEMENT_3D('',#459,#369,#370);
#323=AXIS2_PLACEMENT_3D('',#465,#374,#375);
#324=AXIS2_PLACEMENT_3D('',#474,#380,#381);
#325=AXIS2_PLACEMENT_3D('',#483,#386,#387);
#326=AXIS2_PLACEMENT_3D('',#484,#388,#389);
#327=AXIS2_PLACEMENT_3D('',#488,#391,#392);
#328=AXIS2_PLACEMENT_3D('',#490,#394,#395);
#329=AXIS2_PLACEMENT_3D('',#496,#398,#399);
#330=AXIS2_PLACEMENT_3D('',#498,#401,#402);
#331=AXIS2_PLACEMENT_3D('',#499,#403,#404);
#332=AXIS2_PLACEMENT_3D('',#506,#408,#409);
#333=AXIS2_PLACEMENT_3D('',#508,#411,#412);
#334=AXIS2_PLACEMENT_3D('',#509,#413,#414);
#335=AXIS2_PLACEMENT_3D('',#510,#415,#416);
#336=AXIS2_PLACEMENT_3D('',#511,#417,#418);
#337=AXIS2_PLACEMENT_3D('',#512,#419,#420);
#338=AXIS2_PLACEMENT_3D('',#513,#421,#422);
#339=AXIS2_PLACEMENT_3D('',#514,#423,#424);
#340=AXIS2_PLACEMENT_3D('',#515,#425,#426);
#341=AXIS2_PLACEMENT_3D('',#516,#427,#428);
#342=AXIS2_PLACEMENT_3D('',#517,#429,#430);
#343=AXIS2_PLACEMENT_3D('',#518,#431,#432);
#344=AXIS2_PLACEMENT_3D('',#519,#433,#434);
#345=DIRECTION('',(0.,0.,1.));
#346=DIRECTION('',(1.,0.,0.));
#347=DIRECTION('',(0.,0.,-1.));
#348=DIRECTION('',(-1.,0.,0.));
#349=DIRECTION('',(0.,0.,1.));
#350=DIRECTION('',(1.,0.,0.));
#351=DIRECTION('',(0.,0.,1.));
#352=DIRECTION('',(1.,0.,0.));
#353=DIRECTION('',(0.,0.,-1.));
#354=DIRECTION('',(-1.,0.,0.));
#355=DIRECTION('',(0.,0.,1.));
#356=DIRECTION('',(1.,0.,0.));
#357=DIRECTION('',(0.,0.,1.));
#358=DIRECTION('',(1.,0.,0.));
#359=DIRECTION('',(0.,0.,1.));
#360=DIRECTION('',(1.,0.,0.));
#361=DIRECTION('',(0.707108195395867,0.7071053669744,0.));
#362=DIRECTION('',(0.,0.,1.));
#363=DIRECTION('',(-0.0334425684917392,-0.999440640865017,0.));
#364=DIRECTION('',(-0.7071053669744,0.707108195395867,0.));
#365=DIRECTION('',(-0.707108195395867,-0.7071053669744,0.));
#366=DIRECTION('',(0.707208664714915,-0.707004882976169,0.));
#367=DIRECTION('',(0.,0.,1.));
#368=DIRECTION('',(0.999510178299877,0.0312954225877786,0.));
#369=DIRECTION('',(-0.055231304204125,0.0552315251293417,-0.996944823783041));
#370=DIRECTION('',(0.,0.99846890014268,0.0553159601549804));
#371=DIRECTION('',(-0.707108195395867,-0.7071053669744,0.));
#372=DIRECTION('',(0.0333947800985314,0.998012471185248,0.0534405840245448));
#373=DIRECTION('',(-0.998075373156671,-0.03125049774933,0.0535626351908679));
#374=DIRECTION('',(-0.0312954248120092,0.999510178230234,-4.14864998329246E-8));
#375=DIRECTION('',(-0.999510178230235,-0.0312954248120092,0.));
#376=DIRECTION('',(-0.998075373156671,-0.03125049774933,0.0535626351908679));
#377=DIRECTION('',(4.02579247963631E-8,-4.02463245002657E-8,-1.));
#378=DIRECTION('',(0.999510178230235,0.0312954248120092,0.));
#379=DIRECTION('',(0.,0.,1.));
#380=DIRECTION('',(-0.999440640865017,0.0334425684917392,0.));
#381=DIRECTION('',(-0.0334425684917392,-0.999440640865017,0.));
#382=DIRECTION('',(0.0334425684917392,0.999440640865017,0.));
#383=DIRECTION('',(0.,0.,-1.));
#384=DIRECTION('',(0.0333947800985314,0.998012471185248,0.0534405840245448));
#385=DIRECTION('',(0.,0.,1.));
#386=DIRECTION('',(0.7071053669744,-0.707108195395867,0.));
#387=DIRECTION('',(0.707108195395867,0.7071053669744,0.));
#388=DIRECTION('',(0.7071053669744,-0.707108195395867,0.));
#389=DIRECTION('',(-0.705217485321125,-0.705214664462469,-0.0730792407215368));
#390=DIRECTION('',(0.707108195395867,0.7071053669744,0.));
#391=DIRECTION('',(0.7071053669744,-0.707108195395867,0.));
#392=DIRECTION('',(0.705201230391751,0.705198409598114,-0.0733922867490197));
#393=DIRECTION('',(-0.707108195395867,-0.7071053669744,0.));
#394=DIRECTION('',(0.707004882976169,0.707208664714915,0.));
#395=DIRECTION('',(-0.707208664714915,0.707004882976169,0.));
#396=DIRECTION('',(0.707208664714915,-0.707004882976169,0.));
#397=DIRECTION('',(-4.02579247963631E-8,4.02463245002658E-8,1.));
#398=DIRECTION('',(0.707004882976169,0.707208664714915,0.));
#399=DIRECTION('',(0.705048686480204,-0.704845527137848,-0.0780969433864607));
#400=DIRECTION('',(0.,0.,-1.));
#401=DIRECTION('',(-0.707108195395867,-0.7071053669744,0.));
#402=DIRECTION('',(0.7071053669744,-0.707108195395867,0.));
#403=DIRECTION('',(-0.707108195395867,-0.7071053669744,0.));
#404=DIRECTION('',(0.704945035474336,-0.704947855254476,-0.0781090156909028));
#405=DIRECTION('',(0.,0.,1.));
#406=DIRECTION('',(-0.7071053669744,0.707108195395867,0.));
#407=DIRECTION('',(0.,0.,-1.));
#408=DIRECTION('',(0.7071053669744,-0.707108195395867,0.));
#409=DIRECTION('',(0.707108195395867,0.7071053669744,0.));
#410=DIRECTION('',(-0.707108195395867,-0.7071053669744,0.));
#411=DIRECTION('',(0.,0.,1.));
#412=DIRECTION('',(1.,0.,0.));
#413=DIRECTION('',(0.,0.,1.));
#414=DIRECTION('',(1.,0.,0.));
#415=DIRECTION('',(0.,0.,1.));
#416=DIRECTION('',(1.,0.,0.));
#417=DIRECTION('',(0.,0.,-1.));
#418=DIRECTION('',(-1.,0.,0.));
#419=DIRECTION('',(-0.0242711106503132,-0.72534902302276,0.687953274567196));
#420=DIRECTION('',(-0.0230069245038298,-0.687568461618625,-0.725754980700975));
#421=DIRECTION('',(4.02579247963631E-8,-4.02463245002657E-8,-1.));
#422=DIRECTION('',(-1.,0.,-4.02579247963631E-8));
#423=DIRECTION('',(0.725441496835524,0.0227141542458929,0.687908934282677));
#424=DIRECTION('',(0.687571982453379,0.0215283722343243,-0.725797008904053));
#425=DIRECTION('',(-0.0333947800985315,-0.998012471185249,-0.0534405840245448));
#426=DIRECTION('',(0.,0.0534704077442793,-0.99856943448899));
#427=DIRECTION('',(-0.398175853276074,-0.91685890889524,-0.028735536314811));
#428=DIRECTION('',(0.915644850858553,-0.395372254731306,-0.0726311729555697));
#429=DIRECTION('',(0.998075373156672,0.03125049774933,-0.0535626351908679));
#430=DIRECTION('',(-0.0535888088268029,0.,-0.998563087425389));
#431=DIRECTION('',(0.917283945214563,0.397190069771204,-0.0288134053307082));
#432=DIRECTION('',(0.394385175795842,-0.916072883075922,-0.0726003168412509));
#433=DIRECTION('',(0.707108195395867,0.7071053669744,0.));
#434=DIRECTION('',(-0.7071053669744,0.707108195395867,0.));
#435=CARTESIAN_POINT('',(0.,0.,0.));
#436=CARTESIAN_POINT('',(0.0517677917016009,-0.0873962502999842,0.01135));
#437=CARTESIAN_POINT('',(0.0517677917016009,-0.0873962502999842,0.021002));
#438=CARTESIAN_POINT('',(0.0541927917016009,-0.0873962502999842,0.021002));
#439=CARTESIAN_POINT('',(0.0517677917016009,-0.0873962502999842,0.03175));
#440=CARTESIAN_POINT('',(0.0541927917016009,-0.0873962502999842,0.03175));
#441=CARTESIAN_POINT('',(0.0876277938796287,-0.0515363915613913,0.01135));
#442=CARTESIAN_POINT('',(0.0876277938796287,-0.0515363915613913,0.021002));
#443=CARTESIAN_POINT('',(0.0900527938796287,-0.0515363915613913,0.021002));
#444=CARTESIAN_POINT('',(0.0876277938796287,-0.0515363915613913,0.03175));
#445=CARTESIAN_POINT('',(0.0900527938796287,-0.0515363915613913,0.03175));
#446=CARTESIAN_POINT('',(7.9804436188255E-5,0.00023140064903196,0.03175));
#447=CARTESIAN_POINT('',(0.0750000497887837,-0.0747706652436996,0.03175));
#448=CARTESIAN_POINT('',(0.0533894313920894,-0.0963811971982661,0.03175));
#449=CARTESIAN_POINT('',(0.0966033169390611,-0.0531674845061451,0.03175));
#450=CARTESIAN_POINT('',(0.0985789908678041,0.0118120546132617,0.03175));
#451=CARTESIAN_POINT('',(0.0979925539466981,-0.0477631613910415,0.03175));
#452=CARTESIAN_POINT('',(0.0946968096271861,-0.0444674038885522,0.03175));
#453=CARTESIAN_POINT('',(0.0858579924393903,-0.0356285513454876,0.03175));
#454=CARTESIAN_POINT('',(0.0608569093964177,-0.0606295343845281,0.03175));
#455=CARTESIAN_POINT('',(0.0358558263534451,-0.0856305174235686,0.03175));
#456=CARTESIAN_POINT('',(0.0429279131766976,-0.0927005664293829,0.03175));
#457=CARTESIAN_POINT('',(0.047988509858206,-0.0977597049030916,0.03175));
#458=CARTESIAN_POINT('',(-0.0114465525314171,-0.0982130486855466,0.03175));
#459=CARTESIAN_POINT('',(0.00220511239394429,-0.00220512121439387,0.0398030685438422));
#460=CARTESIAN_POINT('',(0.0905772924736649,-0.0905776547828346,0.030011292372468));
#461=CARTESIAN_POINT('',(0.0857881596842185,-0.0953667684158264,0.030011292372468));
#462=CARTESIAN_POINT('',(0.0955168063790267,-0.0856381606354493,0.030011292372468));
#463=CARTESIAN_POINT('',(0.0982109091775804,-0.00512413468054167,0.0343225777455733));
#464=CARTESIAN_POINT('',(0.00490881580800528,-0.0978991620824259,0.034351756937601));
#465=CARTESIAN_POINT('',(0.0499999989245882,-0.0997706161080917,0.02155));
#466=CARTESIAN_POINT('',(0.0503693112927197,-0.0997590523706951,0.0284384391305403));
#467=CARTESIAN_POINT('',(0.0870821708540212,-0.09860954514934,0.0264682096709728));
#468=CARTESIAN_POINT('',(0.0515045709439344,-0.0997235065290389,0.0283775143745746));
#469=CARTESIAN_POINT('',(0.0515045712408573,-0.0997235068258762,0.021002000058675));
#470=CARTESIAN_POINT('',(0.0515045712408573,-0.0997235068258762,0.021002));
#471=CARTESIAN_POINT('',(0.0499999989252997,-0.0997706161308151,0.021002));
#472=CARTESIAN_POINT('',(0.0870821708540212,-0.09860954514934,0.021002));
#473=CARTESIAN_POINT('',(0.0870821708540212,-0.09860954514934,0.0215049510512322));
#474=CARTESIAN_POINT('',(0.101551788651082,-0.00339805337962149,0.));
#475=CARTESIAN_POINT('',(0.101551788651082,-0.00339805337962149,0.021002));
#476=CARTESIAN_POINT('',(0.0999496001294167,-0.0512799115950025,0.021002));
#477=CARTESIAN_POINT('',(0.098756527160007,-0.0869352355405927,0.021002));
#478=CARTESIAN_POINT('',(0.0999496001294167,-0.0512799115950025,0.03175));
#479=CARTESIAN_POINT('',(0.0999496001294167,-0.0512799115950025,0.028377845289042));
#480=CARTESIAN_POINT('',(0.101496568827293,-0.00504831346923414,0.030853409147773));
#481=CARTESIAN_POINT('',(0.098756527160007,-0.0869352355405926,0.0264686092922475));
#482=CARTESIAN_POINT('',(0.098756527160007,-0.0869352355405926,0.0215049510512322));
#483=CARTESIAN_POINT('',(0.0929193490070141,-0.0927723903449663,0.0215049510512322));
#484=CARTESIAN_POINT('',(0.0951542430378719,-0.0905375052536489,0.0262694870686866));
#485=CARTESIAN_POINT('',(0.098755724529683,-0.0869360381677061,0.0265421237746678));
#486=CARTESIAN_POINT('',(0.0929193490070141,-0.0927723903449663,0.0265421237746678));
#487=CARTESIAN_POINT('',(0.087082980673275,-0.0986087353333254,0.0265421237746678));
#488=CARTESIAN_POINT('',(0.0906762233461818,-0.0950155070333318,0.0262694870686866));
#489=CARTESIAN_POINT('',(0.0929193490070141,-0.0927723903449663,0.021002));
#490=CARTESIAN_POINT('',(0.0429279131766976,-0.0927005664293829,0.03175));
#491=CARTESIAN_POINT('',(0.0429279131766976,-0.0927005664293829,0.021002));
#492=CARTESIAN_POINT('',(0.0358558263534451,-0.0856305174235686,0.021002));
#493=CARTESIAN_POINT('',(0.048935433829816,-0.0987063560191456,0.021002));
#494=CARTESIAN_POINT('',(0.0489354333971238,-0.0987063555865781,0.0317499999143102));
#495=CARTESIAN_POINT('',(0.0489354334251739,-0.0987063556146202,0.0310532395362834));
#496=CARTESIAN_POINT('',(0.0466232506144844,-0.0963948390579755,0.0286336304700394));
#497=CARTESIAN_POINT('',(0.0358558263534451,-0.0856305174235686,0.03175));
#498=CARTESIAN_POINT('',(0.0946968096271861,-0.0444674038885522,0.03175));
#499=CARTESIAN_POINT('',(0.0966310842717979,-0.0464016862702626,0.0286328282201981));
#500=CARTESIAN_POINT('',(0.0989323416856731,-0.0487029528891675,0.0310589932035712));
#501=CARTESIAN_POINT('',(0.0989323416856731,-0.0487029528891675,0.021002));
#502=CARTESIAN_POINT('',(0.0989323416856731,-0.0487029528891675,0.021002));
#503=CARTESIAN_POINT('',(0.0946968096271861,-0.0444674038885522,0.021002));
#504=CARTESIAN_POINT('',(0.0858579924393903,-0.0356285513454876,0.021002));
#505=CARTESIAN_POINT('',(0.0858579924393903,-0.0356285513454876,0.03175));
#506=CARTESIAN_POINT('',(0.0608569093964177,-0.0606295343845281,0.03175));
#507=CARTESIAN_POINT('',(0.0608569093964177,-0.0606295343845281,0.021002));
#508=CARTESIAN_POINT('',(0.000680295059272966,0.000231400649031973,0.021002));
#509=CARTESIAN_POINT('',(0.0964717465873346,-0.051163538145165,0.021002));
#510=CARTESIAN_POINT('',(0.0513956694215964,-0.0962454113076707,0.021002));
#511=CARTESIAN_POINT('',(0.0964717465873346,-0.051163538145165,0.03175));
#512=CARTESIAN_POINT('',(0.0964717465873346,-0.051163538145165,0.028377845289042));
#513=CARTESIAN_POINT('',(0.0513956693995351,-0.0962454112856157,0.0215499999143102));
#514=CARTESIAN_POINT('',(0.0513956691246735,-0.0962454110108333,0.0283775142302098));
#515=CARTESIAN_POINT('',(0.0980187152852108,-0.00493194001939658,0.030853409147773));
#516=CARTESIAN_POINT('',(0.0953246124866572,-0.0854459659743042,0.0265421237746678));
#517=CARTESIAN_POINT('',(0.00471662191563576,-0.0977069674212808,0.0308825883398007));
#518=CARTESIAN_POINT('',(0.085595965791849,-0.0951745737546813,0.0265421237746678));
#519=CARTESIAN_POINT('',(0.0904587637510166,-0.0903117952466277,0.0265421237746678));
#520=MECHANICAL_DESIGN_GEOMETRIC_PRESENTATION_REPRESENTATION('',(#301),
#521);
#521=(
GEOMETRIC_REPRESENTATION_CONTEXT(3)
GLOBAL_UNCERTAINTY_ASSIGNED_CONTEXT((#522))
GLOBAL_UNIT_ASSIGNED_CONTEXT((#525,#524,#523))
REPRESENTATION_CONTEXT('Arm Mount RR 1','TOP_LEVEL_ASSEMBLY_PART')
);
#522=UNCERTAINTY_MEASURE_WITH_UNIT(LENGTH_MEASURE(1.E-8),#525,
'DISTANCE_ACCURACY_VALUE','Maximum Tolerance applied to model');
#523=(
NAMED_UNIT(*)
SI_UNIT($,.STERADIAN.)
SOLID_ANGLE_UNIT()
);
#524=(
NAMED_UNIT(*)
PLANE_ANGLE_UNIT()
SI_UNIT($,.RADIAN.)
);
#525=(
LENGTH_UNIT()
NAMED_UNIT(*)
SI_UNIT($,.METRE.)
);
#526=PRODUCT_DEFINITION_SHAPE('','',#527);
#527=PRODUCT_DEFINITION('','',#529,#528);
#528=PRODUCT_DEFINITION_CONTEXT('',#535,'design');
#529=PRODUCT_DEFINITION_FORMATION_WITH_SPECIFIED_SOURCE('','',#531,
 .NOT_KNOWN.);
#530=PRODUCT_RELATED_PRODUCT_CATEGORY('','',(#531));
#531=PRODUCT('Arm Mount RR 1','Arm Mount RR 1','Arm Mount RR 1',(#533));
#532=PRODUCT_CATEGORY('','');
#533=PRODUCT_CONTEXT('',#535,'mechanical');
#534=APPLICATION_PROTOCOL_DEFINITION('international standard',
'ap242_managed_model_based_3d_engineering',2020,#535);
#535=APPLICATION_CONTEXT('managed model based 3d engineering');
ENDSEC;
END-ISO-10303-21;
