ISO-10303-21;
HEADER;
/* Generated by software containing ST-Developer
 * from STEP Tools, Inc. (www.steptools.com) 
 */
/* OPTION: using custom renumber hook */

FILE_DESCRIPTION(
/* description */ ('STEP AP242 Edition 2',
'CAx-IF Rec.Pracs.---Representation and Presentation of Product Manufa
cturing Information (PMI)---4.0---2014-10-13',
'CAx-IF Rec.Pracs.---3D Tessellated Geometry---0.4---2014-09-14','2;1',
'CAx-IF Rec.Pracs.---User Defined Attributes---1.5---2016-08-15'),
/* implementation_level */ '2;1');

FILE_NAME(
/* name */ 'Part Studio 1 - Arm Mount RR 2',
/* time_stamp */ '2026-06-27T17:59:05Z',
/* author */ (''),
/* organization */ (''),
/* preprocessor_version */ 'ST-DEVELOPER v20',
/* originating_system */ 'ONSHAPE BY PTC INC, 1.217',
/* authorisation */ '  ');

FILE_SCHEMA (('AP242_MANAGED_MODEL_BASED_3D_ENGINEERING_MIM_LF { 1 0 10303 442 3 1 4 }'));
ENDSEC;

DATA;
#10=SHAPE_REPRESENTATION_RELATIONSHIP('','',#311,#11);
#11=ADVANCED_BREP_SHAPE_REPRESENTATION('',(#309),#521);
#12=ELLIPSE('',#321,0.0047707320419174,0.0034798);
#13=ELLIPSE('',#323,0.00478101426494569,0.0034798);
#14=ELLIPSE('',#325,0.00510103426582302,0.0034798);
#15=ELLIPSE('',#326,0.00508940781215171,0.0034798);
#16=ELLIPSE('',#330,0.0681945307316604,0.0034798);
#17=ELLIPSE('',#331,0.0680390993993323,0.0034798);
#18=ELLIPSE('',#337,0.00505206752403185,0.0034798);
#19=ELLIPSE('',#339,0.00505175732632834,0.0034798);
#20=ELLIPSE('',#341,0.00374373688318734,0.0034798);
#21=ELLIPSE('',#343,0.0037421467630571,0.0034798);
#22=LINE('',#447,#46);
#23=LINE('',#450,#47);
#24=LINE('',#452,#48);
#25=LINE('',#454,#49);
#26=LINE('',#456,#50);
#27=LINE('',#461,#51);
#28=LINE('',#462,#52);
#29=LINE('',#467,#53);
#30=LINE('',#469,#54);
#31=LINE('',#470,#55);
#32=LINE('',#472,#56);
#33=LINE('',#477,#57);
#34=LINE('',#479,#58);
#35=LINE('',#481,#59);
#36=LINE('',#485,#60);
#37=LINE('',#487,#61);
#38=LINE('',#489,#62);
#39=LINE('',#491,#63);
#40=LINE('',#493,#64);
#41=LINE('',#495,#65);
#42=LINE('',#499,#66);
#43=LINE('',#503,#67);
#44=LINE('',#505,#68);
#45=LINE('',#507,#69);
#46=VECTOR('',#361,1.);
#47=VECTOR('',#362,1.);
#48=VECTOR('',#363,1.);
#49=VECTOR('',#364,1.);
#50=VECTOR('',#367,1.);
#51=VECTOR('',#370,1.);
#52=VECTOR('',#371,1.);
#53=VECTOR('',#376,1.);
#54=VECTOR('',#377,1.);
#55=VECTOR('',#378,1.);
#56=VECTOR('',#381,1.);
#57=VECTOR('',#384,1.);
#58=VECTOR('',#385,1.);
#59=VECTOR('',#386,1.);
#60=VECTOR('',#391,1.);
#61=VECTOR('',#392,1.);
#62=VECTOR('',#393,1.);
#63=VECTOR('',#396,1.);
#64=VECTOR('',#397,1.);
#65=VECTOR('',#398,1.);
#66=VECTOR('',#403,1.);
#67=VECTOR('',#408,1.);
#68=VECTOR('',#409,1.);
#69=VECTOR('',#410,1.);
#70=PLANE('',#319);
#71=PLANE('',#320);
#72=PLANE('',#322);
#73=PLANE('',#324);
#74=PLANE('',#327);
#75=PLANE('',#328);
#76=PLANE('',#329);
#77=PLANE('',#332);
#78=PLANE('',#333);
#79=ORIENTED_EDGE('',*,*,#159,.F.);
#80=ORIENTED_EDGE('',*,*,#160,.T.);
#81=ORIENTED_EDGE('',*,*,#161,.F.);
#82=ORIENTED_EDGE('',*,*,#162,.T.);
#83=ORIENTED_EDGE('',*,*,#163,.F.);
#84=ORIENTED_EDGE('',*,*,#164,.T.);
#85=ORIENTED_EDGE('',*,*,#165,.F.);
#86=ORIENTED_EDGE('',*,*,#166,.F.);
#87=ORIENTED_EDGE('',*,*,#167,.T.);
#88=ORIENTED_EDGE('',*,*,#168,.T.);
#89=ORIENTED_EDGE('',*,*,#169,.F.);
#90=ORIENTED_EDGE('',*,*,#164,.F.);
#91=ORIENTED_EDGE('',*,*,#170,.F.);
#92=ORIENTED_EDGE('',*,*,#171,.T.);
#93=ORIENTED_EDGE('',*,*,#172,.T.);
#94=ORIENTED_EDGE('',*,*,#173,.F.);
#95=ORIENTED_EDGE('',*,*,#166,.T.);
#96=ORIENTED_EDGE('',*,*,#174,.F.);
#97=ORIENTED_EDGE('',*,*,#175,.T.);
#98=ORIENTED_EDGE('',*,*,#176,.T.);
#99=ORIENTED_EDGE('',*,*,#177,.T.);
#100=ORIENTED_EDGE('',*,*,#178,.T.);
#101=ORIENTED_EDGE('',*,*,#179,.T.);
#102=ORIENTED_EDGE('',*,*,#180,.T.);
#103=ORIENTED_EDGE('',*,*,#181,.T.);
#104=ORIENTED_EDGE('',*,*,#182,.T.);
#105=ORIENTED_EDGE('',*,*,#183,.T.);
#106=ORIENTED_EDGE('',*,*,#179,.F.);
#107=ORIENTED_EDGE('',*,*,#177,.F.);
#108=ORIENTED_EDGE('',*,*,#184,.T.);
#109=ORIENTED_EDGE('',*,*,#185,.T.);
#110=ORIENTED_EDGE('',*,*,#186,.T.);
#111=ORIENTED_EDGE('',*,*,#159,.T.);
#112=ORIENTED_EDGE('',*,*,#161,.T.);
#113=ORIENTED_EDGE('',*,*,#169,.T.);
#114=ORIENTED_EDGE('',*,*,#187,.T.);
#115=ORIENTED_EDGE('',*,*,#188,.F.);
#116=ORIENTED_EDGE('',*,*,#189,.T.);
#117=ORIENTED_EDGE('',*,*,#174,.T.);
#118=ORIENTED_EDGE('',*,*,#165,.T.);
#119=ORIENTED_EDGE('',*,*,#188,.T.);
#120=ORIENTED_EDGE('',*,*,#190,.T.);
#121=ORIENTED_EDGE('',*,*,#191,.T.);
#122=ORIENTED_EDGE('',*,*,#192,.T.);
#123=ORIENTED_EDGE('',*,*,#160,.F.);
#124=ORIENTED_EDGE('',*,*,#162,.F.);
#125=ORIENTED_EDGE('',*,*,#186,.F.);
#126=ORIENTED_EDGE('',*,*,#193,.T.);
#127=ORIENTED_EDGE('',*,*,#170,.T.);
#128=ORIENTED_EDGE('',*,*,#163,.T.);
#129=ORIENTED_EDGE('',*,*,#173,.T.);
#130=ORIENTED_EDGE('',*,*,#194,.T.);
#131=ORIENTED_EDGE('',*,*,#181,.F.);
#132=ORIENTED_EDGE('',*,*,#178,.F.);
#133=ORIENTED_EDGE('',*,*,#194,.F.);
#134=ORIENTED_EDGE('',*,*,#172,.F.);
#135=ORIENTED_EDGE('',*,*,#195,.F.);
#136=ORIENTED_EDGE('',*,*,#182,.F.);
#137=ORIENTED_EDGE('',*,*,#193,.F.);
#138=ORIENTED_EDGE('',*,*,#185,.F.);
#139=ORIENTED_EDGE('',*,*,#196,.F.);
#140=ORIENTED_EDGE('',*,*,#167,.F.);
#141=ORIENTED_EDGE('',*,*,#189,.F.);
#142=ORIENTED_EDGE('',*,*,#192,.F.);
#143=ORIENTED_EDGE('',*,*,#197,.F.);
#144=ORIENTED_EDGE('',*,*,#180,.F.);
#145=ORIENTED_EDGE('',*,*,#183,.F.);
#146=ORIENTED_EDGE('',*,*,#195,.T.);
#147=ORIENTED_EDGE('',*,*,#171,.F.);
#148=ORIENTED_EDGE('',*,*,#184,.F.);
#149=ORIENTED_EDGE('',*,*,#176,.F.);
#150=ORIENTED_EDGE('',*,*,#198,.F.);
#151=ORIENTED_EDGE('',*,*,#190,.F.);
#152=ORIENTED_EDGE('',*,*,#187,.F.);
#153=ORIENTED_EDGE('',*,*,#168,.F.);
#154=ORIENTED_EDGE('',*,*,#196,.T.);
#155=ORIENTED_EDGE('',*,*,#197,.T.);
#156=ORIENTED_EDGE('',*,*,#191,.F.);
#157=ORIENTED_EDGE('',*,*,#198,.T.);
#158=ORIENTED_EDGE('',*,*,#175,.F.);
#159=EDGE_CURVE('',#199,#199,#227,.T.);
#160=EDGE_CURVE('',#200,#200,#228,.T.);
#161=EDGE_CURVE('',#201,#201,#229,.T.);
#162=EDGE_CURVE('',#202,#202,#230,.T.);
#163=EDGE_CURVE('',#203,#204,#22,.T.);
#164=EDGE_CURVE('',#203,#205,#23,.T.);
#165=EDGE_CURVE('',#206,#205,#24,.T.);
#166=EDGE_CURVE('',#204,#206,#25,.T.);
#167=EDGE_CURVE('',#207,#208,#26,.F.);
#168=EDGE_CURVE('',#208,#209,#12,.F.);
#169=EDGE_CURVE('',#205,#209,#27,.T.);
#170=EDGE_CURVE('',#207,#203,#28,.T.);
#171=EDGE_CURVE('',#210,#211,#13,.F.);
#172=EDGE_CURVE('',#211,#212,#29,.T.);
#173=EDGE_CURVE('',#204,#212,#30,.T.);
#174=EDGE_CURVE('',#210,#206,#31,.T.);
#175=EDGE_CURVE('',#213,#214,#32,.T.);
#176=EDGE_CURVE('',#214,#215,#14,.T.);
#177=EDGE_CURVE('',#215,#216,#33,.T.);
#178=EDGE_CURVE('',#216,#217,#34,.T.);
#179=EDGE_CURVE('',#217,#218,#35,.F.);
#180=EDGE_CURVE('',#218,#213,#15,.T.);
#181=EDGE_CURVE('',#217,#219,#36,.F.);
#182=EDGE_CURVE('',#219,#220,#37,.T.);
#183=EDGE_CURVE('',#220,#218,#38,.T.);
#184=EDGE_CURVE('',#215,#221,#39,.F.);
#185=EDGE_CURVE('',#221,#222,#40,.F.);
#186=EDGE_CURVE('',#222,#216,#41,.F.);
#187=EDGE_CURVE('',#209,#223,#16,.F.);
#188=EDGE_CURVE('',#224,#223,#42,.T.);
#189=EDGE_CURVE('',#224,#210,#17,.F.);
#190=EDGE_CURVE('',#223,#225,#43,.F.);
#191=EDGE_CURVE('',#225,#226,#44,.F.);
#192=EDGE_CURVE('',#226,#224,#45,.T.);
#193=EDGE_CURVE('',#222,#207,#231,.T.);
#194=EDGE_CURVE('',#212,#219,#232,.T.);
#195=EDGE_CURVE('',#220,#211,#18,.F.);
#196=EDGE_CURVE('',#208,#221,#19,.T.);
#197=EDGE_CURVE('',#213,#226,#20,.F.);
#198=EDGE_CURVE('',#225,#214,#21,.F.);
#199=VERTEX_POINT('',#438);
#200=VERTEX_POINT('',#440);
#201=VERTEX_POINT('',#443);
#202=VERTEX_POINT('',#445);
#203=VERTEX_POINT('',#448);
#204=VERTEX_POINT('',#449);
#205=VERTEX_POINT('',#451);
#206=VERTEX_POINT('',#453);
#207=VERTEX_POINT('',#457);
#208=VERTEX_POINT('',#458);
#209=VERTEX_POINT('',#460);
#210=VERTEX_POINT('',#465);
#211=VERTEX_POINT('',#466);
#212=VERTEX_POINT('',#468);
#213=VERTEX_POINT('',#473);
#214=VERTEX_POINT('',#474);
#215=VERTEX_POINT('',#476);
#216=VERTEX_POINT('',#478);
#217=VERTEX_POINT('',#480);
#218=VERTEX_POINT('',#482);
#219=VERTEX_POINT('',#486);
#220=VERTEX_POINT('',#488);
#221=VERTEX_POINT('',#492);
#222=VERTEX_POINT('',#494);
#223=VERTEX_POINT('',#498);
#224=VERTEX_POINT('',#500);
#225=VERTEX_POINT('',#504);
#226=VERTEX_POINT('',#506);
#227=CIRCLE('',#314,0.002425);
#228=CIRCLE('',#315,0.002425);
#229=CIRCLE('',#317,0.002425);
#230=CIRCLE('',#318,0.002425);
#231=CIRCLE('',#334,0.0034798);
#232=CIRCLE('',#335,0.0034798);
#233=EDGE_LOOP('',(#79));
#234=EDGE_LOOP('',(#80));
#235=EDGE_LOOP('',(#81));
#236=EDGE_LOOP('',(#82));
#237=EDGE_LOOP('',(#83,#84,#85,#86));
#238=EDGE_LOOP('',(#87,#88,#89,#90,#91));
#239=EDGE_LOOP('',(#92,#93,#94,#95,#96));
#240=EDGE_LOOP('',(#97,#98,#99,#100,#101,#102));
#241=EDGE_LOOP('',(#103,#104,#105,#106));
#242=EDGE_LOOP('',(#107,#108,#109,#110));
#243=EDGE_LOOP('',(#111));
#244=EDGE_LOOP('',(#112));
#245=EDGE_LOOP('',(#113,#114,#115,#116,#117,#118));
#246=EDGE_LOOP('',(#119,#120,#121,#122));
#247=EDGE_LOOP('',(#123));
#248=EDGE_LOOP('',(#124));
#249=EDGE_LOOP('',(#125,#126,#127,#128,#129,#130,#131,#132));
#250=EDGE_LOOP('',(#133,#134,#135,#136));
#251=EDGE_LOOP('',(#137,#138,#139,#140));
#252=EDGE_LOOP('',(#141,#142,#143,#144,#145,#146,#147));
#253=EDGE_LOOP('',(#148,#149,#150,#151,#152,#153,#154));
#254=EDGE_LOOP('',(#155,#156,#157,#158));
#255=FACE_BOUND('',#233,.T.);
#256=FACE_BOUND('',#234,.T.);
#257=FACE_BOUND('',#235,.T.);
#258=FACE_BOUND('',#236,.T.);
#259=FACE_BOUND('',#237,.T.);
#260=FACE_BOUND('',#238,.T.);
#261=FACE_BOUND('',#239,.T.);
#262=FACE_BOUND('',#240,.T.);
#263=FACE_BOUND('',#241,.T.);
#264=FACE_BOUND('',#242,.T.);
#265=FACE_BOUND('',#243,.T.);
#266=FACE_BOUND('',#244,.T.);
#267=FACE_BOUND('',#245,.T.);
#268=FACE_BOUND('',#246,.T.);
#269=FACE_BOUND('',#247,.T.);
#270=FACE_BOUND('',#248,.T.);
#271=FACE_BOUND('',#249,.T.);
#272=FACE_BOUND('',#250,.T.);
#273=FACE_BOUND('',#251,.T.);
#274=FACE_BOUND('',#252,.T.);
#275=FACE_BOUND('',#253,.T.);
#276=FACE_BOUND('',#254,.T.);
#277=CYLINDRICAL_SURFACE('',#313,0.002425);
#278=CYLINDRICAL_SURFACE('',#316,0.002425);
#279=CYLINDRICAL_SURFACE('',#336,0.0034798);
#280=CYLINDRICAL_SURFACE('',#338,0.0034798);
#281=CYLINDRICAL_SURFACE('',#340,0.0034798);
#282=CYLINDRICAL_SURFACE('',#342,0.0034798);
#283=CYLINDRICAL_SURFACE('',#344,0.0034798);
#284=ADVANCED_FACE('',(#255,#256),#277,.F.);
#285=ADVANCED_FACE('',(#257,#258),#278,.F.);
#286=ADVANCED_FACE('',(#259),#70,.F.);
#287=ADVANCED_FACE('',(#260),#71,.F.);
#288=ADVANCED_FACE('',(#261),#72,.F.);
#289=ADVANCED_FACE('',(#262),#73,.T.);
#290=ADVANCED_FACE('',(#263),#74,.F.);
#291=ADVANCED_FACE('',(#264),#75,.F.);
#292=ADVANCED_FACE('',(#265,#266,#267),#76,.F.);
#293=ADVANCED_FACE('',(#268),#77,.T.);
#294=ADVANCED_FACE('',(#269,#270,#271),#78,.T.);
#295=ADVANCED_FACE('',(#272),#279,.T.);
#296=ADVANCED_FACE('',(#273),#280,.T.);
#297=ADVANCED_FACE('',(#274),#281,.T.);
#298=ADVANCED_FACE('',(#275),#282,.T.);
#299=ADVANCED_FACE('',(#276),#283,.T.);
#300=CLOSED_SHELL('',(#284,#285,#286,#287,#288,#289,#290,#291,#292,#293,
#294,#295,#296,#297,#298,#299));
#301=STYLED_ITEM('',(#302),#309);
#302=PRESENTATION_STYLE_ASSIGNMENT((#303));
#303=SURFACE_STYLE_USAGE(.BOTH.,#304);
#304=SURFACE_SIDE_STYLE('',(#305));
#305=SURFACE_STYLE_FILL_AREA(#306);
#306=FILL_AREA_STYLE('',(#307));
#307=FILL_AREA_STYLE_COLOUR('',#308);
#308=COLOUR_RGB('',0.615686274509804,0.811764705882353,0.929411764705882);
#309=MANIFOLD_SOLID_BREP('Arm Mount RR 2',#300);
#310=SHAPE_DEFINITION_REPRESENTATION(#526,#311);
#311=SHAPE_REPRESENTATION('Arm Mount RR 2',(#312),#521);
#312=AXIS2_PLACEMENT_3D('',#435,#345,#346);
#313=AXIS2_PLACEMENT_3D('',#436,#347,#348);
#314=AXIS2_PLACEMENT_3D('',#437,#349,#350);
#315=AXIS2_PLACEMENT_3D('',#439,#351,#352);
#316=AXIS2_PLACEMENT_3D('',#441,#353,#354);
#317=AXIS2_PLACEMENT_3D('',#442,#355,#356);
#318=AXIS2_PLACEMENT_3D('',#444,#357,#358);
#319=AXIS2_PLACEMENT_3D('',#446,#359,#360);
#320=AXIS2_PLACEMENT_3D('',#455,#365,#366);
#321=AXIS2_PLACEMENT_3D('',#459,#368,#369);
#322=AXIS2_PLACEMENT_3D('',#463,#372,#373);
#323=AXIS2_PLACEMENT_3D('',#464,#374,#375);
#324=AXIS2_PLACEMENT_3D('',#471,#379,#380);
#325=AXIS2_PLACEMENT_3D('',#475,#382,#383);
#326=AXIS2_PLACEMENT_3D('',#483,#387,#388);
#327=AXIS2_PLACEMENT_3D('',#484,#389,#390);
#328=AXIS2_PLACEMENT_3D('',#490,#394,#395);
#329=AXIS2_PLACEMENT_3D('',#496,#399,#400);
#330=AXIS2_PLACEMENT_3D('',#497,#401,#402);
#331=AXIS2_PLACEMENT_3D('',#501,#404,#405);
#332=AXIS2_PLACEMENT_3D('',#502,#406,#407);
#333=AXIS2_PLACEMENT_3D('',#508,#411,#412);
#334=AXIS2_PLACEMENT_3D('',#509,#413,#414);
#335=AXIS2_PLACEMENT_3D('',#510,#415,#416);
#336=AXIS2_PLACEMENT_3D('',#511,#417,#418);
#337=AXIS2_PLACEMENT_3D('',#512,#419,#420);
#338=AXIS2_PLACEMENT_3D('',#513,#421,#422);
#339=AXIS2_PLACEMENT_3D('',#514,#423,#424);
#340=AXIS2_PLACEMENT_3D('',#515,#425,#426);
#341=AXIS2_PLACEMENT_3D('',#516,#427,#428);
#342=AXIS2_PLACEMENT_3D('',#517,#429,#430);
#343=AXIS2_PLACEMENT_3D('',#518,#431,#432);
#344=AXIS2_PLACEMENT_3D('',#519,#433,#434);
#345=DIRECTION('',(0.,0.,1.));
#346=DIRECTION('',(1.,0.,0.));
#347=DIRECTION('',(0.,0.,-1.));
#348=DIRECTION('',(-1.,0.,0.));
#349=DIRECTION('',(0.,0.,1.));
#350=DIRECTION('',(1.,0.,0.));
#351=DIRECTION('',(0.,0.,1.));
#352=DIRECTION('',(1.,0.,0.));
#353=DIRECTION('',(0.,0.,-1.));
#354=DIRECTION('',(-1.,0.,0.));
#355=DIRECTION('',(0.,0.,1.));
#356=DIRECTION('',(1.,0.,0.));
#357=DIRECTION('',(0.,0.,1.));
#358=DIRECTION('',(1.,0.,0.));
#359=DIRECTION('',(0.7071053669744,-0.707108195395867,0.));
#360=DIRECTION('',(0.707108195395867,0.7071053669744,0.));
#361=DIRECTION('',(-0.707108195395867,-0.7071053669744,0.));
#362=DIRECTION('',(0.,0.,-1.));
#363=DIRECTION('',(0.707108195395867,0.7071053669744,0.));
#364=DIRECTION('',(0.,0.,-1.));
#365=DIRECTION('',(-0.707108195395867,-0.7071053669744,0.));
#366=DIRECTION('',(0.7071053669744,-0.707108195395867,0.));
#367=DIRECTION('',(0.,0.,1.));
#368=DIRECTION('',(-0.707108195395867,-0.7071053669744,0.));
#369=DIRECTION('',(-0.705135423768101,0.705138244309795,-0.0745928318210383));
#370=DIRECTION('',(0.7071053669744,-0.707108195395867,0.));
#371=DIRECTION('',(-0.7071053669744,0.707108195395867,0.));
#372=DIRECTION('',(0.707004882976169,0.707208664714915,0.));
#373=DIRECTION('',(-0.707208664714915,0.707004882976169,0.));
#374=DIRECTION('',(0.707004882976169,0.707208664714915,0.));
#375=DIRECTION('',(-0.705239043887883,0.705035829694159,-0.0745812967410299));
#376=DIRECTION('',(-4.02579247963631E-8,4.02463245002658E-8,1.));
#377=DIRECTION('',(0.707208664714915,-0.707004882976169,0.));
#378=DIRECTION('',(-0.707208664714915,0.707004882976169,0.));
#379=DIRECTION('',(0.7071053669744,-0.707108195395867,0.));
#380=DIRECTION('',(0.707108195395867,0.7071053669744,0.));
#381=DIRECTION('',(0.707108195395867,0.7071053669744,6.93889390390723E-18));
#382=DIRECTION('',(0.7071053669744,-0.707108195395867,0.));
#383=DIRECTION('',(0.705384199235831,0.705381377710322,-0.0697871295291144));
#384=DIRECTION('',(0.,0.,1.));
#385=DIRECTION('',(-0.707108195395867,-0.7071053669744,0.));
#386=DIRECTION('',(0.,0.,1.));
#387=DIRECTION('',(0.7071053669744,-0.707108195395867,0.));
#388=DIRECTION('',(-0.705369372320834,-0.705366550854631,-0.0700862149581087));
#389=DIRECTION('',(-0.0312954248120092,0.999510178230234,-4.14864998329246E-8));
#390=DIRECTION('',(-0.999510178230235,-0.0312954248120092,0.));
#391=DIRECTION('',(0.999510178230235,0.0312954248120092,0.));
#392=DIRECTION('',(4.02579247963631E-8,-4.02463245002657E-8,-1.));
#393=DIRECTION('',(0.998202102224598,0.0312544700789973,0.0511441219933924));
#394=DIRECTION('',(-0.999440640865017,0.0334425684917392,0.));
#395=DIRECTION('',(-0.0334425684917392,-0.999440640865017,0.));
#396=DIRECTION('',(-0.0333990010470706,-0.998138615429045,0.0510275525421931));
#397=DIRECTION('',(0.,0.,-1.));
#398=DIRECTION('',(0.0334425684917392,0.999440640865017,0.));
#399=DIRECTION('',(0.,0.,1.));
#400=DIRECTION('',(1.,0.,0.));
#401=DIRECTION('',(0.,0.,1.));
#402=DIRECTION('',(0.0334425684917392,0.999440640865017,0.));
#403=DIRECTION('',(0.707108195395867,0.7071053669744,0.));
#404=DIRECTION('',(0.,0.,1.));
#405=DIRECTION('',(-0.999510178163746,-0.0312954269355396,0.));
#406=DIRECTION('',(0.052744991718475,-0.0527452026984418,-0.9972140740287));
#407=DIRECTION('',(0.,0.998604116867125,-0.0528187256191283));
#408=DIRECTION('',(0.0333990010470706,0.998138615429045,-0.0510275525421931));
#409=DIRECTION('',(0.707108195395867,0.7071053669744,-2.70193380579303E-18));
#410=DIRECTION('',(-0.998202102224598,-0.0312544700789973,-0.0511441219933924));
#411=DIRECTION('',(0.,0.,1.));
#412=DIRECTION('',(1.,0.,0.));
#413=DIRECTION('',(0.,0.,1.));
#414=DIRECTION('',(1.,0.,0.));
#415=DIRECTION('',(0.,0.,1.));
#416=DIRECTION('',(1.,0.,0.));
#417=DIRECTION('',(4.02579247963631E-8,-4.02463245002657E-8,-1.));
#418=DIRECTION('',(-1.,0.,-4.02579247963631E-8));
#419=DIRECTION('',(-0.724608400835532,-0.0226880122334298,0.688787281778249));
#420=DIRECTION('',(-0.68844989783165,-0.0215559206498257,-0.724963502847232));
#421=DIRECTION('',(0.,0.,-1.));
#422=DIRECTION('',(-1.,0.,0.));
#423=DIRECTION('',(-0.0242432967744679,-0.724517797457455,-0.688829604277359));
#424=DIRECTION('',(0.0230362312201833,0.68844430114576,-0.724923289921835));
#425=DIRECTION('',(-0.998202102224598,-0.0312544700789973,-0.0511441219933924));
#426=DIRECTION('',(-0.0511691201699826,0.,0.998690002523821));
#427=DIRECTION('',(-0.917327584700401,-0.39718158443603,-0.0275116581218598));
#428=DIRECTION('',(-0.394623957960421,0.916223080137793,-0.0693339687777038));
#429=DIRECTION('',(0.0333990010470706,0.998138615429045,-0.0510275525421931));
#430=DIRECTION('',(0.,0.051056036820672,0.998695790070313));
#431=DIRECTION('',(0.3981675108037,0.916902300272093,-0.0274372938922487));
#432=DIRECTION('',(-0.915795063968464,0.3956110657553,-0.0693634302997774));
#433=DIRECTION('',(0.707108195395867,0.7071053669744,6.93889390390723E-18));
#434=DIRECTION('',(-0.7071053669744,0.707108195395867,0.));
#435=CARTESIAN_POINT('',(0.,0.,0.));
#436=CARTESIAN_POINT('',(0.0517677917016009,-0.0873962502999842,0.01135));
#437=CARTESIAN_POINT('',(0.0517677917016009,-0.0873962502999842,0.01135));
#438=CARTESIAN_POINT('',(0.0541927917016009,-0.0873962502999842,0.01135));
#439=CARTESIAN_POINT('',(0.0517677917016009,-0.0873962502999842,0.021002));
#440=CARTESIAN_POINT('',(0.0541927917016009,-0.0873962502999842,0.021002));
#441=CARTESIAN_POINT('',(0.0876277938796287,-0.0515363915613913,0.01135));
#442=CARTESIAN_POINT('',(0.0876277938796287,-0.0515363915613913,0.01135));
#443=CARTESIAN_POINT('',(0.0900527938796287,-0.0515363915613913,0.01135));
#444=CARTESIAN_POINT('',(0.0876277938796287,-0.0515363915613913,0.021002));
#445=CARTESIAN_POINT('',(0.0900527938796287,-0.0515363915613913,0.021002));
#446=CARTESIAN_POINT('',(0.0608569093964177,-0.0606295343845281,0.03175));
#447=CARTESIAN_POINT('',(0.0608569093964177,-0.0606295343845281,0.021002));
#448=CARTESIAN_POINT('',(0.0858579924393903,-0.0356285513454876,0.021002));
#449=CARTESIAN_POINT('',(0.0358558263534451,-0.0856305174235686,0.021002));
#450=CARTESIAN_POINT('',(0.0858579924393903,-0.0356285513454876,0.03175));
#451=CARTESIAN_POINT('',(0.0858579924393903,-0.0356285513454876,0.01135));
#452=CARTESIAN_POINT('',(0.0608987028788728,-0.0605877410692462,0.01135));
#453=CARTESIAN_POINT('',(0.0358558263534451,-0.0856305174235686,0.01135));
#454=CARTESIAN_POINT('',(0.0358558263534451,-0.0856305174235686,0.03175));
#455=CARTESIAN_POINT('',(0.0946968096271861,-0.0444674038885522,0.03175));
#456=CARTESIAN_POINT('',(0.0989323416856731,-0.0487029528891675,0.01135));
#457=CARTESIAN_POINT('',(0.0989323416856731,-0.0487029528891675,0.021002));
#458=CARTESIAN_POINT('',(0.0989323416856731,-0.0487029528891675,0.0120519002770813));
#459=CARTESIAN_POINT('',(0.0966310842717979,-0.0464016862702626,0.0144831298562047));
#460=CARTESIAN_POINT('',(0.0979662591198112,-0.0477368664589753,0.01135));
#461=CARTESIAN_POINT('',(0.0250390939967058,0.0251905903727906,0.01135));
#462=CARTESIAN_POINT('',(0.0946968096271861,-0.0444674038885522,0.021002));
#463=CARTESIAN_POINT('',(0.0429279131766976,-0.0927005664293829,0.03175));
#464=CARTESIAN_POINT('',(0.046623251184185,-0.096394839627512,0.0144823639878496));
#465=CARTESIAN_POINT('',(0.0479621579484416,-0.0977333605866137,0.01135));
#466=CARTESIAN_POINT('',(0.0489354341898973,-0.0987063563791232,0.0120576408706983));
#467=CARTESIAN_POINT('',(0.048935433829816,-0.0987063560191456,0.0210019999143102));
#468=CARTESIAN_POINT('',(0.048935433829816,-0.0987063560191456,0.021002));
#469=CARTESIAN_POINT('',(0.0429279131766976,-0.0927005664293829,0.021002));
#470=CARTESIAN_POINT('',(-0.0249682970205903,-0.0248239204830135,0.01135));
#471=CARTESIAN_POINT('',(0.0929193490070141,-0.0927723903449663,0.0215049510512322));
#472=CARTESIAN_POINT('',(0.0929193490070141,-0.0927723903449663,0.0164791793059233));
#473=CARTESIAN_POINT('',(0.0870829087076416,-0.098608807298671,0.0164791793059233));
#474=CARTESIAN_POINT('',(0.09875579546166,-0.0869359672360128,0.0164791793059233));
#475=CARTESIAN_POINT('',(0.0951542430378718,-0.0905375052536489,0.0167394725999421));
#476=CARTESIAN_POINT('',(0.098756527160007,-0.0869352355405926,0.0165493654780985));
#477=CARTESIAN_POINT('',(0.098756527160007,-0.0869352355405926,0.0215049510512322));
#478=CARTESIAN_POINT('',(0.098756527160007,-0.0869352355405926,0.021002));
#479=CARTESIAN_POINT('',(0.0929193490070141,-0.0927723903449663,0.021002));
#480=CARTESIAN_POINT('',(0.0870821708540212,-0.09860954514934,0.021002));
#481=CARTESIAN_POINT('',(0.0870821708540212,-0.09860954514934,0.0215049510512322));
#482=CARTESIAN_POINT('',(0.0870821708540212,-0.09860954514934,0.0165497473114006));
#483=CARTESIAN_POINT('',(0.0906762229378338,-0.0950155074416782,0.0167394725999421));
#484=CARTESIAN_POINT('',(0.0499999989245882,-0.0997706161080917,0.02155));
#485=CARTESIAN_POINT('',(0.0499999989252997,-0.0997706161308151,0.021002));
#486=CARTESIAN_POINT('',(0.0515045712408573,-0.0997235068258762,0.021002));
#487=CARTESIAN_POINT('',(0.0515045716294268,-0.0997235072143338,0.011350000058675));
#488=CARTESIAN_POINT('',(0.0515045714934804,-0.0997235070784266,0.0147268849090328));
#489=CARTESIAN_POINT('',(0.0503522693080801,-0.0997595865397854,0.0146678452782686));
#490=CARTESIAN_POINT('',(0.101551788651082,-0.00339805337962149,0.));
#491=CARTESIAN_POINT('',(0.101572714893333,-0.00277266669702255,0.0122467467462251));
#492=CARTESIAN_POINT('',(0.0999496001294167,-0.0512799115950025,0.0147265686361384));
#493=CARTESIAN_POINT('',(0.0999496001294167,-0.0512799115950025,0.021002));
#494=CARTESIAN_POINT('',(0.0999496001294167,-0.0512799115950025,0.021002));
#495=CARTESIAN_POINT('',(0.101551788651082,-0.00339805337962149,0.021002));
#496=CARTESIAN_POINT('',(0.000680295059272973,0.000231400649031973,0.01135));
#497=CARTESIAN_POINT('',(0.0986818078933445,0.0148847705717682,0.01135));
#498=CARTESIAN_POINT('',(0.0965940660185658,-0.0531767353896369,0.01135));
#499=CARTESIAN_POINT('',(0.0750000497887837,-0.0747706652436996,0.01135));
#500=CARTESIAN_POINT('',(0.0533986420648367,-0.0963719865623614,0.01135));
#501=CARTESIAN_POINT('',(-0.0145124609120753,-0.0983090454583877,0.01135));
#502=CARTESIAN_POINT('',(-0.000180319769509316,0.000180320490788394,0.00340918457130626));
#503=CARTESIAN_POINT('',(0.0982784033734331,-0.00283983600353503,0.00877664121142));
#504=CARTESIAN_POINT('',(0.0955081545088392,-0.0856295087306542,0.0130090737711183));
#505=CARTESIAN_POINT('',(0.0905686406034773,-0.0905690028780395,0.0130090737711183));
#506=CARTESIAN_POINT('',(0.0857795073828476,-0.095358116942213,0.0130090737711183));
#507=CARTESIAN_POINT('',(0.00261903586413358,-0.0979619348094009,0.00874824393425207));
#508=CARTESIAN_POINT('',(0.000680295059272966,0.000231400649031973,0.021002));
#509=CARTESIAN_POINT('',(0.0964717465873346,-0.051163538145165,0.021002));
#510=CARTESIAN_POINT('',(0.0513956694215964,-0.0962454113076707,0.021002));
#511=CARTESIAN_POINT('',(0.0513956693995351,-0.0962454112856157,0.0215499999143102));
#512=CARTESIAN_POINT('',(0.0513956696742196,-0.096245411560221,0.0147268847646681));
#513=CARTESIAN_POINT('',(0.0964717465873346,-0.051163538145165,0.03175));
#514=CARTESIAN_POINT('',(0.0964717465873346,-0.051163538145165,0.0147265686361384));
#515=CARTESIAN_POINT('',(0.0502433674888192,-0.0962814910215799,0.0146678451339039));
#516=CARTESIAN_POINT('',(0.0855959653606656,-0.0951745741858629,0.0164791793059233));
#517=CARTESIAN_POINT('',(0.0980948613512512,-0.00265629324718499,0.0122467467462251));
#518=CARTESIAN_POINT('',(0.0953246124866572,-0.0854459659743042,0.0164791793059233));
#519=CARTESIAN_POINT('',(0.0904587637510166,-0.0903117952466277,0.0164791793059233));
#520=MECHANICAL_DESIGN_GEOMETRIC_PRESENTATION_REPRESENTATION('',(#301),
#521);
#521=(
GEOMETRIC_REPRESENTATION_CONTEXT(3)
GLOBAL_UNCERTAINTY_ASSIGNED_CONTEXT((#522))
GLOBAL_UNIT_ASSIGNED_CONTEXT((#525,#524,#523))
REPRESENTATION_CONTEXT('Arm Mount RR 2','TOP_LEVEL_ASSEMBLY_PART')
);
#522=UNCERTAINTY_MEASURE_WITH_UNIT(LENGTH_MEASURE(1.E-8),#525,
'DISTANCE_ACCURACY_VALUE','Maximum Tolerance applied to model');
#523=(
NAMED_UNIT(*)
SI_UNIT($,.STERADIAN.)
SOLID_ANGLE_UNIT()
);
#524=(
NAMED_UNIT(*)
PLANE_ANGLE_UNIT()
SI_UNIT($,.RADIAN.)
);
#525=(
LENGTH_UNIT()
NAMED_UNIT(*)
SI_UNIT($,.METRE.)
);
#526=PRODUCT_DEFINITION_SHAPE('','',#527);
#527=PRODUCT_DEFINITION('','',#529,#528);
#528=PRODUCT_DEFINITION_CONTEXT('',#535,'design');
#529=PRODUCT_DEFINITION_FORMATION_WITH_SPECIFIED_SOURCE('','',#531,
 .NOT_KNOWN.);
#530=PRODUCT_RELATED_PRODUCT_CATEGORY('','',(#531));
#531=PRODUCT('Arm Mount RR 2','Arm Mount RR 2','Arm Mount RR 2',(#533));
#532=PRODUCT_CATEGORY('','');
#533=PRODUCT_CONTEXT('',#535,'mechanical');
#534=APPLICATION_PROTOCOL_DEFINITION('international standard',
'ap242_managed_model_based_3d_engineering',2020,#535);
#535=APPLICATION_CONTEXT('managed model based 3d engineering');
ENDSEC;
END-ISO-10303-21;
