ISO-10303-21;
HEADER;
/* Generated by software containing ST-Developer
 * from STEP Tools, Inc. (www.steptools.com) 
 */
/* OPTION: using custom renumber hook */

FILE_DESCRIPTION(
/* description */ ('STEP AP242 Edition 2',
'CAx-IF Rec.Pracs.---Representation and Presentation of Product Manufa
cturing Information (PMI)---4.0---2014-10-13',
'CAx-IF Rec.Pracs.---3D Tessellated Geometry---0.4---2014-09-14','2;1',
'CAx-IF Rec.Pracs.---User Defined Attributes---1.5---2016-08-15'),
/* implementation_level */ '2;1');

FILE_NAME(
/* name */ 'Part Studio 1 - Bottom Plate',
/* time_stamp */ '2026-06-27T17:59:33Z',
/* author */ (''),
/* organization */ (''),
/* preprocessor_version */ 'ST-DEVELOPER v20',
/* originating_system */ 'ONSHAPE BY PTC INC, 1.217',
/* authorisation */ '  ');

FILE_SCHEMA (('AP242_MANAGED_MODEL_BASED_3D_ENGINEERING_MIM_LF { 1 0 10303 442 3 1 4 }'));
ENDSEC;

DATA;
#10=SHAPE_REPRESENTATION_RELATIONSHIP('','',#1277,#11);
#11=ADVANCED_BREP_SHAPE_REPRESENTATION('',(#1275),#2033);
#12=B_SPLINE_SURFACE_WITH_KNOTS('',3,1,((#1825,#1826),(#1827,#1828),(#1829,
#1830),(#1831,#1832)),.SURF_OF_LINEAR_EXTRUSION.,.F.,.F.,.F.,(4,4),(2,2),
(0.,1.),(0.,1.),.PIECEWISE_BEZIER_KNOTS.);
#13=B_SPLINE_SURFACE_WITH_KNOTS('',3,1,((#1842,#1843),(#1844,#1845),(#1846,
#1847),(#1848,#1849)),.SURF_OF_LINEAR_EXTRUSION.,.F.,.F.,.F.,(4,4),(2,2),
(0.,1.),(0.,1.),.PIECEWISE_BEZIER_KNOTS.);
#14=B_SPLINE_SURFACE_WITH_KNOTS('',3,1,((#1859,#1860),(#1861,#1862),(#1863,
#1864),(#1865,#1866)),.SURF_OF_LINEAR_EXTRUSION.,.F.,.F.,.F.,(4,4),(2,2),
(0.,1.),(0.,1.),.PIECEWISE_BEZIER_KNOTS.);
#15=B_SPLINE_SURFACE_WITH_KNOTS('',3,1,((#1876,#1877),(#1878,#1879),(#1880,
#1881),(#1882,#1883)),.SURF_OF_LINEAR_EXTRUSION.,.F.,.F.,.F.,(4,4),(2,2),
(0.,1.),(0.,1.),.PIECEWISE_BEZIER_KNOTS.);
#16=B_SPLINE_CURVE_WITH_KNOTS('',2,(#1770,#1771,#1772),.UNSPECIFIED.,.F.,
 .F.,(3,3),(0.,1.),.PIECEWISE_BEZIER_KNOTS.);
#17=B_SPLINE_CURVE_WITH_KNOTS('',2,(#1776,#1777,#1778),.UNSPECIFIED.,.F.,
 .F.,(3,3),(0.,1.),.PIECEWISE_BEZIER_KNOTS.);
#18=B_SPLINE_CURVE_WITH_KNOTS('',2,(#1782,#1783,#1784),.UNSPECIFIED.,.F.,
 .F.,(3,3),(0.,1.),.PIECEWISE_BEZIER_KNOTS.);
#19=B_SPLINE_CURVE_WITH_KNOTS('',2,(#1788,#1789,#1790),.UNSPECIFIED.,.F.,
 .F.,(3,3),(0.,1.),.PIECEWISE_BEZIER_KNOTS.);
#20=B_SPLINE_CURVE_WITH_KNOTS('',2,(#1833,#1834,#1835),.UNSPECIFIED.,.F.,
 .F.,(3,3),(0.,1.),.PIECEWISE_BEZIER_KNOTS.);
#21=B_SPLINE_CURVE_WITH_KNOTS('',2,(#1850,#1851,#1852),.UNSPECIFIED.,.F.,
 .F.,(3,3),(0.,1.),.PIECEWISE_BEZIER_KNOTS.);
#22=B_SPLINE_CURVE_WITH_KNOTS('',2,(#1867,#1868,#1869),.UNSPECIFIED.,.F.,
 .F.,(3,3),(0.,1.),.PIECEWISE_BEZIER_KNOTS.);
#23=B_SPLINE_CURVE_WITH_KNOTS('',2,(#1884,#1885,#1886),.UNSPECIFIED.,.F.,
 .F.,(3,3),(0.,1.),.PIECEWISE_BEZIER_KNOTS.);
#24=CIRCLE('',#1284,0.002425);
#25=CIRCLE('',#1285,0.002425);
#26=CIRCLE('',#1287,0.002425);
#27=CIRCLE('',#1288,0.002425);
#28=CIRCLE('',#1290,0.002425);
#29=CIRCLE('',#1291,0.002425);
#30=CIRCLE('',#1293,0.002425);
#31=CIRCLE('',#1294,0.002425);
#32=CIRCLE('',#1296,0.002425);
#33=CIRCLE('',#1297,0.002425);
#34=CIRCLE('',#1299,0.002425);
#35=CIRCLE('',#1300,0.002425);
#36=CIRCLE('',#1302,0.002425);
#37=CIRCLE('',#1303,0.002425);
#38=CIRCLE('',#1305,0.002425);
#39=CIRCLE('',#1306,0.002425);
#40=CYLINDRICAL_SURFACE('',#1283,0.002425);
#41=CYLINDRICAL_SURFACE('',#1286,0.002425);
#42=CYLINDRICAL_SURFACE('',#1289,0.002425);
#43=CYLINDRICAL_SURFACE('',#1292,0.002425);
#44=CYLINDRICAL_SURFACE('',#1295,0.002425);
#45=CYLINDRICAL_SURFACE('',#1298,0.002425);
#46=CYLINDRICAL_SURFACE('',#1301,0.002425);
#47=CYLINDRICAL_SURFACE('',#1304,0.002425);
#48=ORIENTED_EDGE('',*,*,#384,.F.);
#49=ORIENTED_EDGE('',*,*,#385,.T.);
#50=ORIENTED_EDGE('',*,*,#386,.T.);
#51=ORIENTED_EDGE('',*,*,#387,.F.);
#52=ORIENTED_EDGE('',*,*,#388,.F.);
#53=ORIENTED_EDGE('',*,*,#389,.T.);
#54=ORIENTED_EDGE('',*,*,#390,.T.);
#55=ORIENTED_EDGE('',*,*,#391,.T.);
#56=ORIENTED_EDGE('',*,*,#392,.F.);
#57=ORIENTED_EDGE('',*,*,#393,.F.);
#58=ORIENTED_EDGE('',*,*,#394,.T.);
#59=ORIENTED_EDGE('',*,*,#395,.F.);
#60=ORIENTED_EDGE('',*,*,#396,.T.);
#61=ORIENTED_EDGE('',*,*,#397,.F.);
#62=ORIENTED_EDGE('',*,*,#398,.F.);
#63=ORIENTED_EDGE('',*,*,#399,.T.);
#64=ORIENTED_EDGE('',*,*,#400,.T.);
#65=ORIENTED_EDGE('',*,*,#401,.F.);
#66=ORIENTED_EDGE('',*,*,#402,.T.);
#67=ORIENTED_EDGE('',*,*,#403,.F.);
#68=ORIENTED_EDGE('',*,*,#404,.T.);
#69=ORIENTED_EDGE('',*,*,#405,.F.);
#70=ORIENTED_EDGE('',*,*,#406,.T.);
#71=ORIENTED_EDGE('',*,*,#407,.F.);
#72=ORIENTED_EDGE('',*,*,#408,.T.);
#73=ORIENTED_EDGE('',*,*,#409,.F.);
#74=ORIENTED_EDGE('',*,*,#410,.T.);
#75=ORIENTED_EDGE('',*,*,#411,.F.);
#76=ORIENTED_EDGE('',*,*,#412,.T.);
#77=ORIENTED_EDGE('',*,*,#413,.F.);
#78=ORIENTED_EDGE('',*,*,#414,.T.);
#79=ORIENTED_EDGE('',*,*,#415,.F.);
#80=ORIENTED_EDGE('',*,*,#416,.T.);
#81=ORIENTED_EDGE('',*,*,#417,.F.);
#82=ORIENTED_EDGE('',*,*,#418,.F.);
#83=ORIENTED_EDGE('',*,*,#419,.F.);
#84=ORIENTED_EDGE('',*,*,#420,.T.);
#85=ORIENTED_EDGE('',*,*,#421,.T.);
#86=ORIENTED_EDGE('',*,*,#422,.F.);
#87=ORIENTED_EDGE('',*,*,#423,.F.);
#88=ORIENTED_EDGE('',*,*,#424,.T.);
#89=ORIENTED_EDGE('',*,*,#425,.T.);
#90=ORIENTED_EDGE('',*,*,#426,.F.);
#91=ORIENTED_EDGE('',*,*,#427,.F.);
#92=ORIENTED_EDGE('',*,*,#428,.T.);
#93=ORIENTED_EDGE('',*,*,#429,.T.);
#94=ORIENTED_EDGE('',*,*,#430,.F.);
#95=ORIENTED_EDGE('',*,*,#431,.F.);
#96=ORIENTED_EDGE('',*,*,#432,.T.);
#97=ORIENTED_EDGE('',*,*,#433,.T.);
#98=ORIENTED_EDGE('',*,*,#398,.T.);
#99=ORIENTED_EDGE('',*,*,#434,.F.);
#100=ORIENTED_EDGE('',*,*,#435,.F.);
#101=ORIENTED_EDGE('',*,*,#436,.T.);
#102=ORIENTED_EDGE('',*,*,#385,.F.);
#103=ORIENTED_EDGE('',*,*,#437,.T.);
#104=ORIENTED_EDGE('',*,*,#388,.T.);
#105=ORIENTED_EDGE('',*,*,#438,.T.);
#106=ORIENTED_EDGE('',*,*,#439,.T.);
#107=ORIENTED_EDGE('',*,*,#440,.F.);
#108=ORIENTED_EDGE('',*,*,#393,.T.);
#109=ORIENTED_EDGE('',*,*,#441,.F.);
#110=ORIENTED_EDGE('',*,*,#442,.T.);
#111=ORIENTED_EDGE('',*,*,#443,.T.);
#112=ORIENTED_EDGE('',*,*,#444,.T.);
#113=ORIENTED_EDGE('',*,*,#445,.T.);
#114=ORIENTED_EDGE('',*,*,#446,.T.);
#115=ORIENTED_EDGE('',*,*,#447,.T.);
#116=ORIENTED_EDGE('',*,*,#448,.T.);
#117=ORIENTED_EDGE('',*,*,#449,.T.);
#118=ORIENTED_EDGE('',*,*,#450,.T.);
#119=ORIENTED_EDGE('',*,*,#451,.T.);
#120=ORIENTED_EDGE('',*,*,#452,.F.);
#121=ORIENTED_EDGE('',*,*,#453,.T.);
#122=ORIENTED_EDGE('',*,*,#454,.T.);
#123=ORIENTED_EDGE('',*,*,#455,.F.);
#124=ORIENTED_EDGE('',*,*,#456,.F.);
#125=ORIENTED_EDGE('',*,*,#457,.T.);
#126=ORIENTED_EDGE('',*,*,#458,.T.);
#127=ORIENTED_EDGE('',*,*,#459,.F.);
#128=ORIENTED_EDGE('',*,*,#460,.F.);
#129=ORIENTED_EDGE('',*,*,#461,.T.);
#130=ORIENTED_EDGE('',*,*,#462,.F.);
#131=ORIENTED_EDGE('',*,*,#463,.F.);
#132=ORIENTED_EDGE('',*,*,#414,.F.);
#133=ORIENTED_EDGE('',*,*,#416,.F.);
#134=ORIENTED_EDGE('',*,*,#402,.F.);
#135=ORIENTED_EDGE('',*,*,#404,.F.);
#136=ORIENTED_EDGE('',*,*,#406,.F.);
#137=ORIENTED_EDGE('',*,*,#408,.F.);
#138=ORIENTED_EDGE('',*,*,#410,.F.);
#139=ORIENTED_EDGE('',*,*,#412,.F.);
#140=ORIENTED_EDGE('',*,*,#464,.T.);
#141=ORIENTED_EDGE('',*,*,#465,.T.);
#142=ORIENTED_EDGE('',*,*,#466,.F.);
#143=ORIENTED_EDGE('',*,*,#442,.F.);
#144=ORIENTED_EDGE('',*,*,#466,.T.);
#145=ORIENTED_EDGE('',*,*,#467,.T.);
#146=ORIENTED_EDGE('',*,*,#468,.F.);
#147=ORIENTED_EDGE('',*,*,#443,.F.);
#148=ORIENTED_EDGE('',*,*,#468,.T.);
#149=ORIENTED_EDGE('',*,*,#469,.T.);
#150=ORIENTED_EDGE('',*,*,#470,.F.);
#151=ORIENTED_EDGE('',*,*,#444,.F.);
#152=ORIENTED_EDGE('',*,*,#470,.T.);
#153=ORIENTED_EDGE('',*,*,#471,.T.);
#154=ORIENTED_EDGE('',*,*,#472,.F.);
#155=ORIENTED_EDGE('',*,*,#445,.F.);
#156=ORIENTED_EDGE('',*,*,#472,.T.);
#157=ORIENTED_EDGE('',*,*,#473,.T.);
#158=ORIENTED_EDGE('',*,*,#474,.F.);
#159=ORIENTED_EDGE('',*,*,#446,.F.);
#160=ORIENTED_EDGE('',*,*,#474,.T.);
#161=ORIENTED_EDGE('',*,*,#475,.T.);
#162=ORIENTED_EDGE('',*,*,#476,.F.);
#163=ORIENTED_EDGE('',*,*,#447,.F.);
#164=ORIENTED_EDGE('',*,*,#476,.T.);
#165=ORIENTED_EDGE('',*,*,#477,.T.);
#166=ORIENTED_EDGE('',*,*,#478,.F.);
#167=ORIENTED_EDGE('',*,*,#448,.F.);
#168=ORIENTED_EDGE('',*,*,#478,.T.);
#169=ORIENTED_EDGE('',*,*,#479,.T.);
#170=ORIENTED_EDGE('',*,*,#480,.F.);
#171=ORIENTED_EDGE('',*,*,#449,.F.);
#172=ORIENTED_EDGE('',*,*,#480,.T.);
#173=ORIENTED_EDGE('',*,*,#481,.T.);
#174=ORIENTED_EDGE('',*,*,#482,.F.);
#175=ORIENTED_EDGE('',*,*,#450,.F.);
#176=ORIENTED_EDGE('',*,*,#483,.T.);
#177=ORIENTED_EDGE('',*,*,#484,.F.);
#178=ORIENTED_EDGE('',*,*,#485,.F.);
#179=ORIENTED_EDGE('',*,*,#452,.T.);
#180=ORIENTED_EDGE('',*,*,#485,.T.);
#181=ORIENTED_EDGE('',*,*,#486,.T.);
#182=ORIENTED_EDGE('',*,*,#487,.F.);
#183=ORIENTED_EDGE('',*,*,#453,.F.);
#184=ORIENTED_EDGE('',*,*,#487,.T.);
#185=ORIENTED_EDGE('',*,*,#488,.T.);
#186=ORIENTED_EDGE('',*,*,#489,.F.);
#187=ORIENTED_EDGE('',*,*,#454,.F.);
#188=ORIENTED_EDGE('',*,*,#490,.T.);
#189=ORIENTED_EDGE('',*,*,#491,.F.);
#190=ORIENTED_EDGE('',*,*,#492,.F.);
#191=ORIENTED_EDGE('',*,*,#456,.T.);
#192=ORIENTED_EDGE('',*,*,#492,.T.);
#193=ORIENTED_EDGE('',*,*,#493,.T.);
#194=ORIENTED_EDGE('',*,*,#494,.F.);
#195=ORIENTED_EDGE('',*,*,#457,.F.);
#196=ORIENTED_EDGE('',*,*,#494,.T.);
#197=ORIENTED_EDGE('',*,*,#495,.T.);
#198=ORIENTED_EDGE('',*,*,#496,.F.);
#199=ORIENTED_EDGE('',*,*,#458,.F.);
#200=ORIENTED_EDGE('',*,*,#497,.T.);
#201=ORIENTED_EDGE('',*,*,#498,.F.);
#202=ORIENTED_EDGE('',*,*,#499,.F.);
#203=ORIENTED_EDGE('',*,*,#460,.T.);
#204=ORIENTED_EDGE('',*,*,#499,.T.);
#205=ORIENTED_EDGE('',*,*,#500,.T.);
#206=ORIENTED_EDGE('',*,*,#501,.F.);
#207=ORIENTED_EDGE('',*,*,#461,.F.);
#208=ORIENTED_EDGE('',*,*,#501,.T.);
#209=ORIENTED_EDGE('',*,*,#502,.F.);
#210=ORIENTED_EDGE('',*,*,#503,.F.);
#211=ORIENTED_EDGE('',*,*,#462,.T.);
#212=ORIENTED_EDGE('',*,*,#504,.T.);
#213=ORIENTED_EDGE('',*,*,#505,.F.);
#214=ORIENTED_EDGE('',*,*,#506,.F.);
#215=ORIENTED_EDGE('',*,*,#435,.T.);
#216=ORIENTED_EDGE('',*,*,#506,.T.);
#217=ORIENTED_EDGE('',*,*,#507,.T.);
#218=ORIENTED_EDGE('',*,*,#386,.F.);
#219=ORIENTED_EDGE('',*,*,#436,.F.);
#220=ORIENTED_EDGE('',*,*,#384,.T.);
#221=ORIENTED_EDGE('',*,*,#508,.T.);
#222=ORIENTED_EDGE('',*,*,#389,.F.);
#223=ORIENTED_EDGE('',*,*,#437,.F.);
#224=ORIENTED_EDGE('',*,*,#392,.T.);
#225=ORIENTED_EDGE('',*,*,#391,.F.);
#226=ORIENTED_EDGE('',*,*,#509,.T.);
#227=ORIENTED_EDGE('',*,*,#510,.F.);
#228=ORIENTED_EDGE('',*,*,#438,.F.);
#229=ORIENTED_EDGE('',*,*,#510,.T.);
#230=ORIENTED_EDGE('',*,*,#511,.T.);
#231=ORIENTED_EDGE('',*,*,#512,.F.);
#232=ORIENTED_EDGE('',*,*,#439,.F.);
#233=ORIENTED_EDGE('',*,*,#512,.T.);
#234=ORIENTED_EDGE('',*,*,#513,.F.);
#235=ORIENTED_EDGE('',*,*,#395,.T.);
#236=ORIENTED_EDGE('',*,*,#394,.F.);
#237=ORIENTED_EDGE('',*,*,#440,.T.);
#238=ORIENTED_EDGE('',*,*,#397,.T.);
#239=ORIENTED_EDGE('',*,*,#514,.F.);
#240=ORIENTED_EDGE('',*,*,#399,.F.);
#241=ORIENTED_EDGE('',*,*,#441,.T.);
#242=ORIENTED_EDGE('',*,*,#489,.T.);
#243=ORIENTED_EDGE('',*,*,#515,.F.);
#244=ORIENTED_EDGE('',*,*,#483,.F.);
#245=ORIENTED_EDGE('',*,*,#455,.T.);
#246=ORIENTED_EDGE('',*,*,#496,.T.);
#247=ORIENTED_EDGE('',*,*,#516,.F.);
#248=ORIENTED_EDGE('',*,*,#490,.F.);
#249=ORIENTED_EDGE('',*,*,#459,.T.);
#250=ORIENTED_EDGE('',*,*,#503,.T.);
#251=ORIENTED_EDGE('',*,*,#517,.F.);
#252=ORIENTED_EDGE('',*,*,#497,.F.);
#253=ORIENTED_EDGE('',*,*,#463,.T.);
#254=ORIENTED_EDGE('',*,*,#401,.T.);
#255=ORIENTED_EDGE('',*,*,#518,.F.);
#256=ORIENTED_EDGE('',*,*,#504,.F.);
#257=ORIENTED_EDGE('',*,*,#434,.T.);
#258=ORIENTED_EDGE('',*,*,#482,.T.);
#259=ORIENTED_EDGE('',*,*,#519,.T.);
#260=ORIENTED_EDGE('',*,*,#464,.F.);
#261=ORIENTED_EDGE('',*,*,#451,.F.);
#262=ORIENTED_EDGE('',*,*,#430,.T.);
#263=ORIENTED_EDGE('',*,*,#520,.T.);
#264=ORIENTED_EDGE('',*,*,#521,.T.);
#265=ORIENTED_EDGE('',*,*,#522,.F.);
#266=ORIENTED_EDGE('',*,*,#523,.T.);
#267=ORIENTED_EDGE('',*,*,#524,.F.);
#268=ORIENTED_EDGE('',*,*,#520,.F.);
#269=ORIENTED_EDGE('',*,*,#433,.F.);
#270=ORIENTED_EDGE('',*,*,#525,.T.);
#271=ORIENTED_EDGE('',*,*,#526,.F.);
#272=ORIENTED_EDGE('',*,*,#523,.F.);
#273=ORIENTED_EDGE('',*,*,#432,.F.);
#274=ORIENTED_EDGE('',*,*,#431,.T.);
#275=ORIENTED_EDGE('',*,*,#522,.T.);
#276=ORIENTED_EDGE('',*,*,#527,.T.);
#277=ORIENTED_EDGE('',*,*,#525,.F.);
#278=ORIENTED_EDGE('',*,*,#426,.T.);
#279=ORIENTED_EDGE('',*,*,#528,.T.);
#280=ORIENTED_EDGE('',*,*,#529,.T.);
#281=ORIENTED_EDGE('',*,*,#530,.F.);
#282=ORIENTED_EDGE('',*,*,#531,.T.);
#283=ORIENTED_EDGE('',*,*,#532,.F.);
#284=ORIENTED_EDGE('',*,*,#528,.F.);
#285=ORIENTED_EDGE('',*,*,#429,.F.);
#286=ORIENTED_EDGE('',*,*,#533,.T.);
#287=ORIENTED_EDGE('',*,*,#534,.F.);
#288=ORIENTED_EDGE('',*,*,#531,.F.);
#289=ORIENTED_EDGE('',*,*,#428,.F.);
#290=ORIENTED_EDGE('',*,*,#427,.T.);
#291=ORIENTED_EDGE('',*,*,#530,.T.);
#292=ORIENTED_EDGE('',*,*,#535,.T.);
#293=ORIENTED_EDGE('',*,*,#533,.F.);
#294=ORIENTED_EDGE('',*,*,#422,.T.);
#295=ORIENTED_EDGE('',*,*,#536,.T.);
#296=ORIENTED_EDGE('',*,*,#537,.T.);
#297=ORIENTED_EDGE('',*,*,#538,.F.);
#298=ORIENTED_EDGE('',*,*,#539,.T.);
#299=ORIENTED_EDGE('',*,*,#540,.F.);
#300=ORIENTED_EDGE('',*,*,#536,.F.);
#301=ORIENTED_EDGE('',*,*,#425,.F.);
#302=ORIENTED_EDGE('',*,*,#541,.T.);
#303=ORIENTED_EDGE('',*,*,#542,.F.);
#304=ORIENTED_EDGE('',*,*,#539,.F.);
#305=ORIENTED_EDGE('',*,*,#424,.F.);
#306=ORIENTED_EDGE('',*,*,#423,.T.);
#307=ORIENTED_EDGE('',*,*,#538,.T.);
#308=ORIENTED_EDGE('',*,*,#543,.T.);
#309=ORIENTED_EDGE('',*,*,#541,.F.);
#310=ORIENTED_EDGE('',*,*,#418,.T.);
#311=ORIENTED_EDGE('',*,*,#544,.T.);
#312=ORIENTED_EDGE('',*,*,#545,.T.);
#313=ORIENTED_EDGE('',*,*,#546,.F.);
#314=ORIENTED_EDGE('',*,*,#547,.T.);
#315=ORIENTED_EDGE('',*,*,#548,.F.);
#316=ORIENTED_EDGE('',*,*,#544,.F.);
#317=ORIENTED_EDGE('',*,*,#421,.F.);
#318=ORIENTED_EDGE('',*,*,#549,.T.);
#319=ORIENTED_EDGE('',*,*,#550,.F.);
#320=ORIENTED_EDGE('',*,*,#547,.F.);
#321=ORIENTED_EDGE('',*,*,#420,.F.);
#322=ORIENTED_EDGE('',*,*,#419,.T.);
#323=ORIENTED_EDGE('',*,*,#546,.T.);
#324=ORIENTED_EDGE('',*,*,#551,.T.);
#325=ORIENTED_EDGE('',*,*,#549,.F.);
#326=ORIENTED_EDGE('',*,*,#551,.F.);
#327=ORIENTED_EDGE('',*,*,#545,.F.);
#328=ORIENTED_EDGE('',*,*,#548,.T.);
#329=ORIENTED_EDGE('',*,*,#550,.T.);
#330=ORIENTED_EDGE('',*,*,#543,.F.);
#331=ORIENTED_EDGE('',*,*,#537,.F.);
#332=ORIENTED_EDGE('',*,*,#540,.T.);
#333=ORIENTED_EDGE('',*,*,#542,.T.);
#334=ORIENTED_EDGE('',*,*,#535,.F.);
#335=ORIENTED_EDGE('',*,*,#529,.F.);
#336=ORIENTED_EDGE('',*,*,#532,.T.);
#337=ORIENTED_EDGE('',*,*,#534,.T.);
#338=ORIENTED_EDGE('',*,*,#527,.F.);
#339=ORIENTED_EDGE('',*,*,#521,.F.);
#340=ORIENTED_EDGE('',*,*,#524,.T.);
#341=ORIENTED_EDGE('',*,*,#526,.T.);
#342=ORIENTED_EDGE('',*,*,#515,.T.);
#343=ORIENTED_EDGE('',*,*,#488,.F.);
#344=ORIENTED_EDGE('',*,*,#486,.F.);
#345=ORIENTED_EDGE('',*,*,#484,.T.);
#346=ORIENTED_EDGE('',*,*,#405,.T.);
#347=ORIENTED_EDGE('',*,*,#403,.T.);
#348=ORIENTED_EDGE('',*,*,#407,.T.);
#349=ORIENTED_EDGE('',*,*,#409,.T.);
#350=ORIENTED_EDGE('',*,*,#411,.T.);
#351=ORIENTED_EDGE('',*,*,#413,.T.);
#352=ORIENTED_EDGE('',*,*,#465,.F.);
#353=ORIENTED_EDGE('',*,*,#519,.F.);
#354=ORIENTED_EDGE('',*,*,#481,.F.);
#355=ORIENTED_EDGE('',*,*,#479,.F.);
#356=ORIENTED_EDGE('',*,*,#477,.F.);
#357=ORIENTED_EDGE('',*,*,#475,.F.);
#358=ORIENTED_EDGE('',*,*,#473,.F.);
#359=ORIENTED_EDGE('',*,*,#471,.F.);
#360=ORIENTED_EDGE('',*,*,#469,.F.);
#361=ORIENTED_EDGE('',*,*,#467,.F.);
#362=ORIENTED_EDGE('',*,*,#498,.T.);
#363=ORIENTED_EDGE('',*,*,#517,.T.);
#364=ORIENTED_EDGE('',*,*,#502,.T.);
#365=ORIENTED_EDGE('',*,*,#500,.F.);
#366=ORIENTED_EDGE('',*,*,#415,.T.);
#367=ORIENTED_EDGE('',*,*,#417,.T.);
#368=ORIENTED_EDGE('',*,*,#513,.T.);
#369=ORIENTED_EDGE('',*,*,#511,.F.);
#370=ORIENTED_EDGE('',*,*,#509,.F.);
#371=ORIENTED_EDGE('',*,*,#390,.F.);
#372=ORIENTED_EDGE('',*,*,#508,.F.);
#373=ORIENTED_EDGE('',*,*,#387,.T.);
#374=ORIENTED_EDGE('',*,*,#507,.F.);
#375=ORIENTED_EDGE('',*,*,#505,.T.);
#376=ORIENTED_EDGE('',*,*,#518,.T.);
#377=ORIENTED_EDGE('',*,*,#400,.F.);
#378=ORIENTED_EDGE('',*,*,#514,.T.);
#379=ORIENTED_EDGE('',*,*,#396,.F.);
#380=ORIENTED_EDGE('',*,*,#491,.T.);
#381=ORIENTED_EDGE('',*,*,#516,.T.);
#382=ORIENTED_EDGE('',*,*,#495,.F.);
#383=ORIENTED_EDGE('',*,*,#493,.F.);
#384=EDGE_CURVE('',#552,#553,#670,.T.);
#385=EDGE_CURVE('',#552,#554,#671,.T.);
#386=EDGE_CURVE('',#554,#555,#672,.T.);
#387=EDGE_CURVE('',#553,#555,#673,.T.);
#388=EDGE_CURVE('',#556,#557,#674,.T.);
#389=EDGE_CURVE('',#556,#558,#675,.T.);
#390=EDGE_CURVE('',#558,#559,#676,.T.);
#391=EDGE_CURVE('',#559,#560,#677,.T.);
#392=EDGE_CURVE('',#557,#560,#678,.T.);
#393=EDGE_CURVE('',#561,#562,#679,.T.);
#394=EDGE_CURVE('',#561,#563,#680,.T.);
#395=EDGE_CURVE('',#564,#563,#681,.T.);
#396=EDGE_CURVE('',#564,#565,#682,.T.);
#397=EDGE_CURVE('',#562,#565,#683,.T.);
#398=EDGE_CURVE('',#566,#567,#684,.T.);
#399=EDGE_CURVE('',#566,#568,#685,.T.);
#400=EDGE_CURVE('',#568,#569,#686,.T.);
#401=EDGE_CURVE('',#567,#569,#687,.T.);
#402=EDGE_CURVE('',#570,#570,#24,.T.);
#403=EDGE_CURVE('',#571,#571,#25,.T.);
#404=EDGE_CURVE('',#572,#572,#26,.T.);
#405=EDGE_CURVE('',#573,#573,#27,.T.);
#406=EDGE_CURVE('',#574,#574,#28,.T.);
#407=EDGE_CURVE('',#575,#575,#29,.T.);
#408=EDGE_CURVE('',#576,#576,#30,.T.);
#409=EDGE_CURVE('',#577,#577,#31,.T.);
#410=EDGE_CURVE('',#578,#578,#32,.T.);
#411=EDGE_CURVE('',#579,#579,#33,.T.);
#412=EDGE_CURVE('',#580,#580,#34,.T.);
#413=EDGE_CURVE('',#581,#581,#35,.T.);
#414=EDGE_CURVE('',#582,#582,#36,.T.);
#415=EDGE_CURVE('',#583,#583,#37,.T.);
#416=EDGE_CURVE('',#584,#584,#38,.T.);
#417=EDGE_CURVE('',#585,#585,#39,.T.);
#418=EDGE_CURVE('',#586,#587,#688,.T.);
#419=EDGE_CURVE('',#588,#586,#689,.T.);
#420=EDGE_CURVE('',#588,#589,#690,.T.);
#421=EDGE_CURVE('',#589,#587,#691,.T.);
#422=EDGE_CURVE('',#590,#591,#692,.T.);
#423=EDGE_CURVE('',#592,#590,#693,.T.);
#424=EDGE_CURVE('',#592,#593,#694,.T.);
#425=EDGE_CURVE('',#593,#591,#695,.T.);
#426=EDGE_CURVE('',#594,#595,#696,.T.);
#427=EDGE_CURVE('',#596,#594,#697,.T.);
#428=EDGE_CURVE('',#596,#597,#698,.T.);
#429=EDGE_CURVE('',#597,#595,#699,.T.);
#430=EDGE_CURVE('',#598,#599,#700,.T.);
#431=EDGE_CURVE('',#600,#598,#701,.T.);
#432=EDGE_CURVE('',#600,#601,#702,.T.);
#433=EDGE_CURVE('',#601,#599,#703,.T.);
#434=EDGE_CURVE('',#602,#567,#704,.T.);
#435=EDGE_CURVE('',#603,#602,#705,.T.);
#436=EDGE_CURVE('',#603,#554,#706,.T.);
#437=EDGE_CURVE('',#552,#556,#707,.T.);
#438=EDGE_CURVE('',#557,#604,#708,.T.);
#439=EDGE_CURVE('',#604,#605,#709,.T.);
#440=EDGE_CURVE('',#561,#605,#710,.T.);
#441=EDGE_CURVE('',#566,#562,#711,.T.);
#442=EDGE_CURVE('',#606,#607,#712,.T.);
#443=EDGE_CURVE('',#607,#608,#16,.T.);
#444=EDGE_CURVE('',#608,#609,#713,.T.);
#445=EDGE_CURVE('',#609,#610,#17,.T.);
#446=EDGE_CURVE('',#610,#611,#714,.T.);
#447=EDGE_CURVE('',#611,#612,#18,.T.);
#448=EDGE_CURVE('',#612,#613,#715,.T.);
#449=EDGE_CURVE('',#613,#614,#19,.T.);
#450=EDGE_CURVE('',#614,#615,#716,.T.);
#451=EDGE_CURVE('',#615,#606,#717,.T.);
#452=EDGE_CURVE('',#616,#617,#718,.T.);
#453=EDGE_CURVE('',#616,#618,#719,.T.);
#454=EDGE_CURVE('',#618,#619,#720,.T.);
#455=EDGE_CURVE('',#617,#619,#721,.T.);
#456=EDGE_CURVE('',#620,#621,#722,.T.);
#457=EDGE_CURVE('',#620,#622,#723,.T.);
#458=EDGE_CURVE('',#622,#623,#724,.T.);
#459=EDGE_CURVE('',#621,#623,#725,.T.);
#460=EDGE_CURVE('',#624,#625,#726,.T.);
#461=EDGE_CURVE('',#624,#626,#727,.T.);
#462=EDGE_CURVE('',#627,#626,#728,.T.);
#463=EDGE_CURVE('',#625,#627,#729,.T.);
#464=EDGE_CURVE('',#606,#628,#730,.T.);
#465=EDGE_CURVE('',#628,#629,#731,.T.);
#466=EDGE_CURVE('',#607,#629,#732,.T.);
#467=EDGE_CURVE('',#629,#630,#20,.T.);
#468=EDGE_CURVE('',#608,#630,#733,.T.);
#469=EDGE_CURVE('',#630,#631,#734,.T.);
#470=EDGE_CURVE('',#609,#631,#735,.T.);
#471=EDGE_CURVE('',#631,#632,#21,.T.);
#472=EDGE_CURVE('',#610,#632,#736,.T.);
#473=EDGE_CURVE('',#632,#633,#737,.T.);
#474=EDGE_CURVE('',#611,#633,#738,.T.);
#475=EDGE_CURVE('',#633,#634,#22,.T.);
#476=EDGE_CURVE('',#612,#634,#739,.T.);
#477=EDGE_CURVE('',#634,#635,#740,.T.);
#478=EDGE_CURVE('',#613,#635,#741,.T.);
#479=EDGE_CURVE('',#635,#636,#23,.T.);
#480=EDGE_CURVE('',#614,#636,#742,.T.);
#481=EDGE_CURVE('',#636,#637,#743,.T.);
#482=EDGE_CURVE('',#615,#637,#744,.T.);
#483=EDGE_CURVE('',#617,#638,#745,.T.);
#484=EDGE_CURVE('',#639,#638,#746,.T.);
#485=EDGE_CURVE('',#616,#639,#747,.T.);
#486=EDGE_CURVE('',#639,#640,#748,.T.);
#487=EDGE_CURVE('',#618,#640,#749,.T.);
#488=EDGE_CURVE('',#640,#641,#750,.T.);
#489=EDGE_CURVE('',#619,#641,#751,.T.);
#490=EDGE_CURVE('',#621,#642,#752,.T.);
#491=EDGE_CURVE('',#643,#642,#753,.T.);
#492=EDGE_CURVE('',#620,#643,#754,.T.);
#493=EDGE_CURVE('',#643,#644,#755,.T.);
#494=EDGE_CURVE('',#622,#644,#756,.T.);
#495=EDGE_CURVE('',#644,#645,#757,.T.);
#496=EDGE_CURVE('',#623,#645,#758,.T.);
#497=EDGE_CURVE('',#625,#646,#759,.T.);
#498=EDGE_CURVE('',#647,#646,#760,.T.);
#499=EDGE_CURVE('',#624,#647,#761,.T.);
#500=EDGE_CURVE('',#647,#648,#762,.T.);
#501=EDGE_CURVE('',#626,#648,#763,.T.);
#502=EDGE_CURVE('',#649,#648,#764,.T.);
#503=EDGE_CURVE('',#627,#649,#765,.T.);
#504=EDGE_CURVE('',#602,#650,#766,.T.);
#505=EDGE_CURVE('',#651,#650,#767,.T.);
#506=EDGE_CURVE('',#603,#651,#768,.T.);
#507=EDGE_CURVE('',#651,#555,#769,.T.);
#508=EDGE_CURVE('',#553,#558,#770,.T.);
#509=EDGE_CURVE('',#559,#652,#771,.T.);
#510=EDGE_CURVE('',#604,#652,#772,.T.);
#511=EDGE_CURVE('',#652,#653,#773,.T.);
#512=EDGE_CURVE('',#605,#653,#774,.T.);
#513=EDGE_CURVE('',#564,#653,#775,.T.);
#514=EDGE_CURVE('',#568,#565,#776,.T.);
#515=EDGE_CURVE('',#638,#641,#777,.T.);
#516=EDGE_CURVE('',#642,#645,#778,.T.);
#517=EDGE_CURVE('',#646,#649,#779,.T.);
#518=EDGE_CURVE('',#650,#569,#780,.T.);
#519=EDGE_CURVE('',#637,#628,#781,.T.);
#520=EDGE_CURVE('',#599,#654,#782,.T.);
#521=EDGE_CURVE('',#654,#655,#783,.T.);
#522=EDGE_CURVE('',#598,#655,#784,.T.);
#523=EDGE_CURVE('',#601,#656,#785,.T.);
#524=EDGE_CURVE('',#654,#656,#786,.T.);
#525=EDGE_CURVE('',#600,#657,#787,.T.);
#526=EDGE_CURVE('',#656,#657,#788,.T.);
#527=EDGE_CURVE('',#655,#657,#789,.T.);
#528=EDGE_CURVE('',#595,#658,#790,.T.);
#529=EDGE_CURVE('',#658,#659,#791,.T.);
#530=EDGE_CURVE('',#594,#659,#792,.T.);
#531=EDGE_CURVE('',#597,#660,#793,.T.);
#532=EDGE_CURVE('',#658,#660,#794,.T.);
#533=EDGE_CURVE('',#596,#661,#795,.T.);
#534=EDGE_CURVE('',#660,#661,#796,.T.);
#535=EDGE_CURVE('',#659,#661,#797,.T.);
#536=EDGE_CURVE('',#591,#662,#798,.T.);
#537=EDGE_CURVE('',#662,#663,#799,.T.);
#538=EDGE_CURVE('',#590,#663,#800,.T.);
#539=EDGE_CURVE('',#593,#664,#801,.T.);
#540=EDGE_CURVE('',#662,#664,#802,.T.);
#541=EDGE_CURVE('',#592,#665,#803,.T.);
#542=EDGE_CURVE('',#664,#665,#804,.T.);
#543=EDGE_CURVE('',#663,#665,#805,.T.);
#544=EDGE_CURVE('',#587,#666,#806,.T.);
#545=EDGE_CURVE('',#666,#667,#807,.T.);
#546=EDGE_CURVE('',#586,#667,#808,.T.);
#547=EDGE_CURVE('',#589,#668,#809,.T.);
#548=EDGE_CURVE('',#666,#668,#810,.T.);
#549=EDGE_CURVE('',#588,#669,#811,.T.);
#550=EDGE_CURVE('',#668,#669,#812,.T.);
#551=EDGE_CURVE('',#667,#669,#813,.T.);
#552=VERTEX_POINT('',#1644);
#553=VERTEX_POINT('',#1645);
#554=VERTEX_POINT('',#1647);
#555=VERTEX_POINT('',#1649);
#556=VERTEX_POINT('',#1653);
#557=VERTEX_POINT('',#1654);
#558=VERTEX_POINT('',#1656);
#559=VERTEX_POINT('',#1658);
#560=VERTEX_POINT('',#1660);
#561=VERTEX_POINT('',#1664);
#562=VERTEX_POINT('',#1665);
#563=VERTEX_POINT('',#1667);
#564=VERTEX_POINT('',#1669);
#565=VERTEX_POINT('',#1671);
#566=VERTEX_POINT('',#1675);
#567=VERTEX_POINT('',#1676);
#568=VERTEX_POINT('',#1678);
#569=VERTEX_POINT('',#1680);
#570=VERTEX_POINT('',#1684);
#571=VERTEX_POINT('',#1686);
#572=VERTEX_POINT('',#1689);
#573=VERTEX_POINT('',#1691);
#574=VERTEX_POINT('',#1694);
#575=VERTEX_POINT('',#1696);
#576=VERTEX_POINT('',#1699);
#577=VERTEX_POINT('',#1701);
#578=VERTEX_POINT('',#1704);
#579=VERTEX_POINT('',#1706);
#580=VERTEX_POINT('',#1709);
#581=VERTEX_POINT('',#1711);
#582=VERTEX_POINT('',#1714);
#583=VERTEX_POINT('',#1716);
#584=VERTEX_POINT('',#1719);
#585=VERTEX_POINT('',#1721);
#586=VERTEX_POINT('',#1724);
#587=VERTEX_POINT('',#1725);
#588=VERTEX_POINT('',#1727);
#589=VERTEX_POINT('',#1729);
#590=VERTEX_POINT('',#1732);
#591=VERTEX_POINT('',#1733);
#592=VERTEX_POINT('',#1735);
#593=VERTEX_POINT('',#1737);
#594=VERTEX_POINT('',#1740);
#595=VERTEX_POINT('',#1741);
#596=VERTEX_POINT('',#1743);
#597=VERTEX_POINT('',#1745);
#598=VERTEX_POINT('',#1748);
#599=VERTEX_POINT('',#1749);
#600=VERTEX_POINT('',#1751);
#601=VERTEX_POINT('',#1753);
#602=VERTEX_POINT('',#1756);
#603=VERTEX_POINT('',#1758);
#604=VERTEX_POINT('',#1762);
#605=VERTEX_POINT('',#1764);
#606=VERTEX_POINT('',#1768);
#607=VERTEX_POINT('',#1769);
#608=VERTEX_POINT('',#1773);
#609=VERTEX_POINT('',#1775);
#610=VERTEX_POINT('',#1779);
#611=VERTEX_POINT('',#1781);
#612=VERTEX_POINT('',#1785);
#613=VERTEX_POINT('',#1787);
#614=VERTEX_POINT('',#1791);
#615=VERTEX_POINT('',#1793);
#616=VERTEX_POINT('',#1796);
#617=VERTEX_POINT('',#1797);
#618=VERTEX_POINT('',#1799);
#619=VERTEX_POINT('',#1801);
#620=VERTEX_POINT('',#1804);
#621=VERTEX_POINT('',#1805);
#622=VERTEX_POINT('',#1807);
#623=VERTEX_POINT('',#1809);
#624=VERTEX_POINT('',#1812);
#625=VERTEX_POINT('',#1813);
#626=VERTEX_POINT('',#1815);
#627=VERTEX_POINT('',#1817);
#628=VERTEX_POINT('',#1821);
#629=VERTEX_POINT('',#1823);
#630=VERTEX_POINT('',#1836);
#631=VERTEX_POINT('',#1840);
#632=VERTEX_POINT('',#1853);
#633=VERTEX_POINT('',#1857);
#634=VERTEX_POINT('',#1870);
#635=VERTEX_POINT('',#1874);
#636=VERTEX_POINT('',#1887);
#637=VERTEX_POINT('',#1891);
#638=VERTEX_POINT('',#1895);
#639=VERTEX_POINT('',#1897);
#640=VERTEX_POINT('',#1901);
#641=VERTEX_POINT('',#1905);
#642=VERTEX_POINT('',#1909);
#643=VERTEX_POINT('',#1911);
#644=VERTEX_POINT('',#1915);
#645=VERTEX_POINT('',#1919);
#646=VERTEX_POINT('',#1923);
#647=VERTEX_POINT('',#1925);
#648=VERTEX_POINT('',#1929);
#649=VERTEX_POINT('',#1933);
#650=VERTEX_POINT('',#1937);
#651=VERTEX_POINT('',#1939);
#652=VERTEX_POINT('',#1947);
#653=VERTEX_POINT('',#1951);
#654=VERTEX_POINT('',#1969);
#655=VERTEX_POINT('',#1971);
#656=VERTEX_POINT('',#1975);
#657=VERTEX_POINT('',#1979);
#658=VERTEX_POINT('',#1985);
#659=VERTEX_POINT('',#1987);
#660=VERTEX_POINT('',#1991);
#661=VERTEX_POINT('',#1995);
#662=VERTEX_POINT('',#2001);
#663=VERTEX_POINT('',#2003);
#664=VERTEX_POINT('',#2007);
#665=VERTEX_POINT('',#2011);
#666=VERTEX_POINT('',#2017);
#667=VERTEX_POINT('',#2019);
#668=VERTEX_POINT('',#2023);
#669=VERTEX_POINT('',#2027);
#670=LINE('',#1643,#814);
#671=LINE('',#1646,#815);
#672=LINE('',#1648,#816);
#673=LINE('',#1650,#817);
#674=LINE('',#1652,#818);
#675=LINE('',#1655,#819);
#676=LINE('',#1657,#820);
#677=LINE('',#1659,#821);
#678=LINE('',#1661,#822);
#679=LINE('',#1663,#823);
#680=LINE('',#1666,#824);
#681=LINE('',#1668,#825);
#682=LINE('',#1670,#826);
#683=LINE('',#1672,#827);
#684=LINE('',#1674,#828);
#685=LINE('',#1677,#829);
#686=LINE('',#1679,#830);
#687=LINE('',#1681,#831);
#688=LINE('',#1723,#832);
#689=LINE('',#1726,#833);
#690=LINE('',#1728,#834);
#691=LINE('',#1730,#835);
#692=LINE('',#1731,#836);
#693=LINE('',#1734,#837);
#694=LINE('',#1736,#838);
#695=LINE('',#1738,#839);
#696=LINE('',#1739,#840);
#697=LINE('',#1742,#841);
#698=LINE('',#1744,#842);
#699=LINE('',#1746,#843);
#700=LINE('',#1747,#844);
#701=LINE('',#1750,#845);
#702=LINE('',#1752,#846);
#703=LINE('',#1754,#847);
#704=LINE('',#1755,#848);
#705=LINE('',#1757,#849);
#706=LINE('',#1759,#850);
#707=LINE('',#1760,#851);
#708=LINE('',#1761,#852);
#709=LINE('',#1763,#853);
#710=LINE('',#1765,#854);
#711=LINE('',#1766,#855);
#712=LINE('',#1767,#856);
#713=LINE('',#1774,#857);
#714=LINE('',#1780,#858);
#715=LINE('',#1786,#859);
#716=LINE('',#1792,#860);
#717=LINE('',#1794,#861);
#718=LINE('',#1795,#862);
#719=LINE('',#1798,#863);
#720=LINE('',#1800,#864);
#721=LINE('',#1802,#865);
#722=LINE('',#1803,#866);
#723=LINE('',#1806,#867);
#724=LINE('',#1808,#868);
#725=LINE('',#1810,#869);
#726=LINE('',#1811,#870);
#727=LINE('',#1814,#871);
#728=LINE('',#1816,#872);
#729=LINE('',#1818,#873);
#730=LINE('',#1820,#874);
#731=LINE('',#1822,#875);
#732=LINE('',#1824,#876);
#733=LINE('',#1837,#877);
#734=LINE('',#1839,#878);
#735=LINE('',#1841,#879);
#736=LINE('',#1854,#880);
#737=LINE('',#1856,#881);
#738=LINE('',#1858,#882);
#739=LINE('',#1871,#883);
#740=LINE('',#1873,#884);
#741=LINE('',#1875,#885);
#742=LINE('',#1888,#886);
#743=LINE('',#1890,#887);
#744=LINE('',#1892,#888);
#745=LINE('',#1894,#889);
#746=LINE('',#1896,#890);
#747=LINE('',#1898,#891);
#748=LINE('',#1900,#892);
#749=LINE('',#1902,#893);
#750=LINE('',#1904,#894);
#751=LINE('',#1906,#895);
#752=LINE('',#1908,#896);
#753=LINE('',#1910,#897);
#754=LINE('',#1912,#898);
#755=LINE('',#1914,#899);
#756=LINE('',#1916,#900);
#757=LINE('',#1918,#901);
#758=LINE('',#1920,#902);
#759=LINE('',#1922,#903);
#760=LINE('',#1924,#904);
#761=LINE('',#1926,#905);
#762=LINE('',#1928,#906);
#763=LINE('',#1930,#907);
#764=LINE('',#1932,#908);
#765=LINE('',#1934,#909);
#766=LINE('',#1936,#910);
#767=LINE('',#1938,#911);
#768=LINE('',#1940,#912);
#769=LINE('',#1942,#913);
#770=LINE('',#1944,#914);
#771=LINE('',#1946,#915);
#772=LINE('',#1948,#916);
#773=LINE('',#1950,#917);
#774=LINE('',#1952,#918);
#775=LINE('',#1954,#919);
#776=LINE('',#1956,#920);
#777=LINE('',#1958,#921);
#778=LINE('',#1960,#922);
#779=LINE('',#1962,#923);
#780=LINE('',#1964,#924);
#781=LINE('',#1966,#925);
#782=LINE('',#1968,#926);
#783=LINE('',#1970,#927);
#784=LINE('',#1972,#928);
#785=LINE('',#1974,#929);
#786=LINE('',#1976,#930);
#787=LINE('',#1978,#931);
#788=LINE('',#1980,#932);
#789=LINE('',#1982,#933);
#790=LINE('',#1984,#934);
#791=LINE('',#1986,#935);
#792=LINE('',#1988,#936);
#793=LINE('',#1990,#937);
#794=LINE('',#1992,#938);
#795=LINE('',#1994,#939);
#796=LINE('',#1996,#940);
#797=LINE('',#1998,#941);
#798=LINE('',#2000,#942);
#799=LINE('',#2002,#943);
#800=LINE('',#2004,#944);
#801=LINE('',#2006,#945);
#802=LINE('',#2008,#946);
#803=LINE('',#2010,#947);
#804=LINE('',#2012,#948);
#805=LINE('',#2014,#949);
#806=LINE('',#2016,#950);
#807=LINE('',#2018,#951);
#808=LINE('',#2020,#952);
#809=LINE('',#2022,#953);
#810=LINE('',#2024,#954);
#811=LINE('',#2026,#955);
#812=LINE('',#2028,#956);
#813=LINE('',#2030,#957);
#814=VECTOR('',#1355,1.);
#815=VECTOR('',#1356,1.);
#816=VECTOR('',#1357,1.);
#817=VECTOR('',#1358,1.);
#818=VECTOR('',#1361,1.);
#819=VECTOR('',#1362,1.);
#820=VECTOR('',#1363,1.);
#821=VECTOR('',#1364,1.);
#822=VECTOR('',#1365,1.);
#823=VECTOR('',#1368,1.);
#824=VECTOR('',#1369,1.);
#825=VECTOR('',#1370,1.);
#826=VECTOR('',#1371,1.);
#827=VECTOR('',#1372,1.);
#828=VECTOR('',#1375,1.);
#829=VECTOR('',#1376,1.);
#830=VECTOR('',#1377,1.);
#831=VECTOR('',#1378,1.);
#832=VECTOR('',#1429,1.);
#833=VECTOR('',#1430,1.);
#834=VECTOR('',#1431,1.);
#835=VECTOR('',#1432,1.);
#836=VECTOR('',#1433,1.);
#837=VECTOR('',#1434,1.);
#838=VECTOR('',#1435,1.);
#839=VECTOR('',#1436,1.);
#840=VECTOR('',#1437,1.);
#841=VECTOR('',#1438,1.);
#842=VECTOR('',#1439,1.);
#843=VECTOR('',#1440,1.);
#844=VECTOR('',#1441,1.);
#845=VECTOR('',#1442,1.);
#846=VECTOR('',#1443,1.);
#847=VECTOR('',#1444,1.);
#848=VECTOR('',#1445,1.);
#849=VECTOR('',#1446,1.);
#850=VECTOR('',#1447,1.);
#851=VECTOR('',#1448,1.);
#852=VECTOR('',#1449,1.);
#853=VECTOR('',#1450,1.);
#854=VECTOR('',#1451,1.);
#855=VECTOR('',#1452,1.);
#856=VECTOR('',#1453,1.);
#857=VECTOR('',#1454,1.);
#858=VECTOR('',#1455,1.);
#859=VECTOR('',#1456,1.);
#860=VECTOR('',#1457,1.);
#861=VECTOR('',#1458,1.);
#862=VECTOR('',#1459,1.);
#863=VECTOR('',#1460,1.);
#864=VECTOR('',#1461,1.);
#865=VECTOR('',#1462,1.);
#866=VECTOR('',#1463,1.);
#867=VECTOR('',#1464,1.);
#868=VECTOR('',#1465,1.);
#869=VECTOR('',#1466,1.);
#870=VECTOR('',#1467,1.);
#871=VECTOR('',#1468,1.);
#872=VECTOR('',#1469,1.);
#873=VECTOR('',#1470,1.);
#874=VECTOR('',#1473,1.);
#875=VECTOR('',#1474,1.);
#876=VECTOR('',#1475,1.);
#877=VECTOR('',#1476,1.);
#878=VECTOR('',#1479,1.);
#879=VECTOR('',#1480,1.);
#880=VECTOR('',#1481,1.);
#881=VECTOR('',#1484,1.);
#882=VECTOR('',#1485,1.);
#883=VECTOR('',#1486,1.);
#884=VECTOR('',#1489,1.);
#885=VECTOR('',#1490,1.);
#886=VECTOR('',#1491,1.);
#887=VECTOR('',#1494,1.);
#888=VECTOR('',#1495,1.);
#889=VECTOR('',#1498,1.);
#890=VECTOR('',#1499,1.);
#891=VECTOR('',#1500,1.);
#892=VECTOR('',#1503,1.);
#893=VECTOR('',#1504,1.);
#894=VECTOR('',#1507,1.);
#895=VECTOR('',#1508,1.);
#896=VECTOR('',#1511,1.);
#897=VECTOR('',#1512,1.);
#898=VECTOR('',#1513,1.);
#899=VECTOR('',#1516,1.);
#900=VECTOR('',#1517,1.);
#901=VECTOR('',#1520,1.);
#902=VECTOR('',#1521,1.);
#903=VECTOR('',#1524,1.);
#904=VECTOR('',#1525,1.);
#905=VECTOR('',#1526,1.);
#906=VECTOR('',#1529,1.);
#907=VECTOR('',#1530,1.);
#908=VECTOR('',#1533,1.);
#909=VECTOR('',#1534,1.);
#910=VECTOR('',#1537,1.);
#911=VECTOR('',#1538,1.);
#912=VECTOR('',#1539,1.);
#913=VECTOR('',#1542,1.);
#914=VECTOR('',#1545,1.);
#915=VECTOR('',#1548,1.);
#916=VECTOR('',#1549,1.);
#917=VECTOR('',#1552,1.);
#918=VECTOR('',#1553,1.);
#919=VECTOR('',#1556,1.);
#920=VECTOR('',#1559,1.);
#921=VECTOR('',#1562,1.);
#922=VECTOR('',#1565,1.);
#923=VECTOR('',#1568,1.);
#924=VECTOR('',#1571,1.);
#925=VECTOR('',#1574,1.);
#926=VECTOR('',#1577,1.);
#927=VECTOR('',#1578,1.);
#928=VECTOR('',#1579,1.);
#929=VECTOR('',#1582,1.);
#930=VECTOR('',#1583,1.);
#931=VECTOR('',#1586,1.);
#932=VECTOR('',#1587,1.);
#933=VECTOR('',#1590,1.);
#934=VECTOR('',#1593,1.);
#935=VECTOR('',#1594,1.);
#936=VECTOR('',#1595,1.);
#937=VECTOR('',#1598,1.);
#938=VECTOR('',#1599,1.);
#939=VECTOR('',#1602,1.);
#940=VECTOR('',#1603,1.);
#941=VECTOR('',#1606,1.);
#942=VECTOR('',#1609,1.);
#943=VECTOR('',#1610,1.);
#944=VECTOR('',#1611,1.);
#945=VECTOR('',#1614,1.);
#946=VECTOR('',#1615,1.);
#947=VECTOR('',#1618,1.);
#948=VECTOR('',#1619,1.);
#949=VECTOR('',#1622,1.);
#950=VECTOR('',#1625,1.);
#951=VECTOR('',#1626,1.);
#952=VECTOR('',#1627,1.);
#953=VECTOR('',#1630,1.);
#954=VECTOR('',#1631,1.);
#955=VECTOR('',#1634,1.);
#956=VECTOR('',#1635,1.);
#957=VECTOR('',#1638,1.);
#958=EDGE_LOOP('',(#48,#49,#50,#51));
#959=EDGE_LOOP('',(#52,#53,#54,#55,#56));
#960=EDGE_LOOP('',(#57,#58,#59,#60,#61));
#961=EDGE_LOOP('',(#62,#63,#64,#65));
#962=EDGE_LOOP('',(#66));
#963=EDGE_LOOP('',(#67));
#964=EDGE_LOOP('',(#68));
#965=EDGE_LOOP('',(#69));
#966=EDGE_LOOP('',(#70));
#967=EDGE_LOOP('',(#71));
#968=EDGE_LOOP('',(#72));
#969=EDGE_LOOP('',(#73));
#970=EDGE_LOOP('',(#74));
#971=EDGE_LOOP('',(#75));
#972=EDGE_LOOP('',(#76));
#973=EDGE_LOOP('',(#77));
#974=EDGE_LOOP('',(#78));
#975=EDGE_LOOP('',(#79));
#976=EDGE_LOOP('',(#80));
#977=EDGE_LOOP('',(#81));
#978=EDGE_LOOP('',(#82,#83,#84,#85));
#979=EDGE_LOOP('',(#86,#87,#88,#89));
#980=EDGE_LOOP('',(#90,#91,#92,#93));
#981=EDGE_LOOP('',(#94,#95,#96,#97));
#982=EDGE_LOOP('',(#98,#99,#100,#101,#102,#103,#104,#105,#106,#107,#108,
#109));
#983=EDGE_LOOP('',(#110,#111,#112,#113,#114,#115,#116,#117,#118,#119));
#984=EDGE_LOOP('',(#120,#121,#122,#123));
#985=EDGE_LOOP('',(#124,#125,#126,#127));
#986=EDGE_LOOP('',(#128,#129,#130,#131));
#987=EDGE_LOOP('',(#132));
#988=EDGE_LOOP('',(#133));
#989=EDGE_LOOP('',(#134));
#990=EDGE_LOOP('',(#135));
#991=EDGE_LOOP('',(#136));
#992=EDGE_LOOP('',(#137));
#993=EDGE_LOOP('',(#138));
#994=EDGE_LOOP('',(#139));
#995=EDGE_LOOP('',(#140,#141,#142,#143));
#996=EDGE_LOOP('',(#144,#145,#146,#147));
#997=EDGE_LOOP('',(#148,#149,#150,#151));
#998=EDGE_LOOP('',(#152,#153,#154,#155));
#999=EDGE_LOOP('',(#156,#157,#158,#159));
#1000=EDGE_LOOP('',(#160,#161,#162,#163));
#1001=EDGE_LOOP('',(#164,#165,#166,#167));
#1002=EDGE_LOOP('',(#168,#169,#170,#171));
#1003=EDGE_LOOP('',(#172,#173,#174,#175));
#1004=EDGE_LOOP('',(#176,#177,#178,#179));
#1005=EDGE_LOOP('',(#180,#181,#182,#183));
#1006=EDGE_LOOP('',(#184,#185,#186,#187));
#1007=EDGE_LOOP('',(#188,#189,#190,#191));
#1008=EDGE_LOOP('',(#192,#193,#194,#195));
#1009=EDGE_LOOP('',(#196,#197,#198,#199));
#1010=EDGE_LOOP('',(#200,#201,#202,#203));
#1011=EDGE_LOOP('',(#204,#205,#206,#207));
#1012=EDGE_LOOP('',(#208,#209,#210,#211));
#1013=EDGE_LOOP('',(#212,#213,#214,#215));
#1014=EDGE_LOOP('',(#216,#217,#218,#219));
#1015=EDGE_LOOP('',(#220,#221,#222,#223));
#1016=EDGE_LOOP('',(#224,#225,#226,#227,#228));
#1017=EDGE_LOOP('',(#229,#230,#231,#232));
#1018=EDGE_LOOP('',(#233,#234,#235,#236,#237));
#1019=EDGE_LOOP('',(#238,#239,#240,#241));
#1020=EDGE_LOOP('',(#242,#243,#244,#245));
#1021=EDGE_LOOP('',(#246,#247,#248,#249));
#1022=EDGE_LOOP('',(#250,#251,#252,#253));
#1023=EDGE_LOOP('',(#254,#255,#256,#257));
#1024=EDGE_LOOP('',(#258,#259,#260,#261));
#1025=EDGE_LOOP('',(#262,#263,#264,#265));
#1026=EDGE_LOOP('',(#266,#267,#268,#269));
#1027=EDGE_LOOP('',(#270,#271,#272,#273));
#1028=EDGE_LOOP('',(#274,#275,#276,#277));
#1029=EDGE_LOOP('',(#278,#279,#280,#281));
#1030=EDGE_LOOP('',(#282,#283,#284,#285));
#1031=EDGE_LOOP('',(#286,#287,#288,#289));
#1032=EDGE_LOOP('',(#290,#291,#292,#293));
#1033=EDGE_LOOP('',(#294,#295,#296,#297));
#1034=EDGE_LOOP('',(#298,#299,#300,#301));
#1035=EDGE_LOOP('',(#302,#303,#304,#305));
#1036=EDGE_LOOP('',(#306,#307,#308,#309));
#1037=EDGE_LOOP('',(#310,#311,#312,#313));
#1038=EDGE_LOOP('',(#314,#315,#316,#317));
#1039=EDGE_LOOP('',(#318,#319,#320,#321));
#1040=EDGE_LOOP('',(#322,#323,#324,#325));
#1041=EDGE_LOOP('',(#326,#327,#328,#329));
#1042=EDGE_LOOP('',(#330,#331,#332,#333));
#1043=EDGE_LOOP('',(#334,#335,#336,#337));
#1044=EDGE_LOOP('',(#338,#339,#340,#341));
#1045=EDGE_LOOP('',(#342,#343,#344,#345));
#1046=EDGE_LOOP('',(#346));
#1047=EDGE_LOOP('',(#347));
#1048=EDGE_LOOP('',(#348));
#1049=EDGE_LOOP('',(#349));
#1050=EDGE_LOOP('',(#350));
#1051=EDGE_LOOP('',(#351));
#1052=EDGE_LOOP('',(#352,#353,#354,#355,#356,#357,#358,#359,#360,#361));
#1053=EDGE_LOOP('',(#362,#363,#364,#365));
#1054=EDGE_LOOP('',(#366));
#1055=EDGE_LOOP('',(#367));
#1056=EDGE_LOOP('',(#368,#369,#370,#371,#372,#373,#374,#375,#376,#377,#378,
#379));
#1057=EDGE_LOOP('',(#380,#381,#382,#383));
#1058=FACE_BOUND('',#958,.T.);
#1059=FACE_BOUND('',#959,.T.);
#1060=FACE_BOUND('',#960,.T.);
#1061=FACE_BOUND('',#961,.T.);
#1062=FACE_BOUND('',#962,.T.);
#1063=FACE_BOUND('',#963,.T.);
#1064=FACE_BOUND('',#964,.T.);
#1065=FACE_BOUND('',#965,.T.);
#1066=FACE_BOUND('',#966,.T.);
#1067=FACE_BOUND('',#967,.T.);
#1068=FACE_BOUND('',#968,.T.);
#1069=FACE_BOUND('',#969,.T.);
#1070=FACE_BOUND('',#970,.T.);
#1071=FACE_BOUND('',#971,.T.);
#1072=FACE_BOUND('',#972,.T.);
#1073=FACE_BOUND('',#973,.T.);
#1074=FACE_BOUND('',#974,.T.);
#1075=FACE_BOUND('',#975,.T.);
#1076=FACE_BOUND('',#976,.T.);
#1077=FACE_BOUND('',#977,.T.);
#1078=FACE_BOUND('',#978,.T.);
#1079=FACE_BOUND('',#979,.T.);
#1080=FACE_BOUND('',#980,.T.);
#1081=FACE_BOUND('',#981,.T.);
#1082=FACE_BOUND('',#982,.T.);
#1083=FACE_BOUND('',#983,.T.);
#1084=FACE_BOUND('',#984,.T.);
#1085=FACE_BOUND('',#985,.T.);
#1086=FACE_BOUND('',#986,.T.);
#1087=FACE_BOUND('',#987,.T.);
#1088=FACE_BOUND('',#988,.T.);
#1089=FACE_BOUND('',#989,.T.);
#1090=FACE_BOUND('',#990,.T.);
#1091=FACE_BOUND('',#991,.T.);
#1092=FACE_BOUND('',#992,.T.);
#1093=FACE_BOUND('',#993,.T.);
#1094=FACE_BOUND('',#994,.T.);
#1095=FACE_BOUND('',#995,.T.);
#1096=FACE_BOUND('',#996,.T.);
#1097=FACE_BOUND('',#997,.T.);
#1098=FACE_BOUND('',#998,.T.);
#1099=FACE_BOUND('',#999,.T.);
#1100=FACE_BOUND('',#1000,.T.);
#1101=FACE_BOUND('',#1001,.T.);
#1102=FACE_BOUND('',#1002,.T.);
#1103=FACE_BOUND('',#1003,.T.);
#1104=FACE_BOUND('',#1004,.T.);
#1105=FACE_BOUND('',#1005,.T.);
#1106=FACE_BOUND('',#1006,.T.);
#1107=FACE_BOUND('',#1007,.T.);
#1108=FACE_BOUND('',#1008,.T.);
#1109=FACE_BOUND('',#1009,.T.);
#1110=FACE_BOUND('',#1010,.T.);
#1111=FACE_BOUND('',#1011,.T.);
#1112=FACE_BOUND('',#1012,.T.);
#1113=FACE_BOUND('',#1013,.T.);
#1114=FACE_BOUND('',#1014,.T.);
#1115=FACE_BOUND('',#1015,.T.);
#1116=FACE_BOUND('',#1016,.T.);
#1117=FACE_BOUND('',#1017,.T.);
#1118=FACE_BOUND('',#1018,.T.);
#1119=FACE_BOUND('',#1019,.T.);
#1120=FACE_BOUND('',#1020,.T.);
#1121=FACE_BOUND('',#1021,.T.);
#1122=FACE_BOUND('',#1022,.T.);
#1123=FACE_BOUND('',#1023,.T.);
#1124=FACE_BOUND('',#1024,.T.);
#1125=FACE_BOUND('',#1025,.T.);
#1126=FACE_BOUND('',#1026,.T.);
#1127=FACE_BOUND('',#1027,.T.);
#1128=FACE_BOUND('',#1028,.T.);
#1129=FACE_BOUND('',#1029,.T.);
#1130=FACE_BOUND('',#1030,.T.);
#1131=FACE_BOUND('',#1031,.T.);
#1132=FACE_BOUND('',#1032,.T.);
#1133=FACE_BOUND('',#1033,.T.);
#1134=FACE_BOUND('',#1034,.T.);
#1135=FACE_BOUND('',#1035,.T.);
#1136=FACE_BOUND('',#1036,.T.);
#1137=FACE_BOUND('',#1037,.T.);
#1138=FACE_BOUND('',#1038,.T.);
#1139=FACE_BOUND('',#1039,.T.);
#1140=FACE_BOUND('',#1040,.T.);
#1141=FACE_BOUND('',#1041,.T.);
#1142=FACE_BOUND('',#1042,.T.);
#1143=FACE_BOUND('',#1043,.T.);
#1144=FACE_BOUND('',#1044,.T.);
#1145=FACE_BOUND('',#1045,.T.);
#1146=FACE_BOUND('',#1046,.T.);
#1147=FACE_BOUND('',#1047,.T.);
#1148=FACE_BOUND('',#1048,.T.);
#1149=FACE_BOUND('',#1049,.T.);
#1150=FACE_BOUND('',#1050,.T.);
#1151=FACE_BOUND('',#1051,.T.);
#1152=FACE_BOUND('',#1052,.T.);
#1153=FACE_BOUND('',#1053,.T.);
#1154=FACE_BOUND('',#1054,.T.);
#1155=FACE_BOUND('',#1055,.T.);
#1156=FACE_BOUND('',#1056,.T.);
#1157=FACE_BOUND('',#1057,.T.);
#1158=PLANE('',#1279);
#1159=PLANE('',#1280);
#1160=PLANE('',#1281);
#1161=PLANE('',#1282);
#1162=PLANE('',#1307);
#1163=PLANE('',#1308);
#1164=PLANE('',#1309);
#1165=PLANE('',#1310);
#1166=PLANE('',#1311);
#1167=PLANE('',#1312);
#1168=PLANE('',#1313);
#1169=PLANE('',#1314);
#1170=PLANE('',#1315);
#1171=PLANE('',#1316);
#1172=PLANE('',#1317);
#1173=PLANE('',#1318);
#1174=PLANE('',#1319);
#1175=PLANE('',#1320);
#1176=PLANE('',#1321);
#1177=PLANE('',#1322);
#1178=PLANE('',#1323);
#1179=PLANE('',#1324);
#1180=PLANE('',#1325);
#1181=PLANE('',#1326);
#1182=PLANE('',#1327);
#1183=PLANE('',#1328);
#1184=PLANE('',#1329);
#1185=PLANE('',#1330);
#1186=PLANE('',#1331);
#1187=PLANE('',#1332);
#1188=PLANE('',#1333);
#1189=PLANE('',#1334);
#1190=PLANE('',#1335);
#1191=PLANE('',#1336);
#1192=PLANE('',#1337);
#1193=PLANE('',#1338);
#1194=PLANE('',#1339);
#1195=PLANE('',#1340);
#1196=PLANE('',#1341);
#1197=PLANE('',#1342);
#1198=PLANE('',#1343);
#1199=PLANE('',#1344);
#1200=PLANE('',#1345);
#1201=PLANE('',#1346);
#1202=PLANE('',#1347);
#1203=PLANE('',#1348);
#1204=PLANE('',#1349);
#1205=PLANE('',#1350);
#1206=ADVANCED_FACE('',(#1058),#1158,.T.);
#1207=ADVANCED_FACE('',(#1059),#1159,.F.);
#1208=ADVANCED_FACE('',(#1060),#1160,.F.);
#1209=ADVANCED_FACE('',(#1061),#1161,.F.);
#1210=ADVANCED_FACE('',(#1062,#1063),#40,.F.);
#1211=ADVANCED_FACE('',(#1064,#1065),#41,.F.);
#1212=ADVANCED_FACE('',(#1066,#1067),#42,.F.);
#1213=ADVANCED_FACE('',(#1068,#1069),#43,.F.);
#1214=ADVANCED_FACE('',(#1070,#1071),#44,.F.);
#1215=ADVANCED_FACE('',(#1072,#1073),#45,.F.);
#1216=ADVANCED_FACE('',(#1074,#1075),#46,.F.);
#1217=ADVANCED_FACE('',(#1076,#1077),#47,.F.);
#1218=ADVANCED_FACE('',(#1078,#1079,#1080,#1081,#1082,#1083,#1084,#1085,
#1086,#1087,#1088,#1089,#1090,#1091,#1092,#1093,#1094),#1162,.T.);
#1219=ADVANCED_FACE('',(#1095),#1163,.F.);
#1220=ADVANCED_FACE('',(#1096),#12,.F.);
#1221=ADVANCED_FACE('',(#1097),#1164,.F.);
#1222=ADVANCED_FACE('',(#1098),#13,.F.);
#1223=ADVANCED_FACE('',(#1099),#1165,.F.);
#1224=ADVANCED_FACE('',(#1100),#14,.F.);
#1225=ADVANCED_FACE('',(#1101),#1166,.F.);
#1226=ADVANCED_FACE('',(#1102),#15,.F.);
#1227=ADVANCED_FACE('',(#1103),#1167,.F.);
#1228=ADVANCED_FACE('',(#1104),#1168,.T.);
#1229=ADVANCED_FACE('',(#1105),#1169,.F.);
#1230=ADVANCED_FACE('',(#1106),#1170,.F.);
#1231=ADVANCED_FACE('',(#1107),#1171,.T.);
#1232=ADVANCED_FACE('',(#1108),#1172,.F.);
#1233=ADVANCED_FACE('',(#1109),#1173,.F.);
#1234=ADVANCED_FACE('',(#1110),#1174,.T.);
#1235=ADVANCED_FACE('',(#1111),#1175,.F.);
#1236=ADVANCED_FACE('',(#1112),#1176,.T.);
#1237=ADVANCED_FACE('',(#1113),#1177,.T.);
#1238=ADVANCED_FACE('',(#1114),#1178,.F.);
#1239=ADVANCED_FACE('',(#1115),#1179,.F.);
#1240=ADVANCED_FACE('',(#1116),#1180,.F.);
#1241=ADVANCED_FACE('',(#1117),#1181,.F.);
#1242=ADVANCED_FACE('',(#1118),#1182,.T.);
#1243=ADVANCED_FACE('',(#1119),#1183,.T.);
#1244=ADVANCED_FACE('',(#1120),#1184,.T.);
#1245=ADVANCED_FACE('',(#1121),#1185,.T.);
#1246=ADVANCED_FACE('',(#1122),#1186,.T.);
#1247=ADVANCED_FACE('',(#1123),#1187,.T.);
#1248=ADVANCED_FACE('',(#1124),#1188,.F.);
#1249=ADVANCED_FACE('',(#1125),#1189,.F.);
#1250=ADVANCED_FACE('',(#1126),#1190,.T.);
#1251=ADVANCED_FACE('',(#1127),#1191,.T.);
#1252=ADVANCED_FACE('',(#1128),#1192,.F.);
#1253=ADVANCED_FACE('',(#1129),#1193,.F.);
#1254=ADVANCED_FACE('',(#1130),#1194,.T.);
#1255=ADVANCED_FACE('',(#1131),#1195,.T.);
#1256=ADVANCED_FACE('',(#1132),#1196,.F.);
#1257=ADVANCED_FACE('',(#1133),#1197,.F.);
#1258=ADVANCED_FACE('',(#1134),#1198,.T.);
#1259=ADVANCED_FACE('',(#1135),#1199,.T.);
#1260=ADVANCED_FACE('',(#1136),#1200,.F.);
#1261=ADVANCED_FACE('',(#1137),#1201,.F.);
#1262=ADVANCED_FACE('',(#1138),#1202,.T.);
#1263=ADVANCED_FACE('',(#1139),#1203,.T.);
#1264=ADVANCED_FACE('',(#1140),#1204,.F.);
#1265=ADVANCED_FACE('',(#1141,#1142,#1143,#1144,#1145,#1146,#1147,#1148,
#1149,#1150,#1151,#1152,#1153,#1154,#1155,#1156,#1157),#1205,.F.);
#1266=CLOSED_SHELL('',(#1206,#1207,#1208,#1209,#1210,#1211,#1212,#1213,
#1214,#1215,#1216,#1217,#1218,#1219,#1220,#1221,#1222,#1223,#1224,#1225,
#1226,#1227,#1228,#1229,#1230,#1231,#1232,#1233,#1234,#1235,#1236,#1237,
#1238,#1239,#1240,#1241,#1242,#1243,#1244,#1245,#1246,#1247,#1248,#1249,
#1250,#1251,#1252,#1253,#1254,#1255,#1256,#1257,#1258,#1259,#1260,#1261,
#1262,#1263,#1264,#1265));
#1267=STYLED_ITEM('',(#1268),#1275);
#1268=PRESENTATION_STYLE_ASSIGNMENT((#1269));
#1269=SURFACE_STYLE_USAGE(.BOTH.,#1270);
#1270=SURFACE_SIDE_STYLE('',(#1271));
#1271=SURFACE_STYLE_FILL_AREA(#1272);
#1272=FILL_AREA_STYLE('',(#1273));
#1273=FILL_AREA_STYLE_COLOUR('',#1274);
#1274=COLOUR_RGB('',0.647058823529412,0.647058823529412,0.647058823529412);
#1275=MANIFOLD_SOLID_BREP('Bottom Plate',#1266);
#1276=SHAPE_DEFINITION_REPRESENTATION(#2038,#1277);
#1277=SHAPE_REPRESENTATION('Bottom Plate',(#1278),#2033);
#1278=AXIS2_PLACEMENT_3D('',#1641,#1351,#1352);
#1279=AXIS2_PLACEMENT_3D('',#1642,#1353,#1354);
#1280=AXIS2_PLACEMENT_3D('',#1651,#1359,#1360);
#1281=AXIS2_PLACEMENT_3D('',#1662,#1366,#1367);
#1282=AXIS2_PLACEMENT_3D('',#1673,#1373,#1374);
#1283=AXIS2_PLACEMENT_3D('',#1682,#1379,#1380);
#1284=AXIS2_PLACEMENT_3D('',#1683,#1381,#1382);
#1285=AXIS2_PLACEMENT_3D('',#1685,#1383,#1384);
#1286=AXIS2_PLACEMENT_3D('',#1687,#1385,#1386);
#1287=AXIS2_PLACEMENT_3D('',#1688,#1387,#1388);
#1288=AXIS2_PLACEMENT_3D('',#1690,#1389,#1390);
#1289=AXIS2_PLACEMENT_3D('',#1692,#1391,#1392);
#1290=AXIS2_PLACEMENT_3D('',#1693,#1393,#1394);
#1291=AXIS2_PLACEMENT_3D('',#1695,#1395,#1396);
#1292=AXIS2_PLACEMENT_3D('',#1697,#1397,#1398);
#1293=AXIS2_PLACEMENT_3D('',#1698,#1399,#1400);
#1294=AXIS2_PLACEMENT_3D('',#1700,#1401,#1402);
#1295=AXIS2_PLACEMENT_3D('',#1702,#1403,#1404);
#1296=AXIS2_PLACEMENT_3D('',#1703,#1405,#1406);
#1297=AXIS2_PLACEMENT_3D('',#1705,#1407,#1408);
#1298=AXIS2_PLACEMENT_3D('',#1707,#1409,#1410);
#1299=AXIS2_PLACEMENT_3D('',#1708,#1411,#1412);
#1300=AXIS2_PLACEMENT_3D('',#1710,#1413,#1414);
#1301=AXIS2_PLACEMENT_3D('',#1712,#1415,#1416);
#1302=AXIS2_PLACEMENT_3D('',#1713,#1417,#1418);
#1303=AXIS2_PLACEMENT_3D('',#1715,#1419,#1420);
#1304=AXIS2_PLACEMENT_3D('',#1717,#1421,#1422);
#1305=AXIS2_PLACEMENT_3D('',#1718,#1423,#1424);
#1306=AXIS2_PLACEMENT_3D('',#1720,#1425,#1426);
#1307=AXIS2_PLACEMENT_3D('',#1722,#1427,#1428);
#1308=AXIS2_PLACEMENT_3D('',#1819,#1471,#1472);
#1309=AXIS2_PLACEMENT_3D('',#1838,#1477,#1478);
#1310=AXIS2_PLACEMENT_3D('',#1855,#1482,#1483);
#1311=AXIS2_PLACEMENT_3D('',#1872,#1487,#1488);
#1312=AXIS2_PLACEMENT_3D('',#1889,#1492,#1493);
#1313=AXIS2_PLACEMENT_3D('',#1893,#1496,#1497);
#1314=AXIS2_PLACEMENT_3D('',#1899,#1501,#1502);
#1315=AXIS2_PLACEMENT_3D('',#1903,#1505,#1506);
#1316=AXIS2_PLACEMENT_3D('',#1907,#1509,#1510);
#1317=AXIS2_PLACEMENT_3D('',#1913,#1514,#1515);
#1318=AXIS2_PLACEMENT_3D('',#1917,#1518,#1519);
#1319=AXIS2_PLACEMENT_3D('',#1921,#1522,#1523);
#1320=AXIS2_PLACEMENT_3D('',#1927,#1527,#1528);
#1321=AXIS2_PLACEMENT_3D('',#1931,#1531,#1532);
#1322=AXIS2_PLACEMENT_3D('',#1935,#1535,#1536);
#1323=AXIS2_PLACEMENT_3D('',#1941,#1540,#1541);
#1324=AXIS2_PLACEMENT_3D('',#1943,#1543,#1544);
#1325=AXIS2_PLACEMENT_3D('',#1945,#1546,#1547);
#1326=AXIS2_PLACEMENT_3D('',#1949,#1550,#1551);
#1327=AXIS2_PLACEMENT_3D('',#1953,#1554,#1555);
#1328=AXIS2_PLACEMENT_3D('',#1955,#1557,#1558);
#1329=AXIS2_PLACEMENT_3D('',#1957,#1560,#1561);
#1330=AXIS2_PLACEMENT_3D('',#1959,#1563,#1564);
#1331=AXIS2_PLACEMENT_3D('',#1961,#1566,#1567);
#1332=AXIS2_PLACEMENT_3D('',#1963,#1569,#1570);
#1333=AXIS2_PLACEMENT_3D('',#1965,#1572,#1573);
#1334=AXIS2_PLACEMENT_3D('',#1967,#1575,#1576);
#1335=AXIS2_PLACEMENT_3D('',#1973,#1580,#1581);
#1336=AXIS2_PLACEMENT_3D('',#1977,#1584,#1585);
#1337=AXIS2_PLACEMENT_3D('',#1981,#1588,#1589);
#1338=AXIS2_PLACEMENT_3D('',#1983,#1591,#1592);
#1339=AXIS2_PLACEMENT_3D('',#1989,#1596,#1597);
#1340=AXIS2_PLACEMENT_3D('',#1993,#1600,#1601);
#1341=AXIS2_PLACEMENT_3D('',#1997,#1604,#1605);
#1342=AXIS2_PLACEMENT_3D('',#1999,#1607,#1608);
#1343=AXIS2_PLACEMENT_3D('',#2005,#1612,#1613);
#1344=AXIS2_PLACEMENT_3D('',#2009,#1616,#1617);
#1345=AXIS2_PLACEMENT_3D('',#2013,#1620,#1621);
#1346=AXIS2_PLACEMENT_3D('',#2015,#1623,#1624);
#1347=AXIS2_PLACEMENT_3D('',#2021,#1628,#1629);
#1348=AXIS2_PLACEMENT_3D('',#2025,#1632,#1633);
#1349=AXIS2_PLACEMENT_3D('',#2029,#1636,#1637);
#1350=AXIS2_PLACEMENT_3D('',#2031,#1639,#1640);
#1351=DIRECTION('',(0.,0.,1.));
#1352=DIRECTION('',(1.,0.,0.));
#1353=DIRECTION('',(-0.707106781189373,0.707106781183722,0.));
#1354=DIRECTION('',(-0.707106781183722,-0.707106781189373,0.));
#1355=DIRECTION('',(0.,0.,-1.));
#1356=DIRECTION('',(0.707106781183722,0.707106781189373,0.));
#1357=DIRECTION('',(0.,0.,-1.));
#1358=DIRECTION('',(0.707106781183722,0.707106781189373,0.));
#1359=DIRECTION('',(0.707108195398695,0.707105366971571,0.));
#1360=DIRECTION('',(-0.707105366971571,0.707108195398695,0.));
#1361=DIRECTION('',(0.707105366971571,-0.707108195398695,0.));
#1362=DIRECTION('',(0.,0.,-1.));
#1363=DIRECTION('',(0.707105366971572,-0.707108195398695,0.));
#1364=DIRECTION('',(0.,0.,1.));
#1365=DIRECTION('',(0.,0.,-1.));
#1366=DIRECTION('',(-0.7071053669744,0.707108195395867,0.));
#1367=DIRECTION('',(-0.707108195395867,-0.7071053669744,0.));
#1368=DIRECTION('',(0.707108195395867,0.7071053669744,0.));
#1369=DIRECTION('',(0.,0.,-1.));
#1370=DIRECTION('',(0.,0.,1.));
#1371=DIRECTION('',(0.707108195395867,0.7071053669744,0.));
#1372=DIRECTION('',(0.,0.,-1.));
#1373=DIRECTION('',(-0.707106781186546,-0.707106781186549,0.));
#1374=DIRECTION('',(0.707106781186549,-0.707106781186546,0.));
#1375=DIRECTION('',(-0.707106781186549,0.707106781186546,0.));
#1376=DIRECTION('',(0.,0.,-1.));
#1377=DIRECTION('',(-0.707106781186549,0.707106781186546,0.));
#1378=DIRECTION('',(0.,0.,-1.));
#1379=DIRECTION('',(0.,0.,-1.));
#1380=DIRECTION('',(-1.,0.,0.));
#1381=DIRECTION('',(0.,0.,1.));
#1382=DIRECTION('',(1.,0.,0.));
#1383=DIRECTION('',(0.,0.,1.));
#1384=DIRECTION('',(1.,0.,0.));
#1385=DIRECTION('',(0.,0.,-1.));
#1386=DIRECTION('',(-1.,0.,0.));
#1387=DIRECTION('',(0.,0.,1.));
#1388=DIRECTION('',(1.,0.,0.));
#1389=DIRECTION('',(0.,0.,1.));
#1390=DIRECTION('',(1.,0.,0.));
#1391=DIRECTION('',(0.,0.,-1.));
#1392=DIRECTION('',(-1.,0.,0.));
#1393=DIRECTION('',(0.,0.,1.));
#1394=DIRECTION('',(1.,0.,0.));
#1395=DIRECTION('',(0.,0.,1.));
#1396=DIRECTION('',(1.,0.,0.));
#1397=DIRECTION('',(0.,0.,-1.));
#1398=DIRECTION('',(-1.,0.,0.));
#1399=DIRECTION('',(0.,0.,1.));
#1400=DIRECTION('',(1.,0.,0.));
#1401=DIRECTION('',(0.,0.,1.));
#1402=DIRECTION('',(1.,0.,0.));
#1403=DIRECTION('',(0.,0.,-1.));
#1404=DIRECTION('',(-1.,0.,0.));
#1405=DIRECTION('',(0.,0.,1.));
#1406=DIRECTION('',(1.,0.,0.));
#1407=DIRECTION('',(0.,0.,1.));
#1408=DIRECTION('',(1.,0.,0.));
#1409=DIRECTION('',(0.,0.,-1.));
#1410=DIRECTION('',(-1.,0.,0.));
#1411=DIRECTION('',(0.,0.,1.));
#1412=DIRECTION('',(1.,0.,0.));
#1413=DIRECTION('',(0.,0.,1.));
#1414=DIRECTION('',(1.,0.,0.));
#1415=DIRECTION('',(0.,0.,-1.));
#1416=DIRECTION('',(-1.,0.,0.));
#1417=DIRECTION('',(0.,0.,1.));
#1418=DIRECTION('',(1.,0.,0.));
#1419=DIRECTION('',(0.,0.,1.));
#1420=DIRECTION('',(1.,0.,0.));
#1421=DIRECTION('',(0.,0.,-1.));
#1422=DIRECTION('',(-1.,0.,0.));
#1423=DIRECTION('',(0.,0.,1.));
#1424=DIRECTION('',(1.,0.,0.));
#1425=DIRECTION('',(0.,0.,1.));
#1426=DIRECTION('',(1.,0.,0.));
#1427=DIRECTION('',(0.,0.,1.));
#1428=DIRECTION('',(1.,0.,0.));
#1429=DIRECTION('',(-2.73184799366426E-16,1.,0.));
#1430=DIRECTION('',(1.,0.,0.));
#1431=DIRECTION('',(-2.73184799366426E-16,1.,0.));
#1432=DIRECTION('',(1.,0.,0.));
#1433=DIRECTION('',(1.,0.,0.));
#1434=DIRECTION('',(2.73184799366426E-16,-1.,0.));
#1435=DIRECTION('',(1.,0.,0.));
#1436=DIRECTION('',(0.,-1.,0.));
#1437=DIRECTION('',(1.,0.,0.));
#1438=DIRECTION('',(2.73184799366426E-16,-1.,0.));
#1439=DIRECTION('',(1.,0.,0.));
#1440=DIRECTION('',(0.,-1.,0.));
#1441=DIRECTION('',(1.,0.,0.));
#1442=DIRECTION('',(0.,-1.,0.));
#1443=DIRECTION('',(1.,0.,0.));
#1444=DIRECTION('',(2.73184799366426E-16,-1.,0.));
#1445=DIRECTION('',(0.400913638698923,-0.916115852010644,0.));
#1446=DIRECTION('',(1.,0.,0.));
#1447=DIRECTION('',(-0.400913638698915,-0.916115852010648,0.));
#1448=DIRECTION('',(-8.32668933806735E-16,-1.,0.));
#1449=DIRECTION('',(0.,-1.,0.));
#1450=DIRECTION('',(1.,0.,0.));
#1451=DIRECTION('',(0.,-1.,0.));
#1452=DIRECTION('',(-0.001614716250714,-0.999998696344865,0.));
#1453=DIRECTION('',(0.,1.,0.));
#1454=DIRECTION('',(0.,1.,0.));
#1455=DIRECTION('',(1.,0.,0.));
#1456=DIRECTION('',(0.,-1.,0.));
#1457=DIRECTION('',(0.,-1.,0.));
#1458=DIRECTION('',(-1.,0.,0.));
#1459=DIRECTION('',(0.,-1.,0.));
#1460=DIRECTION('',(1.,0.,0.));
#1461=DIRECTION('',(0.,-1.,0.));
#1462=DIRECTION('',(1.,0.,0.));
#1463=DIRECTION('',(0.,-1.,0.));
#1464=DIRECTION('',(1.,0.,0.));
#1465=DIRECTION('',(1.11322249130573E-16,-1.,0.));
#1466=DIRECTION('',(1.,0.,0.));
#1467=DIRECTION('',(-1.,0.,0.));
#1468=DIRECTION('',(0.,-1.,0.));
#1469=DIRECTION('',(1.,0.,0.));
#1470=DIRECTION('',(0.,-1.,0.));
#1471=DIRECTION('',(-1.,0.,0.));
#1472=DIRECTION('',(0.,0.,1.));
#1473=DIRECTION('',(0.,0.,-1.));
#1474=DIRECTION('',(0.,1.,0.));
#1475=DIRECTION('',(0.,0.,-1.));
#1476=DIRECTION('',(0.,0.,-1.));
#1477=DIRECTION('',(-1.,0.,0.));
#1478=DIRECTION('',(0.,0.,1.));
#1479=DIRECTION('',(0.,1.,0.));
#1480=DIRECTION('',(0.,0.,-1.));
#1481=DIRECTION('',(0.,0.,-1.));
#1482=DIRECTION('',(0.,1.,0.));
#1483=DIRECTION('',(0.,0.,1.));
#1484=DIRECTION('',(1.,0.,0.));
#1485=DIRECTION('',(0.,0.,-1.));
#1486=DIRECTION('',(0.,0.,-1.));
#1487=DIRECTION('',(1.,0.,0.));
#1488=DIRECTION('',(0.,0.,-1.));
#1489=DIRECTION('',(0.,-1.,0.));
#1490=DIRECTION('',(0.,0.,-1.));
#1491=DIRECTION('',(0.,0.,-1.));
#1492=DIRECTION('',(1.,0.,0.));
#1493=DIRECTION('',(0.,0.,-1.));
#1494=DIRECTION('',(0.,-1.,0.));
#1495=DIRECTION('',(0.,0.,-1.));
#1496=DIRECTION('',(1.,0.,0.));
#1497=DIRECTION('',(0.,0.,-1.));
#1498=DIRECTION('',(0.,0.,-1.));
#1499=DIRECTION('',(0.,-1.,0.));
#1500=DIRECTION('',(0.,0.,-1.));
#1501=DIRECTION('',(0.,1.,0.));
#1502=DIRECTION('',(0.,0.,1.));
#1503=DIRECTION('',(1.,0.,0.));
#1504=DIRECTION('',(0.,0.,-1.));
#1505=DIRECTION('',(1.,0.,0.));
#1506=DIRECTION('',(0.,0.,-1.));
#1507=DIRECTION('',(0.,-1.,0.));
#1508=DIRECTION('',(0.,0.,-1.));
#1509=DIRECTION('',(1.,0.,0.));
#1510=DIRECTION('',(0.,0.,-1.));
#1511=DIRECTION('',(0.,0.,-1.));
#1512=DIRECTION('',(0.,-1.,0.));
#1513=DIRECTION('',(0.,0.,-1.));
#1514=DIRECTION('',(0.,1.,0.));
#1515=DIRECTION('',(0.,0.,1.));
#1516=DIRECTION('',(1.,0.,0.));
#1517=DIRECTION('',(0.,0.,-1.));
#1518=DIRECTION('',(1.,1.11322249130573E-16,0.));
#1519=DIRECTION('',(-1.11322249130573E-16,1.,0.));
#1520=DIRECTION('',(1.11322249130573E-16,-1.,0.));
#1521=DIRECTION('',(0.,0.,-1.));
#1522=DIRECTION('',(0.,-1.,0.));
#1523=DIRECTION('',(0.,0.,-1.));
#1524=DIRECTION('',(0.,0.,-1.));
#1525=DIRECTION('',(-1.,0.,0.));
#1526=DIRECTION('',(0.,0.,-1.));
#1527=DIRECTION('',(1.,0.,0.));
#1528=DIRECTION('',(0.,0.,-1.));
#1529=DIRECTION('',(0.,-1.,0.));
#1530=DIRECTION('',(0.,0.,-1.));
#1531=DIRECTION('',(0.,1.,0.));
#1532=DIRECTION('',(0.,0.,1.));
#1533=DIRECTION('',(1.,0.,0.));
#1534=DIRECTION('',(0.,0.,-1.));
#1535=DIRECTION('',(0.,1.,0.));
#1536=DIRECTION('',(0.,0.,1.));
#1537=DIRECTION('',(0.,0.,-1.));
#1538=DIRECTION('',(1.,0.,0.));
#1539=DIRECTION('',(0.,0.,-1.));
#1540=DIRECTION('',(0.916115852010648,-0.400913638698915,0.));
#1541=DIRECTION('',(0.400913638698915,0.916115852010648,0.));
#1542=DIRECTION('',(-0.400913638698915,-0.916115852010648,0.));
#1543=DIRECTION('',(1.,-8.32668933806735E-16,0.));
#1544=DIRECTION('',(8.32668933806735E-16,1.,0.));
#1545=DIRECTION('',(-8.32668933806735E-16,-1.,0.));
#1546=DIRECTION('',(1.,0.,0.));
#1547=DIRECTION('',(0.,0.,-1.));
#1548=DIRECTION('',(0.,-1.,0.));
#1549=DIRECTION('',(0.,0.,-1.));
#1550=DIRECTION('',(0.,1.,0.));
#1551=DIRECTION('',(0.,0.,1.));
#1552=DIRECTION('',(1.,0.,0.));
#1553=DIRECTION('',(0.,0.,-1.));
#1554=DIRECTION('',(1.,0.,0.));
#1555=DIRECTION('',(0.,0.,-1.));
#1556=DIRECTION('',(0.,-1.,0.));
#1557=DIRECTION('',(0.999998696344865,-0.001614716250714,0.));
#1558=DIRECTION('',(0.001614716250714,0.999998696344865,0.));
#1559=DIRECTION('',(-0.001614716250714,-0.999998696344865,0.));
#1560=DIRECTION('',(0.,1.,0.));
#1561=DIRECTION('',(0.,0.,1.));
#1562=DIRECTION('',(1.,0.,0.));
#1563=DIRECTION('',(0.,1.,0.));
#1564=DIRECTION('',(0.,0.,1.));
#1565=DIRECTION('',(1.,0.,0.));
#1566=DIRECTION('',(1.,0.,0.));
#1567=DIRECTION('',(0.,0.,-1.));
#1568=DIRECTION('',(0.,-1.,0.));
#1569=DIRECTION('',(0.916115852010644,0.400913638698923,0.));
#1570=DIRECTION('',(-0.400913638698923,0.916115852010644,0.));
#1571=DIRECTION('',(0.400913638698923,-0.916115852010644,0.));
#1572=DIRECTION('',(0.,-1.,0.));
#1573=DIRECTION('',(0.,0.,-1.));
#1574=DIRECTION('',(-1.,0.,0.));
#1575=DIRECTION('',(0.,-1.,0.));
#1576=DIRECTION('',(0.,0.,-1.));
#1577=DIRECTION('',(0.,0.,-1.));
#1578=DIRECTION('',(-1.,0.,0.));
#1579=DIRECTION('',(0.,0.,-1.));
#1580=DIRECTION('',(-1.,-2.73184799366426E-16,0.));
#1581=DIRECTION('',(2.73184799366426E-16,-1.,0.));
#1582=DIRECTION('',(0.,0.,-1.));
#1583=DIRECTION('',(-2.73184799366426E-16,1.,0.));
#1584=DIRECTION('',(0.,-1.,0.));
#1585=DIRECTION('',(0.,0.,-1.));
#1586=DIRECTION('',(0.,0.,-1.));
#1587=DIRECTION('',(-1.,0.,0.));
#1588=DIRECTION('',(-1.,0.,0.));
#1589=DIRECTION('',(0.,0.,1.));
#1590=DIRECTION('',(0.,1.,0.));
#1591=DIRECTION('',(0.,-1.,0.));
#1592=DIRECTION('',(0.,0.,-1.));
#1593=DIRECTION('',(0.,0.,-1.));
#1594=DIRECTION('',(-1.,0.,0.));
#1595=DIRECTION('',(0.,0.,-1.));
#1596=DIRECTION('',(-1.,0.,0.));
#1597=DIRECTION('',(0.,0.,1.));
#1598=DIRECTION('',(0.,0.,-1.));
#1599=DIRECTION('',(0.,1.,0.));
#1600=DIRECTION('',(0.,-1.,0.));
#1601=DIRECTION('',(0.,0.,-1.));
#1602=DIRECTION('',(0.,0.,-1.));
#1603=DIRECTION('',(-1.,0.,0.));
#1604=DIRECTION('',(-1.,-2.73184799366426E-16,0.));
#1605=DIRECTION('',(2.73184799366426E-16,-1.,0.));
#1606=DIRECTION('',(-2.73184799366426E-16,1.,0.));
#1607=DIRECTION('',(0.,-1.,0.));
#1608=DIRECTION('',(0.,0.,-1.));
#1609=DIRECTION('',(0.,0.,-1.));
#1610=DIRECTION('',(-1.,0.,0.));
#1611=DIRECTION('',(0.,0.,-1.));
#1612=DIRECTION('',(-1.,0.,0.));
#1613=DIRECTION('',(0.,0.,1.));
#1614=DIRECTION('',(0.,0.,-1.));
#1615=DIRECTION('',(0.,1.,0.));
#1616=DIRECTION('',(0.,-1.,0.));
#1617=DIRECTION('',(0.,0.,-1.));
#1618=DIRECTION('',(0.,0.,-1.));
#1619=DIRECTION('',(-1.,0.,0.));
#1620=DIRECTION('',(-1.,-2.73184799366426E-16,0.));
#1621=DIRECTION('',(2.73184799366426E-16,-1.,0.));
#1622=DIRECTION('',(-2.73184799366426E-16,1.,0.));
#1623=DIRECTION('',(1.,2.73184799366426E-16,0.));
#1624=DIRECTION('',(-2.73184799366426E-16,1.,0.));
#1625=DIRECTION('',(0.,0.,-1.));
#1626=DIRECTION('',(2.73184799366426E-16,-1.,0.));
#1627=DIRECTION('',(0.,0.,-1.));
#1628=DIRECTION('',(0.,-1.,0.));
#1629=DIRECTION('',(0.,0.,-1.));
#1630=DIRECTION('',(0.,0.,-1.));
#1631=DIRECTION('',(-1.,0.,0.));
#1632=DIRECTION('',(1.,2.73184799366426E-16,0.));
#1633=DIRECTION('',(-2.73184799366426E-16,1.,0.));
#1634=DIRECTION('',(0.,0.,-1.));
#1635=DIRECTION('',(2.73184799366426E-16,-1.,0.));
#1636=DIRECTION('',(0.,-1.,0.));
#1637=DIRECTION('',(0.,0.,-1.));
#1638=DIRECTION('',(-1.,0.,0.));
#1639=DIRECTION('',(0.,0.,1.));
#1640=DIRECTION('',(1.,0.,0.));
#1641=CARTESIAN_POINT('',(0.,0.,0.));
#1642=CARTESIAN_POINT('',(-0.0750009330369741,0.0752323836921044,0.01135));
#1643=CARTESIAN_POINT('',(-0.100001966077931,0.0502313506509479,0.01135));
#1644=CARTESIAN_POINT('',(-0.100001966077931,0.0502313506509479,0.01135));
#1645=CARTESIAN_POINT('',(-0.100001966077931,0.0502313506509479,0.00235));
#1646=CARTESIAN_POINT('',(-0.0750009330369741,0.0752323836921044,0.01135));
#1647=CARTESIAN_POINT('',(-0.0499998999960174,0.100233416733261,0.01135));
#1648=CARTESIAN_POINT('',(-0.0499998999960174,0.100233416733261,0.01135));
#1649=CARTESIAN_POINT('',(-0.0499998999960174,0.100233416733261,0.00235));
#1650=CARTESIAN_POINT('',(-0.0750009330369741,0.0752323836921044,0.00235));
#1651=CARTESIAN_POINT('',(-0.0964664392430729,-0.0533039903260455,0.01135));
#1652=CARTESIAN_POINT('',(-0.0964664392430729,-0.0533039903260455,0.01135));
#1653=CARTESIAN_POINT('',(-0.100001966077931,-0.0497684493490521,0.01135));
#1654=CARTESIAN_POINT('',(-0.0499999999920163,-0.0997706154351972,0.01135));
#1655=CARTESIAN_POINT('',(-0.100001966077931,-0.0497684493490521,0.01135));
#1656=CARTESIAN_POINT('',(-0.100001966077931,-0.0497684493490521,0.00235));
#1657=CARTESIAN_POINT('',(-0.0964664392430729,-0.0533039903260455,0.00235));
#1658=CARTESIAN_POINT('',(-0.0499999999980414,-0.0997706154372056,0.00235));
#1659=CARTESIAN_POINT('',(-0.0499999999980414,-0.0997706154372056,0.00235));
#1660=CARTESIAN_POINT('',(-0.0499999999980414,-0.0997706154372056,0.00635));
#1661=CARTESIAN_POINT('',(-0.0499999999920163,-0.0997706154351972,0.01135));
#1662=CARTESIAN_POINT('',(0.0750000497887837,-0.0747706652436996,0.01135));
#1663=CARTESIAN_POINT('',(0.0750000497887837,-0.0747706652436996,0.01135));
#1664=CARTESIAN_POINT('',(0.0499999984277272,-0.0997706527362197,0.01135));
#1665=CARTESIAN_POINT('',(0.100000099778878,-0.049770715253405,0.01135));
#1666=CARTESIAN_POINT('',(0.0499999938535192,-0.0997706652437436,0.01135));
#1667=CARTESIAN_POINT('',(0.0499999924110601,-0.0997706593305085,0.00635));
#1668=CARTESIAN_POINT('',(0.0499999884400687,-0.099770643051776,0.00235));
#1669=CARTESIAN_POINT('',(0.0499999884400687,-0.099770643051776,0.00235));
#1670=CARTESIAN_POINT('',(0.0750000497887837,-0.0747706652436996,0.00235));
#1671=CARTESIAN_POINT('',(0.100000099778878,-0.049770715253405,0.00235));
#1672=CARTESIAN_POINT('',(0.100000099778878,-0.049770715253405,0.01135));
#1673=CARTESIAN_POINT('',(0.0536950427741267,0.0966978828273284,0.01135));
#1674=CARTESIAN_POINT('',(0.0536950427741267,0.0966978828273284,0.01135));
#1675=CARTESIAN_POINT('',(0.100161574950307,0.0502313506511481,0.01135));
#1676=CARTESIAN_POINT('',(0.0501595088681939,0.100233416733261,0.01135));
#1677=CARTESIAN_POINT('',(0.100161574950307,0.0502313506511481,0.01135));
#1678=CARTESIAN_POINT('',(0.100161574950307,0.0502313506511481,0.00235));
#1679=CARTESIAN_POINT('',(0.0536950427741267,0.0966978828273284,0.00235));
#1680=CARTESIAN_POINT('',(0.0501595088681939,0.100233416733261,0.00235));
#1681=CARTESIAN_POINT('',(0.0501595088681939,0.100233416733261,0.01135));
#1682=CARTESIAN_POINT('',(-0.0876276009427248,-0.0515362410507522,0.01135));
#1683=CARTESIAN_POINT('',(-0.0876276009427248,-0.0515362410507522,0.01135));
#1684=CARTESIAN_POINT('',(-0.0852026009427248,-0.0515362410507522,0.01135));
#1685=CARTESIAN_POINT('',(-0.0876276009427248,-0.0515362410507522,0.00235));
#1686=CARTESIAN_POINT('',(-0.0852026009427248,-0.0515362410507522,0.00235));
#1687=CARTESIAN_POINT('',(-0.0517677422042753,-0.0873962432289235,0.01135));
#1688=CARTESIAN_POINT('',(-0.0517677422042753,-0.0873962432289235,0.01135));
#1689=CARTESIAN_POINT('',(-0.0493427422042753,-0.0873962432289235,0.01135));
#1690=CARTESIAN_POINT('',(-0.0517677422042753,-0.0873962432289235,0.00235));
#1691=CARTESIAN_POINT('',(-0.0493427422042753,-0.0873962432289235,0.00235));
#1692=CARTESIAN_POINT('',(0.0517677917016009,-0.0873962502999842,0.01135));
#1693=CARTESIAN_POINT('',(0.0517677917016009,-0.0873962502999842,0.01135));
#1694=CARTESIAN_POINT('',(0.0541927917016009,-0.0873962502999842,0.01135));
#1695=CARTESIAN_POINT('',(0.0517677917016009,-0.0873962502999842,0.00235));
#1696=CARTESIAN_POINT('',(0.0541927917016009,-0.0873962502999842,0.00235));
#1697=CARTESIAN_POINT('',(0.0876277938796287,-0.0515363915613913,0.01135));
#1698=CARTESIAN_POINT('',(0.0876277938796287,-0.0515363915613913,0.01135));
#1699=CARTESIAN_POINT('',(0.0900527938796287,-0.0515363915613913,0.01135));
#1700=CARTESIAN_POINT('',(0.0876277938796287,-0.0515363915613913,0.00235));
#1701=CARTESIAN_POINT('',(0.0900527938796287,-0.0515363915613913,0.00235));
#1702=CARTESIAN_POINT('',(0.0877872062795427,0.0519991176041145,0.01135));
#1703=CARTESIAN_POINT('',(0.0877872062795427,0.0519991176041145,0.01135));
#1704=CARTESIAN_POINT('',(0.0902122062795427,0.0519991176041145,0.01135));
#1705=CARTESIAN_POINT('',(0.0877872062795427,0.0519991176041145,0.00235));
#1706=CARTESIAN_POINT('',(0.0902122062795427,0.0519991176041145,0.00235));
#1707=CARTESIAN_POINT('',(0.0519272758211604,0.0878590480624965,0.01135));
#1708=CARTESIAN_POINT('',(0.0519272758211604,0.0878590480624965,0.01135));
#1709=CARTESIAN_POINT('',(0.0543522758211604,0.0878590480624965,0.01135));
#1710=CARTESIAN_POINT('',(0.0519272758211604,0.0878590480624965,0.00235));
#1711=CARTESIAN_POINT('',(0.0543522758211604,0.0878590480624965,0.00235));
#1712=CARTESIAN_POINT('',(-0.0876275974071732,0.0519991176039638,0.01135));
#1713=CARTESIAN_POINT('',(-0.0876275974071732,0.0519991176039638,0.01135));
#1714=CARTESIAN_POINT('',(-0.0852025974071732,0.0519991176039638,0.01135));
#1715=CARTESIAN_POINT('',(-0.0876275974071732,0.0519991176039638,0.00235));
#1716=CARTESIAN_POINT('',(-0.0852025974071732,0.0519991176039638,0.00235));
#1717=CARTESIAN_POINT('',(-0.0517676669489344,0.0878590480624892,0.01135));
#1718=CARTESIAN_POINT('',(-0.0517676669489344,0.0878590480624892,0.01135));
#1719=CARTESIAN_POINT('',(-0.0493426669489344,0.0878590480624892,0.01135));
#1720=CARTESIAN_POINT('',(-0.0517676669489344,0.0878590480624892,0.00235));
#1721=CARTESIAN_POINT('',(-0.0493426669489344,0.0878590480624892,0.00235));
#1722=CARTESIAN_POINT('',(7.9804436188255E-5,0.00023140064903196,0.01135));
#1723=CARTESIAN_POINT('',(-0.0265542188135385,0.000231400649031952,0.01135));
#1724=CARTESIAN_POINT('',(-0.0265542188135385,0.032385,0.01135));
#1725=CARTESIAN_POINT('',(-0.0265542188135385,0.057785,0.01135));
#1726=CARTESIAN_POINT('',(7.9804436188255E-5,0.032385,0.01135));
#1727=CARTESIAN_POINT('',(-0.0341742188135386,0.032385,0.01135));
#1728=CARTESIAN_POINT('',(-0.0341742188135386,0.00023140064903195,0.01135));
#1729=CARTESIAN_POINT('',(-0.0341742188135386,0.057785,0.01135));
#1730=CARTESIAN_POINT('',(7.9804436188255E-5,0.057785,0.01135));
#1731=CARTESIAN_POINT('',(7.9804436188255E-5,0.032385,0.01135));
#1732=CARTESIAN_POINT('',(0.0249999999999502,0.032385,0.01135));
#1733=CARTESIAN_POINT('',(0.0326199999999502,0.032385,0.01135));
#1734=CARTESIAN_POINT('',(0.0249999999999502,0.000231400649031967,0.01135));
#1735=CARTESIAN_POINT('',(0.0249999999999502,0.057785,0.01135));
#1736=CARTESIAN_POINT('',(7.9804436188255E-5,0.057785,0.01135));
#1737=CARTESIAN_POINT('',(0.0326199999999502,0.057785,0.01135));
#1738=CARTESIAN_POINT('',(0.0326199999999502,0.00023140064903196,0.01135));
#1739=CARTESIAN_POINT('',(7.9804436188255E-5,-0.057877,0.01135));
#1740=CARTESIAN_POINT('',(0.0249999999999502,-0.057877,0.01135));
#1741=CARTESIAN_POINT('',(0.0326199999999502,-0.057877,0.01135));
#1742=CARTESIAN_POINT('',(0.0249999999999502,0.000231400649031967,0.01135));
#1743=CARTESIAN_POINT('',(0.0249999999999502,-0.032477,0.01135));
#1744=CARTESIAN_POINT('',(7.9804436188255E-5,-0.032477,0.01135));
#1745=CARTESIAN_POINT('',(0.0326199999999502,-0.032477,0.01135));
#1746=CARTESIAN_POINT('',(0.0326199999999502,0.00023140064903196,0.01135));
#1747=CARTESIAN_POINT('',(7.9804436188255E-5,-0.057877,0.01135));
#1748=CARTESIAN_POINT('',(-0.0341742188135386,-0.057877,0.01135));
#1749=CARTESIAN_POINT('',(-0.0265542188135385,-0.057877,0.01135));
#1750=CARTESIAN_POINT('',(-0.0341742188135386,0.00023140064903196,0.01135));
#1751=CARTESIAN_POINT('',(-0.0341742188135386,-0.032477,0.01135));
#1752=CARTESIAN_POINT('',(7.9804436188255E-5,-0.032477,0.01135));
#1753=CARTESIAN_POINT('',(-0.0265542188135385,-0.032477,0.01135));
#1754=CARTESIAN_POINT('',(-0.0265542188135385,0.000231400649031952,0.01135));
#1755=CARTESIAN_POINT('',(0.0414070429476662,0.120233416733261,0.01135));
#1756=CARTESIAN_POINT('',(0.0326545770271383,0.140233416733261,0.01135));
#1757=CARTESIAN_POINT('',(-0.00999496815496218,0.140233416733261,0.01135));
#1758=CARTESIAN_POINT('',(-0.0324949681549622,0.140233416733261,0.01135));
#1759=CARTESIAN_POINT('',(-0.0412474340754898,0.120233416733261,0.01135));
#1760=CARTESIAN_POINT('',(-0.100001966077931,0.000231450650947935,0.01135));
#1761=CARTESIAN_POINT('',(-0.0500000000000498,-0.119770615435197,0.01135));
#1762=CARTESIAN_POINT('',(-0.0500000000000498,-0.139770615435197,0.01135));
#1763=CARTESIAN_POINT('',(-4.98073804422461E-14,-0.139770615435197,0.01135));
#1764=CARTESIAN_POINT('',(0.0499999999999502,-0.139770615435197,0.01135));
#1765=CARTESIAN_POINT('',(0.0499999999999502,-0.119770615435197,0.01135));
#1766=CARTESIAN_POINT('',(0.100080837364593,0.000230317698871548,0.01135));
#1767=CARTESIAN_POINT('',(-0.000582114743425999,0.0814353998683902,0.01135));
#1768=CARTESIAN_POINT('',(-0.000582114743425999,0.0745923660730938,0.01135));
#1769=CARTESIAN_POINT('',(-0.000582114743425999,0.0882784336636866,0.01135));
#1770=CARTESIAN_POINT('',(-0.000582114743425999,0.0882784336636866,0.01135));
#1771=CARTESIAN_POINT('',(-0.00151193492913434,0.0874903003634195,0.01135));
#1772=CARTESIAN_POINT('',(-0.00330958728817048,0.0866313236204318,0.01135));
#1773=CARTESIAN_POINT('',(-0.00330958728817048,0.0866313236204318,0.01135));
#1774=CARTESIAN_POINT('',(-0.00330958728817048,0.0871294415770613,0.01135));
#1775=CARTESIAN_POINT('',(-0.00330958728817048,0.0876275595336908,0.01135));
#1776=CARTESIAN_POINT('',(-0.00330958728817048,0.0876275595336908,0.01135));
#1777=CARTESIAN_POINT('',(-0.00124627201893196,0.0893853624561965,0.01135));
#1778=CARTESIAN_POINT('',(-0.000236752960162899,0.0913645511372043,0.01135));
#1779=CARTESIAN_POINT('',(-0.000236752960162899,0.0913645511372043,0.01135));
#1780=CARTESIAN_POINT('',(1.11990893593272E-5,0.0913645511372043,0.01135));
#1781=CARTESIAN_POINT('',(0.000259151138881553,0.0913645511372043,0.01135));
#1782=CARTESIAN_POINT('',(0.000259151138881553,0.0913645511372043,0.01135));
#1783=CARTESIAN_POINT('',(0.00126867019765061,0.0893853624561965,0.01135));
#1784=CARTESIAN_POINT('',(0.00333198546688913,0.0876275595336908,0.01135));
#1785=CARTESIAN_POINT('',(0.00333198546688913,0.0876275595336908,0.01135));
#1786=CARTESIAN_POINT('',(0.00333198546688913,0.0871294415770613,0.01135));
#1787=CARTESIAN_POINT('',(0.00333198546688913,0.0866313236204318,0.01135));
#1788=CARTESIAN_POINT('',(0.00333198546688913,0.0866313236204318,0.01135));
#1789=CARTESIAN_POINT('',(0.001534333107853,0.0874903003634195,0.01135));
#1790=CARTESIAN_POINT('',(0.000604512922144653,0.0882784336636866,0.01135));
#1791=CARTESIAN_POINT('',(0.000604512922144653,0.0882784336636866,0.01135));
#1792=CARTESIAN_POINT('',(0.000604512922144653,0.0814353998683902,0.01135));
#1793=CARTESIAN_POINT('',(0.000604512922144653,0.0745923660730938,0.01135));
#1794=CARTESIAN_POINT('',(1.11990893593272E-5,0.0745923660730938,0.01135));
#1795=CARTESIAN_POINT('',(-0.0352707885449409,-0.119412173080063,0.01135));
#1796=CARTESIAN_POINT('',(-0.0352707885449409,-0.103829273080063,0.01135));
#1797=CARTESIAN_POINT('',(-0.0352707885449409,-0.134995073080063,0.01135));
#1798=CARTESIAN_POINT('',(-0.0290223885449409,-0.103829273080063,0.01135));
#1799=CARTESIAN_POINT('',(-0.022773988544941,-0.103829273080063,0.01135));
#1800=CARTESIAN_POINT('',(-0.022773988544941,-0.119412173080063,0.01135));
#1801=CARTESIAN_POINT('',(-0.022773988544941,-0.134995073080063,0.01135));
#1802=CARTESIAN_POINT('',(-0.0290223885449409,-0.134995073080063,0.01135));
#1803=CARTESIAN_POINT('',(-0.0125000000000498,-0.119773115435197,0.01135));
#1804=CARTESIAN_POINT('',(-0.0125000000000498,-0.104190215435197,0.01135));
#1805=CARTESIAN_POINT('',(-0.0125000000000498,-0.135356015435197,0.01135));
#1806=CARTESIAN_POINT('',(-3.20000004980399E-6,-0.104190215435197,0.01135));
#1807=CARTESIAN_POINT('',(0.0124935999999502,-0.104190215435197,0.01135));
#1808=CARTESIAN_POINT('',(0.0124935999999502,-0.119773115435197,0.01135));
#1809=CARTESIAN_POINT('',(0.0124935999999502,-0.135356015435197,0.01135));
#1810=CARTESIAN_POINT('',(-3.20000004980052E-6,-0.135356015435197,0.01135));
#1811=CARTESIAN_POINT('',(0.0312483999999502,-0.104190215435197,0.01135));
#1812=CARTESIAN_POINT('',(0.0374967999999502,-0.104190215435197,0.01135));
#1813=CARTESIAN_POINT('',(0.0249999999999502,-0.104190215435197,0.01135));
#1814=CARTESIAN_POINT('',(0.0374967999999502,-0.119773115435197,0.01135));
#1815=CARTESIAN_POINT('',(0.0374967999999502,-0.135356015435197,0.01135));
#1816=CARTESIAN_POINT('',(0.0312483999999502,-0.135356015435197,0.01135));
#1817=CARTESIAN_POINT('',(0.0249999999999502,-0.135356015435197,0.01135));
#1818=CARTESIAN_POINT('',(0.0249999999999502,-0.119773115435197,0.01135));
#1819=CARTESIAN_POINT('',(-0.000582114743425999,0.0814353998683902,0.01135));
#1820=CARTESIAN_POINT('',(-0.000582114743425999,0.0745923660730938,0.01135));
#1821=CARTESIAN_POINT('',(-0.000582114743425999,0.0745923660730938,0.00235));
#1822=CARTESIAN_POINT('',(-0.000582114743425999,0.0814353998683902,0.00235));
#1823=CARTESIAN_POINT('',(-0.000582114743425999,0.0882784336636866,0.00235));
#1824=CARTESIAN_POINT('',(-0.000582114743425999,0.0882784336636866,0.01135));
#1825=CARTESIAN_POINT('',(-0.000582114743425999,0.0882784336636866,0.01135));
#1826=CARTESIAN_POINT('',(-0.000582114743425999,0.0882784336636866,0.00235));
#1827=CARTESIAN_POINT('',(-0.00120199486723156,0.0877530114635085,0.01135));
#1828=CARTESIAN_POINT('',(-0.00120199486723156,0.0877530114635085,0.00235));
#1829=CARTESIAN_POINT('',(-0.00211115238214639,0.0872039747824236,0.01135));
#1830=CARTESIAN_POINT('',(-0.00211115238214639,0.0872039747824236,0.00235));
#1831=CARTESIAN_POINT('',(-0.00330958728817048,0.0866313236204318,0.01135));
#1832=CARTESIAN_POINT('',(-0.00330958728817048,0.0866313236204318,0.00235));
#1833=CARTESIAN_POINT('',(-0.000582114743425999,0.0882784336636866,0.00235));
#1834=CARTESIAN_POINT('',(-0.00151193492913434,0.0874903003634195,0.00235));
#1835=CARTESIAN_POINT('',(-0.00330958728817048,0.0866313236204318,0.00235));
#1836=CARTESIAN_POINT('',(-0.00330958728817048,0.0866313236204318,0.00235));
#1837=CARTESIAN_POINT('',(-0.00330958728817048,0.0866313236204318,0.01135));
#1838=CARTESIAN_POINT('',(-0.00330958728817048,0.0871294415770613,0.01135));
#1839=CARTESIAN_POINT('',(-0.00330958728817048,0.0871294415770613,0.00235));
#1840=CARTESIAN_POINT('',(-0.00330958728817048,0.0876275595336908,0.00235));
#1841=CARTESIAN_POINT('',(-0.00330958728817048,0.0876275595336908,0.01135));
#1842=CARTESIAN_POINT('',(-0.00330958728817048,0.0876275595336908,0.01135));
#1843=CARTESIAN_POINT('',(-0.00330958728817048,0.0876275595336908,0.00235));
#1844=CARTESIAN_POINT('',(-0.0019340437753448,0.0887994281486946,0.01135));
#1845=CARTESIAN_POINT('',(-0.0019340437753448,0.0887994281486946,0.00235));
#1846=CARTESIAN_POINT('',(-0.00090976566600894,0.0900450920165324,0.01135));
#1847=CARTESIAN_POINT('',(-0.00090976566600894,0.0900450920165324,0.00235));
#1848=CARTESIAN_POINT('',(-0.000236752960162899,0.0913645511372043,0.01135));
#1849=CARTESIAN_POINT('',(-0.000236752960162899,0.0913645511372043,0.00235));
#1850=CARTESIAN_POINT('',(-0.00330958728817048,0.0876275595336908,0.00235));
#1851=CARTESIAN_POINT('',(-0.00124627201893196,0.0893853624561965,0.00235));
#1852=CARTESIAN_POINT('',(-0.000236752960162899,0.0913645511372043,0.00235));
#1853=CARTESIAN_POINT('',(-0.000236752960162899,0.0913645511372043,0.00235));
#1854=CARTESIAN_POINT('',(-0.000236752960162899,0.0913645511372043,0.01135));
#1855=CARTESIAN_POINT('',(1.11990893593272E-5,0.0913645511372043,0.01135));
#1856=CARTESIAN_POINT('',(1.11990893593272E-5,0.0913645511372043,0.00235));
#1857=CARTESIAN_POINT('',(0.000259151138881553,0.0913645511372043,0.00235));
#1858=CARTESIAN_POINT('',(0.000259151138881553,0.0913645511372043,0.01135));
#1859=CARTESIAN_POINT('',(0.000259151138881553,0.0913645511372043,0.01135));
#1860=CARTESIAN_POINT('',(0.000259151138881553,0.0913645511372043,0.00235));
#1861=CARTESIAN_POINT('',(0.000932163844727594,0.0900450920165324,0.01135));
#1862=CARTESIAN_POINT('',(0.000932163844727594,0.0900450920165324,0.00235));
#1863=CARTESIAN_POINT('',(0.00195644195406345,0.0887994281486946,0.01135));
#1864=CARTESIAN_POINT('',(0.00195644195406345,0.0887994281486946,0.00235));
#1865=CARTESIAN_POINT('',(0.00333198546688913,0.0876275595336908,0.01135));
#1866=CARTESIAN_POINT('',(0.00333198546688913,0.0876275595336908,0.00235));
#1867=CARTESIAN_POINT('',(0.000259151138881553,0.0913645511372043,0.00235));
#1868=CARTESIAN_POINT('',(0.00126867019765061,0.0893853624561965,0.00235));
#1869=CARTESIAN_POINT('',(0.00333198546688913,0.0876275595336908,0.00235));
#1870=CARTESIAN_POINT('',(0.00333198546688913,0.0876275595336908,0.00235));
#1871=CARTESIAN_POINT('',(0.00333198546688913,0.0876275595336908,0.01135));
#1872=CARTESIAN_POINT('',(0.00333198546688913,0.0871294415770613,0.01135));
#1873=CARTESIAN_POINT('',(0.00333198546688913,0.0871294415770613,0.00235));
#1874=CARTESIAN_POINT('',(0.00333198546688913,0.0866313236204318,0.00235));
#1875=CARTESIAN_POINT('',(0.00333198546688913,0.0866313236204318,0.01135));
#1876=CARTESIAN_POINT('',(0.00333198546688913,0.0866313236204318,0.01135));
#1877=CARTESIAN_POINT('',(0.00333198546688913,0.0866313236204318,0.00235));
#1878=CARTESIAN_POINT('',(0.00213355056086505,0.0872039747824236,0.01135));
#1879=CARTESIAN_POINT('',(0.00213355056086505,0.0872039747824236,0.00235));
#1880=CARTESIAN_POINT('',(0.00122439304595022,0.0877530114635085,0.01135));
#1881=CARTESIAN_POINT('',(0.00122439304595022,0.0877530114635085,0.00235));
#1882=CARTESIAN_POINT('',(0.000604512922144653,0.0882784336636866,0.01135));
#1883=CARTESIAN_POINT('',(0.000604512922144653,0.0882784336636866,0.00235));
#1884=CARTESIAN_POINT('',(0.00333198546688913,0.0866313236204318,0.00235));
#1885=CARTESIAN_POINT('',(0.001534333107853,0.0874903003634195,0.00235));
#1886=CARTESIAN_POINT('',(0.000604512922144653,0.0882784336636866,0.00235));
#1887=CARTESIAN_POINT('',(0.000604512922144653,0.0882784336636866,0.00235));
#1888=CARTESIAN_POINT('',(0.000604512922144653,0.0882784336636866,0.01135));
#1889=CARTESIAN_POINT('',(0.000604512922144653,0.0814353998683902,0.01135));
#1890=CARTESIAN_POINT('',(0.000604512922144653,0.0814353998683902,0.00235));
#1891=CARTESIAN_POINT('',(0.000604512922144653,0.0745923660730938,0.00235));
#1892=CARTESIAN_POINT('',(0.000604512922144653,0.0745923660730938,0.01135));
#1893=CARTESIAN_POINT('',(-0.0352707885449409,-0.119412173080063,0.01135));
#1894=CARTESIAN_POINT('',(-0.0352707885449409,-0.134995073080063,0.01135));
#1895=CARTESIAN_POINT('',(-0.0352707885449409,-0.134995073080063,0.00235));
#1896=CARTESIAN_POINT('',(-0.0352707885449409,-0.119412173080063,0.00235));
#1897=CARTESIAN_POINT('',(-0.0352707885449409,-0.103829273080063,0.00235));
#1898=CARTESIAN_POINT('',(-0.0352707885449409,-0.103829273080063,0.01135));
#1899=CARTESIAN_POINT('',(-0.0290223885449409,-0.103829273080063,0.01135));
#1900=CARTESIAN_POINT('',(-0.0290223885449409,-0.103829273080063,0.00235));
#1901=CARTESIAN_POINT('',(-0.022773988544941,-0.103829273080063,0.00235));
#1902=CARTESIAN_POINT('',(-0.022773988544941,-0.103829273080063,0.01135));
#1903=CARTESIAN_POINT('',(-0.022773988544941,-0.119412173080063,0.01135));
#1904=CARTESIAN_POINT('',(-0.022773988544941,-0.119412173080063,0.00235));
#1905=CARTESIAN_POINT('',(-0.022773988544941,-0.134995073080063,0.00235));
#1906=CARTESIAN_POINT('',(-0.022773988544941,-0.134995073080063,0.01135));
#1907=CARTESIAN_POINT('',(-0.0125000000000498,-0.119773115435197,0.01135));
#1908=CARTESIAN_POINT('',(-0.0125000000000498,-0.135356015435197,0.01135));
#1909=CARTESIAN_POINT('',(-0.0125000000000498,-0.135356015435197,0.00235));
#1910=CARTESIAN_POINT('',(-0.0125000000000498,-0.119773115435197,0.00235));
#1911=CARTESIAN_POINT('',(-0.0125000000000498,-0.104190215435197,0.00235));
#1912=CARTESIAN_POINT('',(-0.0125000000000498,-0.104190215435197,0.01135));
#1913=CARTESIAN_POINT('',(-3.20000004980399E-6,-0.104190215435197,0.01135));
#1914=CARTESIAN_POINT('',(-3.20000004980399E-6,-0.104190215435197,0.00235));
#1915=CARTESIAN_POINT('',(0.0124935999999502,-0.104190215435197,0.00235));
#1916=CARTESIAN_POINT('',(0.0124935999999502,-0.104190215435197,0.01135));
#1917=CARTESIAN_POINT('',(0.0124935999999502,-0.119773115435197,0.01135));
#1918=CARTESIAN_POINT('',(0.0124935999999502,-0.119773115435197,0.00235));
#1919=CARTESIAN_POINT('',(0.0124935999999502,-0.135356015435197,0.00235));
#1920=CARTESIAN_POINT('',(0.0124935999999502,-0.135356015435197,0.01135));
#1921=CARTESIAN_POINT('',(0.0312483999999502,-0.104190215435197,0.01135));
#1922=CARTESIAN_POINT('',(0.0249999999999502,-0.104190215435197,0.01135));
#1923=CARTESIAN_POINT('',(0.0249999999999502,-0.104190215435197,0.00235));
#1924=CARTESIAN_POINT('',(0.0312483999999502,-0.104190215435197,0.00235));
#1925=CARTESIAN_POINT('',(0.0374967999999502,-0.104190215435197,0.00235));
#1926=CARTESIAN_POINT('',(0.0374967999999502,-0.104190215435197,0.01135));
#1927=CARTESIAN_POINT('',(0.0374967999999502,-0.119773115435197,0.01135));
#1928=CARTESIAN_POINT('',(0.0374967999999502,-0.119773115435197,0.00235));
#1929=CARTESIAN_POINT('',(0.0374967999999502,-0.135356015435197,0.00235));
#1930=CARTESIAN_POINT('',(0.0374967999999502,-0.135356015435197,0.01135));
#1931=CARTESIAN_POINT('',(0.0312483999999502,-0.135356015435197,0.01135));
#1932=CARTESIAN_POINT('',(0.0312483999999502,-0.135356015435197,0.00235));
#1933=CARTESIAN_POINT('',(0.0249999999999502,-0.135356015435197,0.00235));
#1934=CARTESIAN_POINT('',(0.0249999999999502,-0.135356015435197,0.01135));
#1935=CARTESIAN_POINT('',(-0.00999496815496218,0.140233416733261,0.01135));
#1936=CARTESIAN_POINT('',(0.0326545770271383,0.140233416733261,0.01135));
#1937=CARTESIAN_POINT('',(0.0326545770271383,0.140233416733261,0.00235));
#1938=CARTESIAN_POINT('',(-0.00999496815496218,0.140233416733261,0.00235));
#1939=CARTESIAN_POINT('',(-0.0324949681549622,0.140233416733261,0.00235));
#1940=CARTESIAN_POINT('',(-0.0324949681549622,0.140233416733261,0.01135));
#1941=CARTESIAN_POINT('',(-0.0412474340754898,0.120233416733261,0.01135));
#1942=CARTESIAN_POINT('',(-0.0412474340754898,0.120233416733261,0.00235));
#1943=CARTESIAN_POINT('',(-0.100001966077931,0.000231450650947935,0.01135));
#1944=CARTESIAN_POINT('',(-0.100001966077931,0.000231450650947935,0.00235));
#1945=CARTESIAN_POINT('',(-0.0500000000000498,-0.119770615435197,0.01135));
#1946=CARTESIAN_POINT('',(-0.0500000000000498,-0.119770615435197,0.00235));
#1947=CARTESIAN_POINT('',(-0.0500000000000498,-0.139770615435197,0.00235));
#1948=CARTESIAN_POINT('',(-0.0500000000000498,-0.139770615435197,0.01135));
#1949=CARTESIAN_POINT('',(-4.98073804422461E-14,-0.139770615435197,0.01135));
#1950=CARTESIAN_POINT('',(-4.98073804422461E-14,-0.139770615435197,0.00235));
#1951=CARTESIAN_POINT('',(0.0499999999999502,-0.139770615435197,0.00235));
#1952=CARTESIAN_POINT('',(0.0499999999999502,-0.139770615435197,0.01135));
#1953=CARTESIAN_POINT('',(0.0499999999999502,-0.119770615435197,0.01135));
#1954=CARTESIAN_POINT('',(0.0499999999999502,-0.119770615435197,0.00235));
#1955=CARTESIAN_POINT('',(0.100080837364593,0.000230317698871548,0.01135));
#1956=CARTESIAN_POINT('',(0.100080837364593,0.000230317698871548,0.00235));
#1957=CARTESIAN_POINT('',(-0.0290223885449409,-0.134995073080063,0.01135));
#1958=CARTESIAN_POINT('',(-0.0290223885449409,-0.134995073080063,0.00235));
#1959=CARTESIAN_POINT('',(-3.20000004980052E-6,-0.135356015435197,0.01135));
#1960=CARTESIAN_POINT('',(-3.20000004980052E-6,-0.135356015435197,0.00235));
#1961=CARTESIAN_POINT('',(0.0249999999999502,-0.119773115435197,0.01135));
#1962=CARTESIAN_POINT('',(0.0249999999999502,-0.119773115435197,0.00235));
#1963=CARTESIAN_POINT('',(0.0414070429476662,0.120233416733261,0.01135));
#1964=CARTESIAN_POINT('',(0.0414070429476662,0.120233416733261,0.00235));
#1965=CARTESIAN_POINT('',(1.11990893593272E-5,0.0745923660730938,0.01135));
#1966=CARTESIAN_POINT('',(1.11990893593272E-5,0.0745923660730938,0.00235));
#1967=CARTESIAN_POINT('',(-0.0303642188135385,-0.057877,0.023114));
#1968=CARTESIAN_POINT('',(-0.0265542188135385,-0.057877,0.023114));
#1969=CARTESIAN_POINT('',(-0.0265542188135385,-0.057877,0.00235));
#1970=CARTESIAN_POINT('',(-0.0303642188135385,-0.057877,0.00235));
#1971=CARTESIAN_POINT('',(-0.0341742188135386,-0.057877,0.00235));
#1972=CARTESIAN_POINT('',(-0.0341742188135386,-0.057877,0.023114));
#1973=CARTESIAN_POINT('',(-0.0265542188135385,-0.045177,0.023114));
#1974=CARTESIAN_POINT('',(-0.0265542188135385,-0.032477,0.023114));
#1975=CARTESIAN_POINT('',(-0.0265542188135385,-0.032477,0.00235));
#1976=CARTESIAN_POINT('',(-0.0265542188135385,-0.045177,0.00235));
#1977=CARTESIAN_POINT('',(-0.0303642188135385,-0.032477,0.023114));
#1978=CARTESIAN_POINT('',(-0.0341742188135386,-0.032477,0.023114));
#1979=CARTESIAN_POINT('',(-0.0341742188135386,-0.032477,0.00235));
#1980=CARTESIAN_POINT('',(-0.0303642188135385,-0.032477,0.00235));
#1981=CARTESIAN_POINT('',(-0.0341742188135386,-0.045177,0.023114));
#1982=CARTESIAN_POINT('',(-0.0341742188135386,-0.045177,0.00235));
#1983=CARTESIAN_POINT('',(0.0288099999999502,-0.057877,0.023114));
#1984=CARTESIAN_POINT('',(0.0326199999999502,-0.057877,0.023114));
#1985=CARTESIAN_POINT('',(0.0326199999999502,-0.057877,0.00235));
#1986=CARTESIAN_POINT('',(0.0288099999999502,-0.057877,0.00235));
#1987=CARTESIAN_POINT('',(0.0249999999999502,-0.057877,0.00235));
#1988=CARTESIAN_POINT('',(0.0249999999999502,-0.057877,0.023114));
#1989=CARTESIAN_POINT('',(0.0326199999999502,-0.045177,0.023114));
#1990=CARTESIAN_POINT('',(0.0326199999999502,-0.032477,0.023114));
#1991=CARTESIAN_POINT('',(0.0326199999999502,-0.032477,0.00235));
#1992=CARTESIAN_POINT('',(0.0326199999999502,-0.045177,0.00235));
#1993=CARTESIAN_POINT('',(0.0288099999999502,-0.032477,0.023114));
#1994=CARTESIAN_POINT('',(0.0249999999999502,-0.032477,0.023114));
#1995=CARTESIAN_POINT('',(0.0249999999999502,-0.032477,0.00235));
#1996=CARTESIAN_POINT('',(0.0288099999999502,-0.032477,0.00235));
#1997=CARTESIAN_POINT('',(0.0249999999999502,-0.045177,0.023114));
#1998=CARTESIAN_POINT('',(0.0249999999999502,-0.045177,0.00235));
#1999=CARTESIAN_POINT('',(0.0288099999999502,0.032385,0.023114));
#2000=CARTESIAN_POINT('',(0.0326199999999502,0.032385,0.023114));
#2001=CARTESIAN_POINT('',(0.0326199999999502,0.032385,0.00235));
#2002=CARTESIAN_POINT('',(0.0288099999999502,0.032385,0.00235));
#2003=CARTESIAN_POINT('',(0.0249999999999502,0.032385,0.00235));
#2004=CARTESIAN_POINT('',(0.0249999999999502,0.032385,0.023114));
#2005=CARTESIAN_POINT('',(0.0326199999999502,0.045085,0.023114));
#2006=CARTESIAN_POINT('',(0.0326199999999502,0.057785,0.023114));
#2007=CARTESIAN_POINT('',(0.0326199999999502,0.057785,0.00235));
#2008=CARTESIAN_POINT('',(0.0326199999999502,0.045085,0.00235));
#2009=CARTESIAN_POINT('',(0.0288099999999502,0.057785,0.023114));
#2010=CARTESIAN_POINT('',(0.0249999999999502,0.057785,0.023114));
#2011=CARTESIAN_POINT('',(0.0249999999999502,0.057785,0.00235));
#2012=CARTESIAN_POINT('',(0.0288099999999502,0.057785,0.00235));
#2013=CARTESIAN_POINT('',(0.0249999999999502,0.045085,0.023114));
#2014=CARTESIAN_POINT('',(0.0249999999999502,0.045085,0.00235));
#2015=CARTESIAN_POINT('',(-0.0265542188135385,0.045085,0.023114));
#2016=CARTESIAN_POINT('',(-0.0265542188135385,0.057785,0.023114));
#2017=CARTESIAN_POINT('',(-0.0265542188135385,0.057785,0.00235));
#2018=CARTESIAN_POINT('',(-0.0265542188135385,0.045085,0.00235));
#2019=CARTESIAN_POINT('',(-0.0265542188135385,0.032385,0.00235));
#2020=CARTESIAN_POINT('',(-0.0265542188135385,0.032385,0.023114));
#2021=CARTESIAN_POINT('',(-0.0303642188135385,0.057785,0.023114));
#2022=CARTESIAN_POINT('',(-0.0341742188135386,0.057785,0.023114));
#2023=CARTESIAN_POINT('',(-0.0341742188135386,0.057785,0.00235));
#2024=CARTESIAN_POINT('',(-0.0303642188135385,0.057785,0.00235));
#2025=CARTESIAN_POINT('',(-0.0341742188135386,0.045085,0.023114));
#2026=CARTESIAN_POINT('',(-0.0341742188135386,0.032385,0.023114));
#2027=CARTESIAN_POINT('',(-0.0341742188135386,0.032385,0.00235));
#2028=CARTESIAN_POINT('',(-0.0341742188135386,0.045085,0.00235));
#2029=CARTESIAN_POINT('',(-0.0303642188135385,0.032385,0.023114));
#2030=CARTESIAN_POINT('',(-0.0303642188135385,0.032385,0.00235));
#2031=CARTESIAN_POINT('',(7.9804436188255E-5,0.00023140064903196,0.00235));
#2032=MECHANICAL_DESIGN_GEOMETRIC_PRESENTATION_REPRESENTATION('',(#1267),
#2033);
#2033=(
GEOMETRIC_REPRESENTATION_CONTEXT(3)
GLOBAL_UNCERTAINTY_ASSIGNED_CONTEXT((#2034))
GLOBAL_UNIT_ASSIGNED_CONTEXT((#2037,#2036,#2035))
REPRESENTATION_CONTEXT('Bottom Plate','TOP_LEVEL_ASSEMBLY_PART')
);
#2034=UNCERTAINTY_MEASURE_WITH_UNIT(LENGTH_MEASURE(2.E-5),#2037,
'DISTANCE_ACCURACY_VALUE','Maximum Tolerance applied to model');
#2035=(
NAMED_UNIT(*)
SI_UNIT($,.STERADIAN.)
SOLID_ANGLE_UNIT()
);
#2036=(
NAMED_UNIT(*)
PLANE_ANGLE_UNIT()
SI_UNIT($,.RADIAN.)
);
#2037=(
LENGTH_UNIT()
NAMED_UNIT(*)
SI_UNIT($,.METRE.)
);
#2038=PRODUCT_DEFINITION_SHAPE('','',#2039);
#2039=PRODUCT_DEFINITION('','',#2041,#2040);
#2040=PRODUCT_DEFINITION_CONTEXT('',#2047,'design');
#2041=PRODUCT_DEFINITION_FORMATION_WITH_SPECIFIED_SOURCE('','',#2043,
 .NOT_KNOWN.);
#2042=PRODUCT_RELATED_PRODUCT_CATEGORY('','',(#2043));
#2043=PRODUCT('Bottom Plate','Bottom Plate','Bottom Plate',(#2045));
#2044=PRODUCT_CATEGORY('','');
#2045=PRODUCT_CONTEXT('',#2047,'mechanical');
#2046=APPLICATION_PROTOCOL_DEFINITION('international standard',
'ap242_managed_model_based_3d_engineering',2020,#2047);
#2047=APPLICATION_CONTEXT('managed model based 3d engineering');
ENDSEC;
END-ISO-10303-21;
