ISO-10303-21;
HEADER;
/* Generated by software containing ST-Developer
 * from STEP Tools, Inc. (www.steptools.com) 
 */
/* OPTION: using custom renumber hook */

FILE_DESCRIPTION(
/* description */ ('STEP AP242 Edition 2',
'CAx-IF Rec.Pracs.---Representation and Presentation of Product Manufa
cturing Information (PMI)---4.0---2014-10-13',
'CAx-IF Rec.Pracs.---3D Tessellated Geometry---0.4---2014-09-14','2;1',
'CAx-IF Rec.Pracs.---User Defined Attributes---1.5---2016-08-15'),
/* implementation_level */ '2;1');

FILE_NAME(
/* name */ 'Part Studio 1 - Arm Mount RL 2',
/* time_stamp */ '2026-06-27T17:59:19Z',
/* author */ (''),
/* organization */ (''),
/* preprocessor_version */ 'ST-DEVELOPER v20',
/* originating_system */ 'ONSHAPE BY PTC INC, 1.217',
/* authorisation */ '  ');

FILE_SCHEMA (('AP242_MANAGED_MODEL_BASED_3D_ENGINEERING_MIM_LF { 1 0 10303 442 3 1 4 }'));
ENDSEC;

DATA;
#10=SHAPE_REPRESENTATION_RELATIONSHIP('','',#370,#11);
#11=ADVANCED_BREP_SHAPE_REPRESENTATION('',(#368),#631);
#12=B_SPLINE_CURVE_WITH_KNOTS('',3,(#573,#574,#575,#576,#577,#578,#579,
#580,#581,#582,#583),.UNSPECIFIED.,.F.,.F.,(4,1,1,1,1,1,1,1,4),(0.,0.0018308684917893,
0.0036617369835786,0.00549260547536791,0.00732347396715721,0.00915434245894651,
0.0109852109507358,0.0128160794425251,0.0146469479343144),.UNSPECIFIED.);
#13=CYLINDRICAL_SURFACE('',#378,0.002425);
#14=CYLINDRICAL_SURFACE('',#381,0.002425);
#15=CYLINDRICAL_SURFACE('',#388,0.008);
#16=CYLINDRICAL_SURFACE('',#401,0.0034798);
#17=CYLINDRICAL_SURFACE('',#403,0.0034798);
#18=CYLINDRICAL_SURFACE('',#405,0.0034798);
#19=CYLINDRICAL_SURFACE('',#407,0.0034798);
#20=CYLINDRICAL_SURFACE('',#409,0.0034798);
#21=CIRCLE('',#374,0.008);
#22=CIRCLE('',#376,0.002425);
#23=CIRCLE('',#377,0.0034798);
#24=CIRCLE('',#379,0.002425);
#25=CIRCLE('',#380,0.002425);
#26=CIRCLE('',#382,0.002425);
#27=CIRCLE('',#389,0.008);
#28=CIRCLE('',#390,0.008);
#29=CIRCLE('',#400,0.0034798);
#30=ELLIPSE('',#373,0.00510688889385942,0.0034798);
#31=ELLIPSE('',#384,0.0670656959599016,0.0034798);
#32=ELLIPSE('',#385,0.0667696255499428,0.0034798);
#33=ELLIPSE('',#393,0.005084343855494,0.0034798);
#34=ELLIPSE('',#395,0.00476635322815485,0.0034798);
#35=ELLIPSE('',#397,0.00478502047306067,0.0034798);
#36=ELLIPSE('',#402,0.0050546583055011,0.0034798);
#37=ELLIPSE('',#404,0.0037445054719998,0.0034798);
#38=ELLIPSE('',#406,0.00374142198136738,0.0034798);
#39=ELLIPSE('',#408,0.00505404497055598,0.0034798);
#40=ORIENTED_EDGE('',*,*,#138,.T.);
#41=ORIENTED_EDGE('',*,*,#139,.T.);
#42=ORIENTED_EDGE('',*,*,#140,.T.);
#43=ORIENTED_EDGE('',*,*,#141,.F.);
#44=ORIENTED_EDGE('',*,*,#142,.T.);
#45=ORIENTED_EDGE('',*,*,#143,.F.);
#46=ORIENTED_EDGE('',*,*,#144,.F.);
#47=ORIENTED_EDGE('',*,*,#145,.T.);
#48=ORIENTED_EDGE('',*,*,#146,.F.);
#49=ORIENTED_EDGE('',*,*,#142,.F.);
#50=ORIENTED_EDGE('',*,*,#147,.T.);
#51=ORIENTED_EDGE('',*,*,#148,.F.);
#52=ORIENTED_EDGE('',*,*,#149,.F.);
#53=ORIENTED_EDGE('',*,*,#150,.T.);
#54=ORIENTED_EDGE('',*,*,#151,.F.);
#55=ORIENTED_EDGE('',*,*,#143,.T.);
#56=ORIENTED_EDGE('',*,*,#151,.T.);
#57=ORIENTED_EDGE('',*,*,#149,.T.);
#58=ORIENTED_EDGE('',*,*,#152,.F.);
#59=ORIENTED_EDGE('',*,*,#153,.T.);
#60=ORIENTED_EDGE('',*,*,#154,.F.);
#61=ORIENTED_EDGE('',*,*,#155,.F.);
#62=ORIENTED_EDGE('',*,*,#156,.F.);
#63=ORIENTED_EDGE('',*,*,#157,.T.);
#64=ORIENTED_EDGE('',*,*,#158,.T.);
#65=ORIENTED_EDGE('',*,*,#159,.T.);
#66=ORIENTED_EDGE('',*,*,#152,.T.);
#67=ORIENTED_EDGE('',*,*,#160,.T.);
#68=ORIENTED_EDGE('',*,*,#146,.T.);
#69=ORIENTED_EDGE('',*,*,#161,.T.);
#70=ORIENTED_EDGE('',*,*,#162,.T.);
#71=ORIENTED_EDGE('',*,*,#138,.F.);
#72=ORIENTED_EDGE('',*,*,#141,.T.);
#73=ORIENTED_EDGE('',*,*,#163,.T.);
#74=ORIENTED_EDGE('',*,*,#164,.T.);
#75=ORIENTED_EDGE('',*,*,#165,.F.);
#76=ORIENTED_EDGE('',*,*,#166,.T.);
#77=ORIENTED_EDGE('',*,*,#147,.F.);
#78=ORIENTED_EDGE('',*,*,#167,.F.);
#79=ORIENTED_EDGE('',*,*,#168,.T.);
#80=ORIENTED_EDGE('',*,*,#169,.T.);
#81=ORIENTED_EDGE('',*,*,#170,.T.);
#82=ORIENTED_EDGE('',*,*,#164,.F.);
#83=ORIENTED_EDGE('',*,*,#171,.T.);
#84=ORIENTED_EDGE('',*,*,#172,.T.);
#85=ORIENTED_EDGE('',*,*,#167,.T.);
#86=ORIENTED_EDGE('',*,*,#173,.T.);
#87=ORIENTED_EDGE('',*,*,#174,.T.);
#88=ORIENTED_EDGE('',*,*,#175,.T.);
#89=ORIENTED_EDGE('',*,*,#144,.T.);
#90=ORIENTED_EDGE('',*,*,#176,.T.);
#91=ORIENTED_EDGE('',*,*,#154,.T.);
#92=ORIENTED_EDGE('',*,*,#177,.T.);
#93=ORIENTED_EDGE('',*,*,#178,.T.);
#94=ORIENTED_EDGE('',*,*,#156,.T.);
#95=ORIENTED_EDGE('',*,*,#179,.F.);
#96=ORIENTED_EDGE('',*,*,#180,.T.);
#97=ORIENTED_EDGE('',*,*,#176,.F.);
#98=ORIENTED_EDGE('',*,*,#148,.T.);
#99=ORIENTED_EDGE('',*,*,#166,.F.);
#100=ORIENTED_EDGE('',*,*,#181,.T.);
#101=ORIENTED_EDGE('',*,*,#179,.T.);
#102=ORIENTED_EDGE('',*,*,#155,.T.);
#103=ORIENTED_EDGE('',*,*,#150,.F.);
#104=ORIENTED_EDGE('',*,*,#170,.F.);
#105=ORIENTED_EDGE('',*,*,#182,.T.);
#106=ORIENTED_EDGE('',*,*,#180,.F.);
#107=ORIENTED_EDGE('',*,*,#181,.F.);
#108=ORIENTED_EDGE('',*,*,#165,.T.);
#109=ORIENTED_EDGE('',*,*,#173,.F.);
#110=ORIENTED_EDGE('',*,*,#182,.F.);
#111=ORIENTED_EDGE('',*,*,#169,.F.);
#112=ORIENTED_EDGE('',*,*,#183,.F.);
#113=ORIENTED_EDGE('',*,*,#177,.F.);
#114=ORIENTED_EDGE('',*,*,#168,.F.);
#115=ORIENTED_EDGE('',*,*,#172,.F.);
#116=ORIENTED_EDGE('',*,*,#184,.F.);
#117=ORIENTED_EDGE('',*,*,#160,.F.);
#118=ORIENTED_EDGE('',*,*,#157,.F.);
#119=ORIENTED_EDGE('',*,*,#178,.F.);
#120=ORIENTED_EDGE('',*,*,#183,.T.);
#121=ORIENTED_EDGE('',*,*,#163,.F.);
#122=ORIENTED_EDGE('',*,*,#140,.F.);
#123=ORIENTED_EDGE('',*,*,#185,.F.);
#124=ORIENTED_EDGE('',*,*,#158,.F.);
#125=ORIENTED_EDGE('',*,*,#184,.T.);
#126=ORIENTED_EDGE('',*,*,#171,.F.);
#127=ORIENTED_EDGE('',*,*,#139,.F.);
#128=ORIENTED_EDGE('',*,*,#162,.F.);
#129=ORIENTED_EDGE('',*,*,#186,.F.);
#130=ORIENTED_EDGE('',*,*,#174,.F.);
#131=ORIENTED_EDGE('',*,*,#153,.F.);
#132=ORIENTED_EDGE('',*,*,#159,.F.);
#133=ORIENTED_EDGE('',*,*,#185,.T.);
#134=ORIENTED_EDGE('',*,*,#145,.F.);
#135=ORIENTED_EDGE('',*,*,#175,.F.);
#136=ORIENTED_EDGE('',*,*,#186,.T.);
#137=ORIENTED_EDGE('',*,*,#161,.F.);
#138=EDGE_CURVE('',#187,#188,#221,.F.);
#139=EDGE_CURVE('',#188,#189,#30,.T.);
#140=EDGE_CURVE('',#189,#190,#222,.T.);
#141=EDGE_CURVE('',#191,#190,#21,.T.);
#142=EDGE_CURVE('',#191,#187,#223,.T.);
#143=EDGE_CURVE('',#192,#192,#22,.T.);
#144=EDGE_CURVE('',#193,#194,#224,.T.);
#145=EDGE_CURVE('',#193,#195,#23,.T.);
#146=EDGE_CURVE('',#187,#195,#225,.T.);
#147=EDGE_CURVE('',#191,#196,#226,.T.);
#148=EDGE_CURVE('',#194,#196,#227,.T.);
#149=EDGE_CURVE('',#197,#197,#24,.T.);
#150=EDGE_CURVE('',#198,#198,#25,.T.);
#151=EDGE_CURVE('',#199,#199,#26,.T.);
#152=EDGE_CURVE('',#200,#201,#228,.T.);
#153=EDGE_CURVE('',#200,#202,#31,.F.);
#154=EDGE_CURVE('',#203,#202,#229,.T.);
#155=EDGE_CURVE('',#204,#203,#230,.T.);
#156=EDGE_CURVE('',#205,#204,#231,.T.);
#157=EDGE_CURVE('',#205,#201,#32,.F.);
#158=EDGE_CURVE('',#206,#207,#232,.F.);
#159=EDGE_CURVE('',#207,#200,#233,.F.);
#160=EDGE_CURVE('',#201,#206,#234,.T.);
#161=EDGE_CURVE('',#195,#208,#235,.T.);
#162=EDGE_CURVE('',#208,#188,#236,.T.);
#163=EDGE_CURVE('',#190,#209,#12,.T.);
#164=EDGE_CURVE('',#209,#210,#27,.T.);
#165=EDGE_CURVE('',#211,#210,#237,.F.);
#166=EDGE_CURVE('',#211,#196,#28,.T.);
#167=EDGE_CURVE('',#212,#213,#238,.T.);
#168=EDGE_CURVE('',#212,#214,#239,.F.);
#169=EDGE_CURVE('',#214,#215,#240,.F.);
#170=EDGE_CURVE('',#215,#213,#241,.T.);
#171=EDGE_CURVE('',#209,#216,#242,.T.);
#172=EDGE_CURVE('',#216,#212,#33,.T.);
#173=EDGE_CURVE('',#213,#210,#243,.T.);
#174=EDGE_CURVE('',#202,#217,#34,.T.);
#175=EDGE_CURVE('',#217,#193,#244,.F.);
#176=EDGE_CURVE('',#194,#203,#245,.T.);
#177=EDGE_CURVE('',#218,#219,#246,.T.);
#178=EDGE_CURVE('',#219,#205,#35,.T.);
#179=EDGE_CURVE('',#220,#204,#247,.T.);
#180=EDGE_CURVE('',#220,#218,#248,.T.);
#181=EDGE_CURVE('',#211,#220,#249,.T.);
#182=EDGE_CURVE('',#215,#218,#29,.T.);
#183=EDGE_CURVE('',#219,#214,#36,.T.);
#184=EDGE_CURVE('',#206,#216,#37,.T.);
#185=EDGE_CURVE('',#207,#189,#38,.F.);
#186=EDGE_CURVE('',#217,#208,#39,.F.);
#187=VERTEX_POINT('',#520);
#188=VERTEX_POINT('',#521);
#189=VERTEX_POINT('',#523);
#190=VERTEX_POINT('',#525);
#191=VERTEX_POINT('',#527);
#192=VERTEX_POINT('',#531);
#193=VERTEX_POINT('',#533);
#194=VERTEX_POINT('',#534);
#195=VERTEX_POINT('',#536);
#196=VERTEX_POINT('',#539);
#197=VERTEX_POINT('',#543);
#198=VERTEX_POINT('',#545);
#199=VERTEX_POINT('',#548);
#200=VERTEX_POINT('',#551);
#201=VERTEX_POINT('',#552);
#202=VERTEX_POINT('',#554);
#203=VERTEX_POINT('',#556);
#204=VERTEX_POINT('',#558);
#205=VERTEX_POINT('',#560);
#206=VERTEX_POINT('',#564);
#207=VERTEX_POINT('',#565);
#208=VERTEX_POINT('',#570);
#209=VERTEX_POINT('',#584);
#210=VERTEX_POINT('',#586);
#211=VERTEX_POINT('',#588);
#212=VERTEX_POINT('',#592);
#213=VERTEX_POINT('',#593);
#214=VERTEX_POINT('',#595);
#215=VERTEX_POINT('',#597);
#216=VERTEX_POINT('',#601);
#217=VERTEX_POINT('',#606);
#218=VERTEX_POINT('',#611);
#219=VERTEX_POINT('',#612);
#220=VERTEX_POINT('',#615);
#221=LINE('',#519,#250);
#222=LINE('',#524,#251);
#223=LINE('',#528,#252);
#224=LINE('',#532,#253);
#225=LINE('',#537,#254);
#226=LINE('',#538,#255);
#227=LINE('',#540,#256);
#228=LINE('',#550,#257);
#229=LINE('',#555,#258);
#230=LINE('',#557,#259);
#231=LINE('',#559,#260);
#232=LINE('',#563,#261);
#233=LINE('',#566,#262);
#234=LINE('',#567,#263);
#235=LINE('',#569,#264);
#236=LINE('',#571,#265);
#237=LINE('',#587,#266);
#238=LINE('',#591,#267);
#239=LINE('',#594,#268);
#240=LINE('',#596,#269);
#241=LINE('',#598,#270);
#242=LINE('',#600,#271);
#243=LINE('',#603,#272);
#244=LINE('',#607,#273);
#245=LINE('',#608,#274);
#246=LINE('',#610,#275);
#247=LINE('',#614,#276);
#248=LINE('',#616,#277);
#249=LINE('',#618,#278);
#250=VECTOR('',#414,1.);
#251=VECTOR('',#417,1.);
#252=VECTOR('',#420,1.);
#253=VECTOR('',#425,1.);
#254=VECTOR('',#428,1.);
#255=VECTOR('',#429,1.);
#256=VECTOR('',#430,1.);
#257=VECTOR('',#443,1.);
#258=VECTOR('',#446,1.);
#259=VECTOR('',#447,1.);
#260=VECTOR('',#448,1.);
#261=VECTOR('',#453,1.);
#262=VECTOR('',#454,1.);
#263=VECTOR('',#455,1.);
#264=VECTOR('',#458,1.);
#265=VECTOR('',#459,1.);
#266=VECTOR('',#464,1.);
#267=VECTOR('',#469,1.);
#268=VECTOR('',#470,1.);
#269=VECTOR('',#471,1.);
#270=VECTOR('',#472,1.);
#271=VECTOR('',#475,1.);
#272=VECTOR('',#478,1.);
#273=VECTOR('',#483,1.);
#274=VECTOR('',#484,1.);
#275=VECTOR('',#487,1.);
#276=VECTOR('',#490,1.);
#277=VECTOR('',#491,1.);
#278=VECTOR('',#494,1.);
#279=EDGE_LOOP('',(#40,#41,#42,#43,#44));
#280=EDGE_LOOP('',(#45));
#281=EDGE_LOOP('',(#46,#47,#48,#49,#50,#51));
#282=EDGE_LOOP('',(#52));
#283=EDGE_LOOP('',(#53));
#284=EDGE_LOOP('',(#54));
#285=EDGE_LOOP('',(#55));
#286=EDGE_LOOP('',(#56));
#287=EDGE_LOOP('',(#57));
#288=EDGE_LOOP('',(#58,#59,#60,#61,#62,#63));
#289=EDGE_LOOP('',(#64,#65,#66,#67));
#290=EDGE_LOOP('',(#68,#69,#70,#71));
#291=EDGE_LOOP('',(#72,#73,#74,#75,#76,#77));
#292=EDGE_LOOP('',(#78,#79,#80,#81));
#293=EDGE_LOOP('',(#82,#83,#84,#85,#86));
#294=EDGE_LOOP('',(#87,#88,#89,#90,#91));
#295=EDGE_LOOP('',(#92,#93,#94,#95,#96));
#296=EDGE_LOOP('',(#97,#98,#99,#100,#101,#102));
#297=EDGE_LOOP('',(#103));
#298=EDGE_LOOP('',(#104,#105,#106,#107,#108,#109));
#299=EDGE_LOOP('',(#110,#111,#112,#113));
#300=EDGE_LOOP('',(#114,#115,#116,#117,#118,#119,#120));
#301=EDGE_LOOP('',(#121,#122,#123,#124,#125,#126));
#302=EDGE_LOOP('',(#127,#128,#129,#130,#131,#132,#133));
#303=EDGE_LOOP('',(#134,#135,#136,#137));
#304=FACE_BOUND('',#279,.T.);
#305=FACE_BOUND('',#280,.T.);
#306=FACE_BOUND('',#281,.T.);
#307=FACE_BOUND('',#282,.T.);
#308=FACE_BOUND('',#283,.T.);
#309=FACE_BOUND('',#284,.T.);
#310=FACE_BOUND('',#285,.T.);
#311=FACE_BOUND('',#286,.T.);
#312=FACE_BOUND('',#287,.T.);
#313=FACE_BOUND('',#288,.T.);
#314=FACE_BOUND('',#289,.T.);
#315=FACE_BOUND('',#290,.T.);
#316=FACE_BOUND('',#291,.T.);
#317=FACE_BOUND('',#292,.T.);
#318=FACE_BOUND('',#293,.T.);
#319=FACE_BOUND('',#294,.T.);
#320=FACE_BOUND('',#295,.T.);
#321=FACE_BOUND('',#296,.T.);
#322=FACE_BOUND('',#297,.T.);
#323=FACE_BOUND('',#298,.T.);
#324=FACE_BOUND('',#299,.T.);
#325=FACE_BOUND('',#300,.T.);
#326=FACE_BOUND('',#301,.T.);
#327=FACE_BOUND('',#302,.T.);
#328=FACE_BOUND('',#303,.T.);
#329=PLANE('',#372);
#330=PLANE('',#375);
#331=PLANE('',#383);
#332=PLANE('',#386);
#333=PLANE('',#387);
#334=PLANE('',#391);
#335=PLANE('',#392);
#336=PLANE('',#394);
#337=PLANE('',#396);
#338=PLANE('',#398);
#339=PLANE('',#399);
#340=ADVANCED_FACE('',(#304),#329,.T.);
#341=ADVANCED_FACE('',(#305,#306),#330,.T.);
#342=ADVANCED_FACE('',(#307,#308),#13,.F.);
#343=ADVANCED_FACE('',(#309,#310),#14,.F.);
#344=ADVANCED_FACE('',(#311,#312,#313),#331,.F.);
#345=ADVANCED_FACE('',(#314),#332,.T.);
#346=ADVANCED_FACE('',(#315),#333,.T.);
#347=ADVANCED_FACE('',(#316),#15,.F.);
#348=ADVANCED_FACE('',(#317),#334,.T.);
#349=ADVANCED_FACE('',(#318),#335,.T.);
#350=ADVANCED_FACE('',(#319),#336,.T.);
#351=ADVANCED_FACE('',(#320),#337,.T.);
#352=ADVANCED_FACE('',(#321),#338,.T.);
#353=ADVANCED_FACE('',(#322,#323),#339,.T.);
#354=ADVANCED_FACE('',(#324),#16,.T.);
#355=ADVANCED_FACE('',(#325),#17,.T.);
#356=ADVANCED_FACE('',(#326),#18,.T.);
#357=ADVANCED_FACE('',(#327),#19,.T.);
#358=ADVANCED_FACE('',(#328),#20,.T.);
#359=CLOSED_SHELL('',(#340,#341,#342,#343,#344,#345,#346,#347,#348,#349,
#350,#351,#352,#353,#354,#355,#356,#357,#358));
#360=STYLED_ITEM('',(#361),#368);
#361=PRESENTATION_STYLE_ASSIGNMENT((#362));
#362=SURFACE_STYLE_USAGE(.BOTH.,#363);
#363=SURFACE_SIDE_STYLE('',(#364));
#364=SURFACE_STYLE_FILL_AREA(#365);
#365=FILL_AREA_STYLE('',(#366));
#366=FILL_AREA_STYLE_COLOUR('',#367);
#367=COLOUR_RGB('',0.615686274509804,0.811764705882353,0.929411764705882);
#368=MANIFOLD_SOLID_BREP('Arm Mount RL 2',#359);
#369=SHAPE_DEFINITION_REPRESENTATION(#636,#370);
#370=SHAPE_REPRESENTATION('Arm Mount RL 2',(#371),#631);
#371=AXIS2_PLACEMENT_3D('',#517,#410,#411);
#372=AXIS2_PLACEMENT_3D('',#518,#412,#413);
#373=AXIS2_PLACEMENT_3D('',#522,#415,#416);
#374=AXIS2_PLACEMENT_3D('',#526,#418,#419);
#375=AXIS2_PLACEMENT_3D('',#529,#421,#422);
#376=AXIS2_PLACEMENT_3D('',#530,#423,#424);
#377=AXIS2_PLACEMENT_3D('',#535,#426,#427);
#378=AXIS2_PLACEMENT_3D('',#541,#431,#432);
#379=AXIS2_PLACEMENT_3D('',#542,#433,#434);
#380=AXIS2_PLACEMENT_3D('',#544,#435,#436);
#381=AXIS2_PLACEMENT_3D('',#546,#437,#438);
#382=AXIS2_PLACEMENT_3D('',#547,#439,#440);
#383=AXIS2_PLACEMENT_3D('',#549,#441,#442);
#384=AXIS2_PLACEMENT_3D('',#553,#444,#445);
#385=AXIS2_PLACEMENT_3D('',#561,#449,#450);
#386=AXIS2_PLACEMENT_3D('',#562,#451,#452);
#387=AXIS2_PLACEMENT_3D('',#568,#456,#457);
#388=AXIS2_PLACEMENT_3D('',#572,#460,#461);
#389=AXIS2_PLACEMENT_3D('',#585,#462,#463);
#390=AXIS2_PLACEMENT_3D('',#589,#465,#466);
#391=AXIS2_PLACEMENT_3D('',#590,#467,#468);
#392=AXIS2_PLACEMENT_3D('',#599,#473,#474);
#393=AXIS2_PLACEMENT_3D('',#602,#476,#477);
#394=AXIS2_PLACEMENT_3D('',#604,#479,#480);
#395=AXIS2_PLACEMENT_3D('',#605,#481,#482);
#396=AXIS2_PLACEMENT_3D('',#609,#485,#486);
#397=AXIS2_PLACEMENT_3D('',#613,#488,#489);
#398=AXIS2_PLACEMENT_3D('',#617,#492,#493);
#399=AXIS2_PLACEMENT_3D('',#619,#495,#496);
#400=AXIS2_PLACEMENT_3D('',#620,#497,#498);
#401=AXIS2_PLACEMENT_3D('',#621,#499,#500);
#402=AXIS2_PLACEMENT_3D('',#622,#501,#502);
#403=AXIS2_PLACEMENT_3D('',#623,#503,#504);
#404=AXIS2_PLACEMENT_3D('',#624,#505,#506);
#405=AXIS2_PLACEMENT_3D('',#625,#507,#508);
#406=AXIS2_PLACEMENT_3D('',#626,#509,#510);
#407=AXIS2_PLACEMENT_3D('',#627,#511,#512);
#408=AXIS2_PLACEMENT_3D('',#628,#513,#514);
#409=AXIS2_PLACEMENT_3D('',#629,#515,#516);
#410=DIRECTION('',(0.,0.,1.));
#411=DIRECTION('',(1.,0.,0.));
#412=DIRECTION('',(-0.707108195398695,-0.707105366971571,0.));
#413=DIRECTION('',(0.707105366971571,-0.707108195398695,0.));
#414=DIRECTION('',(0.,0.,1.));
#415=DIRECTION('',(-0.707108195398695,-0.707105366971571,0.));
#416=DIRECTION('',(0.705326332689142,-0.705329154000114,0.0708911061612801));
#417=DIRECTION('',(0.707105366971571,-0.707108195398695,0.));
#418=DIRECTION('',(-0.707108195398695,-0.707105366971571,0.));
#419=DIRECTION('',(0.707105366971571,-0.707108195398695,0.));
#420=DIRECTION('',(-0.707105366971571,0.707108195398695,0.));
#421=DIRECTION('',(0.,0.,1.));
#422=DIRECTION('',(1.,0.,0.));
#423=DIRECTION('',(0.,0.,1.));
#424=DIRECTION('',(1.,0.,0.));
#425=DIRECTION('',(0.707108195398695,0.707105366971571,0.));
#426=DIRECTION('',(0.,0.,1.));
#427=DIRECTION('',(1.,0.,0.));
#428=DIRECTION('',(-0.034468268325012,0.999405792698179,0.));
#429=DIRECTION('',(0.707108195398695,0.707105366971572,0.));
#430=DIRECTION('',(0.707105366971572,-0.707108195398695,0.));
#431=DIRECTION('',(0.,0.,-1.));
#432=DIRECTION('',(-1.,0.,0.));
#433=DIRECTION('',(0.,0.,1.));
#434=DIRECTION('',(1.,0.,0.));
#435=DIRECTION('',(0.,0.,1.));
#436=DIRECTION('',(1.,0.,0.));
#437=DIRECTION('',(0.,0.,-1.));
#438=DIRECTION('',(-1.,0.,0.));
#439=DIRECTION('',(0.,0.,1.));
#440=DIRECTION('',(1.,0.,0.));
#441=DIRECTION('',(0.,0.,1.));
#442=DIRECTION('',(1.,0.,0.));
#443=DIRECTION('',(0.707105366971571,-0.707108195398695,0.));
#444=DIRECTION('',(0.,0.,1.));
#445=DIRECTION('',(0.034468268325012,-0.999405792698179,0.));
#446=DIRECTION('',(-0.707108195398695,-0.707105366971571,0.));
#447=DIRECTION('',(-0.707105366971572,0.707108195398695,0.));
#448=DIRECTION('',(0.707108195398695,0.707105366971571,0.));
#449=DIRECTION('',(0.,0.,1.));
#450=DIRECTION('',(-0.999540346319673,0.030316597420354,0.));
#451=DIRECTION('',(-0.0536891296004307,-0.0536889148443418,-0.997113322439122));
#452=DIRECTION('',(-0.998553526093075,0.,0.0537666767346309));
#453=DIRECTION('',(0.707105366971572,-0.707108195398695,-2.66413970720472E-18));
#454=DIRECTION('',(0.0344218392786769,-0.998059584718737,0.0518864368764706));
#455=DIRECTION('',(-0.998181982140173,0.03027539750268,0.0521165121316602));
#456=DIRECTION('',(-0.999405792698179,-0.034468268325012,0.));
#457=DIRECTION('',(0.034468268325012,-0.999405792698179,0.));
#458=DIRECTION('',(0.,0.,-1.));
#459=DIRECTION('',(0.0344218392786769,-0.998059584718737,0.0518864368764705));
#460=DIRECTION('',(0.707108195398695,0.707105366971572,0.));
#461=DIRECTION('',(-0.707105366971572,0.707108195398695,0.));
#462=DIRECTION('',(-0.707108195398695,-0.707105366971571,0.));
#463=DIRECTION('',(0.707105366971571,-0.707108195398695,0.));
#464=DIRECTION('',(0.707108195398695,0.707105366971572,0.));
#465=DIRECTION('',(0.707108195398695,0.707105366971572,0.));
#466=DIRECTION('',(-0.707105366971572,0.707108195398695,0.));
#467=DIRECTION('',(-0.030316597420354,-0.999540346319673,0.));
#468=DIRECTION('',(0.999540346319673,-0.030316597420354,0.));
#469=DIRECTION('',(0.,0.,1.));
#470=DIRECTION('',(-0.998181982140173,0.03027539750268,0.0521165121316602));
#471=DIRECTION('',(0.,0.,-1.));
#472=DIRECTION('',(-0.999540346319673,0.030316597420354,0.));
#473=DIRECTION('',(-0.707108195398695,-0.707105366971571,0.));
#474=DIRECTION('',(0.707105366971571,-0.707108195398695,0.));
#475=DIRECTION('',(0.707105366971571,-0.707108195398695,0.));
#476=DIRECTION('',(-0.707108195398695,-0.707105366971571,0.));
#477=DIRECTION('',(-0.705296548690568,0.705299369882404,0.0714813069876142));
#478=DIRECTION('',(-0.707105366971571,0.707108195398695,0.));
#479=DIRECTION('',(-0.707105366971571,0.707108195398695,0.));
#480=DIRECTION('',(-0.707108195398695,-0.707105366971571,0.));
#481=DIRECTION('',(-0.707105366971571,0.707108195398695,0.));
#482=DIRECTION('',(-0.705067002037925,-0.705064181775559,0.075927743377601));
#483=DIRECTION('',(0.,0.,-1.));
#484=DIRECTION('',(0.,0.,-1.));
#485=DIRECTION('',(0.707105366971571,-0.707108195398695,0.));
#486=DIRECTION('',(0.707108195398695,0.707105366971571,0.));
#487=DIRECTION('',(0.,0.,-1.));
#488=DIRECTION('',(0.707105366971571,-0.707108195398695,0.));
#489=DIRECTION('',(-0.705067002037925,-0.705064181775559,0.075927743377601));
#490=DIRECTION('',(0.,0.,-1.));
#491=DIRECTION('',(-0.707108195398695,-0.707105366971571,0.));
#492=DIRECTION('',(0.707108195398695,0.707105366971572,0.));
#493=DIRECTION('',(-0.707105366971572,0.707108195398695,0.));
#494=DIRECTION('',(0.707105366971572,-0.707108195398695,0.));
#495=DIRECTION('',(0.,0.,1.));
#496=DIRECTION('',(1.,0.,0.));
#497=DIRECTION('',(0.,0.,1.));
#498=DIRECTION('',(1.,0.,0.));
#499=DIRECTION('',(0.,0.,-1.));
#500=DIRECTION('',(-1.,0.,0.));
#501=DIRECTION('',(-0.724965349506634,0.0219885897809168,-0.688434269871983));
#502=DIRECTION('',(0.688117828526173,-0.0208709846100842,-0.725298735739854));
#503=DIRECTION('',(-0.998181982140173,0.03027539750268,0.0521165121316602));
#504=DIRECTION('',(0.0521404135534775,0.,0.998639763515589));
#505=DIRECTION('',(-0.917503564871682,0.39673787266252,0.0280404857834567));
#506=DIRECTION('',(-0.394087155094533,-0.91636049719423,0.070560281826553));
#507=DIRECTION('',(0.707105366971571,-0.707108195398695,0.));
#508=DIRECTION('',(0.707108195398695,0.707105366971571,0.));
#509=DIRECTION('',(0.39863874206084,-0.916683748268691,0.0278937087568909));
#510=DIRECTION('',(0.915535160816284,0.395990411604752,-0.0706184340395663));
#511=DIRECTION('',(0.0344218392786769,-0.998059584718737,0.0518864368764705));
#512=DIRECTION('',(0.,-0.0519172033798706,-0.998651392625682));
#513=DIRECTION('',(0.0249970578314391,-0.724788497106575,-0.688517814992296));
#514=DIRECTION('',(0.0237320167937054,-0.688108692679193,0.725219427785988));
#515=DIRECTION('',(0.,0.,-1.));
#516=DIRECTION('',(-1.,0.,0.));
#517=CARTESIAN_POINT('',(0.,0.,0.));
#518=CARTESIAN_POINT('',(-0.0928816834727155,-0.0928098567619957,0.0215391479432583));
#519=CARTESIAN_POINT('',(-0.0987188382770658,-0.0869726786089795,0.0215391479432583));
#520=CARTESIAN_POINT('',(-0.0987188382770658,-0.0869726786089795,0.021002));
#521=CARTESIAN_POINT('',(-0.0987188382770658,-0.0869726786089795,0.0165803068800005));
#522=CARTESIAN_POINT('',(-0.095112593925168,-0.0905789373858835,0.0167740220846325));
#523=CARTESIAN_POINT('',(-0.0987180831596213,-0.0869734337294445,0.0165090438164061));
#524=CARTESIAN_POINT('',(-0.0928816834727155,-0.0928098567619957,0.0165090438164061));
#525=CARTESIAN_POINT('',(-0.097354059312445,-0.088337463032727,0.0165090438164061));
#526=CARTESIAN_POINT('',(-0.0929615312021171,-0.0927300087132026,0.02155));
#527=CARTESIAN_POINT('',(-0.0986050868721365,-0.0870864304689154,0.021002));
#528=CARTESIAN_POINT('',(-0.0928816834727155,-0.0928098567619957,0.021002));
#529=CARTESIAN_POINT('',(0.000680295059272966,0.000231400649031973,0.021002));
#530=CARTESIAN_POINT('',(-0.0876276009427248,-0.0515362410507522,0.021002));
#531=CARTESIAN_POINT('',(-0.0852026009427248,-0.0515362410507522,0.021002));
#532=CARTESIAN_POINT('',(-0.0929308841239438,-0.0426973956793364,0.021002));
#533=CARTESIAN_POINT('',(-0.098932697118657,-0.0486991846668456,0.021002));
#534=CARTESIAN_POINT('',(-0.0858598021699568,-0.0356263420096206,0.021002));
#535=CARTESIAN_POINT('',(-0.0964721118626693,-0.051159779765194,0.021002));
#536=CARTESIAN_POINT('',(-0.0999498441401005,-0.0512797224453114,0.021002));
#537=CARTESIAN_POINT('',(-0.101597570533881,-0.00350397440951067,0.021002));
#538=CARTESIAN_POINT('',(-0.10673400268644,-0.0952153137676206,0.021002));
#539=CARTESIAN_POINT('',(-0.0665023748010357,-0.054983846808406,0.021002));
#540=CARTESIAN_POINT('',(-0.0608588191310164,-0.0606274250526932,0.021002));
#541=CARTESIAN_POINT('',(-0.0517677422042753,-0.0873962432289235,0.01135));
#542=CARTESIAN_POINT('',(-0.0517677422042753,-0.0873962432289235,0.01135));
#543=CARTESIAN_POINT('',(-0.0493427422042753,-0.0873962432289235,0.01135));
#544=CARTESIAN_POINT('',(-0.0517677422042753,-0.0873962432289235,0.021002));
#545=CARTESIAN_POINT('',(-0.0493427422042753,-0.0873962432289235,0.021002));
#546=CARTESIAN_POINT('',(-0.0876276009427248,-0.0515362410507522,0.01135));
#547=CARTESIAN_POINT('',(-0.0876276009427248,-0.0515362410507522,0.01135));
#548=CARTESIAN_POINT('',(-0.0852026009427248,-0.0515362410507522,0.01135));
#549=CARTESIAN_POINT('',(0.000680295059272973,0.000231400649031973,0.01135));
#550=CARTESIAN_POINT('',(-0.0964664392430729,-0.0533039903260455,0.01135));
#551=CARTESIAN_POINT('',(-0.0965958963839952,-0.0531745326672936,0.01135));
#552=CARTESIAN_POINT('',(-0.0533917675464926,-0.0963788343216571,0.01135));
#553=CARTESIAN_POINT('',(-0.0987109295920729,0.0137546332962162,0.01135));
#554=CARTESIAN_POINT('',(-0.0979798560550591,-0.0477463474146044,0.01135));
#555=CARTESIAN_POINT('',(-0.0249609556584882,0.0252722609069491,0.01135));
#556=CARTESIAN_POINT('',(-0.0858598021699568,-0.0356263420096206,0.01135));
#557=CARTESIAN_POINT('',(-0.0608190420752803,-0.0606672022675379,0.01135));
#558=CARTESIAN_POINT('',(-0.0358578360920759,-0.0856285080957658,0.01135));
#559=CARTESIAN_POINT('',(0.0250410104193927,-0.024729905179196,0.01135));
#560=CARTESIAN_POINT('',(-0.0479711707368901,-0.0977417942873383,0.01135));
#561=CARTESIAN_POINT('',(0.0132509050941557,-0.0982076492382466,0.01135));
#562=CARTESIAN_POINT('',(0.000175896522555102,0.00017589581897042,0.00326674631002026));
#563=CARTESIAN_POINT('',(-0.0905721882151864,-0.0905718259271583,0.0130392888769824));
#564=CARTESIAN_POINT('',(-0.085746536710128,-0.0953974967348613,0.0130392888769824));
#565=CARTESIAN_POINT('',(-0.0954752098670701,-0.0856687846631488,0.0130392888769824));
#566=CARTESIAN_POINT('',(-0.0983285284289124,-0.00293694933479322,0.00873828298799135));
#567=CARTESIAN_POINT('',(-0.00251611360161994,-0.097921920325962,0.00869370917982392));
#568=CARTESIAN_POINT('',(-0.101597570533881,-0.00350397440951067,0.));
#569=CARTESIAN_POINT('',(-0.0999498441401005,-0.0512797224453114,0.));
#570=CARTESIAN_POINT('',(-0.0999498441401005,-0.0512797224453114,0.0147247259655176));
#571=CARTESIAN_POINT('',(-0.10161943327316,-0.00287006532903526,0.012208037927415));
#572=CARTESIAN_POINT('',(-0.10109044701642,-0.100858892011908,0.02155));
#573=CARTESIAN_POINT('',(-0.097354059312445,-0.088337463032727,0.0165090438164061));
#574=CARTESIAN_POINT('',(-0.0970782499664215,-0.0886132734819901,0.0160283789951316));
#575=CARTESIAN_POINT('',(-0.0963211936943636,-0.0890953378444471,0.0151780655139887));
#576=CARTESIAN_POINT('',(-0.0948646252350328,-0.0897510300161928,0.0142655236135316));
#577=CARTESIAN_POINT('',(-0.0932569346803768,-0.0904530838507491,0.0136923235679393));
#578=CARTESIAN_POINT('',(-0.0917045647569927,-0.0914793598172531,0.0134783249970679));
#579=CARTESIAN_POINT('',(-0.0906810866524115,-0.0930330940771557,0.0136943833612372));
#580=CARTESIAN_POINT('',(-0.0899811887175294,-0.0946363563592677,0.0142673562203664));
#581=CARTESIAN_POINT('',(-0.0893262446287261,-0.0960906596445871,0.0151791645944446));
#582=CARTESIAN_POINT('',(-0.0888448618914833,-0.0968466944905465,0.0160282928100905));
#583=CARTESIAN_POINT('',(-0.0885690030917891,-0.0971225543936782,0.0165090438164061));
#584=CARTESIAN_POINT('',(-0.0885690030917891,-0.0971225543936782,0.0165090438164061));
#585=CARTESIAN_POINT('',(-0.0929615312021171,-0.0927300087132026,0.02155));
#586=CARTESIAN_POINT('',(-0.0873179755320977,-0.0983735869574898,0.021002));
#587=CARTESIAN_POINT('',(-0.0954468913464011,-0.106502470256195,0.021002));
#588=CARTESIAN_POINT('',(-0.0552152634609969,-0.0662710032969805,0.021002));
#589=CARTESIAN_POINT('',(-0.0608588191310163,-0.0606274250526932,0.02155));
#590=CARTESIAN_POINT('',(-0.00306927006943435,-0.101194049767977,0.));
#591=CARTESIAN_POINT('',(-0.0870445286683652,-0.0986470349150119,0.0215391479432583));
#592=CARTESIAN_POINT('',(-0.0870445286683652,-0.0986470349150119,0.0165810602837512));
#593=CARTESIAN_POINT('',(-0.0870445286683652,-0.0986470349150119,0.021002));
#594=CARTESIAN_POINT('',(-0.00243478186413971,-0.10121329413721,0.0121634641192476));
#595=CARTESIAN_POINT('',(-0.0515028879001884,-0.0997250320351833,0.0147253802720741));
#596=CARTESIAN_POINT('',(-0.0515028879001884,-0.0997250320351833,0.));
#597=CARTESIAN_POINT('',(-0.0515028879001884,-0.0997250320351833,0.021002));
#598=CARTESIAN_POINT('',(-0.00306927006943435,-0.101194049767977,0.021002));
#599=CARTESIAN_POINT('',(-0.0928816834727155,-0.0928098567619957,0.0215391479432583));
#600=CARTESIAN_POINT('',(-0.0928816834727155,-0.0928098567619957,0.0165090438164061));
#601=CARTESIAN_POINT('',(-0.0870452964120788,-0.0986462671682273,0.0165090438164061));
#602=CARTESIAN_POINT('',(-0.0906348097045037,-0.0950567395177206,0.0167740220846325));
#603=CARTESIAN_POINT('',(-0.0928816834727155,-0.0928098567619957,0.021002));
#604=CARTESIAN_POINT('',(-0.0929308841239438,-0.0426973956793364,0.03175));
#605=CARTESIAN_POINT('',(-0.0966361785074343,-0.046402675241679,0.0144774168796139));
#606=CARTESIAN_POINT('',(-0.098932697118657,-0.0486991846668456,0.0120451752333648));
#607=CARTESIAN_POINT('',(-0.098932697118657,-0.0486991846668456,0.03175));
#608=CARTESIAN_POINT('',(-0.0858598021699568,-0.0356263420096206,0.03175));
#609=CARTESIAN_POINT('',(-0.0429289180460629,-0.0926995617654815,0.03175));
#610=CARTESIAN_POINT('',(-0.0489368069484973,-0.0987074266364084,0.03175));
#611=CARTESIAN_POINT('',(-0.0489368069484973,-0.0987074266364084,0.021002));
#612=CARTESIAN_POINT('',(-0.0489368069484973,-0.0987074266364084,0.0120556351028305));
#613=CARTESIAN_POINT('',(-0.046621070984104,-0.0963916999349404,0.0144760016945396));
#614=CARTESIAN_POINT('',(-0.0358578360920759,-0.0856285080957658,0.03175));
#615=CARTESIAN_POINT('',(-0.0358578360920759,-0.0856285080957658,0.021002));
#616=CARTESIAN_POINT('',(-0.0429289180460629,-0.0926995617654815,0.021002));
#617=CARTESIAN_POINT('',(-0.0608588191310164,-0.0606274250526932,0.03175));
#618=CARTESIAN_POINT('',(-0.0608588191310164,-0.0606274250526932,0.021002));
#619=CARTESIAN_POINT('',(0.000680295059272966,0.000231400649031973,0.021002));
#620=CARTESIAN_POINT('',(-0.051397392204485,-0.0962468315380601,0.021002));
#621=CARTESIAN_POINT('',(-0.051397392204485,-0.0962468315380601,0.03175));
#622=CARTESIAN_POINT('',(-0.051397392204485,-0.0962468315380601,0.0147253802720741));
#623=CARTESIAN_POINT('',(-0.00232928616843636,-0.0977350936400867,0.0121634641192476));
#624=CARTESIAN_POINT('',(-0.0855597092769445,-0.095210670048986,0.0165090438164061));
#625=CARTESIAN_POINT('',(-0.0904210883743671,-0.090349271506008,0.0165090438164061));
#626=CARTESIAN_POINT('',(-0.0952883824338865,-0.0854819579772734,0.0165090438164061));
#627=CARTESIAN_POINT('',(-0.0981417009957289,-0.00275012264891788,0.012208037927415));
#628=CARTESIAN_POINT('',(-0.0964721118626693,-0.051159779765194,0.0147247259655176));
#629=CARTESIAN_POINT('',(-0.0964721118626693,-0.051159779765194,0.));
#630=MECHANICAL_DESIGN_GEOMETRIC_PRESENTATION_REPRESENTATION('',(#360),
#631);
#631=(
GEOMETRIC_REPRESENTATION_CONTEXT(3)
GLOBAL_UNCERTAINTY_ASSIGNED_CONTEXT((#632))
GLOBAL_UNIT_ASSIGNED_CONTEXT((#635,#634,#633))
REPRESENTATION_CONTEXT('Arm Mount RL 2','TOP_LEVEL_ASSEMBLY_PART')
);
#632=UNCERTAINTY_MEASURE_WITH_UNIT(LENGTH_MEASURE(2.E-5),#635,
'DISTANCE_ACCURACY_VALUE','Maximum Tolerance applied to model');
#633=(
NAMED_UNIT(*)
SI_UNIT($,.STERADIAN.)
SOLID_ANGLE_UNIT()
);
#634=(
NAMED_UNIT(*)
PLANE_ANGLE_UNIT()
SI_UNIT($,.RADIAN.)
);
#635=(
LENGTH_UNIT()
NAMED_UNIT(*)
SI_UNIT($,.METRE.)
);
#636=PRODUCT_DEFINITION_SHAPE('','',#637);
#637=PRODUCT_DEFINITION('','',#639,#638);
#638=PRODUCT_DEFINITION_CONTEXT('',#645,'design');
#639=PRODUCT_DEFINITION_FORMATION_WITH_SPECIFIED_SOURCE('','',#641,
 .NOT_KNOWN.);
#640=PRODUCT_RELATED_PRODUCT_CATEGORY('','',(#641));
#641=PRODUCT('Arm Mount RL 2','Arm Mount RL 2','Arm Mount RL 2',(#643));
#642=PRODUCT_CATEGORY('','');
#643=PRODUCT_CONTEXT('',#645,'mechanical');
#644=APPLICATION_PROTOCOL_DEFINITION('international standard',
'ap242_managed_model_based_3d_engineering',2020,#645);
#645=APPLICATION_CONTEXT('managed model based 3d engineering');
ENDSEC;
END-ISO-10303-21;
