ISO-10303-21;
HEADER;
/* Generated by software containing ST-Developer
 * from STEP Tools, Inc. (www.steptools.com) 
 */
/* OPTION: using custom renumber hook */

FILE_DESCRIPTION(
/* description */ ('STEP AP242 Edition 2',
'CAx-IF Rec.Pracs.---Representation and Presentation of Product Manufa
cturing Information (PMI)---4.0---2014-10-13',
'CAx-IF Rec.Pracs.---3D Tessellated Geometry---0.4---2014-09-14','2;1',
'CAx-IF Rec.Pracs.---User Defined Attributes---1.5---2016-08-15'),
/* implementation_level */ '2;1');

FILE_NAME(
/* name */ 'Part Studio 1 - Arm Mount FR 2',
/* time_stamp */ '2026-06-27T17:58:52Z',
/* author */ (''),
/* organization */ (''),
/* preprocessor_version */ 'ST-DEVELOPER v20',
/* originating_system */ 'ONSHAPE BY PTC INC, 1.217',
/* authorisation */ '  ');

FILE_SCHEMA (('AP242_MANAGED_MODEL_BASED_3D_ENGINEERING_MIM_LF { 1 0 10303 442 3 1 4 }'));
ENDSEC;

DATA;
#10=SHAPE_REPRESENTATION_RELATIONSHIP('','',#370,#11);
#11=ADVANCED_BREP_SHAPE_REPRESENTATION('',(#368),#627);
#12=B_SPLINE_CURVE_WITH_KNOTS('',3,(#592,#593,#594,#595,#596,#597,#598),
 .UNSPECIFIED.,.F.,.F.,(4,1,1,1,4),(0.,0.00272336356313567,0.00544672712627133,
0.008170090689407,0.0108934542525427),.UNSPECIFIED.);
#13=CYLINDRICAL_SURFACE('',#375,0.002425);
#14=CYLINDRICAL_SURFACE('',#378,0.002425);
#15=CYLINDRICAL_SURFACE('',#392,0.007);
#16=CYLINDRICAL_SURFACE('',#401,0.0034798);
#17=CYLINDRICAL_SURFACE('',#403,0.0034798);
#18=CYLINDRICAL_SURFACE('',#405,0.0034798);
#19=CYLINDRICAL_SURFACE('',#407,0.0034798);
#20=CYLINDRICAL_SURFACE('',#409,0.0034798);
#21=CIRCLE('',#374,0.007);
#22=CIRCLE('',#376,0.002425);
#23=CIRCLE('',#377,0.002425);
#24=CIRCLE('',#379,0.002425);
#25=CIRCLE('',#380,0.002425);
#26=CIRCLE('',#384,0.007);
#27=CIRCLE('',#388,0.007);
#28=CIRCLE('',#398,0.0034798);
#29=CIRCLE('',#400,0.0034798);
#30=LINE('',#522,#59);
#31=LINE('',#526,#60);
#32=LINE('',#528,#61);
#33=LINE('',#543,#62);
#34=LINE('',#545,#63);
#35=LINE('',#547,#64);
#36=LINE('',#549,#65);
#37=LINE('',#551,#66);
#38=LINE('',#554,#67);
#39=LINE('',#556,#68);
#40=LINE('',#557,#69);
#41=LINE('',#561,#70);
#42=LINE('',#563,#71);
#43=LINE('',#567,#72);
#44=LINE('',#572,#73);
#45=LINE('',#576,#74);
#46=LINE('',#578,#75);
#47=LINE('',#580,#76);
#48=LINE('',#582,#77);
#49=LINE('',#584,#78);
#50=LINE('',#586,#79);
#51=LINE('',#588,#80);
#52=LINE('',#590,#81);
#53=LINE('',#599,#82);
#54=LINE('',#600,#83);
#55=LINE('',#602,#84);
#56=LINE('',#608,#85);
#57=LINE('',#611,#86);
#58=LINE('',#612,#87);
#59=VECTOR('',#416,1.);
#60=VECTOR('',#419,1.);
#61=VECTOR('',#420,1.);
#62=VECTOR('',#437,1.);
#63=VECTOR('',#438,1.);
#64=VECTOR('',#439,1.);
#65=VECTOR('',#440,1.);
#66=VECTOR('',#443,1.);
#67=VECTOR('',#444,1.);
#68=VECTOR('',#445,1.);
#69=VECTOR('',#446,1.);
#70=VECTOR('',#451,1.);
#71=VECTOR('',#452,1.);
#72=VECTOR('',#455,1.);
#73=VECTOR('',#460,1.);
#74=VECTOR('',#463,1.);
#75=VECTOR('',#464,1.);
#76=VECTOR('',#467,1.);
#77=VECTOR('',#468,1.);
#78=VECTOR('',#469,1.);
#79=VECTOR('',#472,1.);
#80=VECTOR('',#473,1.);
#81=VECTOR('',#474,1.);
#82=VECTOR('',#477,1.);
#83=VECTOR('',#478,1.);
#84=VECTOR('',#481,1.);
#85=VECTOR('',#488,1.);
#86=VECTOR('',#489,1.);
#87=VECTOR('',#490,1.);
#88=ORIENTED_EDGE('',*,*,#186,.T.);
#89=ORIENTED_EDGE('',*,*,#187,.T.);
#90=ORIENTED_EDGE('',*,*,#188,.F.);
#91=ORIENTED_EDGE('',*,*,#189,.T.);
#92=ORIENTED_EDGE('',*,*,#190,.F.);
#93=ORIENTED_EDGE('',*,*,#191,.F.);
#94=ORIENTED_EDGE('',*,*,#192,.T.);
#95=ORIENTED_EDGE('',*,*,#193,.F.);
#96=ORIENTED_EDGE('',*,*,#194,.T.);
#97=ORIENTED_EDGE('',*,*,#195,.T.);
#98=ORIENTED_EDGE('',*,*,#196,.T.);
#99=ORIENTED_EDGE('',*,*,#197,.F.);
#100=ORIENTED_EDGE('',*,*,#198,.T.);
#101=ORIENTED_EDGE('',*,*,#199,.F.);
#102=ORIENTED_EDGE('',*,*,#200,.F.);
#103=ORIENTED_EDGE('',*,*,#201,.T.);
#104=ORIENTED_EDGE('',*,*,#202,.F.);
#105=ORIENTED_EDGE('',*,*,#198,.F.);
#106=ORIENTED_EDGE('',*,*,#203,.F.);
#107=ORIENTED_EDGE('',*,*,#204,.F.);
#108=ORIENTED_EDGE('',*,*,#205,.F.);
#109=ORIENTED_EDGE('',*,*,#206,.T.);
#110=ORIENTED_EDGE('',*,*,#207,.T.);
#111=ORIENTED_EDGE('',*,*,#208,.F.);
#112=ORIENTED_EDGE('',*,*,#201,.F.);
#113=ORIENTED_EDGE('',*,*,#209,.F.);
#114=ORIENTED_EDGE('',*,*,#210,.T.);
#115=ORIENTED_EDGE('',*,*,#211,.T.);
#116=ORIENTED_EDGE('',*,*,#212,.F.);
#117=ORIENTED_EDGE('',*,*,#213,.T.);
#118=ORIENTED_EDGE('',*,*,#214,.T.);
#119=ORIENTED_EDGE('',*,*,#215,.T.);
#120=ORIENTED_EDGE('',*,*,#216,.T.);
#121=ORIENTED_EDGE('',*,*,#190,.T.);
#122=ORIENTED_EDGE('',*,*,#217,.T.);
#123=ORIENTED_EDGE('',*,*,#218,.T.);
#124=ORIENTED_EDGE('',*,*,#219,.T.);
#125=ORIENTED_EDGE('',*,*,#212,.T.);
#126=ORIENTED_EDGE('',*,*,#188,.T.);
#127=ORIENTED_EDGE('',*,*,#220,.T.);
#128=ORIENTED_EDGE('',*,*,#209,.T.);
#129=ORIENTED_EDGE('',*,*,#221,.F.);
#130=ORIENTED_EDGE('',*,*,#204,.T.);
#131=ORIENTED_EDGE('',*,*,#222,.F.);
#132=ORIENTED_EDGE('',*,*,#191,.T.);
#133=ORIENTED_EDGE('',*,*,#193,.T.);
#134=ORIENTED_EDGE('',*,*,#223,.F.);
#135=ORIENTED_EDGE('',*,*,#224,.T.);
#136=ORIENTED_EDGE('',*,*,#199,.T.);
#137=ORIENTED_EDGE('',*,*,#202,.T.);
#138=ORIENTED_EDGE('',*,*,#208,.T.);
#139=ORIENTED_EDGE('',*,*,#225,.T.);
#140=ORIENTED_EDGE('',*,*,#226,.T.);
#141=ORIENTED_EDGE('',*,*,#227,.T.);
#142=ORIENTED_EDGE('',*,*,#223,.T.);
#143=ORIENTED_EDGE('',*,*,#228,.T.);
#144=ORIENTED_EDGE('',*,*,#192,.F.);
#145=ORIENTED_EDGE('',*,*,#197,.T.);
#146=ORIENTED_EDGE('',*,*,#229,.T.);
#147=ORIENTED_EDGE('',*,*,#214,.F.);
#148=ORIENTED_EDGE('',*,*,#189,.F.);
#149=ORIENTED_EDGE('',*,*,#222,.T.);
#150=ORIENTED_EDGE('',*,*,#203,.T.);
#151=ORIENTED_EDGE('',*,*,#194,.F.);
#152=ORIENTED_EDGE('',*,*,#219,.F.);
#153=ORIENTED_EDGE('',*,*,#230,.T.);
#154=ORIENTED_EDGE('',*,*,#205,.T.);
#155=ORIENTED_EDGE('',*,*,#200,.T.);
#156=ORIENTED_EDGE('',*,*,#221,.T.);
#157=ORIENTED_EDGE('',*,*,#213,.F.);
#158=ORIENTED_EDGE('',*,*,#230,.F.);
#159=ORIENTED_EDGE('',*,*,#218,.F.);
#160=ORIENTED_EDGE('',*,*,#231,.F.);
#161=ORIENTED_EDGE('',*,*,#206,.F.);
#162=ORIENTED_EDGE('',*,*,#229,.F.);
#163=ORIENTED_EDGE('',*,*,#196,.F.);
#164=ORIENTED_EDGE('',*,*,#232,.F.);
#165=ORIENTED_EDGE('',*,*,#215,.F.);
#166=ORIENTED_EDGE('',*,*,#217,.F.);
#167=ORIENTED_EDGE('',*,*,#211,.F.);
#168=ORIENTED_EDGE('',*,*,#233,.F.);
#169=ORIENTED_EDGE('',*,*,#228,.F.);
#170=ORIENTED_EDGE('',*,*,#225,.F.);
#171=ORIENTED_EDGE('',*,*,#207,.F.);
#172=ORIENTED_EDGE('',*,*,#231,.T.);
#173=ORIENTED_EDGE('',*,*,#224,.F.);
#174=ORIENTED_EDGE('',*,*,#227,.F.);
#175=ORIENTED_EDGE('',*,*,#234,.F.);
#176=ORIENTED_EDGE('',*,*,#186,.F.);
#177=ORIENTED_EDGE('',*,*,#216,.F.);
#178=ORIENTED_EDGE('',*,*,#232,.T.);
#179=ORIENTED_EDGE('',*,*,#195,.F.);
#180=ORIENTED_EDGE('',*,*,#220,.F.);
#181=ORIENTED_EDGE('',*,*,#187,.F.);
#182=ORIENTED_EDGE('',*,*,#234,.T.);
#183=ORIENTED_EDGE('',*,*,#226,.F.);
#184=ORIENTED_EDGE('',*,*,#233,.T.);
#185=ORIENTED_EDGE('',*,*,#210,.F.);
#186=EDGE_CURVE('',#235,#236,#269,.T.);
#187=EDGE_CURVE('',#236,#237,#30,.F.);
#188=EDGE_CURVE('',#238,#237,#21,.T.);
#189=EDGE_CURVE('',#238,#239,#31,.T.);
#190=EDGE_CURVE('',#235,#239,#32,.T.);
#191=EDGE_CURVE('',#240,#240,#22,.T.);
#192=EDGE_CURVE('',#241,#241,#23,.T.);
#193=EDGE_CURVE('',#242,#242,#24,.T.);
#194=EDGE_CURVE('',#243,#243,#25,.T.);
#195=EDGE_CURVE('',#244,#245,#270,.F.);
#196=EDGE_CURVE('',#245,#246,#33,.F.);
#197=EDGE_CURVE('',#247,#246,#34,.T.);
#198=EDGE_CURVE('',#247,#248,#35,.T.);
#199=EDGE_CURVE('',#244,#248,#36,.T.);
#200=EDGE_CURVE('',#249,#250,#37,.T.);
#201=EDGE_CURVE('',#249,#251,#38,.T.);
#202=EDGE_CURVE('',#248,#251,#39,.T.);
#203=EDGE_CURVE('',#252,#247,#40,.T.);
#204=EDGE_CURVE('',#250,#252,#26,.T.);
#205=EDGE_CURVE('',#253,#249,#41,.T.);
#206=EDGE_CURVE('',#253,#254,#42,.F.);
#207=EDGE_CURVE('',#254,#255,#271,.F.);
#208=EDGE_CURVE('',#251,#255,#43,.T.);
#209=EDGE_CURVE('',#256,#257,#27,.T.);
#210=EDGE_CURVE('',#256,#258,#44,.F.);
#211=EDGE_CURVE('',#258,#259,#272,.T.);
#212=EDGE_CURVE('',#260,#259,#45,.F.);
#213=EDGE_CURVE('',#260,#257,#46,.T.);
#214=EDGE_CURVE('',#239,#261,#47,.T.);
#215=EDGE_CURVE('',#261,#262,#48,.T.);
#216=EDGE_CURVE('',#262,#235,#49,.F.);
#217=EDGE_CURVE('',#259,#263,#50,.T.);
#218=EDGE_CURVE('',#263,#264,#51,.F.);
#219=EDGE_CURVE('',#264,#260,#52,.F.);
#220=EDGE_CURVE('',#237,#256,#12,.T.);
#221=EDGE_CURVE('',#250,#257,#53,.F.);
#222=EDGE_CURVE('',#238,#252,#54,.T.);
#223=EDGE_CURVE('',#265,#266,#55,.T.);
#224=EDGE_CURVE('',#265,#244,#273,.F.);
#225=EDGE_CURVE('',#255,#266,#274,.F.);
#226=EDGE_CURVE('',#267,#268,#56,.T.);
#227=EDGE_CURVE('',#268,#265,#57,.T.);
#228=EDGE_CURVE('',#266,#267,#58,.T.);
#229=EDGE_CURVE('',#246,#261,#28,.T.);
#230=EDGE_CURVE('',#264,#253,#29,.T.);
#231=EDGE_CURVE('',#254,#263,#275,.T.);
#232=EDGE_CURVE('',#262,#245,#276,.F.);
#233=EDGE_CURVE('',#267,#258,#277,.T.);
#234=EDGE_CURVE('',#236,#268,#278,.F.);
#235=VERTEX_POINT('',#520);
#236=VERTEX_POINT('',#521);
#237=VERTEX_POINT('',#523);
#238=VERTEX_POINT('',#525);
#239=VERTEX_POINT('',#527);
#240=VERTEX_POINT('',#531);
#241=VERTEX_POINT('',#533);
#242=VERTEX_POINT('',#536);
#243=VERTEX_POINT('',#538);
#244=VERTEX_POINT('',#541);
#245=VERTEX_POINT('',#542);
#246=VERTEX_POINT('',#544);
#247=VERTEX_POINT('',#546);
#248=VERTEX_POINT('',#548);
#249=VERTEX_POINT('',#552);
#250=VERTEX_POINT('',#553);
#251=VERTEX_POINT('',#555);
#252=VERTEX_POINT('',#558);
#253=VERTEX_POINT('',#562);
#254=VERTEX_POINT('',#564);
#255=VERTEX_POINT('',#566);
#256=VERTEX_POINT('',#570);
#257=VERTEX_POINT('',#571);
#258=VERTEX_POINT('',#573);
#259=VERTEX_POINT('',#575);
#260=VERTEX_POINT('',#577);
#261=VERTEX_POINT('',#581);
#262=VERTEX_POINT('',#583);
#263=VERTEX_POINT('',#587);
#264=VERTEX_POINT('',#589);
#265=VERTEX_POINT('',#603);
#266=VERTEX_POINT('',#604);
#267=VERTEX_POINT('',#609);
#268=VERTEX_POINT('',#610);
#269=ELLIPSE('',#373,0.00509074713309745,0.0034798);
#270=ELLIPSE('',#382,0.00478004422319116,0.0034798);
#271=ELLIPSE('',#386,0.00477164548626834,0.0034798);
#272=ELLIPSE('',#389,0.00510088898948423,0.0034798);
#273=ELLIPSE('',#394,0.0658553462628451,0.0034798);
#274=ELLIPSE('',#395,0.06598654418854,0.0034798);
#275=ELLIPSE('',#402,0.00505630816243847,0.0034798);
#276=ELLIPSE('',#404,0.0050565885785757,0.0034798);
#277=ELLIPSE('',#406,0.00374229784180361,0.0034798);
#278=ELLIPSE('',#408,0.00374368509616963,0.0034798);
#279=EDGE_LOOP('',(#88,#89,#90,#91,#92));
#280=EDGE_LOOP('',(#93));
#281=EDGE_LOOP('',(#94));
#282=EDGE_LOOP('',(#95));
#283=EDGE_LOOP('',(#96));
#284=EDGE_LOOP('',(#97,#98,#99,#100,#101));
#285=EDGE_LOOP('',(#102,#103,#104,#105,#106,#107));
#286=EDGE_LOOP('',(#108,#109,#110,#111,#112));
#287=EDGE_LOOP('',(#113,#114,#115,#116,#117));
#288=EDGE_LOOP('',(#118,#119,#120,#121));
#289=EDGE_LOOP('',(#122,#123,#124,#125));
#290=EDGE_LOOP('',(#126,#127,#128,#129,#130,#131));
#291=EDGE_LOOP('',(#132));
#292=EDGE_LOOP('',(#133));
#293=EDGE_LOOP('',(#134,#135,#136,#137,#138,#139));
#294=EDGE_LOOP('',(#140,#141,#142,#143));
#295=EDGE_LOOP('',(#144));
#296=EDGE_LOOP('',(#145,#146,#147,#148,#149,#150));
#297=EDGE_LOOP('',(#151));
#298=EDGE_LOOP('',(#152,#153,#154,#155,#156,#157));
#299=EDGE_LOOP('',(#158,#159,#160,#161));
#300=EDGE_LOOP('',(#162,#163,#164,#165));
#301=EDGE_LOOP('',(#166,#167,#168,#169,#170,#171,#172));
#302=EDGE_LOOP('',(#173,#174,#175,#176,#177,#178,#179));
#303=EDGE_LOOP('',(#180,#181,#182,#183,#184,#185));
#304=FACE_BOUND('',#279,.T.);
#305=FACE_BOUND('',#280,.T.);
#306=FACE_BOUND('',#281,.T.);
#307=FACE_BOUND('',#282,.T.);
#308=FACE_BOUND('',#283,.T.);
#309=FACE_BOUND('',#284,.T.);
#310=FACE_BOUND('',#285,.T.);
#311=FACE_BOUND('',#286,.T.);
#312=FACE_BOUND('',#287,.T.);
#313=FACE_BOUND('',#288,.T.);
#314=FACE_BOUND('',#289,.T.);
#315=FACE_BOUND('',#290,.T.);
#316=FACE_BOUND('',#291,.T.);
#317=FACE_BOUND('',#292,.T.);
#318=FACE_BOUND('',#293,.T.);
#319=FACE_BOUND('',#294,.T.);
#320=FACE_BOUND('',#295,.T.);
#321=FACE_BOUND('',#296,.T.);
#322=FACE_BOUND('',#297,.T.);
#323=FACE_BOUND('',#298,.T.);
#324=FACE_BOUND('',#299,.T.);
#325=FACE_BOUND('',#300,.T.);
#326=FACE_BOUND('',#301,.T.);
#327=FACE_BOUND('',#302,.T.);
#328=FACE_BOUND('',#303,.T.);
#329=PLANE('',#372);
#330=PLANE('',#381);
#331=PLANE('',#383);
#332=PLANE('',#385);
#333=PLANE('',#387);
#334=PLANE('',#390);
#335=PLANE('',#391);
#336=PLANE('',#393);
#337=PLANE('',#396);
#338=PLANE('',#397);
#339=PLANE('',#399);
#340=ADVANCED_FACE('',(#304),#329,.T.);
#341=ADVANCED_FACE('',(#305,#306),#13,.F.);
#342=ADVANCED_FACE('',(#307,#308),#14,.F.);
#343=ADVANCED_FACE('',(#309),#330,.F.);
#344=ADVANCED_FACE('',(#310),#331,.F.);
#345=ADVANCED_FACE('',(#311),#332,.F.);
#346=ADVANCED_FACE('',(#312),#333,.T.);
#347=ADVANCED_FACE('',(#313),#334,.T.);
#348=ADVANCED_FACE('',(#314),#335,.F.);
#349=ADVANCED_FACE('',(#315),#15,.F.);
#350=ADVANCED_FACE('',(#316,#317,#318),#336,.F.);
#351=ADVANCED_FACE('',(#319),#337,.T.);
#352=ADVANCED_FACE('',(#320,#321),#338,.T.);
#353=ADVANCED_FACE('',(#322,#323),#339,.T.);
#354=ADVANCED_FACE('',(#324),#16,.T.);
#355=ADVANCED_FACE('',(#325),#17,.T.);
#356=ADVANCED_FACE('',(#326),#18,.T.);
#357=ADVANCED_FACE('',(#327),#19,.T.);
#358=ADVANCED_FACE('',(#328),#20,.T.);
#359=CLOSED_SHELL('',(#340,#341,#342,#343,#344,#345,#346,#347,#348,#349,
#350,#351,#352,#353,#354,#355,#356,#357,#358));
#360=STYLED_ITEM('',(#361),#368);
#361=PRESENTATION_STYLE_ASSIGNMENT((#362));
#362=SURFACE_STYLE_USAGE(.BOTH.,#363);
#363=SURFACE_SIDE_STYLE('',(#364));
#364=SURFACE_STYLE_FILL_AREA(#365);
#365=FILL_AREA_STYLE('',(#366));
#366=FILL_AREA_STYLE_COLOUR('',#367);
#367=COLOUR_RGB('',0.615686274509804,0.811764705882353,0.929411764705882);
#368=MANIFOLD_SOLID_BREP('Arm Mount FR 2',#359);
#369=SHAPE_DEFINITION_REPRESENTATION(#632,#370);
#370=SHAPE_REPRESENTATION('Arm Mount FR 2',(#371),#627);
#371=AXIS2_PLACEMENT_3D('',#517,#410,#411);
#372=AXIS2_PLACEMENT_3D('',#518,#412,#413);
#373=AXIS2_PLACEMENT_3D('',#519,#414,#415);
#374=AXIS2_PLACEMENT_3D('',#524,#417,#418);
#375=AXIS2_PLACEMENT_3D('',#529,#421,#422);
#376=AXIS2_PLACEMENT_3D('',#530,#423,#424);
#377=AXIS2_PLACEMENT_3D('',#532,#425,#426);
#378=AXIS2_PLACEMENT_3D('',#534,#427,#428);
#379=AXIS2_PLACEMENT_3D('',#535,#429,#430);
#380=AXIS2_PLACEMENT_3D('',#537,#431,#432);
#381=AXIS2_PLACEMENT_3D('',#539,#433,#434);
#382=AXIS2_PLACEMENT_3D('',#540,#435,#436);
#383=AXIS2_PLACEMENT_3D('',#550,#441,#442);
#384=AXIS2_PLACEMENT_3D('',#559,#447,#448);
#385=AXIS2_PLACEMENT_3D('',#560,#449,#450);
#386=AXIS2_PLACEMENT_3D('',#565,#453,#454);
#387=AXIS2_PLACEMENT_3D('',#568,#456,#457);
#388=AXIS2_PLACEMENT_3D('',#569,#458,#459);
#389=AXIS2_PLACEMENT_3D('',#574,#461,#462);
#390=AXIS2_PLACEMENT_3D('',#579,#465,#466);
#391=AXIS2_PLACEMENT_3D('',#585,#470,#471);
#392=AXIS2_PLACEMENT_3D('',#591,#475,#476);
#393=AXIS2_PLACEMENT_3D('',#601,#479,#480);
#394=AXIS2_PLACEMENT_3D('',#605,#482,#483);
#395=AXIS2_PLACEMENT_3D('',#606,#484,#485);
#396=AXIS2_PLACEMENT_3D('',#607,#486,#487);
#397=AXIS2_PLACEMENT_3D('',#613,#491,#492);
#398=AXIS2_PLACEMENT_3D('',#614,#493,#494);
#399=AXIS2_PLACEMENT_3D('',#615,#495,#496);
#400=AXIS2_PLACEMENT_3D('',#616,#497,#498);
#401=AXIS2_PLACEMENT_3D('',#617,#499,#500);
#402=AXIS2_PLACEMENT_3D('',#618,#501,#502);
#403=AXIS2_PLACEMENT_3D('',#619,#503,#504);
#404=AXIS2_PLACEMENT_3D('',#620,#505,#506);
#405=AXIS2_PLACEMENT_3D('',#621,#507,#508);
#406=AXIS2_PLACEMENT_3D('',#622,#509,#510);
#407=AXIS2_PLACEMENT_3D('',#623,#511,#512);
#408=AXIS2_PLACEMENT_3D('',#624,#513,#514);
#409=AXIS2_PLACEMENT_3D('',#625,#515,#516);
#410=DIRECTION('',(0.,0.,1.));
#411=DIRECTION('',(1.,0.,0.));
#412=DIRECTION('',(0.707106781186546,0.707106781186549,0.));
#413=DIRECTION('',(-0.707106781186549,0.707106781186546,0.));
#414=DIRECTION('',(0.707106781186546,0.707106781186549,0.));
#415=DIRECTION('',(0.705251435449795,-0.705251435449792,-0.0723935466185451));
#416=DIRECTION('',(0.707106781186549,-0.707106781186546,-6.93889390390723E-18));
#417=DIRECTION('',(0.707106781186546,0.707106781186549,0.));
#418=DIRECTION('',(-0.707106781186549,0.707106781186546,0.));
#419=DIRECTION('',(0.707106781186549,-0.707106781186546,0.));
#420=DIRECTION('',(0.,0.,1.));
#421=DIRECTION('',(0.,0.,-1.));
#422=DIRECTION('',(-1.,0.,0.));
#423=DIRECTION('',(0.,0.,1.));
#424=DIRECTION('',(1.,0.,0.));
#425=DIRECTION('',(0.,0.,1.));
#426=DIRECTION('',(1.,0.,0.));
#427=DIRECTION('',(0.,0.,-1.));
#428=DIRECTION('',(-1.,0.,0.));
#429=DIRECTION('',(0.,0.,1.));
#430=DIRECTION('',(1.,0.,0.));
#431=DIRECTION('',(0.,0.,1.));
#432=DIRECTION('',(1.,0.,0.));
#433=DIRECTION('',(-0.70710678118655,0.707106781186545,0.));
#434=DIRECTION('',(-0.707106781186546,-0.70710678118655,0.));
#435=DIRECTION('',(-0.70710678118655,0.707106781186545,0.));
#436=DIRECTION('',(-0.70500351171849,-0.705003511718494,-0.07707202429669));
#437=DIRECTION('',(0.,0.,-1.));
#438=DIRECTION('',(0.707106781186546,0.70710678118655,0.));
#439=DIRECTION('',(0.,0.,-1.));
#440=DIRECTION('',(-0.707106781186546,-0.70710678118655,0.));
#441=DIRECTION('',(0.707106781186546,0.707106781186549,0.));
#442=DIRECTION('',(-0.707106781186549,0.707106781186546,0.));
#443=DIRECTION('',(0.707106781186549,-0.707106781186546,0.));
#444=DIRECTION('',(0.,0.,-1.));
#445=DIRECTION('',(-0.707106781186549,0.707106781186546,0.));
#446=DIRECTION('',(0.707106781186549,-0.707106781186546,0.));
#447=DIRECTION('',(-0.707106781186546,-0.707106781186549,0.));
#448=DIRECTION('',(0.707106781186549,-0.707106781186546,0.));
#449=DIRECTION('',(0.707106781186549,-0.707106781186546,0.));
#450=DIRECTION('',(0.707106781186546,0.707106781186549,0.));
#451=DIRECTION('',(-0.707106781186546,-0.707106781186549,0.));
#452=DIRECTION('',(0.,0.,1.));
#453=DIRECTION('',(0.707106781186549,-0.707106781186546,0.));
#454=DIRECTION('',(0.70500351171849,0.705003511718493,0.07707202429669));
#455=DIRECTION('',(0.707106781186546,0.707106781186549,0.));
#456=DIRECTION('',(0.707106781186546,0.707106781186549,0.));
#457=DIRECTION('',(-0.707106781186549,0.707106781186546,0.));
#458=DIRECTION('',(0.707106781186546,0.707106781186549,0.));
#459=DIRECTION('',(-0.707106781186549,0.707106781186546,0.));
#460=DIRECTION('',(0.707106781186549,-0.707106781186546,-6.93889390390723E-18));
#461=DIRECTION('',(0.707106781186546,0.707106781186549,0.));
#462=DIRECTION('',(0.705265240050059,-0.705265240050055,0.0721240761068805));
#463=DIRECTION('',(0.,0.,1.));
#464=DIRECTION('',(0.707106781186549,-0.707106781186546,0.));
#465=DIRECTION('',(0.999504967031618,0.031461418898769,0.));
#466=DIRECTION('',(-0.031461418898769,0.999504967031618,0.));
#467=DIRECTION('',(0.031461418898769,-0.999504967031618,0.));
#468=DIRECTION('',(0.,0.,-1.));
#469=DIRECTION('',(0.0314174669369152,-0.998108647166801,-0.0528400531994966));
#470=DIRECTION('',(-0.0333309107939762,-0.999444370830935,0.));
#471=DIRECTION('',(0.999444370830935,-0.0333309107939762,0.));
#472=DIRECTION('',(-0.998053686101409,0.0332845322360341,-0.052734993820215));
#473=DIRECTION('',(0.,0.,-1.));
#474=DIRECTION('',(-0.999444370830935,0.0333309107939762,0.));
#475=DIRECTION('',(-0.707106781186546,-0.707106781186549,0.));
#476=DIRECTION('',(0.707106781186549,-0.707106781186546,0.));
#477=DIRECTION('',(-0.707106781186546,-0.707106781186549,0.));
#478=DIRECTION('',(-0.707106781186546,-0.707106781186549,0.));
#479=DIRECTION('',(0.,0.,1.));
#480=DIRECTION('',(1.,0.,0.));
#481=DIRECTION('',(-0.707106781186549,0.707106781186546,0.));
#482=DIRECTION('',(0.,0.,1.));
#483=DIRECTION('',(0.031461418898769,-0.999504967031618,0.));
#484=DIRECTION('',(0.,0.,1.));
#485=DIRECTION('',(0.999444370830935,-0.0333309107939762,0.));
#486=DIRECTION('',(0.0544981510199638,0.054498151019964,-0.99702552779295));
#487=DIRECTION('',(0.,0.998509441152222,0.0545792628191104));
#488=DIRECTION('',(0.707106781186549,-0.707106781186546,0.));
#489=DIRECTION('',(0.0314174669369152,-0.998108647166801,-0.0528400531994966));
#490=DIRECTION('',(0.998053686101409,-0.0332845322360341,0.052734993820215));
#491=DIRECTION('',(0.,0.,1.));
#492=DIRECTION('',(1.,0.,0.));
#493=DIRECTION('',(0.,0.,1.));
#494=DIRECTION('',(1.,0.,0.));
#495=DIRECTION('',(0.,0.,1.));
#496=DIRECTION('',(1.,0.,0.));
#497=DIRECTION('',(0.,0.,1.));
#498=DIRECTION('',(1.,0.,0.));
#499=DIRECTION('',(0.,0.,-1.));
#500=DIRECTION('',(-1.,0.,0.));
#501=DIRECTION('',(0.725108770559566,-0.0241819719564351,-0.688209636004824));
#502=DIRECTION('',(0.687827246656628,-0.0229386539852316,0.725511886126001));
#503=DIRECTION('',(0.,0.,1.));
#504=DIRECTION('',(1.,0.,0.));
#505=DIRECTION('',(0.0228267722974,-0.725188916811496,0.688171470928759));
#506=DIRECTION('',(0.0216508509210717,-0.68783080336275,-0.725548087034725));
#507=DIRECTION('',(0.998053686101409,-0.0332845322360341,0.052734993820215));
#508=DIRECTION('',(0.0527642296117328,0.,-0.998606997809188));
#509=DIRECTION('',(0.916894410118479,-0.398121273393796,0.028356522438203));
#510=DIRECTION('',(0.395391694688813,0.91571251122102,0.0716659233136731));
#511=DIRECTION('',(0.0314174669369152,-0.998108647166801,-0.0528400531994965));
#512=DIRECTION('',(0.,0.0528661505990452,-0.998601607309361));
#513=DIRECTION('',(0.397264529694191,-0.91726386356758,-0.0284235472791203));
#514=DIRECTION('',(-0.916084518471008,-0.394533846619629,-0.0716393668960104));
#515=DIRECTION('',(0.707106781186549,-0.707106781186546,-6.93889390390723E-18));
#516=DIRECTION('',(0.707106781186546,0.707106781186549,0.));
#517=CARTESIAN_POINT('',(0.,0.,0.));
#518=CARTESIAN_POINT('',(0.0931569750428657,0.0931569750428661,0.0215684697031975));
#519=CARTESIAN_POINT('',(0.0953994685270328,0.090914481558699,0.0168036511509113));
#520=CARTESIAN_POINT('',(0.0989941415215606,0.0873198085641712,0.0166075526474619));
#521=CARTESIAN_POINT('',(0.0989933539620641,0.0873205961236678,0.0165346558015732));
#522=CARTESIAN_POINT('',(0.0931569750428657,0.0931569750428661,0.0165346558015732));
#523=CARTESIAN_POINT('',(0.0965818732282833,0.0897320768574486,0.0165346558015732));
#524=CARTESIAN_POINT('',(0.0931210541513888,0.093192895934343,0.0215392));
#525=CARTESIAN_POINT('',(0.0980562044104995,0.0882577456752323,0.021002));
#526=CARTESIAN_POINT('',(0.0931569750428657,0.0931569750428661,0.021002));
#527=CARTESIAN_POINT('',(0.0989941415215606,0.0873198085641712,0.021002));
#528=CARTESIAN_POINT('',(0.0989941415215606,0.0873198085641712,0.0215684697031975));
#529=CARTESIAN_POINT('',(0.0877872062795427,0.0519991176041145,0.01135));
#530=CARTESIAN_POINT('',(0.0877872062795427,0.0519991176041145,0.01135));
#531=CARTESIAN_POINT('',(0.0902122062795427,0.0519991176041145,0.01135));
#532=CARTESIAN_POINT('',(0.0877872062795427,0.0519991176041145,0.021002));
#533=CARTESIAN_POINT('',(0.0902122062795427,0.0519991176041145,0.021002));
#534=CARTESIAN_POINT('',(0.0519272758211604,0.0878590480624965,0.01135));
#535=CARTESIAN_POINT('',(0.0519272758211604,0.0878590480624965,0.01135));
#536=CARTESIAN_POINT('',(0.0543522758211604,0.0878590480624965,0.01135));
#537=CARTESIAN_POINT('',(0.0519272758211604,0.0878590480624965,0.021002));
#538=CARTESIAN_POINT('',(0.0543522758211604,0.0878590480624965,0.021002));
#539=CARTESIAN_POINT('',(0.0930905071384416,0.0431602828392828,0.03175));
#540=CARTESIAN_POINT('',(0.0967862951667092,0.0468560708675503,0.0144711908807654));
#541=CARTESIAN_POINT('',(0.0981431712538558,0.0482129469546969,0.01135));
#542=CARTESIAN_POINT('',(0.099096708462543,0.0491664841633842,0.0120492026156129));
#543=CARTESIAN_POINT('',(0.099096708462543,0.0491664841633842,0.021002));
#544=CARTESIAN_POINT('',(0.099096708462543,0.0491664841633842,0.021002));
#545=CARTESIAN_POINT('',(0.0930905071384416,0.0431602828392828,0.021002));
#546=CARTESIAN_POINT('',(0.0860194393265762,0.0360892150274173,0.021002));
#547=CARTESIAN_POINT('',(0.0860194393265762,0.0360892150274173,0.03175));
#548=CARTESIAN_POINT('',(0.0860194393265762,0.0360892150274173,0.01135));
#549=CARTESIAN_POINT('',(0.0251207146921898,-0.0248095096069695,0.01135));
#550=CARTESIAN_POINT('',(0.0610184062855196,0.0610902480684738,0.03175));
#551=CARTESIAN_POINT('',(0.0610184062855196,0.0610902480684738,0.021002));
#552=CARTESIAN_POINT('',(0.0360173732444631,0.0860912811095302,0.021002));
#553=CARTESIAN_POINT('',(0.056083256026409,0.0660253983275843,0.021002));
#554=CARTESIAN_POINT('',(0.0360173732444631,0.0860912811095302,0.03175));
#555=CARTESIAN_POINT('',(0.0360173732444631,0.0860912811095302,0.01135));
#556=CARTESIAN_POINT('',(0.0609785290705747,0.0611301252834187,0.01135));
#557=CARTESIAN_POINT('',(0.0610184062855196,0.0610902480684738,0.021002));
#558=CARTESIAN_POINT('',(0.0659535565446304,0.056155097809363,0.021002));
#559=CARTESIAN_POINT('',(0.0610184062855197,0.0610902480684737,0.0215392));
#560=CARTESIAN_POINT('',(0.0430884410563286,0.0931623489213957,0.03175));
#561=CARTESIAN_POINT('',(0.0430884410563286,0.0931623489213957,0.021002));
#562=CARTESIAN_POINT('',(0.0490919090429313,0.0991658169079984,0.021002));
#563=CARTESIAN_POINT('',(0.0490919090429313,0.0991658169079984,0.01135));
#564=CARTESIAN_POINT('',(0.0490919090429313,0.0991658169079984,0.01204449336085));
#565=CARTESIAN_POINT('',(0.046790140853765,0.0968640487188321,0.0144718371640952));
#566=CARTESIAN_POINT('',(0.048144113822498,0.0982180216875651,0.01135));
#567=CARTESIAN_POINT('',(-0.0248813513899234,0.0251925564751435,0.01135));
#568=CARTESIAN_POINT('',(0.0931569750428657,0.0931569750428661,0.0215684697031975));
#569=CARTESIAN_POINT('',(0.0931210541513888,0.093192895934343,0.0215392));
#570=CARTESIAN_POINT('',(0.0896602350744944,0.0966537150112374,0.0165346558015732));
#571=CARTESIAN_POINT('',(0.0881859038922782,0.0981280461934536,0.021002));
#572=CARTESIAN_POINT('',(0.0931569750428657,0.0931569750428661,0.0165346558015732));
#573=CARTESIAN_POINT('',(0.0873205902704923,0.0989933598152394,0.0165346558015732));
#574=CARTESIAN_POINT('',(0.0909216629466435,0.0953922871390883,0.0168036511509113));
#575=CARTESIAN_POINT('',(0.0873198085641707,0.0989941415215611,0.0166072085802417));
#576=CARTESIAN_POINT('',(0.0873198085641707,0.0989941415215611,0.0215684697031975));
#577=CARTESIAN_POINT('',(0.0873198085641707,0.0989941415215611,0.021002));
#578=CARTESIAN_POINT('',(0.0931569750428657,0.0931569750428661,0.021002));
#579=CARTESIAN_POINT('',(0.101642000171686,0.00319938534633516,0.));
#580=CARTESIAN_POINT('',(0.101642000171686,0.00319938534633516,0.021002));
#581=CARTESIAN_POINT('',(0.100114195669647,0.0517365537860411,0.021002));
#582=CARTESIAN_POINT('',(0.100114195669647,0.0517365537860411,0.01135));
#583=CARTESIAN_POINT('',(0.100114195669647,0.0517365537860411,0.0147237686718148));
#584=CARTESIAN_POINT('',(0.101662177370268,0.0025583713390546,0.0121202667543336));
#585=CARTESIAN_POINT('',(0.00339473947332765,0.101792995637793,0.));
#586=CARTESIAN_POINT('',(0.00275405687911401,0.101814362043987,0.01213893752968));
#587=CARTESIAN_POINT('',(0.0516684841234851,0.100183093252443,0.0147234698593258));
#588=CARTESIAN_POINT('',(0.0516684841234851,0.100183093252443,0.021002));
#589=CARTESIAN_POINT('',(0.0516684841234851,0.100183093252443,0.021002));
#590=CARTESIAN_POINT('',(0.00339473947332765,0.101792995637793,0.021002));
#591=CARTESIAN_POINT('',(0.0989150871164315,0.0989869288993856,0.0215392));
#592=CARTESIAN_POINT('',(0.0965818732282833,0.0897320768574486,0.0165346558015732));
#593=CARTESIAN_POINT('',(0.096117263045434,0.0901966870402979,0.0158920670980387));
#594=CARTESIAN_POINT('',(0.0947967207753091,0.0910309797200905,0.0148990158215827));
#595=CARTESIAN_POINT('',(0.0925790986882602,0.0926438425658015,0.0143595565503761));
#596=CARTESIAN_POINT('',(0.090958434264531,0.0948687173171159,0.0148979624892735));
#597=CARTESIAN_POINT('',(0.0901244644899884,0.0961894855957434,0.0158925937261889));
#598=CARTESIAN_POINT('',(0.0896602350744944,0.0966537150112374,0.0165346558015732));
#599=CARTESIAN_POINT('',(0.0939799368573208,0.103922079158496,0.021002));
#600=CARTESIAN_POINT('',(0.103850237375542,0.0940517786402749,0.021002));
#601=CARTESIAN_POINT('',(0.000680295059272973,0.000231400649031973,0.01135));
#602=CARTESIAN_POINT('',(0.0536950427741267,0.0966978828273284,0.01135));
#603=CARTESIAN_POINT('',(0.0967688713963879,0.0536240542050675,0.01135));
#604=CARTESIAN_POINT('',(0.0535586352422034,0.0968342903592518,0.01135));
#605=CARTESIAN_POINT('',(0.0986420826870212,-0.0121008646182722,0.01135));
#606=CARTESIAN_POINT('',(-0.0122932279554901,0.0988344460242385,0.01135));
#607=CARTESIAN_POINT('',(-0.000170039864584639,-0.00017003986458464,0.0031108227079344));
#608=CARTESIAN_POINT('',(0.090886027531612,0.0908860275316124,0.0130652063699593));
#609=CARTESIAN_POINT('',(0.0860203445542139,0.0957517105090105,0.0130652063699593));
#610=CARTESIAN_POINT('',(0.0957490495726904,0.086023005490534,0.0130652063699593));
#611=CARTESIAN_POINT('',(0.0983737426519103,0.00263853455948994,0.00865081732271972));
#612=CARTESIAN_POINT('',(0.00282771464165239,0.0985261381882884,0.00866948809806606));
#613=CARTESIAN_POINT('',(0.000680295059272966,0.000231400649031973,0.021002));
#614=CARTESIAN_POINT('',(0.0966361182853701,0.0516270743405571,0.021002));
#615=CARTESIAN_POINT('',(0.000680295059272966,0.000231400649031973,0.021002));
#616=CARTESIAN_POINT('',(0.0515524992201042,0.0967052267308254,0.021002));
#617=CARTESIAN_POINT('',(0.0515524992201042,0.0967052267308254,0.03175));
#618=CARTESIAN_POINT('',(0.0515524992201042,0.0967052267308254,0.0147234698593258));
#619=CARTESIAN_POINT('',(0.0966361182853701,0.0516270743405571,0.));
#620=CARTESIAN_POINT('',(0.0966361182853701,0.0516270743405571,0.0147237686718148));
#621=CARTESIAN_POINT('',(0.00263807197573313,0.0983364955223692,0.01213893752968));
#622=CARTESIAN_POINT('',(0.0858307018882946,0.0955620678430913,0.0165346558015732));
#623=CARTESIAN_POINT('',(0.098184099985991,0.00244889189357067,0.0121202667543336));
#624=CARTESIAN_POINT('',(0.0955594069067711,0.0858333628246147,0.0165346558015732));
#625=CARTESIAN_POINT('',(0.0906963848656927,0.0906963848656932,0.0165346558015732));
#626=MECHANICAL_DESIGN_GEOMETRIC_PRESENTATION_REPRESENTATION('',(#360),
#627);
#627=(
GEOMETRIC_REPRESENTATION_CONTEXT(3)
GLOBAL_UNCERTAINTY_ASSIGNED_CONTEXT((#628))
GLOBAL_UNIT_ASSIGNED_CONTEXT((#631,#630,#629))
REPRESENTATION_CONTEXT('Arm Mount FR 2','TOP_LEVEL_ASSEMBLY_PART')
);
#628=UNCERTAINTY_MEASURE_WITH_UNIT(LENGTH_MEASURE(2.E-5),#631,
'DISTANCE_ACCURACY_VALUE','Maximum Tolerance applied to model');
#629=(
NAMED_UNIT(*)
SI_UNIT($,.STERADIAN.)
SOLID_ANGLE_UNIT()
);
#630=(
NAMED_UNIT(*)
PLANE_ANGLE_UNIT()
SI_UNIT($,.RADIAN.)
);
#631=(
LENGTH_UNIT()
NAMED_UNIT(*)
SI_UNIT($,.METRE.)
);
#632=PRODUCT_DEFINITION_SHAPE('','',#633);
#633=PRODUCT_DEFINITION('','',#635,#634);
#634=PRODUCT_DEFINITION_CONTEXT('',#641,'design');
#635=PRODUCT_DEFINITION_FORMATION_WITH_SPECIFIED_SOURCE('','',#637,
 .NOT_KNOWN.);
#636=PRODUCT_RELATED_PRODUCT_CATEGORY('','',(#637));
#637=PRODUCT('Arm Mount FR 2','Arm Mount FR 2','Arm Mount FR 2',(#639));
#638=PRODUCT_CATEGORY('','');
#639=PRODUCT_CONTEXT('',#641,'mechanical');
#640=APPLICATION_PROTOCOL_DEFINITION('international standard',
'ap242_managed_model_based_3d_engineering',2020,#641);
#641=APPLICATION_CONTEXT('managed model based 3d engineering');
ENDSEC;
END-ISO-10303-21;
