ISO-10303-21;
HEADER;
/* Generated by software containing ST-Developer
 * from STEP Tools, Inc. (www.steptools.com) 
 */
/* OPTION: using custom renumber hook */

FILE_DESCRIPTION(
/* description */ ('STEP AP242 Edition 2',
'CAx-IF Rec.Pracs.---Representation and Presentation of Product Manufa
cturing Information (PMI)---4.0---2014-10-13',
'CAx-IF Rec.Pracs.---3D Tessellated Geometry---0.4---2014-09-14','2;1',
'CAx-IF Rec.Pracs.---User Defined Attributes---1.5---2016-08-15'),
/* implementation_level */ '2;1');

FILE_NAME(
/* name */ 'Part Studio 1 - Arm Mount FL 2',
/* time_stamp */ '2026-06-27T17:58:31Z',
/* author */ (''),
/* organization */ (''),
/* preprocessor_version */ 'ST-DEVELOPER v20',
/* originating_system */ 'ONSHAPE BY PTC INC, 1.217',
/* authorisation */ '  ');

FILE_SCHEMA (('AP242_MANAGED_MODEL_BASED_3D_ENGINEERING_MIM_LF { 1 0 10303 442 3 1 4 }'));
ENDSEC;

DATA;
#10=SHAPE_REPRESENTATION_RELATIONSHIP('','',#370,#11);
#11=ADVANCED_BREP_SHAPE_REPRESENTATION('',(#368),#631);
#12=B_SPLINE_CURVE_WITH_KNOTS('',3,(#592,#593,#594,#595,#596,#597,#598,
#599,#600,#601,#602),.UNSPECIFIED.,.F.,.F.,(4,1,1,1,1,1,1,1,4),(0.,0.00182854676073743,
0.00365709352147486,0.0054856402822123,0.00731418704294973,0.00914273380368716,
0.0109712805644246,0.012799827325162,0.0146283740858995),.UNSPECIFIED.);
#13=CYLINDRICAL_SURFACE('',#375,0.002425);
#14=CYLINDRICAL_SURFACE('',#378,0.002425);
#15=CYLINDRICAL_SURFACE('',#392,0.00805);
#16=CYLINDRICAL_SURFACE('',#401,0.0034798);
#17=CYLINDRICAL_SURFACE('',#403,0.0034798);
#18=CYLINDRICAL_SURFACE('',#405,0.0034798);
#19=CYLINDRICAL_SURFACE('',#407,0.0034798);
#20=CYLINDRICAL_SURFACE('',#409,0.0034798);
#21=CIRCLE('',#374,0.00805);
#22=CIRCLE('',#376,0.002425);
#23=CIRCLE('',#377,0.002425);
#24=CIRCLE('',#379,0.002425);
#25=CIRCLE('',#380,0.002425);
#26=CIRCLE('',#384,0.00805);
#27=CIRCLE('',#388,0.00805);
#28=CIRCLE('',#398,0.0034798);
#29=CIRCLE('',#400,0.0034798);
#30=LINE('',#522,#59);
#31=LINE('',#526,#60);
#32=LINE('',#528,#61);
#33=LINE('',#540,#62);
#34=LINE('',#545,#63);
#35=LINE('',#547,#64);
#36=LINE('',#549,#65);
#37=LINE('',#551,#66);
#38=LINE('',#554,#67);
#39=LINE('',#556,#68);
#40=LINE('',#557,#69);
#41=LINE('',#561,#70);
#42=LINE('',#566,#71);
#43=LINE('',#567,#72);
#44=LINE('',#572,#73);
#45=LINE('',#576,#74);
#46=LINE('',#578,#75);
#47=LINE('',#580,#76);
#48=LINE('',#583,#77);
#49=LINE('',#584,#78);
#50=LINE('',#586,#79);
#51=LINE('',#588,#80);
#52=LINE('',#590,#81);
#53=LINE('',#603,#82);
#54=LINE('',#604,#83);
#55=LINE('',#606,#84);
#56=LINE('',#612,#85);
#57=LINE('',#615,#86);
#58=LINE('',#616,#87);
#59=VECTOR('',#416,1.);
#60=VECTOR('',#419,1.);
#61=VECTOR('',#420,1.);
#62=VECTOR('',#435,1.);
#63=VECTOR('',#438,1.);
#64=VECTOR('',#439,1.);
#65=VECTOR('',#440,1.);
#66=VECTOR('',#443,1.);
#67=VECTOR('',#444,1.);
#68=VECTOR('',#445,1.);
#69=VECTOR('',#446,1.);
#70=VECTOR('',#451,1.);
#71=VECTOR('',#454,1.);
#72=VECTOR('',#455,1.);
#73=VECTOR('',#460,1.);
#74=VECTOR('',#463,1.);
#75=VECTOR('',#464,1.);
#76=VECTOR('',#467,1.);
#77=VECTOR('',#468,1.);
#78=VECTOR('',#469,1.);
#79=VECTOR('',#472,1.);
#80=VECTOR('',#473,1.);
#81=VECTOR('',#474,1.);
#82=VECTOR('',#477,1.);
#83=VECTOR('',#478,1.);
#84=VECTOR('',#481,1.);
#85=VECTOR('',#488,1.);
#86=VECTOR('',#489,1.);
#87=VECTOR('',#490,1.);
#88=ORIENTED_EDGE('',*,*,#186,.T.);
#89=ORIENTED_EDGE('',*,*,#187,.T.);
#90=ORIENTED_EDGE('',*,*,#188,.F.);
#91=ORIENTED_EDGE('',*,*,#189,.T.);
#92=ORIENTED_EDGE('',*,*,#190,.F.);
#93=ORIENTED_EDGE('',*,*,#191,.F.);
#94=ORIENTED_EDGE('',*,*,#192,.T.);
#95=ORIENTED_EDGE('',*,*,#193,.F.);
#96=ORIENTED_EDGE('',*,*,#194,.T.);
#97=ORIENTED_EDGE('',*,*,#195,.T.);
#98=ORIENTED_EDGE('',*,*,#196,.T.);
#99=ORIENTED_EDGE('',*,*,#197,.T.);
#100=ORIENTED_EDGE('',*,*,#198,.T.);
#101=ORIENTED_EDGE('',*,*,#199,.T.);
#102=ORIENTED_EDGE('',*,*,#200,.F.);
#103=ORIENTED_EDGE('',*,*,#201,.T.);
#104=ORIENTED_EDGE('',*,*,#202,.F.);
#105=ORIENTED_EDGE('',*,*,#199,.F.);
#106=ORIENTED_EDGE('',*,*,#203,.F.);
#107=ORIENTED_EDGE('',*,*,#204,.F.);
#108=ORIENTED_EDGE('',*,*,#205,.T.);
#109=ORIENTED_EDGE('',*,*,#206,.T.);
#110=ORIENTED_EDGE('',*,*,#207,.F.);
#111=ORIENTED_EDGE('',*,*,#201,.F.);
#112=ORIENTED_EDGE('',*,*,#208,.F.);
#113=ORIENTED_EDGE('',*,*,#209,.F.);
#114=ORIENTED_EDGE('',*,*,#210,.T.);
#115=ORIENTED_EDGE('',*,*,#211,.T.);
#116=ORIENTED_EDGE('',*,*,#212,.F.);
#117=ORIENTED_EDGE('',*,*,#213,.T.);
#118=ORIENTED_EDGE('',*,*,#214,.T.);
#119=ORIENTED_EDGE('',*,*,#215,.T.);
#120=ORIENTED_EDGE('',*,*,#190,.T.);
#121=ORIENTED_EDGE('',*,*,#216,.T.);
#122=ORIENTED_EDGE('',*,*,#212,.T.);
#123=ORIENTED_EDGE('',*,*,#217,.T.);
#124=ORIENTED_EDGE('',*,*,#218,.T.);
#125=ORIENTED_EDGE('',*,*,#219,.T.);
#126=ORIENTED_EDGE('',*,*,#188,.T.);
#127=ORIENTED_EDGE('',*,*,#220,.T.);
#128=ORIENTED_EDGE('',*,*,#209,.T.);
#129=ORIENTED_EDGE('',*,*,#221,.F.);
#130=ORIENTED_EDGE('',*,*,#204,.T.);
#131=ORIENTED_EDGE('',*,*,#222,.F.);
#132=ORIENTED_EDGE('',*,*,#191,.T.);
#133=ORIENTED_EDGE('',*,*,#193,.T.);
#134=ORIENTED_EDGE('',*,*,#223,.T.);
#135=ORIENTED_EDGE('',*,*,#224,.T.);
#136=ORIENTED_EDGE('',*,*,#195,.F.);
#137=ORIENTED_EDGE('',*,*,#202,.T.);
#138=ORIENTED_EDGE('',*,*,#207,.T.);
#139=ORIENTED_EDGE('',*,*,#225,.T.);
#140=ORIENTED_EDGE('',*,*,#226,.T.);
#141=ORIENTED_EDGE('',*,*,#227,.T.);
#142=ORIENTED_EDGE('',*,*,#223,.F.);
#143=ORIENTED_EDGE('',*,*,#228,.T.);
#144=ORIENTED_EDGE('',*,*,#194,.F.);
#145=ORIENTED_EDGE('',*,*,#198,.F.);
#146=ORIENTED_EDGE('',*,*,#229,.T.);
#147=ORIENTED_EDGE('',*,*,#216,.F.);
#148=ORIENTED_EDGE('',*,*,#189,.F.);
#149=ORIENTED_EDGE('',*,*,#222,.T.);
#150=ORIENTED_EDGE('',*,*,#203,.T.);
#151=ORIENTED_EDGE('',*,*,#192,.F.);
#152=ORIENTED_EDGE('',*,*,#219,.F.);
#153=ORIENTED_EDGE('',*,*,#230,.T.);
#154=ORIENTED_EDGE('',*,*,#208,.T.);
#155=ORIENTED_EDGE('',*,*,#200,.T.);
#156=ORIENTED_EDGE('',*,*,#221,.T.);
#157=ORIENTED_EDGE('',*,*,#213,.F.);
#158=ORIENTED_EDGE('',*,*,#230,.F.);
#159=ORIENTED_EDGE('',*,*,#218,.F.);
#160=ORIENTED_EDGE('',*,*,#231,.F.);
#161=ORIENTED_EDGE('',*,*,#205,.F.);
#162=ORIENTED_EDGE('',*,*,#229,.F.);
#163=ORIENTED_EDGE('',*,*,#197,.F.);
#164=ORIENTED_EDGE('',*,*,#232,.F.);
#165=ORIENTED_EDGE('',*,*,#214,.F.);
#166=ORIENTED_EDGE('',*,*,#217,.F.);
#167=ORIENTED_EDGE('',*,*,#211,.F.);
#168=ORIENTED_EDGE('',*,*,#233,.F.);
#169=ORIENTED_EDGE('',*,*,#228,.F.);
#170=ORIENTED_EDGE('',*,*,#225,.F.);
#171=ORIENTED_EDGE('',*,*,#206,.F.);
#172=ORIENTED_EDGE('',*,*,#231,.T.);
#173=ORIENTED_EDGE('',*,*,#224,.F.);
#174=ORIENTED_EDGE('',*,*,#227,.F.);
#175=ORIENTED_EDGE('',*,*,#234,.F.);
#176=ORIENTED_EDGE('',*,*,#186,.F.);
#177=ORIENTED_EDGE('',*,*,#215,.F.);
#178=ORIENTED_EDGE('',*,*,#232,.T.);
#179=ORIENTED_EDGE('',*,*,#196,.F.);
#180=ORIENTED_EDGE('',*,*,#220,.F.);
#181=ORIENTED_EDGE('',*,*,#187,.F.);
#182=ORIENTED_EDGE('',*,*,#234,.T.);
#183=ORIENTED_EDGE('',*,*,#226,.F.);
#184=ORIENTED_EDGE('',*,*,#233,.T.);
#185=ORIENTED_EDGE('',*,*,#210,.F.);
#186=EDGE_CURVE('',#235,#236,#269,.T.);
#187=EDGE_CURVE('',#236,#237,#30,.F.);
#188=EDGE_CURVE('',#238,#237,#21,.T.);
#189=EDGE_CURVE('',#238,#239,#31,.T.);
#190=EDGE_CURVE('',#235,#239,#32,.T.);
#191=EDGE_CURVE('',#240,#240,#22,.T.);
#192=EDGE_CURVE('',#241,#241,#23,.T.);
#193=EDGE_CURVE('',#242,#242,#24,.T.);
#194=EDGE_CURVE('',#243,#243,#25,.T.);
#195=EDGE_CURVE('',#244,#245,#33,.T.);
#196=EDGE_CURVE('',#245,#246,#270,.T.);
#197=EDGE_CURVE('',#246,#247,#34,.F.);
#198=EDGE_CURVE('',#247,#248,#35,.T.);
#199=EDGE_CURVE('',#248,#244,#36,.T.);
#200=EDGE_CURVE('',#249,#250,#37,.T.);
#201=EDGE_CURVE('',#249,#251,#38,.T.);
#202=EDGE_CURVE('',#244,#251,#39,.T.);
#203=EDGE_CURVE('',#252,#248,#40,.T.);
#204=EDGE_CURVE('',#250,#252,#26,.T.);
#205=EDGE_CURVE('',#253,#254,#41,.F.);
#206=EDGE_CURVE('',#254,#255,#271,.F.);
#207=EDGE_CURVE('',#251,#255,#42,.T.);
#208=EDGE_CURVE('',#253,#249,#43,.T.);
#209=EDGE_CURVE('',#256,#257,#27,.T.);
#210=EDGE_CURVE('',#256,#258,#44,.F.);
#211=EDGE_CURVE('',#258,#259,#272,.T.);
#212=EDGE_CURVE('',#260,#259,#45,.F.);
#213=EDGE_CURVE('',#260,#257,#46,.T.);
#214=EDGE_CURVE('',#261,#262,#47,.T.);
#215=EDGE_CURVE('',#262,#235,#48,.F.);
#216=EDGE_CURVE('',#239,#261,#49,.T.);
#217=EDGE_CURVE('',#259,#263,#50,.T.);
#218=EDGE_CURVE('',#263,#264,#51,.F.);
#219=EDGE_CURVE('',#264,#260,#52,.F.);
#220=EDGE_CURVE('',#237,#256,#12,.T.);
#221=EDGE_CURVE('',#250,#257,#53,.F.);
#222=EDGE_CURVE('',#238,#252,#54,.T.);
#223=EDGE_CURVE('',#265,#266,#55,.T.);
#224=EDGE_CURVE('',#266,#245,#273,.F.);
#225=EDGE_CURVE('',#255,#265,#274,.F.);
#226=EDGE_CURVE('',#267,#268,#56,.T.);
#227=EDGE_CURVE('',#268,#266,#57,.T.);
#228=EDGE_CURVE('',#265,#267,#58,.T.);
#229=EDGE_CURVE('',#247,#261,#28,.T.);
#230=EDGE_CURVE('',#264,#253,#29,.T.);
#231=EDGE_CURVE('',#254,#263,#275,.T.);
#232=EDGE_CURVE('',#262,#246,#276,.T.);
#233=EDGE_CURVE('',#267,#258,#277,.T.);
#234=EDGE_CURVE('',#236,#268,#278,.F.);
#235=VERTEX_POINT('',#520);
#236=VERTEX_POINT('',#521);
#237=VERTEX_POINT('',#523);
#238=VERTEX_POINT('',#525);
#239=VERTEX_POINT('',#527);
#240=VERTEX_POINT('',#531);
#241=VERTEX_POINT('',#533);
#242=VERTEX_POINT('',#536);
#243=VERTEX_POINT('',#538);
#244=VERTEX_POINT('',#541);
#245=VERTEX_POINT('',#542);
#246=VERTEX_POINT('',#544);
#247=VERTEX_POINT('',#546);
#248=VERTEX_POINT('',#548);
#249=VERTEX_POINT('',#552);
#250=VERTEX_POINT('',#553);
#251=VERTEX_POINT('',#555);
#252=VERTEX_POINT('',#558);
#253=VERTEX_POINT('',#562);
#254=VERTEX_POINT('',#563);
#255=VERTEX_POINT('',#565);
#256=VERTEX_POINT('',#570);
#257=VERTEX_POINT('',#571);
#258=VERTEX_POINT('',#573);
#259=VERTEX_POINT('',#575);
#260=VERTEX_POINT('',#577);
#261=VERTEX_POINT('',#581);
#262=VERTEX_POINT('',#582);
#263=VERTEX_POINT('',#587);
#264=VERTEX_POINT('',#589);
#265=VERTEX_POINT('',#607);
#266=VERTEX_POINT('',#608);
#267=VERTEX_POINT('',#613);
#268=VERTEX_POINT('',#614);
#269=ELLIPSE('',#373,0.00511142628923587,0.0034798);
#270=ELLIPSE('',#382,0.00476171046385817,0.0034798);
#271=ELLIPSE('',#386,0.00478875666273871,0.0034798);
#272=ELLIPSE('',#389,0.0050787478675286,0.0034798);
#273=ELLIPSE('',#394,0.0699290084748701,0.0034798);
#274=ELLIPSE('',#395,0.0694819376380424,0.0034798);
#275=ELLIPSE('',#402,0.00504924264381468,0.0034798);
#276=ELLIPSE('',#404,0.00504839189426833,0.0034798);
#277=ELLIPSE('',#406,0.0037451206467389,0.0034798);
#278=ELLIPSE('',#408,0.00374065251571207,0.0034798);
#279=EDGE_LOOP('',(#88,#89,#90,#91,#92));
#280=EDGE_LOOP('',(#93));
#281=EDGE_LOOP('',(#94));
#282=EDGE_LOOP('',(#95));
#283=EDGE_LOOP('',(#96));
#284=EDGE_LOOP('',(#97,#98,#99,#100,#101));
#285=EDGE_LOOP('',(#102,#103,#104,#105,#106,#107));
#286=EDGE_LOOP('',(#108,#109,#110,#111,#112));
#287=EDGE_LOOP('',(#113,#114,#115,#116,#117));
#288=EDGE_LOOP('',(#118,#119,#120,#121));
#289=EDGE_LOOP('',(#122,#123,#124,#125));
#290=EDGE_LOOP('',(#126,#127,#128,#129,#130,#131));
#291=EDGE_LOOP('',(#132));
#292=EDGE_LOOP('',(#133));
#293=EDGE_LOOP('',(#134,#135,#136,#137,#138,#139));
#294=EDGE_LOOP('',(#140,#141,#142,#143));
#295=EDGE_LOOP('',(#144));
#296=EDGE_LOOP('',(#145,#146,#147,#148,#149,#150));
#297=EDGE_LOOP('',(#151));
#298=EDGE_LOOP('',(#152,#153,#154,#155,#156,#157));
#299=EDGE_LOOP('',(#158,#159,#160,#161));
#300=EDGE_LOOP('',(#162,#163,#164,#165));
#301=EDGE_LOOP('',(#166,#167,#168,#169,#170,#171,#172));
#302=EDGE_LOOP('',(#173,#174,#175,#176,#177,#178,#179));
#303=EDGE_LOOP('',(#180,#181,#182,#183,#184,#185));
#304=FACE_BOUND('',#279,.T.);
#305=FACE_BOUND('',#280,.T.);
#306=FACE_BOUND('',#281,.T.);
#307=FACE_BOUND('',#282,.T.);
#308=FACE_BOUND('',#283,.T.);
#309=FACE_BOUND('',#284,.T.);
#310=FACE_BOUND('',#285,.T.);
#311=FACE_BOUND('',#286,.T.);
#312=FACE_BOUND('',#287,.T.);
#313=FACE_BOUND('',#288,.T.);
#314=FACE_BOUND('',#289,.T.);
#315=FACE_BOUND('',#290,.T.);
#316=FACE_BOUND('',#291,.T.);
#317=FACE_BOUND('',#292,.T.);
#318=FACE_BOUND('',#293,.T.);
#319=FACE_BOUND('',#294,.T.);
#320=FACE_BOUND('',#295,.T.);
#321=FACE_BOUND('',#296,.T.);
#322=FACE_BOUND('',#297,.T.);
#323=FACE_BOUND('',#298,.T.);
#324=FACE_BOUND('',#299,.T.);
#325=FACE_BOUND('',#300,.T.);
#326=FACE_BOUND('',#301,.T.);
#327=FACE_BOUND('',#302,.T.);
#328=FACE_BOUND('',#303,.T.);
#329=PLANE('',#372);
#330=PLANE('',#381);
#331=PLANE('',#383);
#332=PLANE('',#385);
#333=PLANE('',#387);
#334=PLANE('',#390);
#335=PLANE('',#391);
#336=PLANE('',#393);
#337=PLANE('',#396);
#338=PLANE('',#397);
#339=PLANE('',#399);
#340=ADVANCED_FACE('',(#304),#329,.T.);
#341=ADVANCED_FACE('',(#305,#306),#13,.F.);
#342=ADVANCED_FACE('',(#307,#308),#14,.F.);
#343=ADVANCED_FACE('',(#309),#330,.T.);
#344=ADVANCED_FACE('',(#310),#331,.F.);
#345=ADVANCED_FACE('',(#311),#332,.F.);
#346=ADVANCED_FACE('',(#312),#333,.T.);
#347=ADVANCED_FACE('',(#313),#334,.T.);
#348=ADVANCED_FACE('',(#314),#335,.F.);
#349=ADVANCED_FACE('',(#315),#15,.F.);
#350=ADVANCED_FACE('',(#316,#317,#318),#336,.F.);
#351=ADVANCED_FACE('',(#319),#337,.T.);
#352=ADVANCED_FACE('',(#320,#321),#338,.T.);
#353=ADVANCED_FACE('',(#322,#323),#339,.T.);
#354=ADVANCED_FACE('',(#324),#16,.T.);
#355=ADVANCED_FACE('',(#325),#17,.T.);
#356=ADVANCED_FACE('',(#326),#18,.T.);
#357=ADVANCED_FACE('',(#327),#19,.T.);
#358=ADVANCED_FACE('',(#328),#20,.T.);
#359=CLOSED_SHELL('',(#340,#341,#342,#343,#344,#345,#346,#347,#348,#349,
#350,#351,#352,#353,#354,#355,#356,#357,#358));
#360=STYLED_ITEM('',(#361),#368);
#361=PRESENTATION_STYLE_ASSIGNMENT((#362));
#362=SURFACE_STYLE_USAGE(.BOTH.,#363);
#363=SURFACE_SIDE_STYLE('',(#364));
#364=SURFACE_STYLE_FILL_AREA(#365);
#365=FILL_AREA_STYLE('',(#366));
#366=FILL_AREA_STYLE_COLOUR('',#367);
#367=COLOUR_RGB('',0.615686274509804,0.811764705882353,0.929411764705882);
#368=MANIFOLD_SOLID_BREP('Arm Mount FL 2',#359);
#369=SHAPE_DEFINITION_REPRESENTATION(#636,#370);
#370=SHAPE_REPRESENTATION('Arm Mount FL 2',(#371),#631);
#371=AXIS2_PLACEMENT_3D('',#517,#410,#411);
#372=AXIS2_PLACEMENT_3D('',#518,#412,#413);
#373=AXIS2_PLACEMENT_3D('',#519,#414,#415);
#374=AXIS2_PLACEMENT_3D('',#524,#417,#418);
#375=AXIS2_PLACEMENT_3D('',#529,#421,#422);
#376=AXIS2_PLACEMENT_3D('',#530,#423,#424);
#377=AXIS2_PLACEMENT_3D('',#532,#425,#426);
#378=AXIS2_PLACEMENT_3D('',#534,#427,#428);
#379=AXIS2_PLACEMENT_3D('',#535,#429,#430);
#380=AXIS2_PLACEMENT_3D('',#537,#431,#432);
#381=AXIS2_PLACEMENT_3D('',#539,#433,#434);
#382=AXIS2_PLACEMENT_3D('',#543,#436,#437);
#383=AXIS2_PLACEMENT_3D('',#550,#441,#442);
#384=AXIS2_PLACEMENT_3D('',#559,#447,#448);
#385=AXIS2_PLACEMENT_3D('',#560,#449,#450);
#386=AXIS2_PLACEMENT_3D('',#564,#452,#453);
#387=AXIS2_PLACEMENT_3D('',#568,#456,#457);
#388=AXIS2_PLACEMENT_3D('',#569,#458,#459);
#389=AXIS2_PLACEMENT_3D('',#574,#461,#462);
#390=AXIS2_PLACEMENT_3D('',#579,#465,#466);
#391=AXIS2_PLACEMENT_3D('',#585,#470,#471);
#392=AXIS2_PLACEMENT_3D('',#591,#475,#476);
#393=AXIS2_PLACEMENT_3D('',#605,#479,#480);
#394=AXIS2_PLACEMENT_3D('',#609,#482,#483);
#395=AXIS2_PLACEMENT_3D('',#610,#484,#485);
#396=AXIS2_PLACEMENT_3D('',#611,#486,#487);
#397=AXIS2_PLACEMENT_3D('',#617,#491,#492);
#398=AXIS2_PLACEMENT_3D('',#618,#493,#494);
#399=AXIS2_PLACEMENT_3D('',#619,#495,#496);
#400=AXIS2_PLACEMENT_3D('',#620,#497,#498);
#401=AXIS2_PLACEMENT_3D('',#621,#499,#500);
#402=AXIS2_PLACEMENT_3D('',#622,#501,#502);
#403=AXIS2_PLACEMENT_3D('',#623,#503,#504);
#404=AXIS2_PLACEMENT_3D('',#624,#505,#506);
#405=AXIS2_PLACEMENT_3D('',#625,#507,#508);
#406=AXIS2_PLACEMENT_3D('',#626,#509,#510);
#407=AXIS2_PLACEMENT_3D('',#627,#511,#512);
#408=AXIS2_PLACEMENT_3D('',#628,#513,#514);
#409=AXIS2_PLACEMENT_3D('',#629,#515,#516);
#410=DIRECTION('',(0.,0.,1.));
#411=DIRECTION('',(1.,0.,0.));
#412=DIRECTION('',(-0.707106781189373,0.707106781183722,0.));
#413=DIRECTION('',(-0.707106781183722,-0.707106781189373,0.));
#414=DIRECTION('',(-0.707106781189373,0.707106781183722,0.));
#415=DIRECTION('',(0.705473130656398,0.705473130662037,-0.0679361747213134));
#416=DIRECTION('',(0.707106781183722,0.707106781189373,-1.04675000985922E-16));
#417=DIRECTION('',(-0.707106781189373,0.707106781183722,0.));
#418=DIRECTION('',(-0.707106781183722,-0.707106781189373,0.));
#419=DIRECTION('',(0.707106781183722,0.707106781189373,0.));
#420=DIRECTION('',(0.,0.,1.));
#421=DIRECTION('',(0.,0.,-1.));
#422=DIRECTION('',(-1.,0.,0.));
#423=DIRECTION('',(0.,0.,1.));
#424=DIRECTION('',(1.,0.,0.));
#425=DIRECTION('',(0.,0.,1.));
#426=DIRECTION('',(1.,0.,0.));
#427=DIRECTION('',(0.,0.,-1.));
#428=DIRECTION('',(-1.,0.,0.));
#429=DIRECTION('',(0.,0.,1.));
#430=DIRECTION('',(1.,0.,0.));
#431=DIRECTION('',(0.,0.,1.));
#432=DIRECTION('',(1.,0.,0.));
#433=DIRECTION('',(0.707106781183721,0.707106781189374,0.));
#434=DIRECTION('',(-0.707106781189374,0.707106781183721,0.));
#435=DIRECTION('',(-0.707106781189374,0.707106781183721,0.));
#436=DIRECTION('',(0.707106781183721,0.707106781189374,0.));
#437=DIRECTION('',(0.705225349503791,-0.705225349498154,-0.0729000194956199));
#438=DIRECTION('',(0.,0.,-1.));
#439=DIRECTION('',(0.707106781189374,-0.707106781183721,0.));
#440=DIRECTION('',(0.,0.,-1.));
#441=DIRECTION('',(-0.707106781189373,0.707106781183722,0.));
#442=DIRECTION('',(-0.707106781183722,-0.707106781189373,0.));
#443=DIRECTION('',(0.707106781183722,0.707106781189373,0.));
#444=DIRECTION('',(0.,0.,-1.));
#445=DIRECTION('',(-0.707106781183722,-0.707106781189373,0.));
#446=DIRECTION('',(0.707106781183722,0.707106781189373,0.));
#447=DIRECTION('',(0.707106781189373,-0.707106781183722,0.));
#448=DIRECTION('',(0.707106781183722,0.707106781189373,0.));
#449=DIRECTION('',(0.707106781183722,0.707106781189373,0.));
#450=DIRECTION('',(-0.707106781189373,0.707106781183722,0.));
#451=DIRECTION('',(0.,0.,1.));
#452=DIRECTION('',(0.707106781183722,0.707106781189373,0.));
#453=DIRECTION('',(-0.705225349503791,0.705225349498155,0.0729000194956197));
#454=DIRECTION('',(-0.707106781189373,0.707106781183722,0.));
#455=DIRECTION('',(0.707106781189373,-0.707106781183722,0.));
#456=DIRECTION('',(-0.707106781189373,0.707106781183722,0.));
#457=DIRECTION('',(-0.707106781183722,-0.707106781189373,0.));
#458=DIRECTION('',(-0.707106781189373,0.707106781183722,0.));
#459=DIRECTION('',(-0.707106781183722,-0.707106781189373,0.));
#460=DIRECTION('',(0.707106781183722,0.707106781189373,-1.04675000985922E-16));
#461=DIRECTION('',(-0.707106781189373,0.707106781183722,0.));
#462=DIRECTION('',(0.705433330731546,0.705433330737184,0.0687577761277978));
#463=DIRECTION('',(0.,0.,1.));
#464=DIRECTION('',(0.707106781183722,0.707106781189373,0.));
#465=DIRECTION('',(-0.0353987447021912,0.99937326804028,0.));
#466=DIRECTION('',(-0.99937326804028,-0.0353987447021912,0.));
#467=DIRECTION('',(0.,0.,-1.));
#468=DIRECTION('',(0.998135153954458,0.0353548895323185,-0.0497618953263225));
#469=DIRECTION('',(0.99937326804028,0.0353987447021912,0.));
#470=DIRECTION('',(0.999568437421554,-0.0293758218716044,0.));
#471=DIRECTION('',(0.0293758218716044,0.999568437421554,0.));
#472=DIRECTION('',(-0.0293389583061288,-0.99831408420886,-0.0500820805851385));
#473=DIRECTION('',(0.,0.,-1.));
#474=DIRECTION('',(-0.0293758218716044,-0.999568437421554,0.));
#475=DIRECTION('',(0.707106781189373,-0.707106781183722,0.));
#476=DIRECTION('',(0.707106781183722,0.707106781189373,0.));
#477=DIRECTION('',(0.707106781189373,-0.707106781183722,0.));
#478=DIRECTION('',(0.707106781189373,-0.707106781183722,0.));
#479=DIRECTION('',(0.,0.,1.));
#480=DIRECTION('',(1.,0.,0.));
#481=DIRECTION('',(0.707106781183722,0.707106781189373,0.));
#482=DIRECTION('',(0.,0.,1.));
#483=DIRECTION('',(0.99937326804028,0.0353987447021912,0.));
#484=DIRECTION('',(0.,0.,1.));
#485=DIRECTION('',(0.0293758218716044,0.999568437421554,0.));
#486=DIRECTION('',(-0.0515480981341904,0.0515480981337782,-0.997339253793582));
#487=DIRECTION('',(-0.99866696852401,0.,0.0516167218938168));
#488=DIRECTION('',(0.707106781183722,0.707106781189374,-9.97582371621426E-17));
#489=DIRECTION('',(0.998135153954458,0.0353548895323185,-0.0497618953263225));
#490=DIRECTION('',(0.0293389583061288,0.99831408420886,0.0500820805851385));
#491=DIRECTION('',(0.,0.,1.));
#492=DIRECTION('',(1.,0.,0.));
#493=DIRECTION('',(0.,0.,1.));
#494=DIRECTION('',(1.,0.,0.));
#495=DIRECTION('',(0.,0.,1.));
#496=DIRECTION('',(1.,0.,0.));
#497=DIRECTION('',(0.,0.,1.));
#498=DIRECTION('',(1.,0.,0.));
#499=DIRECTION('',(0.,0.,-1.));
#500=DIRECTION('',(-1.,0.,0.));
#501=DIRECTION('',(0.0212856370200021,0.724284448230957,-0.689172663203809));
#502=DIRECTION('',(-0.0202450133930543,-0.688875242072283,-0.724597157248474));
#503=DIRECTION('',(0.,0.,-1.));
#504=DIRECTION('',(-1.,0.,0.));
#505=DIRECTION('',(-0.724032619778142,-0.0256459189806466,-0.68928880183624));
#506=DIRECTION('',(0.688856802514652,0.0243999583222803,-0.724486678734096));
#507=DIRECTION('',(0.0293389583061288,0.99831408420886,0.0500820805851384));
#508=DIRECTION('',(0.,-0.0501036491987202,0.998744023429914));
#509=DIRECTION('',(0.396298371194657,0.917726147247292,0.0269503181261916));
#510=DIRECTION('',(-0.916673548525979,0.393854684163375,0.0677354648272145));
#511=DIRECTION('',(0.998135153954458,0.0353548895323185,-0.0497618953263225));
#512=DIRECTION('',(-0.0497930249063126,0.,-0.998759557987146));
#513=DIRECTION('',(0.916535078822397,0.399059014369344,-0.0267460714608612));
#514=DIRECTION('',(0.396618510494366,-0.91547512070474,-0.0678163734202313));
#515=DIRECTION('',(0.707106781183722,0.707106781189373,-1.04675000985922E-16));
#516=DIRECTION('',(-0.707106781189373,0.707106781183722,0.));
#517=CARTESIAN_POINT('',(0.,0.,0.));
#518=CARTESIAN_POINT('',(-0.0930771706070491,0.0930771706063051,0.0214616004377604));
#519=CARTESIAN_POINT('',(-0.0908498505669754,0.0953044906463966,0.0166956840036221));
#520=CARTESIAN_POINT('',(-0.0872400041283775,0.0989143370850234,0.0165095744395903));
#521=CARTESIAN_POINT('',(-0.0872406974068604,0.0989136438065405,0.0164413297436489));
#522=CARTESIAN_POINT('',(-0.0930771706070491,0.0930771706063051,0.0164413297436489));
#523=CARTESIAN_POINT('',(-0.088562355133963,0.0975919860794273,0.0164413297436489));
#524=CARTESIAN_POINT('',(-0.0929614452791842,0.093192895934171,0.02155));
#525=CARTESIAN_POINT('',(-0.0872824402607199,0.0988719009526806,0.021002));
#526=CARTESIAN_POINT('',(-0.0930771706070491,0.0930771706063051,0.021002));
#527=CARTESIAN_POINT('',(-0.0872400041283775,0.0989143370850234,0.021002));
#528=CARTESIAN_POINT('',(-0.0872400041283775,0.0989143370850234,0.0214616004377604));
#529=CARTESIAN_POINT('',(-0.0876275974071732,0.0519991176039638,0.01135));
#530=CARTESIAN_POINT('',(-0.0876275974071732,0.0519991176039638,0.01135));
#531=CARTESIAN_POINT('',(-0.0852025974071732,0.0519991176039638,0.01135));
#532=CARTESIAN_POINT('',(-0.0876275974071732,0.0519991176039638,0.021002));
#533=CARTESIAN_POINT('',(-0.0852025974071732,0.0519991176039638,0.021002));
#534=CARTESIAN_POINT('',(-0.0517676669489344,0.0878590480624892,0.01135));
#535=CARTESIAN_POINT('',(-0.0517676669489344,0.0878590480624892,0.01135));
#536=CARTESIAN_POINT('',(-0.0493426669489344,0.0878590480624892,0.01135));
#537=CARTESIAN_POINT('',(-0.0517676669489344,0.0878590480624892,0.021002));
#538=CARTESIAN_POINT('',(-0.0493426669489344,0.0878590480624892,0.021002));
#539=CARTESIAN_POINT('',(-0.0429288321841237,0.0931623489214236,0.03175));
#540=CARTESIAN_POINT('',(0.0250409602624,0.0251925564754432,0.01135));
#541=CARTESIAN_POINT('',(-0.0358577643722299,0.0860912811095864,0.01135));
#542=CARTESIAN_POINT('',(-0.0479562829926912,0.0981897997299509,0.01135));
#543=CARTESIAN_POINT('',(-0.0466370336281841,0.0968705503654543,0.0144914598964223));
#544=CARTESIAN_POINT('',(-0.0489292740579506,0.0991627907952026,0.0120522450641703));
#545=CARTESIAN_POINT('',(-0.0489292740579506,0.0991627907952026,0.03175));
#546=CARTESIAN_POINT('',(-0.0489292740579506,0.0991627907952026,0.021002));
#547=CARTESIAN_POINT('',(-0.0429288321841237,0.0931623489214236,0.021002));
#548=CARTESIAN_POINT('',(-0.0358577643722299,0.0860912811095864,0.021002));
#549=CARTESIAN_POINT('',(-0.0358577643722299,0.0860912811095864,0.03175));
#550=CARTESIAN_POINT('',(-0.0608587974131866,0.0610902480684299,0.03175));
#551=CARTESIAN_POINT('',(-0.0608587974131866,0.0610902480684299,0.021002));
#552=CARTESIAN_POINT('',(-0.0858598304541432,0.0360892150272735,0.021002));
#553=CARTESIAN_POINT('',(-0.0665378024316508,0.0554112430499203,0.021002));
#554=CARTESIAN_POINT('',(-0.0858598304541432,0.0360892150272735,0.03175));
#555=CARTESIAN_POINT('',(-0.0858598304541432,0.0360892150272735,0.01135));
#556=CARTESIAN_POINT('',(-0.0608189201984417,0.0611301252831752,0.01135));
#557=CARTESIAN_POINT('',(-0.0608587974131866,0.0610902480684299,0.021002));
#558=CARTESIAN_POINT('',(-0.0551797923947223,0.0667692530869396,0.021002));
#559=CARTESIAN_POINT('',(-0.0608587974131866,0.0610902480684299,0.02155));
#560=CARTESIAN_POINT('',(-0.0929308982660369,0.0431602828391107,0.03175));
#561=CARTESIAN_POINT('',(-0.0989401460907402,0.0491695306637659,0.01135));
#562=CARTESIAN_POINT('',(-0.0989401460907402,0.0491695306637659,0.021002));
#563=CARTESIAN_POINT('',(-0.0989401460907402,0.0491695306637659,0.0120673729937591));
#564=CARTESIAN_POINT('',(-0.0966200530456433,0.0468494376186877,0.0144894910190826));
#565=CARTESIAN_POINT('',(-0.0979484875592942,0.0481778721323279,0.01135));
#566=CARTESIAN_POINT('',(-0.0249611058195133,-0.0248095096068697,0.01135));
#567=CARTESIAN_POINT('',(-0.0929308982660369,0.0431602828391107,0.021002));
#568=CARTESIAN_POINT('',(-0.0930771706070491,0.0930771706063051,0.0214616004377604));
#569=CARTESIAN_POINT('',(-0.0929614452791842,0.093192895934171,0.02155));
#570=CARTESIAN_POINT('',(-0.0973605354244054,0.0887938057889146,0.0164413297436489));
#571=CARTESIAN_POINT('',(-0.0986404502976484,0.0875138909156613,0.021002));
#572=CARTESIAN_POINT('',(-0.0930771706070491,0.0930771706063051,0.0164413297436489));
#573=CARTESIAN_POINT('',(-0.0989136269422424,0.0872407142710652,0.0164413297436489));
#574=CARTESIAN_POINT('',(-0.0953276266282016,0.0908267145851346,0.0166956840036221));
#575=CARTESIAN_POINT('',(-0.0989143370857207,0.0872400041275869,0.0165106225938107));
#576=CARTESIAN_POINT('',(-0.0989143370857207,0.0872400041275869,0.0214616004377604));
#577=CARTESIAN_POINT('',(-0.0989143370857207,0.0872400041275869,0.021002));
#578=CARTESIAN_POINT('',(-0.0930771706070491,0.0930771706063051,0.021002));
#579=CARTESIAN_POINT('',(-0.00360856682964491,0.101876641553924,0.));
#580=CARTESIAN_POINT('',(-0.0515130447869284,0.100179819716146,0.));
#581=CARTESIAN_POINT('',(-0.0515130447869284,0.100179819716146,0.021002));
#582=CARTESIAN_POINT('',(-0.0515130447869284,0.100179819716146,0.0147284116340991));
#583=CARTESIAN_POINT('',(-0.00299564320553277,0.101898351887375,0.0123095830321473));
#584=CARTESIAN_POINT('',(-0.00360856682964491,0.101876641553924,0.021002));
#585=CARTESIAN_POINT('',(-0.101390620891134,0.00297971875385778,0.));
#586=CARTESIAN_POINT('',(-0.101408669823051,0.00236556937779443,0.012252755908372));
#587=CARTESIAN_POINT('',(-0.0999578541621166,0.0517323428258975,0.0147293219161685));
#588=CARTESIAN_POINT('',(-0.0999578541621166,0.0517323428258975,0.021002));
#589=CARTESIAN_POINT('',(-0.0999578541621166,0.0517323428258975,0.021002));
#590=CARTESIAN_POINT('',(-0.101390620891134,0.00297971875385778,0.021002));
#591=CARTESIAN_POINT('',(-0.11671599048646,0.116947441141257,0.02155));
#592=CARTESIAN_POINT('',(-0.088562355133963,0.0975919860794273,0.0164413297436489));
#593=CARTESIAN_POINT('',(-0.0888397122304979,0.0973146289828902,0.0159636638114754));
#594=CARTESIAN_POINT('',(-0.0893256530729221,0.0965570667034451,0.0151186015569983));
#595=CARTESIAN_POINT('',(-0.089988425620731,0.0951041430235969,0.0142113141453842));
#596=CARTESIAN_POINT('',(-0.0907000866438857,0.0935025993406667,0.0136411823145902));
#597=CARTESIAN_POINT('',(-0.0917330442376398,0.091959083084106,0.0134290507985894));
#598=CARTESIAN_POINT('',(-0.0932769000177871,0.0909289122230189,0.0136426191567827));
#599=CARTESIAN_POINT('',(-0.0948762782112436,0.090218222563849,0.0142135603089822));
#600=CARTESIAN_POINT('',(-0.0963231019977747,0.0895583866812467,0.0151166907670927));
#601=CARTESIAN_POINT('',(-0.0970832275540172,0.0890711136593051,0.0159637485890186));
#602=CARTESIAN_POINT('',(-0.0973605354244054,0.0887938057889146,0.0164413297436489));
#603=CARTESIAN_POINT('',(-0.122394995504924,0.111268436122747,0.021002));
#604=CARTESIAN_POINT('',(-0.111036985467996,0.122626446159766,0.021002));
#605=CARTESIAN_POINT('',(0.000680295059272973,0.000231400649031973,0.01135));
#606=CARTESIAN_POINT('',(-0.0750009330369741,0.0752323836921044,0.01135));
#607=CARTESIAN_POINT('',(-0.0966054951722378,0.053627821556668,0.01135));
#608=CARTESIAN_POINT('',(-0.0534171953150371,0.0968161214142139,0.01135));
#609=CARTESIAN_POINT('',(0.0163750670322705,0.0991024984630878,0.01135));
#610=CARTESIAN_POINT('',(-0.0984592217669737,-0.0157317903370744,0.01135));
#611=CARTESIAN_POINT('',(0.000184313254711708,-0.000184313254710234,0.00356604512236148));
#612=CARTESIAN_POINT('',(-0.0907959575017537,0.090795957501028,0.012970788608298));
#613=CARTESIAN_POINT('',(-0.0956560088720217,0.085935906130721,0.012970788608298));
#614=CARTESIAN_POINT('',(-0.0859273333727295,0.095664581630091,0.012970788608298));
#615=CARTESIAN_POINT('',(-0.00305183972560544,0.0986001098611347,0.00883904189679641));
#616=CARTESIAN_POINT('',(-0.0981097486463992,0.00244272446473155,0.00878221477302108));
#617=CARTESIAN_POINT('',(0.000680295059272966,0.000231400649031973,0.021002));
#618=CARTESIAN_POINT('',(-0.0513898642351137,0.0967022006180198,0.021002));
#619=CARTESIAN_POINT('',(0.000680295059272966,0.000231400649031973,0.021002));
#620=CARTESIAN_POINT('',(-0.096479555913577,0.0516301208409487,0.021002));
#621=CARTESIAN_POINT('',(-0.096479555913577,0.0516301208409487,0.03175));
#622=CARTESIAN_POINT('',(-0.096479555913577,0.0516301208409487,0.0147293219161685));
#623=CARTESIAN_POINT('',(-0.0513898642351137,0.0967022006180198,0.));
#624=CARTESIAN_POINT('',(-0.0513898642351137,0.0967022006180198,0.0147284116340991));
#625=CARTESIAN_POINT('',(-0.0979303715745119,0.00226334739284562,0.012252755908372));
#626=CARTESIAN_POINT('',(-0.0954766318001344,0.0857565290588351,0.0164413297436489));
#627=CARTESIAN_POINT('',(-0.00287246265371808,0.0984207327892488,0.0123095830321473));
#628=CARTESIAN_POINT('',(-0.0857479563008421,0.0954852045582051,0.0164413297436489));
#629=CARTESIAN_POINT('',(-0.0906165804298663,0.090616580429142,0.0164413297436489));
#630=MECHANICAL_DESIGN_GEOMETRIC_PRESENTATION_REPRESENTATION('',(#360),
#631);
#631=(
GEOMETRIC_REPRESENTATION_CONTEXT(3)
GLOBAL_UNCERTAINTY_ASSIGNED_CONTEXT((#632))
GLOBAL_UNIT_ASSIGNED_CONTEXT((#635,#634,#633))
REPRESENTATION_CONTEXT('Arm Mount FL 2','TOP_LEVEL_ASSEMBLY_PART')
);
#632=UNCERTAINTY_MEASURE_WITH_UNIT(LENGTH_MEASURE(2.E-5),#635,
'DISTANCE_ACCURACY_VALUE','Maximum Tolerance applied to model');
#633=(
NAMED_UNIT(*)
SI_UNIT($,.STERADIAN.)
SOLID_ANGLE_UNIT()
);
#634=(
NAMED_UNIT(*)
PLANE_ANGLE_UNIT()
SI_UNIT($,.RADIAN.)
);
#635=(
LENGTH_UNIT()
NAMED_UNIT(*)
SI_UNIT($,.METRE.)
);
#636=PRODUCT_DEFINITION_SHAPE('','',#637);
#637=PRODUCT_DEFINITION('','',#639,#638);
#638=PRODUCT_DEFINITION_CONTEXT('',#645,'design');
#639=PRODUCT_DEFINITION_FORMATION_WITH_SPECIFIED_SOURCE('','',#641,
 .NOT_KNOWN.);
#640=PRODUCT_RELATED_PRODUCT_CATEGORY('','',(#641));
#641=PRODUCT('Arm Mount FL 2','Arm Mount FL 2','Arm Mount FL 2',(#643));
#642=PRODUCT_CATEGORY('','');
#643=PRODUCT_CONTEXT('',#645,'mechanical');
#644=APPLICATION_PROTOCOL_DEFINITION('international standard',
'ap242_managed_model_based_3d_engineering',2020,#645);
#645=APPLICATION_CONTEXT('managed model based 3d engineering');
ENDSEC;
END-ISO-10303-21;
