ISO-10303-21;
HEADER;
/* Generated by software containing ST-Developer
 * from STEP Tools, Inc. (www.steptools.com) 
 */
/* OPTION: using custom renumber hook */

FILE_DESCRIPTION(
/* description */ ('STEP AP242 Edition 2',
'CAx-IF Rec.Pracs.---Representation and Presentation of Product Manufa
cturing Information (PMI)---4.0---2014-10-13',
'CAx-IF Rec.Pracs.---3D Tessellated Geometry---0.4---2014-09-14','2;1',
'CAx-IF Rec.Pracs.---User Defined Attributes---1.5---2016-08-15'),
/* implementation_level */ '2;1');

FILE_NAME(
/* name */ 'Part Studio 1 - Motor Mount Top FL',
/* time_stamp */ '2026-06-27T18:00:30Z',
/* author */ (''),
/* organization */ (''),
/* preprocessor_version */ 'ST-DEVELOPER v20',
/* originating_system */ 'ONSHAPE BY PTC INC, 1.217',
/* authorisation */ '  ');

FILE_SCHEMA (('AP242_MANAGED_MODEL_BASED_3D_ENGINEERING_MIM_LF { 1 0 10303 442 3 1 4 }'));
ENDSEC;

DATA;
#10=SHAPE_REPRESENTATION_RELATIONSHIP('','',#795,#11);
#11=ADVANCED_BREP_SHAPE_REPRESENTATION('',(#793),#1437);
#12=ELLIPSE('',#874,0.0049211803543459,0.0034798);
#13=ELLIPSE('',#876,0.00492233156961979,0.0034798);
#14=SPHERICAL_SURFACE('',#869,0.0034798);
#15=SPHERICAL_SURFACE('',#871,0.0034798);
#16=B_SPLINE_CURVE_WITH_KNOTS('',3,(#1145,#1146,#1147,#1148),
 .UNSPECIFIED.,.F.,.F.,(4,4),(0.,8.15066187381567E-5),.UNSPECIFIED.);
#17=B_SPLINE_CURVE_WITH_KNOTS('',3,(#1150,#1151,#1152,#1153,#1154,#1155,
#1156,#1157,#1158,#1159,#1160,#1161,#1162,#1163,#1164),.UNSPECIFIED.,.F.,
 .F.,(4,1,1,1,1,1,1,1,1,1,1,1,4),(0.,0.00195600778423547,0.00391201556847095,
0.00489001946058869,0.00586802335270642,0.00684602724482416,0.0078240311369419,
0.00880203502905964,0.00978003892117738,0.0107580428132951,0.0117360467054128,
0.0136920544896483,0.0156480622738838),.UNSPECIFIED.);
#18=B_SPLINE_CURVE_WITH_KNOTS('',3,(#1166,#1167,#1168,#1169),
 .UNSPECIFIED.,.F.,.F.,(4,4),(0.000461986850531499,0.000543493469269664),
 .UNSPECIFIED.);
#19=B_SPLINE_CURVE_WITH_KNOTS('',3,(#1174,#1175,#1176,#1177),
 .UNSPECIFIED.,.F.,.F.,(4,4),(0.,8.15152601867535E-5),.UNSPECIFIED.);
#20=B_SPLINE_CURVE_WITH_KNOTS('',3,(#1179,#1180,#1181,#1182,#1183,#1184,
#1185,#1186,#1187,#1188,#1189,#1190,#1191,#1192,#1193),.UNSPECIFIED.,.F.,
 .F.,(4,1,1,1,1,1,1,1,1,1,1,1,4),(0.,0.00195199068918083,0.00390398137836166,
0.00487997672295208,0.00585597206754249,0.00683196741213291,0.00780796275672332,
0.00878395810131374,0.00975995344590416,0.0107359487904946,0.011711944135085,
0.0136639348242658,0.0156159255134466),.UNSPECIFIED.);
#21=B_SPLINE_CURVE_WITH_KNOTS('',3,(#1195,#1196,#1197,#1198),
 .UNSPECIFIED.,.F.,.F.,(4,4),(0.000461951434339828,0.000543466694526578),
 .UNSPECIFIED.);
#22=B_SPLINE_CURVE_WITH_KNOTS('',3,(#1203,#1204,#1205,#1206),
 .UNSPECIFIED.,.F.,.F.,(4,4),(0.,8.15070046825407E-5),.UNSPECIFIED.);
#23=B_SPLINE_CURVE_WITH_KNOTS('',3,(#1208,#1209,#1210,#1211,#1212,#1213,
#1214,#1215,#1216,#1217,#1218,#1219,#1220,#1221,#1222),.UNSPECIFIED.,.F.,
 .F.,(4,1,1,1,1,1,1,1,1,1,1,1,4),(0.,0.00195543513603948,0.00391087027207896,
0.0048885878400987,0.00586630540811844,0.00684402297613818,0.00782174054415793,
0.00879945811217767,0.00977717568019741,0.0107548932482171,0.0117326108162369,
0.0136880459522764,0.0156434810883159),.UNSPECIFIED.);
#24=B_SPLINE_CURVE_WITH_KNOTS('',3,(#1224,#1225,#1226,#1227),
 .UNSPECIFIED.,.F.,.F.,(4,4),(0.000461982539433245,0.00054348954411579),
 .UNSPECIFIED.);
#25=B_SPLINE_CURVE_WITH_KNOTS('',3,(#1232,#1233,#1234,#1235),
 .UNSPECIFIED.,.F.,.F.,(4,4),(0.,8.15156207589479E-5),.UNSPECIFIED.);
#26=B_SPLINE_CURVE_WITH_KNOTS('',3,(#1237,#1238,#1239,#1240,#1241,#1242,
#1243,#1244,#1245,#1246,#1247,#1248,#1249,#1250,#1251),.UNSPECIFIED.,.F.,
 .F.,(4,1,1,1,1,1,1,1,1,1,1,1,4),(0.,0.00195141996004298,0.00390283992008595,
0.00487854990010744,0.00585425988012893,0.00682996986015041,0.0078056798401719,
0.00878138982019339,0.00975709980021488,0.0107328097802364,0.0117085197602579,
0.0136599397203008,0.0156113596803438),.UNSPECIFIED.);
#27=B_SPLINE_CURVE_WITH_KNOTS('',3,(#1253,#1254,#1255,#1256),
 .UNSPECIFIED.,.F.,.F.,(4,4),(0.000461947409156693,0.000543463029915644),
 .UNSPECIFIED.);
#28=B_SPLINE_CURVE_WITH_KNOTS('',3,(#1258,#1259,#1260,#1261,#1262),
 .UNSPECIFIED.,.F.,.F.,(4,1,4),(0.,0.00140416367122913,0.00280832734245827),
 .UNSPECIFIED.);
#29=B_SPLINE_CURVE_WITH_KNOTS('',3,(#1263,#1264,#1265,#1266,#1267),
 .UNSPECIFIED.,.F.,.F.,(4,1,4),(0.,0.00140772417920389,0.00281544835840777),
 .UNSPECIFIED.);
#30=B_SPLINE_CURVE_WITH_KNOTS('',3,(#1337,#1338,#1339,#1340,#1341),
 .UNSPECIFIED.,.F.,.F.,(4,1,4),(0.,0.0014077241792039,0.00281544835840779),
 .UNSPECIFIED.);
#31=B_SPLINE_CURVE_WITH_KNOTS('',3,(#1342,#1343,#1344,#1345,#1346),
 .UNSPECIFIED.,.F.,.F.,(4,1,4),(0.,0.00141127947799767,0.00282255895599534),
 .UNSPECIFIED.);
#32=B_SPLINE_CURVE_WITH_KNOTS('',3,(#1348,#1349,#1350,#1351,#1352),
 .UNSPECIFIED.,.F.,.F.,(4,1,4),(0.,0.00140772417920412,0.00281544835840824),
 .UNSPECIFIED.);
#33=B_SPLINE_CURVE_WITH_KNOTS('',3,(#1353,#1354,#1355,#1356,#1357),
 .UNSPECIFIED.,.F.,.F.,(4,1,4),(0.,0.00140772417920389,0.00281544835840777),
 .UNSPECIFIED.);
#34=B_SPLINE_CURVE_WITH_KNOTS('',3,(#1361,#1362,#1363,#1364,#1365),
 .UNSPECIFIED.,.F.,.F.,(4,1,4),(0.,0.00140772417920428,0.00281544835840855),
 .UNSPECIFIED.);
#35=B_SPLINE_CURVE_WITH_KNOTS('',3,(#1395,#1396,#1397,#1398,#1399),
 .UNSPECIFIED.,.F.,.F.,(4,1,4),(0.,0.00140772417920429,0.00281544835840857),
 .UNSPECIFIED.);
#36=CYLINDRICAL_SURFACE('',#813,0.0016);
#37=CYLINDRICAL_SURFACE('',#815,0.00159999999999997);
#38=CYLINDRICAL_SURFACE('',#817,0.0016);
#39=CYLINDRICAL_SURFACE('',#819,0.0016);
#40=CYLINDRICAL_SURFACE('',#821,0.002);
#41=CYLINDRICAL_SURFACE('',#828,0.008);
#42=CYLINDRICAL_SURFACE('',#837,0.002);
#43=CYLINDRICAL_SURFACE('',#838,0.002);
#44=CYLINDRICAL_SURFACE('',#840,0.00199999999999999);
#45=CYLINDRICAL_SURFACE('',#847,0.002);
#46=CYLINDRICAL_SURFACE('',#853,0.002);
#47=CYLINDRICAL_SURFACE('',#859,0.008);
#48=CYLINDRICAL_SURFACE('',#862,0.0034798);
#49=CYLINDRICAL_SURFACE('',#864,0.0034798);
#50=CYLINDRICAL_SURFACE('',#866,0.0034798);
#51=CYLINDRICAL_SURFACE('',#873,0.0034798);
#52=CYLINDRICAL_SURFACE('',#875,0.0034798);
#53=CYLINDRICAL_SURFACE('',#877,0.0034798);
#54=LINE('',#1105,#104);
#55=LINE('',#1109,#105);
#56=LINE('',#1115,#106);
#57=LINE('',#1119,#107);
#58=LINE('',#1121,#108);
#59=LINE('',#1124,#109);
#60=LINE('',#1128,#110);
#61=LINE('',#1131,#111);
#62=LINE('',#1138,#112);
#63=LINE('',#1140,#113);
#64=LINE('',#1268,#114);
#65=LINE('',#1273,#115);
#66=LINE('',#1277,#116);
#67=LINE('',#1280,#117);
#68=LINE('',#1282,#118);
#69=LINE('',#1284,#119);
#70=LINE('',#1286,#120);
#71=LINE('',#1288,#121);
#72=LINE('',#1290,#122);
#73=LINE('',#1292,#123);
#74=LINE('',#1294,#124);
#75=LINE('',#1296,#125);
#76=LINE('',#1298,#126);
#77=LINE('',#1303,#127);
#78=LINE('',#1308,#128);
#79=LINE('',#1314,#129);
#80=LINE('',#1317,#130);
#81=LINE('',#1319,#131);
#82=LINE('',#1321,#132);
#83=LINE('',#1323,#133);
#84=LINE('',#1326,#134);
#85=LINE('',#1328,#135);
#86=LINE('',#1331,#136);
#87=LINE('',#1366,#137);
#88=LINE('',#1368,#138);
#89=LINE('',#1372,#139);
#90=LINE('',#1374,#140);
#91=LINE('',#1376,#141);
#92=LINE('',#1379,#142);
#93=LINE('',#1381,#143);
#94=LINE('',#1383,#144);
#95=LINE('',#1385,#145);
#96=LINE('',#1387,#146);
#97=LINE('',#1393,#147);
#98=LINE('',#1402,#148);
#99=LINE('',#1409,#149);
#100=LINE('',#1411,#150);
#101=LINE('',#1413,#151);
#102=LINE('',#1415,#152);
#103=LINE('',#1417,#153);
#104=VECTOR('',#892,1.);
#105=VECTOR('',#895,1.);
#106=VECTOR('',#900,1.);
#107=VECTOR('',#903,1.);
#108=VECTOR('',#906,1.);
#109=VECTOR('',#907,1.);
#110=VECTOR('',#912,1.);
#111=VECTOR('',#913,1.);
#112=VECTOR('',#920,1.);
#113=VECTOR('',#921,1.);
#114=VECTOR('',#940,1.);
#115=VECTOR('',#943,1.);
#116=VECTOR('',#948,1.);
#117=VECTOR('',#949,1.);
#118=VECTOR('',#950,1.);
#119=VECTOR('',#951,1.);
#120=VECTOR('',#952,1.);
#121=VECTOR('',#953,1.);
#122=VECTOR('',#956,1.);
#123=VECTOR('',#957,1.);
#124=VECTOR('',#958,1.);
#125=VECTOR('',#959,1.);
#126=VECTOR('',#960,1.);
#127=VECTOR('',#967,1.);
#128=VECTOR('',#970,1.);
#129=VECTOR('',#977,1.);
#130=VECTOR('',#978,1.);
#131=VECTOR('',#979,1.);
#132=VECTOR('',#980,1.);
#133=VECTOR('',#981,1.);
#134=VECTOR('',#984,1.);
#135=VECTOR('',#987,1.);
#136=VECTOR('',#988,1.);
#137=VECTOR('',#1001,1.);
#138=VECTOR('',#1002,1.);
#139=VECTOR('',#1005,1.);
#140=VECTOR('',#1006,1.);
#141=VECTOR('',#1009,1.);
#142=VECTOR('',#1010,1.);
#143=VECTOR('',#1011,1.);
#144=VECTOR('',#1012,1.);
#145=VECTOR('',#1013,1.);
#146=VECTOR('',#1016,1.);
#147=VECTOR('',#1023,1.);
#148=VECTOR('',#1030,1.);
#149=VECTOR('',#1043,1.);
#150=VECTOR('',#1046,1.);
#151=VECTOR('',#1049,1.);
#152=VECTOR('',#1052,1.);
#153=VECTOR('',#1055,1.);
#154=ORIENTED_EDGE('',*,*,#380,.F.);
#155=ORIENTED_EDGE('',*,*,#381,.F.);
#156=ORIENTED_EDGE('',*,*,#382,.F.);
#157=ORIENTED_EDGE('',*,*,#383,.F.);
#158=ORIENTED_EDGE('',*,*,#384,.F.);
#159=ORIENTED_EDGE('',*,*,#385,.T.);
#160=ORIENTED_EDGE('',*,*,#386,.F.);
#161=ORIENTED_EDGE('',*,*,#387,.T.);
#162=ORIENTED_EDGE('',*,*,#388,.F.);
#163=ORIENTED_EDGE('',*,*,#389,.F.);
#164=ORIENTED_EDGE('',*,*,#390,.T.);
#165=ORIENTED_EDGE('',*,*,#391,.F.);
#166=ORIENTED_EDGE('',*,*,#392,.T.);
#167=ORIENTED_EDGE('',*,*,#393,.T.);
#168=ORIENTED_EDGE('',*,*,#394,.T.);
#169=ORIENTED_EDGE('',*,*,#395,.F.);
#170=ORIENTED_EDGE('',*,*,#396,.T.);
#171=ORIENTED_EDGE('',*,*,#397,.T.);
#172=ORIENTED_EDGE('',*,*,#398,.F.);
#173=ORIENTED_EDGE('',*,*,#399,.F.);
#174=ORIENTED_EDGE('',*,*,#400,.T.);
#175=ORIENTED_EDGE('',*,*,#401,.T.);
#176=ORIENTED_EDGE('',*,*,#383,.T.);
#177=ORIENTED_EDGE('',*,*,#402,.F.);
#178=ORIENTED_EDGE('',*,*,#403,.F.);
#179=ORIENTED_EDGE('',*,*,#404,.F.);
#180=ORIENTED_EDGE('',*,*,#405,.F.);
#181=ORIENTED_EDGE('',*,*,#380,.T.);
#182=ORIENTED_EDGE('',*,*,#406,.F.);
#183=ORIENTED_EDGE('',*,*,#407,.F.);
#184=ORIENTED_EDGE('',*,*,#408,.F.);
#185=ORIENTED_EDGE('',*,*,#409,.F.);
#186=ORIENTED_EDGE('',*,*,#381,.T.);
#187=ORIENTED_EDGE('',*,*,#410,.F.);
#188=ORIENTED_EDGE('',*,*,#411,.F.);
#189=ORIENTED_EDGE('',*,*,#412,.F.);
#190=ORIENTED_EDGE('',*,*,#413,.F.);
#191=ORIENTED_EDGE('',*,*,#382,.T.);
#192=ORIENTED_EDGE('',*,*,#414,.F.);
#193=ORIENTED_EDGE('',*,*,#415,.F.);
#194=ORIENTED_EDGE('',*,*,#416,.F.);
#195=ORIENTED_EDGE('',*,*,#417,.F.);
#196=ORIENTED_EDGE('',*,*,#398,.T.);
#197=ORIENTED_EDGE('',*,*,#418,.T.);
#198=ORIENTED_EDGE('',*,*,#391,.T.);
#199=ORIENTED_EDGE('',*,*,#419,.T.);
#200=ORIENTED_EDGE('',*,*,#420,.F.);
#201=ORIENTED_EDGE('',*,*,#421,.F.);
#202=ORIENTED_EDGE('',*,*,#422,.F.);
#203=ORIENTED_EDGE('',*,*,#423,.F.);
#204=ORIENTED_EDGE('',*,*,#424,.T.);
#205=ORIENTED_EDGE('',*,*,#425,.T.);
#206=ORIENTED_EDGE('',*,*,#426,.F.);
#207=ORIENTED_EDGE('',*,*,#427,.F.);
#208=ORIENTED_EDGE('',*,*,#428,.F.);
#209=ORIENTED_EDGE('',*,*,#429,.T.);
#210=ORIENTED_EDGE('',*,*,#428,.T.);
#211=ORIENTED_EDGE('',*,*,#430,.F.);
#212=ORIENTED_EDGE('',*,*,#431,.F.);
#213=ORIENTED_EDGE('',*,*,#432,.F.);
#214=ORIENTED_EDGE('',*,*,#433,.F.);
#215=ORIENTED_EDGE('',*,*,#434,.T.);
#216=ORIENTED_EDGE('',*,*,#435,.T.);
#217=ORIENTED_EDGE('',*,*,#436,.F.);
#218=ORIENTED_EDGE('',*,*,#421,.T.);
#219=ORIENTED_EDGE('',*,*,#437,.F.);
#220=ORIENTED_EDGE('',*,*,#438,.T.);
#221=ORIENTED_EDGE('',*,*,#439,.T.);
#222=ORIENTED_EDGE('',*,*,#440,.F.);
#223=ORIENTED_EDGE('',*,*,#441,.F.);
#224=ORIENTED_EDGE('',*,*,#442,.T.);
#225=ORIENTED_EDGE('',*,*,#443,.T.);
#226=ORIENTED_EDGE('',*,*,#444,.T.);
#227=ORIENTED_EDGE('',*,*,#445,.T.);
#228=ORIENTED_EDGE('',*,*,#446,.T.);
#229=ORIENTED_EDGE('',*,*,#447,.F.);
#230=ORIENTED_EDGE('',*,*,#431,.T.);
#231=ORIENTED_EDGE('',*,*,#448,.F.);
#232=ORIENTED_EDGE('',*,*,#449,.T.);
#233=ORIENTED_EDGE('',*,*,#450,.T.);
#234=ORIENTED_EDGE('',*,*,#451,.F.);
#235=ORIENTED_EDGE('',*,*,#452,.F.);
#236=ORIENTED_EDGE('',*,*,#395,.T.);
#237=ORIENTED_EDGE('',*,*,#453,.T.);
#238=ORIENTED_EDGE('',*,*,#384,.T.);
#239=ORIENTED_EDGE('',*,*,#454,.T.);
#240=ORIENTED_EDGE('',*,*,#435,.F.);
#241=ORIENTED_EDGE('',*,*,#386,.T.);
#242=ORIENTED_EDGE('',*,*,#455,.T.);
#243=ORIENTED_EDGE('',*,*,#399,.T.);
#244=ORIENTED_EDGE('',*,*,#456,.T.);
#245=ORIENTED_EDGE('',*,*,#457,.F.);
#246=ORIENTED_EDGE('',*,*,#388,.T.);
#247=ORIENTED_EDGE('',*,*,#458,.T.);
#248=ORIENTED_EDGE('',*,*,#452,.T.);
#249=ORIENTED_EDGE('',*,*,#459,.F.);
#250=ORIENTED_EDGE('',*,*,#460,.F.);
#251=ORIENTED_EDGE('',*,*,#461,.F.);
#252=ORIENTED_EDGE('',*,*,#462,.T.);
#253=ORIENTED_EDGE('',*,*,#463,.T.);
#254=ORIENTED_EDGE('',*,*,#464,.F.);
#255=ORIENTED_EDGE('',*,*,#465,.T.);
#256=ORIENTED_EDGE('',*,*,#466,.T.);
#257=ORIENTED_EDGE('',*,*,#467,.F.);
#258=ORIENTED_EDGE('',*,*,#468,.F.);
#259=ORIENTED_EDGE('',*,*,#467,.T.);
#260=ORIENTED_EDGE('',*,*,#469,.T.);
#261=ORIENTED_EDGE('',*,*,#429,.F.);
#262=ORIENTED_EDGE('',*,*,#434,.F.);
#263=ORIENTED_EDGE('',*,*,#433,.T.);
#264=ORIENTED_EDGE('',*,*,#470,.T.);
#265=ORIENTED_EDGE('',*,*,#471,.F.);
#266=ORIENTED_EDGE('',*,*,#438,.F.);
#267=ORIENTED_EDGE('',*,*,#472,.T.);
#268=ORIENTED_EDGE('',*,*,#473,.T.);
#269=ORIENTED_EDGE('',*,*,#468,.T.);
#270=ORIENTED_EDGE('',*,*,#451,.T.);
#271=ORIENTED_EDGE('',*,*,#474,.T.);
#272=ORIENTED_EDGE('',*,*,#389,.T.);
#273=ORIENTED_EDGE('',*,*,#463,.F.);
#274=ORIENTED_EDGE('',*,*,#462,.F.);
#275=ORIENTED_EDGE('',*,*,#475,.F.);
#276=ORIENTED_EDGE('',*,*,#460,.T.);
#277=ORIENTED_EDGE('',*,*,#459,.T.);
#278=ORIENTED_EDGE('',*,*,#476,.T.);
#279=ORIENTED_EDGE('',*,*,#426,.T.);
#280=ORIENTED_EDGE('',*,*,#477,.T.);
#281=ORIENTED_EDGE('',*,*,#442,.F.);
#282=ORIENTED_EDGE('',*,*,#478,.T.);
#283=ORIENTED_EDGE('',*,*,#423,.T.);
#284=ORIENTED_EDGE('',*,*,#422,.T.);
#285=ORIENTED_EDGE('',*,*,#436,.T.);
#286=ORIENTED_EDGE('',*,*,#420,.T.);
#287=ORIENTED_EDGE('',*,*,#478,.F.);
#288=ORIENTED_EDGE('',*,*,#448,.T.);
#289=ORIENTED_EDGE('',*,*,#430,.T.);
#290=ORIENTED_EDGE('',*,*,#427,.T.);
#291=ORIENTED_EDGE('',*,*,#476,.F.);
#292=ORIENTED_EDGE('',*,*,#479,.F.);
#293=ORIENTED_EDGE('',*,*,#414,.T.);
#294=ORIENTED_EDGE('',*,*,#480,.F.);
#295=ORIENTED_EDGE('',*,*,#410,.T.);
#296=ORIENTED_EDGE('',*,*,#481,.F.);
#297=ORIENTED_EDGE('',*,*,#406,.T.);
#298=ORIENTED_EDGE('',*,*,#482,.F.);
#299=ORIENTED_EDGE('',*,*,#402,.T.);
#300=ORIENTED_EDGE('',*,*,#415,.T.);
#301=ORIENTED_EDGE('',*,*,#479,.T.);
#302=ORIENTED_EDGE('',*,*,#417,.T.);
#303=ORIENTED_EDGE('',*,*,#416,.T.);
#304=ORIENTED_EDGE('',*,*,#411,.T.);
#305=ORIENTED_EDGE('',*,*,#480,.T.);
#306=ORIENTED_EDGE('',*,*,#413,.T.);
#307=ORIENTED_EDGE('',*,*,#412,.T.);
#308=ORIENTED_EDGE('',*,*,#407,.T.);
#309=ORIENTED_EDGE('',*,*,#481,.T.);
#310=ORIENTED_EDGE('',*,*,#409,.T.);
#311=ORIENTED_EDGE('',*,*,#408,.T.);
#312=ORIENTED_EDGE('',*,*,#403,.T.);
#313=ORIENTED_EDGE('',*,*,#482,.T.);
#314=ORIENTED_EDGE('',*,*,#405,.T.);
#315=ORIENTED_EDGE('',*,*,#404,.T.);
#316=ORIENTED_EDGE('',*,*,#447,.T.);
#317=ORIENTED_EDGE('',*,*,#483,.T.);
#318=ORIENTED_EDGE('',*,*,#472,.F.);
#319=ORIENTED_EDGE('',*,*,#437,.T.);
#320=ORIENTED_EDGE('',*,*,#441,.T.);
#321=ORIENTED_EDGE('',*,*,#440,.T.);
#322=ORIENTED_EDGE('',*,*,#439,.F.);
#323=ORIENTED_EDGE('',*,*,#471,.T.);
#324=ORIENTED_EDGE('',*,*,#470,.F.);
#325=ORIENTED_EDGE('',*,*,#432,.T.);
#326=ORIENTED_EDGE('',*,*,#446,.F.);
#327=ORIENTED_EDGE('',*,*,#484,.T.);
#328=ORIENTED_EDGE('',*,*,#464,.T.);
#329=ORIENTED_EDGE('',*,*,#473,.F.);
#330=ORIENTED_EDGE('',*,*,#483,.F.);
#331=ORIENTED_EDGE('',*,*,#457,.T.);
#332=ORIENTED_EDGE('',*,*,#461,.T.);
#333=ORIENTED_EDGE('',*,*,#475,.T.);
#334=ORIENTED_EDGE('',*,*,#484,.F.);
#335=ORIENTED_EDGE('',*,*,#445,.F.);
#336=ORIENTED_EDGE('',*,*,#485,.F.);
#337=ORIENTED_EDGE('',*,*,#465,.F.);
#338=ORIENTED_EDGE('',*,*,#477,.F.);
#339=ORIENTED_EDGE('',*,*,#425,.F.);
#340=ORIENTED_EDGE('',*,*,#486,.F.);
#341=ORIENTED_EDGE('',*,*,#443,.F.);
#342=ORIENTED_EDGE('',*,*,#487,.F.);
#343=ORIENTED_EDGE('',*,*,#444,.F.);
#344=ORIENTED_EDGE('',*,*,#488,.F.);
#345=ORIENTED_EDGE('',*,*,#396,.F.);
#346=ORIENTED_EDGE('',*,*,#419,.F.);
#347=ORIENTED_EDGE('',*,*,#390,.F.);
#348=ORIENTED_EDGE('',*,*,#474,.F.);
#349=ORIENTED_EDGE('',*,*,#450,.F.);
#350=ORIENTED_EDGE('',*,*,#485,.T.);
#351=ORIENTED_EDGE('',*,*,#487,.T.);
#352=ORIENTED_EDGE('',*,*,#489,.F.);
#353=ORIENTED_EDGE('',*,*,#488,.T.);
#354=ORIENTED_EDGE('',*,*,#486,.T.);
#355=ORIENTED_EDGE('',*,*,#490,.F.);
#356=ORIENTED_EDGE('',*,*,#456,.F.);
#357=ORIENTED_EDGE('',*,*,#401,.F.);
#358=ORIENTED_EDGE('',*,*,#491,.F.);
#359=ORIENTED_EDGE('',*,*,#466,.F.);
#360=ORIENTED_EDGE('',*,*,#489,.T.);
#361=ORIENTED_EDGE('',*,*,#449,.F.);
#362=ORIENTED_EDGE('',*,*,#458,.F.);
#363=ORIENTED_EDGE('',*,*,#387,.F.);
#364=ORIENTED_EDGE('',*,*,#490,.T.);
#365=ORIENTED_EDGE('',*,*,#424,.F.);
#366=ORIENTED_EDGE('',*,*,#492,.F.);
#367=ORIENTED_EDGE('',*,*,#393,.F.);
#368=ORIENTED_EDGE('',*,*,#454,.F.);
#369=ORIENTED_EDGE('',*,*,#392,.F.);
#370=ORIENTED_EDGE('',*,*,#418,.F.);
#371=ORIENTED_EDGE('',*,*,#397,.F.);
#372=ORIENTED_EDGE('',*,*,#453,.F.);
#373=ORIENTED_EDGE('',*,*,#394,.F.);
#374=ORIENTED_EDGE('',*,*,#492,.T.);
#375=ORIENTED_EDGE('',*,*,#469,.F.);
#376=ORIENTED_EDGE('',*,*,#491,.T.);
#377=ORIENTED_EDGE('',*,*,#400,.F.);
#378=ORIENTED_EDGE('',*,*,#455,.F.);
#379=ORIENTED_EDGE('',*,*,#385,.F.);
#380=EDGE_CURVE('',#493,#493,#573,.T.);
#381=EDGE_CURVE('',#494,#494,#574,.T.);
#382=EDGE_CURVE('',#495,#495,#575,.T.);
#383=EDGE_CURVE('',#496,#496,#576,.T.);
#384=EDGE_CURVE('',#497,#498,#577,.T.);
#385=EDGE_CURVE('',#497,#499,#54,.F.);
#386=EDGE_CURVE('',#500,#499,#578,.T.);
#387=EDGE_CURVE('',#500,#501,#55,.F.);
#388=EDGE_CURVE('',#502,#501,#579,.T.);
#389=EDGE_CURVE('',#503,#502,#580,.T.);
#390=EDGE_CURVE('',#503,#504,#56,.T.);
#391=EDGE_CURVE('',#505,#504,#581,.T.);
#392=EDGE_CURVE('',#505,#498,#57,.F.);
#393=EDGE_CURVE('',#506,#507,#58,.F.);
#394=EDGE_CURVE('',#507,#508,#59,.F.);
#395=EDGE_CURVE('',#506,#508,#582,.T.);
#396=EDGE_CURVE('',#509,#510,#60,.T.);
#397=EDGE_CURVE('',#510,#511,#61,.F.);
#398=EDGE_CURVE('',#509,#511,#583,.T.);
#399=EDGE_CURVE('',#512,#513,#584,.T.);
#400=EDGE_CURVE('',#512,#514,#62,.F.);
#401=EDGE_CURVE('',#514,#513,#63,.F.);
#402=EDGE_CURVE('',#515,#516,#585,.F.);
#403=EDGE_CURVE('',#517,#515,#16,.T.);
#404=EDGE_CURVE('',#518,#517,#17,.T.);
#405=EDGE_CURVE('',#516,#518,#18,.T.);
#406=EDGE_CURVE('',#519,#520,#586,.F.);
#407=EDGE_CURVE('',#521,#519,#19,.T.);
#408=EDGE_CURVE('',#522,#521,#20,.T.);
#409=EDGE_CURVE('',#520,#522,#21,.T.);
#410=EDGE_CURVE('',#523,#524,#587,.F.);
#411=EDGE_CURVE('',#525,#523,#22,.T.);
#412=EDGE_CURVE('',#526,#525,#23,.T.);
#413=EDGE_CURVE('',#524,#526,#24,.T.);
#414=EDGE_CURVE('',#527,#528,#588,.F.);
#415=EDGE_CURVE('',#529,#527,#25,.T.);
#416=EDGE_CURVE('',#530,#529,#26,.T.);
#417=EDGE_CURVE('',#528,#530,#27,.T.);
#418=EDGE_CURVE('',#511,#505,#28,.T.);
#419=EDGE_CURVE('',#504,#509,#29,.T.);
#420=EDGE_CURVE('',#531,#532,#64,.F.);
#421=EDGE_CURVE('',#533,#531,#589,.T.);
#422=EDGE_CURVE('',#534,#533,#65,.T.);
#423=EDGE_CURVE('',#532,#534,#590,.F.);
#424=EDGE_CURVE('',#535,#536,#66,.T.);
#425=EDGE_CURVE('',#536,#537,#67,.F.);
#426=EDGE_CURVE('',#538,#537,#68,.T.);
#427=EDGE_CURVE('',#539,#538,#69,.T.);
#428=EDGE_CURVE('',#540,#539,#70,.T.);
#429=EDGE_CURVE('',#540,#535,#71,.T.);
#430=EDGE_CURVE('',#541,#539,#72,.T.);
#431=EDGE_CURVE('',#542,#541,#73,.T.);
#432=EDGE_CURVE('',#543,#542,#74,.T.);
#433=EDGE_CURVE('',#544,#543,#75,.T.);
#434=EDGE_CURVE('',#544,#540,#76,.T.);
#435=EDGE_CURVE('',#545,#545,#591,.T.);
#436=EDGE_CURVE('',#533,#531,#592,.F.);
#437=EDGE_CURVE('',#546,#547,#77,.F.);
#438=EDGE_CURVE('',#546,#548,#593,.F.);
#439=EDGE_CURVE('',#548,#549,#78,.T.);
#440=EDGE_CURVE('',#550,#549,#594,.F.);
#441=EDGE_CURVE('',#547,#550,#595,.F.);
#442=EDGE_CURVE('',#551,#552,#79,.T.);
#443=EDGE_CURVE('',#552,#553,#80,.T.);
#444=EDGE_CURVE('',#553,#554,#81,.F.);
#445=EDGE_CURVE('',#554,#555,#82,.F.);
#446=EDGE_CURVE('',#555,#556,#83,.T.);
#447=EDGE_CURVE('',#542,#556,#596,.T.);
#448=EDGE_CURVE('',#551,#541,#84,.T.);
#449=EDGE_CURVE('',#557,#558,#85,.F.);
#450=EDGE_CURVE('',#558,#559,#86,.T.);
#451=EDGE_CURVE('',#560,#559,#597,.T.);
#452=EDGE_CURVE('',#557,#560,#598,.T.);
#453=EDGE_CURVE('',#508,#497,#30,.T.);
#454=EDGE_CURVE('',#498,#506,#31,.T.);
#455=EDGE_CURVE('',#499,#512,#32,.T.);
#456=EDGE_CURVE('',#513,#500,#33,.T.);
#457=EDGE_CURVE('',#561,#561,#599,.T.);
#458=EDGE_CURVE('',#501,#557,#34,.T.);
#459=EDGE_CURVE('',#562,#560,#87,.T.);
#460=EDGE_CURVE('',#563,#562,#88,.T.);
#461=EDGE_CURVE('',#564,#563,#600,.T.);
#462=EDGE_CURVE('',#564,#565,#89,.T.);
#463=EDGE_CURVE('',#565,#502,#90,.T.);
#464=EDGE_CURVE('',#566,#567,#91,.T.);
#465=EDGE_CURVE('',#566,#568,#92,.T.);
#466=EDGE_CURVE('',#568,#569,#93,.T.);
#467=EDGE_CURVE('',#570,#569,#94,.T.);
#468=EDGE_CURVE('',#567,#570,#95,.T.);
#469=EDGE_CURVE('',#569,#535,#96,.T.);
#470=EDGE_CURVE('',#543,#571,#601,.T.);
#471=EDGE_CURVE('',#548,#571,#602,.F.);
#472=EDGE_CURVE('',#546,#572,#603,.T.);
#473=EDGE_CURVE('',#572,#567,#97,.T.);
#474=EDGE_CURVE('',#559,#503,#35,.T.);
#475=EDGE_CURVE('',#563,#564,#604,.T.);
#476=EDGE_CURVE('',#551,#538,#98,.T.);
#477=EDGE_CURVE('',#537,#552,#605,.T.);
#478=EDGE_CURVE('',#534,#532,#606,.T.);
#479=EDGE_CURVE('',#527,#528,#99,.F.);
#480=EDGE_CURVE('',#523,#524,#100,.T.);
#481=EDGE_CURVE('',#519,#520,#101,.F.);
#482=EDGE_CURVE('',#515,#516,#102,.T.);
#483=EDGE_CURVE('',#556,#572,#103,.F.);
#484=EDGE_CURVE('',#555,#566,#607,.F.);
#485=EDGE_CURVE('',#568,#554,#608,.T.);
#486=EDGE_CURVE('',#553,#536,#609,.T.);
#487=EDGE_CURVE('',#554,#558,#610,.T.);
#488=EDGE_CURVE('',#510,#553,#611,.T.);
#489=EDGE_CURVE('',#568,#558,#612,.F.);
#490=EDGE_CURVE('',#510,#536,#613,.F.);
#491=EDGE_CURVE('',#569,#514,#12,.F.);
#492=EDGE_CURVE('',#507,#535,#13,.T.);
#493=VERTEX_POINT('',#1095);
#494=VERTEX_POINT('',#1097);
#495=VERTEX_POINT('',#1099);
#496=VERTEX_POINT('',#1101);
#497=VERTEX_POINT('',#1103);
#498=VERTEX_POINT('',#1104);
#499=VERTEX_POINT('',#1106);
#500=VERTEX_POINT('',#1108);
#501=VERTEX_POINT('',#1110);
#502=VERTEX_POINT('',#1112);
#503=VERTEX_POINT('',#1114);
#504=VERTEX_POINT('',#1116);
#505=VERTEX_POINT('',#1118);
#506=VERTEX_POINT('',#1122);
#507=VERTEX_POINT('',#1123);
#508=VERTEX_POINT('',#1125);
#509=VERTEX_POINT('',#1129);
#510=VERTEX_POINT('',#1130);
#511=VERTEX_POINT('',#1132);
#512=VERTEX_POINT('',#1136);
#513=VERTEX_POINT('',#1137);
#514=VERTEX_POINT('',#1139);
#515=VERTEX_POINT('',#1143);
#516=VERTEX_POINT('',#1144);
#517=VERTEX_POINT('',#1149);
#518=VERTEX_POINT('',#1165);
#519=VERTEX_POINT('',#1172);
#520=VERTEX_POINT('',#1173);
#521=VERTEX_POINT('',#1178);
#522=VERTEX_POINT('',#1194);
#523=VERTEX_POINT('',#1201);
#524=VERTEX_POINT('',#1202);
#525=VERTEX_POINT('',#1207);
#526=VERTEX_POINT('',#1223);
#527=VERTEX_POINT('',#1230);
#528=VERTEX_POINT('',#1231);
#529=VERTEX_POINT('',#1236);
#530=VERTEX_POINT('',#1252);
#531=VERTEX_POINT('',#1269);
#532=VERTEX_POINT('',#1270);
#533=VERTEX_POINT('',#1272);
#534=VERTEX_POINT('',#1274);
#535=VERTEX_POINT('',#1278);
#536=VERTEX_POINT('',#1279);
#537=VERTEX_POINT('',#1281);
#538=VERTEX_POINT('',#1283);
#539=VERTEX_POINT('',#1285);
#540=VERTEX_POINT('',#1287);
#541=VERTEX_POINT('',#1291);
#542=VERTEX_POINT('',#1293);
#543=VERTEX_POINT('',#1295);
#544=VERTEX_POINT('',#1297);
#545=VERTEX_POINT('',#1300);
#546=VERTEX_POINT('',#1304);
#547=VERTEX_POINT('',#1305);
#548=VERTEX_POINT('',#1307);
#549=VERTEX_POINT('',#1309);
#550=VERTEX_POINT('',#1311);
#551=VERTEX_POINT('',#1315);
#552=VERTEX_POINT('',#1316);
#553=VERTEX_POINT('',#1318);
#554=VERTEX_POINT('',#1320);
#555=VERTEX_POINT('',#1322);
#556=VERTEX_POINT('',#1324);
#557=VERTEX_POINT('',#1329);
#558=VERTEX_POINT('',#1330);
#559=VERTEX_POINT('',#1332);
#560=VERTEX_POINT('',#1334);
#561=VERTEX_POINT('',#1359);
#562=VERTEX_POINT('',#1367);
#563=VERTEX_POINT('',#1369);
#564=VERTEX_POINT('',#1371);
#565=VERTEX_POINT('',#1373);
#566=VERTEX_POINT('',#1377);
#567=VERTEX_POINT('',#1378);
#568=VERTEX_POINT('',#1380);
#569=VERTEX_POINT('',#1382);
#570=VERTEX_POINT('',#1384);
#571=VERTEX_POINT('',#1389);
#572=VERTEX_POINT('',#1392);
#573=CIRCLE('',#798,0.00159999999999997);
#574=CIRCLE('',#799,0.0016);
#575=CIRCLE('',#800,0.0016);
#576=CIRCLE('',#801,0.0016);
#577=CIRCLE('',#802,0.002);
#578=CIRCLE('',#803,0.002);
#579=CIRCLE('',#804,0.002);
#580=CIRCLE('',#805,0.002);
#581=CIRCLE('',#806,0.002);
#582=CIRCLE('',#808,0.002);
#583=CIRCLE('',#810,0.002);
#584=CIRCLE('',#812,0.002);
#585=CIRCLE('',#814,0.0016);
#586=CIRCLE('',#816,0.00159999999999997);
#587=CIRCLE('',#818,0.0016);
#588=CIRCLE('',#820,0.0016);
#589=CIRCLE('',#822,0.002);
#590=CIRCLE('',#823,0.002);
#591=CIRCLE('',#826,0.002);
#592=CIRCLE('',#827,0.002);
#593=CIRCLE('',#829,0.008);
#594=CIRCLE('',#830,0.008);
#595=CIRCLE('',#831,0.008);
#596=CIRCLE('',#833,0.008);
#597=CIRCLE('',#835,0.002);
#598=CIRCLE('',#836,0.002);
#599=CIRCLE('',#839,0.002);
#600=CIRCLE('',#841,0.00199999999999999);
#601=CIRCLE('',#844,0.008);
#602=CIRCLE('',#845,0.008);
#603=CIRCLE('',#846,0.008);
#604=CIRCLE('',#848,0.002);
#605=CIRCLE('',#850,0.0034798);
#606=CIRCLE('',#852,0.002);
#607=CIRCLE('',#861,0.0034798);
#608=CIRCLE('',#863,0.0034798);
#609=CIRCLE('',#865,0.0034798);
#610=CIRCLE('',#867,0.0034798);
#611=CIRCLE('',#868,0.0034798);
#612=CIRCLE('',#870,0.0034798);
#613=CIRCLE('',#872,0.0034798);
#614=EDGE_LOOP('',(#154));
#615=EDGE_LOOP('',(#155));
#616=EDGE_LOOP('',(#156));
#617=EDGE_LOOP('',(#157));
#618=EDGE_LOOP('',(#158,#159,#160,#161,#162,#163,#164,#165,#166));
#619=EDGE_LOOP('',(#167,#168,#169));
#620=EDGE_LOOP('',(#170,#171,#172));
#621=EDGE_LOOP('',(#173,#174,#175));
#622=EDGE_LOOP('',(#176));
#623=EDGE_LOOP('',(#177,#178,#179,#180));
#624=EDGE_LOOP('',(#181));
#625=EDGE_LOOP('',(#182,#183,#184,#185));
#626=EDGE_LOOP('',(#186));
#627=EDGE_LOOP('',(#187,#188,#189,#190));
#628=EDGE_LOOP('',(#191));
#629=EDGE_LOOP('',(#192,#193,#194,#195));
#630=EDGE_LOOP('',(#196,#197,#198,#199));
#631=EDGE_LOOP('',(#200,#201,#202,#203));
#632=EDGE_LOOP('',(#204,#205,#206,#207,#208,#209));
#633=EDGE_LOOP('',(#210,#211,#212,#213,#214,#215));
#634=EDGE_LOOP('',(#216));
#635=EDGE_LOOP('',(#217,#218));
#636=EDGE_LOOP('',(#219,#220,#221,#222,#223));
#637=EDGE_LOOP('',(#224,#225,#226,#227,#228,#229,#230,#231));
#638=EDGE_LOOP('',(#232,#233,#234,#235));
#639=EDGE_LOOP('',(#236,#237,#238,#239));
#640=EDGE_LOOP('',(#240));
#641=EDGE_LOOP('',(#241,#242,#243,#244));
#642=EDGE_LOOP('',(#245));
#643=EDGE_LOOP('',(#246,#247,#248,#249,#250,#251,#252,#253));
#644=EDGE_LOOP('',(#254,#255,#256,#257,#258));
#645=EDGE_LOOP('',(#259,#260,#261,#262,#263,#264,#265,#266,#267,#268,#269));
#646=EDGE_LOOP('',(#270,#271,#272,#273,#274,#275,#276,#277));
#647=EDGE_LOOP('',(#278,#279,#280,#281));
#648=EDGE_LOOP('',(#282,#283));
#649=EDGE_LOOP('',(#284,#285,#286,#287));
#650=EDGE_LOOP('',(#288,#289,#290,#291));
#651=EDGE_LOOP('',(#292,#293));
#652=EDGE_LOOP('',(#294,#295));
#653=EDGE_LOOP('',(#296,#297));
#654=EDGE_LOOP('',(#298,#299));
#655=EDGE_LOOP('',(#300,#301,#302,#303));
#656=EDGE_LOOP('',(#304,#305,#306,#307));
#657=EDGE_LOOP('',(#308,#309,#310,#311));
#658=EDGE_LOOP('',(#312,#313,#314,#315));
#659=EDGE_LOOP('',(#316,#317,#318,#319,#320,#321,#322,#323,#324,#325));
#660=EDGE_LOOP('',(#326,#327,#328,#329,#330));
#661=EDGE_LOOP('',(#331));
#662=EDGE_LOOP('',(#332,#333));
#663=EDGE_LOOP('',(#334,#335,#336,#337));
#664=EDGE_LOOP('',(#338,#339,#340,#341));
#665=EDGE_LOOP('',(#342,#343,#344,#345,#346,#347,#348,#349));
#666=EDGE_LOOP('',(#350,#351,#352));
#667=EDGE_LOOP('',(#353,#354,#355));
#668=EDGE_LOOP('',(#356,#357,#358,#359,#360,#361,#362,#363));
#669=EDGE_LOOP('',(#364,#365,#366,#367,#368,#369,#370,#371));
#670=EDGE_LOOP('',(#372,#373,#374,#375,#376,#377,#378,#379));
#671=FACE_BOUND('',#614,.T.);
#672=FACE_BOUND('',#615,.T.);
#673=FACE_BOUND('',#616,.T.);
#674=FACE_BOUND('',#617,.T.);
#675=FACE_BOUND('',#618,.T.);
#676=FACE_BOUND('',#619,.T.);
#677=FACE_BOUND('',#620,.T.);
#678=FACE_BOUND('',#621,.T.);
#679=FACE_BOUND('',#622,.T.);
#680=FACE_BOUND('',#623,.T.);
#681=FACE_BOUND('',#624,.T.);
#682=FACE_BOUND('',#625,.T.);
#683=FACE_BOUND('',#626,.T.);
#684=FACE_BOUND('',#627,.T.);
#685=FACE_BOUND('',#628,.T.);
#686=FACE_BOUND('',#629,.T.);
#687=FACE_BOUND('',#630,.T.);
#688=FACE_BOUND('',#631,.T.);
#689=FACE_BOUND('',#632,.T.);
#690=FACE_BOUND('',#633,.T.);
#691=FACE_BOUND('',#634,.T.);
#692=FACE_BOUND('',#635,.T.);
#693=FACE_BOUND('',#636,.T.);
#694=FACE_BOUND('',#637,.T.);
#695=FACE_BOUND('',#638,.T.);
#696=FACE_BOUND('',#639,.T.);
#697=FACE_BOUND('',#640,.T.);
#698=FACE_BOUND('',#641,.T.);
#699=FACE_BOUND('',#642,.T.);
#700=FACE_BOUND('',#643,.T.);
#701=FACE_BOUND('',#644,.T.);
#702=FACE_BOUND('',#645,.T.);
#703=FACE_BOUND('',#646,.T.);
#704=FACE_BOUND('',#647,.T.);
#705=FACE_BOUND('',#648,.T.);
#706=FACE_BOUND('',#649,.T.);
#707=FACE_BOUND('',#650,.T.);
#708=FACE_BOUND('',#651,.T.);
#709=FACE_BOUND('',#652,.T.);
#710=FACE_BOUND('',#653,.T.);
#711=FACE_BOUND('',#654,.T.);
#712=FACE_BOUND('',#655,.T.);
#713=FACE_BOUND('',#656,.T.);
#714=FACE_BOUND('',#657,.T.);
#715=FACE_BOUND('',#658,.T.);
#716=FACE_BOUND('',#659,.T.);
#717=FACE_BOUND('',#660,.T.);
#718=FACE_BOUND('',#661,.T.);
#719=FACE_BOUND('',#662,.T.);
#720=FACE_BOUND('',#663,.T.);
#721=FACE_BOUND('',#664,.T.);
#722=FACE_BOUND('',#665,.T.);
#723=FACE_BOUND('',#666,.T.);
#724=FACE_BOUND('',#667,.T.);
#725=FACE_BOUND('',#668,.T.);
#726=FACE_BOUND('',#669,.T.);
#727=FACE_BOUND('',#670,.T.);
#728=PLANE('',#797);
#729=PLANE('',#807);
#730=PLANE('',#809);
#731=PLANE('',#811);
#732=PLANE('',#824);
#733=PLANE('',#825);
#734=PLANE('',#832);
#735=PLANE('',#834);
#736=PLANE('',#842);
#737=PLANE('',#843);
#738=PLANE('',#849);
#739=PLANE('',#851);
#740=PLANE('',#854);
#741=PLANE('',#855);
#742=PLANE('',#856);
#743=PLANE('',#857);
#744=PLANE('',#858);
#745=PLANE('',#860);
#746=ADVANCED_FACE('',(#671,#672,#673,#674,#675),#728,.T.);
#747=ADVANCED_FACE('',(#676),#729,.T.);
#748=ADVANCED_FACE('',(#677),#730,.T.);
#749=ADVANCED_FACE('',(#678),#731,.T.);
#750=ADVANCED_FACE('',(#679,#680),#36,.F.);
#751=ADVANCED_FACE('',(#681,#682),#37,.F.);
#752=ADVANCED_FACE('',(#683,#684),#38,.F.);
#753=ADVANCED_FACE('',(#685,#686),#39,.F.);
#754=ADVANCED_FACE('',(#687,#688),#40,.F.);
#755=ADVANCED_FACE('',(#689),#732,.F.);
#756=ADVANCED_FACE('',(#690,#691,#692),#733,.F.);
#757=ADVANCED_FACE('',(#693),#41,.T.);
#758=ADVANCED_FACE('',(#694),#734,.F.);
#759=ADVANCED_FACE('',(#695),#735,.T.);
#760=ADVANCED_FACE('',(#696,#697),#42,.F.);
#761=ADVANCED_FACE('',(#698,#699),#43,.F.);
#762=ADVANCED_FACE('',(#700),#44,.F.);
#763=ADVANCED_FACE('',(#701),#736,.F.);
#764=ADVANCED_FACE('',(#702),#737,.F.);
#765=ADVANCED_FACE('',(#703),#45,.F.);
#766=ADVANCED_FACE('',(#704),#738,.F.);
#767=ADVANCED_FACE('',(#705),#739,.F.);
#768=ADVANCED_FACE('',(#706),#46,.F.);
#769=ADVANCED_FACE('',(#707),#740,.F.);
#770=ADVANCED_FACE('',(#708),#741,.F.);
#771=ADVANCED_FACE('',(#709),#742,.F.);
#772=ADVANCED_FACE('',(#710),#743,.F.);
#773=ADVANCED_FACE('',(#711),#744,.F.);
#774=ADVANCED_FACE('',(#712,#713,#714,#715,#716),#47,.F.);
#775=ADVANCED_FACE('',(#717,#718,#719),#745,.F.);
#776=ADVANCED_FACE('',(#720),#48,.T.);
#777=ADVANCED_FACE('',(#721),#49,.T.);
#778=ADVANCED_FACE('',(#722),#50,.T.);
#779=ADVANCED_FACE('',(#723),#14,.T.);
#780=ADVANCED_FACE('',(#724),#15,.T.);
#781=ADVANCED_FACE('',(#725),#51,.T.);
#782=ADVANCED_FACE('',(#726),#52,.T.);
#783=ADVANCED_FACE('',(#727),#53,.T.);
#784=CLOSED_SHELL('',(#746,#747,#748,#749,#750,#751,#752,#753,#754,#755,
#756,#757,#758,#759,#760,#761,#762,#763,#764,#765,#766,#767,#768,#769,#770,
#771,#772,#773,#774,#775,#776,#777,#778,#779,#780,#781,#782,#783));
#785=STYLED_ITEM('',(#786),#793);
#786=PRESENTATION_STYLE_ASSIGNMENT((#787));
#787=SURFACE_STYLE_USAGE(.BOTH.,#788);
#788=SURFACE_SIDE_STYLE('',(#789));
#789=SURFACE_STYLE_FILL_AREA(#790);
#790=FILL_AREA_STYLE('',(#791));
#791=FILL_AREA_STYLE_COLOUR('',#792);
#792=COLOUR_RGB('',0.231372549019608,0.380392156862745,0.705882352941177);
#793=MANIFOLD_SOLID_BREP('Motor Mount Top FL',#784);
#794=SHAPE_DEFINITION_REPRESENTATION(#1442,#795);
#795=SHAPE_REPRESENTATION('Motor Mount Top FL',(#796),#1437);
#796=AXIS2_PLACEMENT_3D('',#1092,#878,#879);
#797=AXIS2_PLACEMENT_3D('',#1093,#880,#881);
#798=AXIS2_PLACEMENT_3D('',#1094,#882,#883);
#799=AXIS2_PLACEMENT_3D('',#1096,#884,#885);
#800=AXIS2_PLACEMENT_3D('',#1098,#886,#887);
#801=AXIS2_PLACEMENT_3D('',#1100,#888,#889);
#802=AXIS2_PLACEMENT_3D('',#1102,#890,#891);
#803=AXIS2_PLACEMENT_3D('',#1107,#893,#894);
#804=AXIS2_PLACEMENT_3D('',#1111,#896,#897);
#805=AXIS2_PLACEMENT_3D('',#1113,#898,#899);
#806=AXIS2_PLACEMENT_3D('',#1117,#901,#902);
#807=AXIS2_PLACEMENT_3D('',#1120,#904,#905);
#808=AXIS2_PLACEMENT_3D('',#1126,#908,#909);
#809=AXIS2_PLACEMENT_3D('',#1127,#910,#911);
#810=AXIS2_PLACEMENT_3D('',#1133,#914,#915);
#811=AXIS2_PLACEMENT_3D('',#1134,#916,#917);
#812=AXIS2_PLACEMENT_3D('',#1135,#918,#919);
#813=AXIS2_PLACEMENT_3D('',#1141,#922,#923);
#814=AXIS2_PLACEMENT_3D('',#1142,#924,#925);
#815=AXIS2_PLACEMENT_3D('',#1170,#926,#927);
#816=AXIS2_PLACEMENT_3D('',#1171,#928,#929);
#817=AXIS2_PLACEMENT_3D('',#1199,#930,#931);
#818=AXIS2_PLACEMENT_3D('',#1200,#932,#933);
#819=AXIS2_PLACEMENT_3D('',#1228,#934,#935);
#820=AXIS2_PLACEMENT_3D('',#1229,#936,#937);
#821=AXIS2_PLACEMENT_3D('',#1257,#938,#939);
#822=AXIS2_PLACEMENT_3D('',#1271,#941,#942);
#823=AXIS2_PLACEMENT_3D('',#1275,#944,#945);
#824=AXIS2_PLACEMENT_3D('',#1276,#946,#947);
#825=AXIS2_PLACEMENT_3D('',#1289,#954,#955);
#826=AXIS2_PLACEMENT_3D('',#1299,#961,#962);
#827=AXIS2_PLACEMENT_3D('',#1301,#963,#964);
#828=AXIS2_PLACEMENT_3D('',#1302,#965,#966);
#829=AXIS2_PLACEMENT_3D('',#1306,#968,#969);
#830=AXIS2_PLACEMENT_3D('',#1310,#971,#972);
#831=AXIS2_PLACEMENT_3D('',#1312,#973,#974);
#832=AXIS2_PLACEMENT_3D('',#1313,#975,#976);
#833=AXIS2_PLACEMENT_3D('',#1325,#982,#983);
#834=AXIS2_PLACEMENT_3D('',#1327,#985,#986);
#835=AXIS2_PLACEMENT_3D('',#1333,#989,#990);
#836=AXIS2_PLACEMENT_3D('',#1335,#991,#992);
#837=AXIS2_PLACEMENT_3D('',#1336,#993,#994);
#838=AXIS2_PLACEMENT_3D('',#1347,#995,#996);
#839=AXIS2_PLACEMENT_3D('',#1358,#997,#998);
#840=AXIS2_PLACEMENT_3D('',#1360,#999,#1000);
#841=AXIS2_PLACEMENT_3D('',#1370,#1003,#1004);
#842=AXIS2_PLACEMENT_3D('',#1375,#1007,#1008);
#843=AXIS2_PLACEMENT_3D('',#1386,#1014,#1015);
#844=AXIS2_PLACEMENT_3D('',#1388,#1017,#1018);
#845=AXIS2_PLACEMENT_3D('',#1390,#1019,#1020);
#846=AXIS2_PLACEMENT_3D('',#1391,#1021,#1022);
#847=AXIS2_PLACEMENT_3D('',#1394,#1024,#1025);
#848=AXIS2_PLACEMENT_3D('',#1400,#1026,#1027);
#849=AXIS2_PLACEMENT_3D('',#1401,#1028,#1029);
#850=AXIS2_PLACEMENT_3D('',#1403,#1031,#1032);
#851=AXIS2_PLACEMENT_3D('',#1404,#1033,#1034);
#852=AXIS2_PLACEMENT_3D('',#1405,#1035,#1036);
#853=AXIS2_PLACEMENT_3D('',#1406,#1037,#1038);
#854=AXIS2_PLACEMENT_3D('',#1407,#1039,#1040);
#855=AXIS2_PLACEMENT_3D('',#1408,#1041,#1042);
#856=AXIS2_PLACEMENT_3D('',#1410,#1044,#1045);
#857=AXIS2_PLACEMENT_3D('',#1412,#1047,#1048);
#858=AXIS2_PLACEMENT_3D('',#1414,#1050,#1051);
#859=AXIS2_PLACEMENT_3D('',#1416,#1053,#1054);
#860=AXIS2_PLACEMENT_3D('',#1418,#1056,#1057);
#861=AXIS2_PLACEMENT_3D('',#1419,#1058,#1059);
#862=AXIS2_PLACEMENT_3D('',#1420,#1060,#1061);
#863=AXIS2_PLACEMENT_3D('',#1421,#1062,#1063);
#864=AXIS2_PLACEMENT_3D('',#1422,#1064,#1065);
#865=AXIS2_PLACEMENT_3D('',#1423,#1066,#1067);
#866=AXIS2_PLACEMENT_3D('',#1424,#1068,#1069);
#867=AXIS2_PLACEMENT_3D('',#1425,#1070,#1071);
#868=AXIS2_PLACEMENT_3D('',#1426,#1072,#1073);
#869=AXIS2_PLACEMENT_3D('',#1427,#1074,#1075);
#870=AXIS2_PLACEMENT_3D('',#1428,#1076,#1077);
#871=AXIS2_PLACEMENT_3D('',#1429,#1078,#1079);
#872=AXIS2_PLACEMENT_3D('',#1430,#1080,#1081);
#873=AXIS2_PLACEMENT_3D('',#1431,#1082,#1083);
#874=AXIS2_PLACEMENT_3D('',#1432,#1084,#1085);
#875=AXIS2_PLACEMENT_3D('',#1433,#1086,#1087);
#876=AXIS2_PLACEMENT_3D('',#1434,#1088,#1089);
#877=AXIS2_PLACEMENT_3D('',#1435,#1090,#1091);
#878=DIRECTION('',(0.,0.,1.));
#879=DIRECTION('',(1.,0.,0.));
#880=DIRECTION('',(0.,0.,1.));
#881=DIRECTION('',(-1.83697019872103E-16,-1.,0.));
#882=DIRECTION('',(0.,0.,1.));
#883=DIRECTION('',(-1.83697019872103E-16,-1.,0.));
#884=DIRECTION('',(0.,0.,1.));
#885=DIRECTION('',(-1.83697019872103E-16,-1.,0.));
#886=DIRECTION('',(0.,0.,1.));
#887=DIRECTION('',(-1.83697019872103E-16,-1.,0.));
#888=DIRECTION('',(0.,0.,1.));
#889=DIRECTION('',(-1.83697019872103E-16,-1.,0.));
#890=DIRECTION('',(0.,0.,1.));
#891=DIRECTION('',(-1.83697019872103E-16,-1.,0.));
#892=DIRECTION('',(-0.707108195398695,-0.707105366971572,0.));
#893=DIRECTION('',(0.,0.,1.));
#894=DIRECTION('',(-1.83697019872103E-16,-1.,0.));
#895=DIRECTION('',(0.707105366971572,-0.707108195398694,0.));
#896=DIRECTION('',(5.04579357331583E-15,-5.04579357066498E-21,1.));
#897=DIRECTION('',(2.77555756156289E-14,-1.,0.));
#898=DIRECTION('',(0.,0.,1.));
#899=DIRECTION('',(-1.83697019872103E-16,-1.,0.));
#900=DIRECTION('',(-0.707108195398695,-0.707105366971572,0.));
#901=DIRECTION('',(0.,0.,1.));
#902=DIRECTION('',(-1.83697019872103E-16,-1.,0.));
#903=DIRECTION('',(-0.706774577023949,0.707438829350368,0.));
#904=DIRECTION('',(0.,0.,1.));
#905=DIRECTION('',(-1.83697019872103E-16,-1.,0.));
#906=DIRECTION('',(-0.706774577023949,0.707438829350368,0.));
#907=DIRECTION('',(-0.707108195398695,-0.707105366971572,0.));
#908=DIRECTION('',(0.,0.,1.));
#909=DIRECTION('',(-1.83697019872103E-16,-1.,0.));
#910=DIRECTION('',(0.,0.,1.));
#911=DIRECTION('',(-1.83697019872103E-16,-1.,0.));
#912=DIRECTION('',(-0.707108195398695,-0.707105366971572,0.));
#913=DIRECTION('',(-0.706774577023949,0.707438829350368,0.));
#914=DIRECTION('',(0.,0.,1.));
#915=DIRECTION('',(-1.83697019872103E-16,-1.,0.));
#916=DIRECTION('',(0.,0.,1.));
#917=DIRECTION('',(-1.83697019872103E-16,-1.,0.));
#918=DIRECTION('',(0.,0.,1.));
#919=DIRECTION('',(-1.83697019872103E-16,-1.,0.));
#920=DIRECTION('',(-0.707108195398695,-0.707105366971572,0.));
#921=DIRECTION('',(0.707105366971572,-0.707108195398694,0.));
#922=DIRECTION('',(0.,0.,1.));
#923=DIRECTION('',(-1.83697019872103E-16,-1.,0.));
#924=DIRECTION('',(0.,0.,-1.));
#925=DIRECTION('',(1.83697019872103E-16,1.,0.));
#926=DIRECTION('',(0.,0.,1.));
#927=DIRECTION('',(-1.83697019872103E-16,-1.,0.));
#928=DIRECTION('',(0.,0.,-1.));
#929=DIRECTION('',(1.83697019872103E-16,1.,0.));
#930=DIRECTION('',(0.,0.,1.));
#931=DIRECTION('',(-1.83697019872103E-16,-1.,0.));
#932=DIRECTION('',(0.,0.,-1.));
#933=DIRECTION('',(1.83697019872103E-16,1.,0.));
#934=DIRECTION('',(0.,0.,1.));
#935=DIRECTION('',(-1.83697019872103E-16,-1.,0.));
#936=DIRECTION('',(0.,0.,-1.));
#937=DIRECTION('',(1.83697019872103E-16,1.,0.));
#938=DIRECTION('',(0.,0.,1.));
#939=DIRECTION('',(-1.83697019872103E-16,-1.,0.));
#940=DIRECTION('',(0.,0.,-1.));
#941=DIRECTION('',(0.,0.,1.));
#942=DIRECTION('',(-1.83697019872103E-16,-1.,0.));
#943=DIRECTION('',(0.,0.,-1.));
#944=DIRECTION('',(0.,0.,-1.));
#945=DIRECTION('',(1.83697019872103E-16,1.,0.));
#946=DIRECTION('',(0.707438829350368,0.706774577023949,0.));
#947=DIRECTION('',(-0.706774577023949,0.707438829350368,0.));
#948=DIRECTION('',(-0.706774577023949,0.707438829350368,0.));
#949=DIRECTION('',(0.,0.,1.));
#950=DIRECTION('',(-0.706774577023949,0.707438829350368,0.));
#951=DIRECTION('',(0.,0.,1.));
#952=DIRECTION('',(-0.706774577023949,0.707438829350368,0.));
#953=DIRECTION('',(0.,0.,1.));
#954=DIRECTION('',(0.,0.,1.));
#955=DIRECTION('',(-1.83697019872103E-16,-1.,0.));
#956=DIRECTION('',(0.707105366971572,-0.707108195398695,0.));
#957=DIRECTION('',(-0.707108195398695,-0.707105366971572,0.));
#958=DIRECTION('',(-0.707105366971572,0.707108195398695,0.));
#959=DIRECTION('',(0.707108195398695,0.707105366971572,0.));
#960=DIRECTION('',(-0.707108195398695,-0.707105366971572,0.));
#961=DIRECTION('',(0.,0.,1.));
#962=DIRECTION('',(-1.83697019872103E-16,-1.,0.));
#963=DIRECTION('',(0.,0.,1.));
#964=DIRECTION('',(-1.83697019872103E-16,-1.,0.));
#965=DIRECTION('',(0.707105366971572,-0.707108195398695,0.));
#966=DIRECTION('',(0.707108195398695,0.707105366971572,0.));
#967=DIRECTION('',(-0.707105366971572,0.707108195398695,0.));
#968=DIRECTION('',(-0.707105366971572,0.707108195398695,0.));
#969=DIRECTION('',(-0.707108195398695,-0.707105366971572,0.));
#970=DIRECTION('',(0.707105366971572,-0.707108195398695,0.));
#971=DIRECTION('',(-0.707105366971572,0.707108195398695,0.));
#972=DIRECTION('',(-0.707108195398695,-0.707105366971572,0.));
#973=DIRECTION('',(-0.707105366971572,0.707108195398695,0.));
#974=DIRECTION('',(-0.707108195398695,-0.707105366971572,0.));
#975=DIRECTION('',(0.707105366971572,-0.707108195398695,0.));
#976=DIRECTION('',(0.707108195398695,0.707105366971572,0.));
#977=DIRECTION('',(0.707108195398691,0.707105366971576,0.));
#978=DIRECTION('',(0.,0.,1.));
#979=DIRECTION('',(-0.707108195398695,-0.707105366971572,0.));
#980=DIRECTION('',(0.,0.,1.));
#981=DIRECTION('',(-0.707108195398695,-0.707105366971572,0.));
#982=DIRECTION('',(-0.707105366971572,0.707108195398695,0.));
#983=DIRECTION('',(-0.707108195398695,-0.707105366971572,0.));
#984=DIRECTION('',(0.,0.,-1.));
#985=DIRECTION('',(0.,0.,1.));
#986=DIRECTION('',(-1.83697019872103E-16,-1.,0.));
#987=DIRECTION('',(0.707105366971572,-0.707108195398694,0.));
#988=DIRECTION('',(-0.707108195398695,-0.707105366971572,0.));
#989=DIRECTION('',(0.,0.,1.));
#990=DIRECTION('',(-1.83697019872103E-16,-1.,0.));
#991=DIRECTION('',(5.04579357331583E-15,-5.04579357066498E-21,1.));
#992=DIRECTION('',(2.77555756156289E-14,-1.,0.));
#993=DIRECTION('',(0.,0.,1.));
#994=DIRECTION('',(-1.83697019872103E-16,-1.,0.));
#995=DIRECTION('',(0.,0.,1.));
#996=DIRECTION('',(-1.83697019872103E-16,-1.,0.));
#997=DIRECTION('',(0.,0.,1.));
#998=DIRECTION('',(-1.83697019872103E-16,-1.,0.));
#999=DIRECTION('',(0.,0.,1.));
#1000=DIRECTION('',(0.9999999999995,-1.00000005498478E-6,0.));
#1001=DIRECTION('',(0.,0.,1.));
#1002=DIRECTION('',(0.,0.,1.));
#1003=DIRECTION('',(0.,0.,1.));
#1004=DIRECTION('',(1.,0.,0.));
#1005=DIRECTION('',(0.,0.,1.));
#1006=DIRECTION('',(0.,0.,1.));
#1007=DIRECTION('',(-0.707108195398694,-0.707105366971572,0.));
#1008=DIRECTION('',(0.707105366971572,-0.707108195398694,0.));
#1009=DIRECTION('',(0.707105366971572,-0.707108195398694,0.));
#1010=DIRECTION('',(0.,0.,1.));
#1011=DIRECTION('',(0.707105366971572,-0.707108195398694,0.));
#1012=DIRECTION('',(0.,0.,1.));
#1013=DIRECTION('',(0.,0.,1.));
#1014=DIRECTION('',(-0.707105366971572,0.707108195398695,0.));
#1015=DIRECTION('',(-0.707108195398695,-0.707105366971572,0.));
#1016=DIRECTION('',(-0.707108195398695,-0.707105366971572,0.));
#1017=DIRECTION('',(-0.707105366971572,0.707108195398695,0.));
#1018=DIRECTION('',(-0.707108195398695,-0.707105366971572,0.));
#1019=DIRECTION('',(-0.707105366971572,0.707108195398695,0.));
#1020=DIRECTION('',(-0.707108195398695,-0.707105366971572,0.));
#1021=DIRECTION('',(-0.707105366971572,0.707108195398695,0.));
#1022=DIRECTION('',(-0.707108195398695,-0.707105366971572,0.));
#1023=DIRECTION('',(0.707108195398695,0.707105366971572,0.));
#1024=DIRECTION('',(0.,0.,1.));
#1025=DIRECTION('',(-1.83697019872103E-16,-1.,0.));
#1026=DIRECTION('',(0.,0.,1.));
#1027=DIRECTION('',(-1.83697019872103E-16,-1.,0.));
#1028=DIRECTION('',(0.,0.,-1.));
#1029=DIRECTION('',(-1.83697019872103E-16,-1.,0.));
#1030=DIRECTION('',(0.707105366971572,-0.707108195398695,0.));
#1031=DIRECTION('',(0.,0.,-1.));
#1032=DIRECTION('',(1.83697019872103E-16,1.,0.));
#1033=DIRECTION('',(0.,0.,-1.));
#1034=DIRECTION('',(-1.83697019872103E-16,-1.,0.));
#1035=DIRECTION('',(0.,0.,-1.));
#1036=DIRECTION('',(1.83697019872103E-16,1.,0.));
#1037=DIRECTION('',(0.,0.,-1.));
#1038=DIRECTION('',(1.83697019872103E-16,1.,0.));
#1039=DIRECTION('',(0.707108195398695,0.707105366971572,0.));
#1040=DIRECTION('',(-0.707105366971572,0.707108195398695,0.));
#1041=DIRECTION('',(0.,0.,-1.));
#1042=DIRECTION('',(-1.83697019872103E-16,-1.,0.));
#1043=DIRECTION('',(0.707105366971572,-0.707108195398695,0.));
#1044=DIRECTION('',(0.,0.,-1.));
#1045=DIRECTION('',(-1.83697019872103E-16,-1.,0.));
#1046=DIRECTION('',(0.707105366971572,-0.707108195398695,0.));
#1047=DIRECTION('',(0.,0.,-1.));
#1048=DIRECTION('',(-1.83697019872103E-16,-1.,0.));
#1049=DIRECTION('',(0.707105366971572,-0.707108195398695,0.));
#1050=DIRECTION('',(0.,0.,-1.));
#1051=DIRECTION('',(-1.83697019872103E-16,-1.,0.));
#1052=DIRECTION('',(0.707105366971572,-0.707108195398695,0.));
#1053=DIRECTION('',(-0.707105366971572,0.707108195398695,0.));
#1054=DIRECTION('',(-0.707108195398695,-0.707105366971572,0.));
#1055=DIRECTION('',(-0.707105366971572,0.707108195398695,0.));
#1056=DIRECTION('',(0.,0.,1.));
#1057=DIRECTION('',(-1.83697019872103E-16,-1.,0.));
#1058=DIRECTION('',(0.,0.,1.));
#1059=DIRECTION('',(-1.83697019872103E-16,-1.,0.));
#1060=DIRECTION('',(0.,0.,1.));
#1061=DIRECTION('',(-1.83697019872103E-16,-1.,0.));
#1062=DIRECTION('',(0.,0.,1.));
#1063=DIRECTION('',(-1.83697019872103E-16,-1.,0.));
#1064=DIRECTION('',(0.,0.,1.));
#1065=DIRECTION('',(-1.83697019872103E-16,-1.,0.));
#1066=DIRECTION('',(0.,0.,1.));
#1067=DIRECTION('',(-1.83697019872103E-16,-1.,0.));
#1068=DIRECTION('',(0.707108195398695,0.707105366971572,0.));
#1069=DIRECTION('',(-0.707105366971572,0.707108195398695,0.));
#1070=DIRECTION('',(0.707108195398699,0.707105366971568,0.));
#1071=DIRECTION('',(-0.707105366971568,0.707108195398699,0.));
#1072=DIRECTION('',(-0.707108195398695,-0.707105366971571,0.));
#1073=DIRECTION('',(0.707105366971571,-0.707108195398695,0.));
#1074=DIRECTION('',(-0.707105366971568,0.707108195398699,0.));
#1075=DIRECTION('',(-0.707108195398699,-0.707105366971568,0.));
#1076=DIRECTION('',(-0.707105366971575,0.707108195398691,0.));
#1077=DIRECTION('',(-0.707108195398691,-0.707105366971575,0.));
#1078=DIRECTION('',(0.,0.,1.));
#1079=DIRECTION('',(-1.83697019872103E-16,-1.,0.));
#1080=DIRECTION('',(-0.706774577023947,0.70743882935037,0.));
#1081=DIRECTION('',(-0.70743882935037,-0.706774577023947,0.));
#1082=DIRECTION('',(-0.707105366971572,0.707108195398694,0.));
#1083=DIRECTION('',(-0.707108195398694,-0.707105366971572,0.));
#1084=DIRECTION('',(1.9999999984485E-6,0.999999999998,0.));
#1085=DIRECTION('',(-0.999999999998,1.99999999837E-6,0.));
#1086=DIRECTION('',(0.706774577023949,-0.707438829350368,0.));
#1087=DIRECTION('',(0.707438829350368,0.706774577023949,0.));
#1088=DIRECTION('',(0.999999972187702,-0.000235848668663139,0.));
#1089=DIRECTION('',(-0.000235848668663196,-0.999999972187702,0.));
#1090=DIRECTION('',(0.707108195398695,0.707105366971572,0.));
#1091=DIRECTION('',(-0.707105366971572,0.707108195398695,0.));
#1092=CARTESIAN_POINT('',(0.,0.,0.));
#1093=CARTESIAN_POINT('',(-0.248218252055924,0.249444420693545,0.0362382));
#1094=CARTESIAN_POINT('',(-0.23872486655998,0.249448795398253,0.0362382));
#1095=CARTESIAN_POINT('',(-0.23872486655998,0.247848795398253,0.0362382));
#1096=CARTESIAN_POINT('',(-0.248224885295641,0.239951036480377,0.0362382));
#1097=CARTESIAN_POINT('',(-0.248224885295641,0.238351036480377,0.0362382));
#1098=CARTESIAN_POINT('',(-0.248224847295641,0.258951036480339,0.0362382));
#1099=CARTESIAN_POINT('',(-0.248224847295641,0.257351036480339,0.0362382));
#1100=CARTESIAN_POINT('',(-0.257724866031301,0.249453277562462,0.0362382));
#1101=CARTESIAN_POINT('',(-0.257724866031301,0.247853277562463,0.0362382));
#1102=CARTESIAN_POINT('',(-0.248224908735279,0.228231217257991,0.0362382));
#1103=CARTESIAN_POINT('',(-0.24623100069457,0.228075234165326,0.0362382));
#1104=CARTESIAN_POINT('',(-0.250219165659688,0.2280797599391,0.0362382));
#1105=CARTESIAN_POINT('',(-0.222401180317454,0.251904959223351,0.0362382));
#1106=CARTESIAN_POINT('',(-0.226855687756286,0.247450469602514,0.0362382));
#1107=CARTESIAN_POINT('',(-0.227011662873318,0.249444378267139,0.0362382));
#1108=CARTESIAN_POINT('',(-0.226855679780652,0.251438286307847,0.0362382));
#1109=CARTESIAN_POINT('',(-0.250685404838678,0.275268106684963,0.0362382));
#1110=CARTESIAN_POINT('',(-0.24623091521784,0.270813599246131,0.0362382));
#1111=CARTESIAN_POINT('',(-0.248224823882465,0.270657624129099,0.0362382));
#1112=CARTESIAN_POINT('',(-0.248224827882465,0.268657624129103,0.0362382));
#1113=CARTESIAN_POINT('',(-0.248224823882465,0.270657624129099,0.0362382));
#1114=CARTESIAN_POINT('',(-0.250218731923174,0.270813607221765,0.0362382));
#1115=CARTESIAN_POINT('',(-0.274035323794393,0.246997110616721,0.0362382));
#1116=CARTESIAN_POINT('',(-0.269580816355562,0.251451600237559,0.0362382));
#1117=CARTESIAN_POINT('',(-0.26942484123853,0.249457691572934,0.0362382));
#1118=CARTESIAN_POINT('',(-0.2695853471998,0.247464142517507,0.0362382));
#1119=CARTESIAN_POINT('',(-0.245763177239041,0.223619583619268,0.0362382));
#1120=CARTESIAN_POINT('',(-0.248218252055924,0.249444420693545,0.0362382));
#1121=CARTESIAN_POINT('',(-0.245763177239041,0.223619583619268,0.0362382));
#1122=CARTESIAN_POINT('',(-0.24837823938142,0.22623710349169,0.0362382));
#1123=CARTESIAN_POINT('',(-0.248223761952067,0.226082480878859,0.0362382));
#1124=CARTESIAN_POINT('',(-0.222401180317454,0.251904959223351,0.0362382));
#1125=CARTESIAN_POINT('',(-0.248068933618247,0.226237308593366,0.0362382));
#1126=CARTESIAN_POINT('',(-0.248224908735279,0.228231217257991,0.0362382));
#1127=CARTESIAN_POINT('',(-0.248218252055924,0.249444420693545,0.0362382));
#1128=CARTESIAN_POINT('',(-0.274035323794393,0.246997110616721,0.0362382));
#1129=CARTESIAN_POINT('',(-0.271418749279239,0.249613674665599,0.0362382));
#1130=CARTESIAN_POINT('',(-0.2715758792408,0.249456545332558,0.0362382));
#1131=CARTESIAN_POINT('',(-0.245763177239041,0.223619583619268,0.0362382));
#1132=CARTESIAN_POINT('',(-0.271418540192767,0.249299058411593,0.0362382));
#1133=CARTESIAN_POINT('',(-0.26942484123853,0.249457691572934,0.0362382));
#1134=CARTESIAN_POINT('',(-0.248218252055924,0.249444420693545,0.0362382));
#1135=CARTESIAN_POINT('',(-0.227011662873318,0.249444378267139,0.0362382));
#1136=CARTESIAN_POINT('',(-0.225017754832609,0.249288395174473,0.0362382));
#1137=CARTESIAN_POINT('',(-0.225017754208693,0.24960035338417,0.0362382));
#1138=CARTESIAN_POINT('',(-0.222401180317454,0.251904959223351,0.0362382));
#1139=CARTESIAN_POINT('',(-0.224861775415803,0.249444373967363,0.0362382));
#1140=CARTESIAN_POINT('',(-0.250685404838678,0.275268106684963,0.0362382));
#1141=CARTESIAN_POINT('',(-0.257724866031301,0.249453277562462,0.02031621));
#1142=CARTESIAN_POINT('',(-0.257724866031301,0.249453277562462,0.0207772));
#1143=CARTESIAN_POINT('',(-0.259306788503984,0.249211665886168,0.0207772));
#1144=CARTESIAN_POINT('',(-0.257966484035283,0.247871356056239,0.0207772));
#1145=CARTESIAN_POINT('',(-0.259306433804455,0.249211113611965,0.0208588000000097));
#1146=CARTESIAN_POINT('',(-0.259306438501055,0.249211144285364,0.0208315876794624));
#1147=CARTESIAN_POINT('',(-0.259306478755986,0.24921140685685,0.0208043889026486));
#1148=CARTESIAN_POINT('',(-0.259306554053072,0.249211900260739,0.0207772036044429));
#1149=CARTESIAN_POINT('',(-0.259306629302809,0.249210918114393,0.0208588001865761));
#1150=CARTESIAN_POINT('',(-0.257967036308068,0.247871710757977,0.0208588000000096));
#1151=CARTESIAN_POINT('',(-0.257966292649718,0.247871596888649,0.0215185469618968));
#1152=CARTESIAN_POINT('',(-0.257676368962812,0.247814986717603,0.0228079075340185));
#1153=CARTESIAN_POINT('',(-0.257024269781356,0.247953398820693,0.0242906327201655));
#1154=CARTESIAN_POINT('',(-0.256487988053247,0.248387834832165,0.0254264651893785));
#1155=CARTESIAN_POINT('',(-0.256162720995757,0.248924011984448,0.0261972028114995));
#1156=CARTESIAN_POINT('',(-0.256061165843739,0.249728395073213,0.0268246264247231));
#1157=CARTESIAN_POINT('',(-0.256507509982086,0.250658009156564,0.0270986670748565));
#1158=CARTESIAN_POINT('',(-0.257438689487307,0.251116240027803,0.0268308018963855));
#1159=CARTESIAN_POINT('',(-0.258245927446419,0.251018517375592,0.0262063388680819));
#1160=CARTESIAN_POINT('',(-0.258786013159978,0.250693682468173,0.025433937838274));
#1161=CARTESIAN_POINT('',(-0.259219892228685,0.250163404793825,0.0243111285431019));
#1162=CARTESIAN_POINT('',(-0.259364699930687,0.249501592924822,0.0228101694651275));
#1163=CARTESIAN_POINT('',(-0.259306547754696,0.249211857818639,0.0215190330108557));
#1164=CARTESIAN_POINT('',(-0.259306433804455,0.249211113611965,0.0208588000000096));
#1165=CARTESIAN_POINT('',(-0.257967231806422,0.247871515260405,0.0208588001865761));
#1166=CARTESIAN_POINT('',(-0.257966249659775,0.247871590506214,0.0207772036044429));
#1167=CARTESIAN_POINT('',(-0.257966743063362,0.247871665805274,0.0208043889026486));
#1168=CARTESIAN_POINT('',(-0.257967005634688,0.247871706061254,0.0208315876794624));
#1169=CARTESIAN_POINT('',(-0.257967036308068,0.247871710757977,0.0208588000000096));
#1170=CARTESIAN_POINT('',(-0.23872486655998,0.249448795398253,0.02031621));
#1171=CARTESIAN_POINT('',(-0.23872486655998,0.249448795398253,0.0207772));
#1172=CARTESIAN_POINT('',(-0.23714065102093,0.249671719698095,0.0207772));
#1173=CARTESIAN_POINT('',(-0.238501935923278,0.251033010045593,0.0207772));
#1174=CARTESIAN_POINT('',(-0.237140603906464,0.249672652148596,0.0208587999999902));
#1175=CARTESIAN_POINT('',(-0.237140599631694,0.249672621895503,0.0208315860810812));
#1176=CARTESIAN_POINT('',(-0.237140562987648,0.249672362909914,0.0208043852990202));
#1177=CARTESIAN_POINT('',(-0.237140494459841,0.249671876209399,0.0207771975928331));
#1178=CARTESIAN_POINT('',(-0.237140799403882,0.249672456651961,0.0208587998134504));
#1179=CARTESIAN_POINT('',(-0.238501003472588,0.25103305715633,0.0208587999999902));
#1180=CARTESIAN_POINT('',(-0.238501735186416,0.251033160550681,0.0215170074723963));
#1181=CARTESIAN_POINT('',(-0.238786682969043,0.251085713188516,0.0228046425061577));
#1182=CARTESIAN_POINT('',(-0.239433653200595,0.250944293265375,0.0242856602959654));
#1183=CARTESIAN_POINT('',(-0.239965791775171,0.250509176287867,0.0254196644933786));
#1184=CARTESIAN_POINT('',(-0.240288216836386,0.249973578427197,0.0261891722116786));
#1185=CARTESIAN_POINT('',(-0.240387730531851,0.249171272320592,0.0268156420086264));
#1186=CARTESIAN_POINT('',(-0.23994173978943,0.248244293566655,0.0270894229562463));
#1187=CARTESIAN_POINT('',(-0.2390131443629,0.247786647138076,0.0268216692008861));
#1188=CARTESIAN_POINT('',(-0.238208074459766,0.247882459388198,0.0261980766054092));
#1189=CARTESIAN_POINT('',(-0.237668680397006,0.248204464556017,0.025426922930125));
#1190=CARTESIAN_POINT('',(-0.23723422428007,0.248730621992603,0.024305980070179));
#1191=CARTESIAN_POINT('',(-0.237086427008285,0.24938718169575,0.022806780582626));
#1192=CARTESIAN_POINT('',(-0.237140500417915,0.249671919746992,0.0215176257833138));
#1193=CARTESIAN_POINT('',(-0.237140603906464,0.249672652148597,0.0208587999999902));
#1194=CARTESIAN_POINT('',(-0.238501198970005,0.251032861659693,0.0208587998134505));
#1195=CARTESIAN_POINT('',(-0.238501779411347,0.251033166606056,0.0207771975928332));
#1196=CARTESIAN_POINT('',(-0.238501292711107,0.251033098076302,0.0208043852990203));
#1197=CARTESIAN_POINT('',(-0.238501033725664,0.251033061431221,0.0208315860810812));
#1198=CARTESIAN_POINT('',(-0.238501003472588,0.25103305715633,0.0208587999999902));
#1199=CARTESIAN_POINT('',(-0.248224885295641,0.239951036480377,0.02031621));
#1200=CARTESIAN_POINT('',(-0.248224885295641,0.239951036480377,0.0207772));
#1201=CARTESIAN_POINT('',(-0.24980720537245,0.239712044756226,0.0207772));
#1202=CARTESIAN_POINT('',(-0.248463883349069,0.238368717359547,0.0207772));
#1203=CARTESIAN_POINT('',(-0.249806852243939,0.239711494053047,0.0208588000000097));
#1204=CARTESIAN_POINT('',(-0.249806856879233,0.239711524665082,0.0208315877392189));
#1205=CARTESIAN_POINT('',(-0.249806896609014,0.239711786710558,0.0208043889622004));
#1206=CARTESIAN_POINT('',(-0.249806970921668,0.239712279130927,0.0207772036044483));
#1207=CARTESIAN_POINT('',(-0.249807047742293,0.239711298555475,0.0208588001865761));
#1208=CARTESIAN_POINT('',(-0.248464434050837,0.23836907049026,0.0208588000000096));
#1209=CARTESIAN_POINT('',(-0.248463692126215,0.238368958144533,0.0215183268316756));
#1210=CARTESIAN_POINT('',(-0.248174487814767,0.238312936822728,0.0228074451589908));
#1211=CARTESIAN_POINT('',(-0.247523119658573,0.23845177965302,0.0242899280609839));
#1212=CARTESIAN_POINT('',(-0.246987429364279,0.238886314258712,0.0254254998429128));
#1213=CARTESIAN_POINT('',(-0.246662567843314,0.239422409399283,0.026196061911438));
#1214=CARTESIAN_POINT('',(-0.246561304143099,0.240226496415626,0.0268233493176926));
#1215=CARTESIAN_POINT('',(-0.247007597434319,0.241155734446055,0.0270973531399364));
#1216=CARTESIAN_POINT('',(-0.247938407843868,0.241613882750332,0.0268295046573275));
#1217=CARTESIAN_POINT('',(-0.248745337325173,0.241516433600457,0.0262051663829859));
#1218=CARTESIAN_POINT('',(-0.249285325584341,0.241192002553428,0.0254329432427636));
#1219=CARTESIAN_POINT('',(-0.2497192883765,0.240662313734788,0.0243104012989686));
#1220=CARTESIAN_POINT('',(-0.24986452505941,0.240001250426465,0.0228096940585502));
#1221=CARTESIAN_POINT('',(-0.249806964672539,0.239712236545018,0.0215188307722291));
#1222=CARTESIAN_POINT('',(-0.249806852243939,0.239711494053047,0.0208588000000096));
#1223=CARTESIAN_POINT('',(-0.24846462954919,0.238368874992689,0.0208588001865761));
#1224=CARTESIAN_POINT('',(-0.248463648973431,0.238368951809391,0.0207772036044483));
#1225=CARTESIAN_POINT('',(-0.248464141393502,0.238369026124015,0.0208043889622004));
#1226=CARTESIAN_POINT('',(-0.24846440343882,0.238369065854845,0.0208315877392189));
#1227=CARTESIAN_POINT('',(-0.248464434050837,0.238369070490261,0.0208588000000096));
#1228=CARTESIAN_POINT('',(-0.248224847295641,0.258951036480339,0.02031621));
#1229=CARTESIAN_POINT('',(-0.248224847295641,0.258951036480339,0.0207772));
#1230=CARTESIAN_POINT('',(-0.246640270071137,0.259171376746854,0.0207772));
#1231=CARTESIAN_POINT('',(-0.248004500690818,0.260535612823469,0.0207772));
#1232=CARTESIAN_POINT('',(-0.246640221457041,0.25917230769772,0.0208587999999902));
#1233=CARTESIAN_POINT('',(-0.246640217240791,0.259172277503201,0.0208315861368217));
#1234=CARTESIAN_POINT('',(-0.246640181098037,0.259172019019706,0.0208043853545731));
#1235=CARTESIAN_POINT('',(-0.246640113510131,0.259171533258241,0.0207771975928298));
#1236=CARTESIAN_POINT('',(-0.246640416954459,0.259172112201083,0.0208587998134504));
#1237=CARTESIAN_POINT('',(-0.248003569739758,0.260535661433841,0.0208587999999902));
#1238=CARTESIAN_POINT('',(-0.248004299796669,0.260535763379232,0.0215167896181116));
#1239=CARTESIAN_POINT('',(-0.248288553713612,0.260587753125078,0.0228041746619988));
#1240=CARTESIAN_POINT('',(-0.248934795180971,0.260445908501892,0.0242849483944494));
#1241=CARTESIAN_POINT('',(-0.249466346199024,0.260010696766145,0.0254186929170324));
#1242=CARTESIAN_POINT('',(-0.249788368015773,0.259475181946188,0.0261880261857495));
#1243=CARTESIAN_POINT('',(-0.249887592228198,0.258673170914278,0.0268143607656053));
#1244=CARTESIAN_POINT('',(-0.249441651031134,0.257746566083261,0.0270881045225474));
#1245=CARTESIAN_POINT('',(-0.248513421766321,0.257289003719447,0.0268203654932926));
#1246=CARTESIAN_POINT('',(-0.247708660676435,0.257384546120474,0.0261968956674864));
#1247=CARTESIAN_POINT('',(-0.247169366408224,0.257706149895988,0.02542591911163));
#1248=CARTESIAN_POINT('',(-0.246734830250804,0.258231723940008,0.024305239722301));
#1249=CARTESIAN_POINT('',(-0.246586612018392,0.258887537316595,0.0228062889397866));
#1250=CARTESIAN_POINT('',(-0.246640119415685,0.259171576932237,0.0215174278751649));
#1251=CARTESIAN_POINT('',(-0.24664022145704,0.259172307697719,0.0208587999999902));
#1252=CARTESIAN_POINT('',(-0.248003765237176,0.260535465937205,0.0208587998134505));
#1253=CARTESIAN_POINT('',(-0.248004344178805,0.260535769383849,0.0207771975928298));
#1254=CARTESIAN_POINT('',(-0.248003858417611,0.260535701794,0.0208043853545731));
#1255=CARTESIAN_POINT('',(-0.248003599934261,0.260535665650212,0.0208315861368217));
#1256=CARTESIAN_POINT('',(-0.248003569739759,0.260535661433841,0.0208587999999902));
#1257=CARTESIAN_POINT('',(-0.26942484123853,0.249457691572934,0.02031621));
#1258=CARTESIAN_POINT('',(-0.271418540192767,0.249299058411593,0.0362382));
#1259=CARTESIAN_POINT('',(-0.271380871803142,0.248825642712337,0.0362382));
#1260=CARTESIAN_POINT('',(-0.270959951485697,0.247924624407239,0.0361723763325579));
#1261=CARTESIAN_POINT('',(-0.270058673339282,0.247502251269737,0.0362382));
#1262=CARTESIAN_POINT('',(-0.2695853471998,0.247464142517507,0.0362382));
#1263=CARTESIAN_POINT('',(-0.269580816355562,0.251451600237559,0.0362382));
#1264=CARTESIAN_POINT('',(-0.270055483809501,0.251414468992285,0.0362382));
#1265=CARTESIAN_POINT('',(-0.27095924457105,0.250992745951831,0.0361717270150252));
#1266=CARTESIAN_POINT('',(-0.271381620572102,0.250088285255994,0.0362382));
#1267=CARTESIAN_POINT('',(-0.271418749279239,0.249613674665599,0.0362382));
#1268=CARTESIAN_POINT('',(-0.268016296199839,0.248037832117221,0.0132207));
#1269=CARTESIAN_POINT('',(-0.268016296199839,0.248037832117221,0.0203162));
#1270=CARTESIAN_POINT('',(-0.268016296199839,0.248037832117221,0.0207772));
#1271=CARTESIAN_POINT('',(-0.26942484123853,0.249457691572934,0.02031621));
#1272=CARTESIAN_POINT('',(-0.270844439679677,0.250866499674094,0.02031621));
#1273=CARTESIAN_POINT('',(-0.270844439679677,0.250866499674094,0.0132207));
#1274=CARTESIAN_POINT('',(-0.270844439679677,0.250866499674094,0.0207772));
#1275=CARTESIAN_POINT('',(-0.26942484123853,0.249457691572934,0.0207772));
#1276=CARTESIAN_POINT('',(-0.262360415963898,0.235308927580605,0.02031621));
#1277=CARTESIAN_POINT('',(-0.276495909050381,0.24945770571507,0.0327584));
#1278=CARTESIAN_POINT('',(-0.248224922877414,0.22116014944614,0.0327584));
#1279=CARTESIAN_POINT('',(-0.274037624879173,0.246997111159429,0.0327584));
#1280=CARTESIAN_POINT('',(-0.274037624879173,0.246997111159429,0.02031621));
#1281=CARTESIAN_POINT('',(-0.274037624879173,0.246997111159429,0.0207772));
#1282=CARTESIAN_POINT('',(-0.262360415963898,0.235308927580605,0.0207772));
#1283=CARTESIAN_POINT('',(-0.25287553442913,0.225815131810903,0.0207772));
#1284=CARTESIAN_POINT('',(-0.252875534429133,0.225815131810906,0.02031621));
#1285=CARTESIAN_POINT('',(-0.252875534429154,0.225815131810927,0.02031621));
#1286=CARTESIAN_POINT('',(-0.262360415963898,0.235308927580605,0.02031621));
#1287=CARTESIAN_POINT('',(-0.248224922877414,0.22116014944614,0.02031621));
#1288=CARTESIAN_POINT('',(-0.248224922877414,0.22116014944614,0.02031621));
#1289=CARTESIAN_POINT('',(-0.248218252055924,0.249444420693545,0.02031621));
#1290=CARTESIAN_POINT('',(-0.262364855113409,0.23530449045254,0.0203162));
#1291=CARTESIAN_POINT('',(-0.276506961450996,0.249446653358665,0.0203162));
#1292=CARTESIAN_POINT('',(-0.262367568825534,0.263585989426669,0.0203162));
#1293=CARTESIAN_POINT('',(-0.268012057131944,0.257941523698168,0.0203162));
#1294=CARTESIAN_POINT('',(-0.23963450454464,0.229563857600428,0.0203162));
#1295=CARTESIAN_POINT('',(-0.239727842453081,0.22965719588222,0.0203162));
#1296=CARTESIAN_POINT('',(-0.234082758969441,0.235302256785571,0.0203162));
#1297=CARTESIAN_POINT('',(-0.248222746772132,0.221162325542718,0.0203162));
#1298=CARTESIAN_POINT('',(-0.234082758969441,0.235302256785571,0.02031621));
#1299=CARTESIAN_POINT('',(-0.248224908735279,0.228231217257991,0.02031621));
#1300=CARTESIAN_POINT('',(-0.248224908735279,0.226231217257991,0.02031621));
#1301=CARTESIAN_POINT('',(-0.269435894640988,0.249446640218378,0.0203162));
#1302=CARTESIAN_POINT('',(-0.262367568825534,0.263585989426669,0.0208642));
#1303=CARTESIAN_POINT('',(-0.242529526209583,0.255046400103078,0.0204496697211072));
#1304=CARTESIAN_POINT('',(-0.228434087824372,0.240950905336,0.0204496697210927));
#1305=CARTESIAN_POINT('',(-0.228340700362214,0.240857616607728,0.0204496664419878));
#1306=CARTESIAN_POINT('',(-0.234083354146672,0.235301661610721,0.0208642));
#1307=CARTESIAN_POINT('',(-0.228426685369606,0.240958307761158,0.0208587998134505));
#1308=CARTESIAN_POINT('',(-0.25671070455105,0.269242831073742,0.0208587999999902));
#1309=CARTESIAN_POINT('',(-0.228333347386653,0.240864969553877,0.0208587998390126));
#1310=CARTESIAN_POINT('',(-0.233990016238231,0.235208323328928,0.0208642));
#1311=CARTESIAN_POINT('',(-0.228337198533425,0.240861118422509,0.0205626234729881));
#1312=CARTESIAN_POINT('',(-0.233990016238231,0.235208323328928,0.0208642));
#1313=CARTESIAN_POINT('',(-0.262367568825534,0.263585989426669,0.0219588));
#1314=CARTESIAN_POINT('',(-0.274739191964343,0.251214417777943,0.0207772));
#1315=CARTESIAN_POINT('',(-0.27650696245284,0.249446654360513,0.0207772));
#1316=CARTESIAN_POINT('',(-0.274036464496787,0.251917140430905,0.0207772));
#1317=CARTESIAN_POINT('',(-0.274036464496787,0.251917140430905,0.0219588));
#1318=CARTESIAN_POINT('',(-0.274036464496787,0.251917140430905,0.0327584));
#1319=CARTESIAN_POINT('',(-0.248224809740329,0.277728691940951,0.0327584));
#1320=CARTESIAN_POINT('',(-0.250685404838678,0.275268106684963,0.0327584));
#1321=CARTESIAN_POINT('',(-0.250685404838678,0.275268106684963,0.0219588));
#1322=CARTESIAN_POINT('',(-0.250685404838678,0.275268106684963,0.0203162));
#1323=CARTESIAN_POINT('',(-0.262367568825534,0.263585989426669,0.0203162));
#1324=CARTESIAN_POINT('',(-0.256723862511026,0.269229673166398,0.0203162));
#1325=CARTESIAN_POINT('',(-0.262367959821484,0.263585598432283,0.0208534019599676));
#1326=CARTESIAN_POINT('',(-0.27650696245284,0.249446654360513,0.0207772));
#1327=CARTESIAN_POINT('',(-0.248218252055924,0.249444420693545,0.0362382));
#1328=CARTESIAN_POINT('',(-0.250685404838678,0.275268106684963,0.0362382));
#1329=CARTESIAN_POINT('',(-0.2480688407898,0.272651532169808,0.0362382));
#1330=CARTESIAN_POINT('',(-0.24822481958269,0.272807511586615,0.0362382));
#1331=CARTESIAN_POINT('',(-0.274035323794393,0.246997110616721,0.0362382));
#1332=CARTESIAN_POINT('',(-0.248380798999497,0.272651532793724,0.0362382));
#1333=CARTESIAN_POINT('',(-0.248224823882465,0.270657624129099,0.0362382));
#1334=CARTESIAN_POINT('',(-0.248224819882465,0.272657624129095,0.0362382));
#1335=CARTESIAN_POINT('',(-0.248224823882465,0.270657624129099,0.0362382));
#1336=CARTESIAN_POINT('',(-0.248224908735279,0.228231217257991,0.02031621));
#1337=CARTESIAN_POINT('',(-0.248068933618247,0.226237308593366,0.0362382));
#1338=CARTESIAN_POINT('',(-0.247594266164308,0.22627443983864,0.0362382));
#1339=CARTESIAN_POINT('',(-0.246690505402759,0.226696162879094,0.0361717270150252));
#1340=CARTESIAN_POINT('',(-0.246268129401707,0.227600623574931,0.0362382));
#1341=CARTESIAN_POINT('',(-0.24623100069457,0.228075234165326,0.0362382));
#1342=CARTESIAN_POINT('',(-0.250219165659688,0.2280797599391,0.0362382));
#1343=CARTESIAN_POINT('',(-0.250183018747559,0.227603809154168,0.0362382));
#1344=CARTESIAN_POINT('',(-0.249761343368669,0.226696913760255,0.0361710741582106));
#1345=CARTESIAN_POINT('',(-0.248854096581256,0.226273692924627,0.0362382));
#1346=CARTESIAN_POINT('',(-0.24837823938142,0.22623710349169,0.0362382));
#1347=CARTESIAN_POINT('',(-0.227011662873318,0.249444378267139,0.02031621));
#1348=CARTESIAN_POINT('',(-0.226855687756286,0.247450469602514,0.0362382));
#1349=CARTESIAN_POINT('',(-0.226381020302347,0.247487600847787,0.0362382));
#1350=CARTESIAN_POINT('',(-0.225477259540798,0.247909323888242,0.0361717270150251));
#1351=CARTESIAN_POINT('',(-0.225054883539746,0.248813784584079,0.0362382));
#1352=CARTESIAN_POINT('',(-0.225017754832609,0.249288395174473,0.0362382));
#1353=CARTESIAN_POINT('',(-0.225017754208693,0.24960035338417,0.0362382));
#1354=CARTESIAN_POINT('',(-0.225054885453967,0.25007502083811,0.0362382));
#1355=CARTESIAN_POINT('',(-0.225476608494421,0.250978781599659,0.0361717270150251));
#1356=CARTESIAN_POINT('',(-0.226381069190258,0.25140115760071,0.0362382));
#1357=CARTESIAN_POINT('',(-0.226855679780652,0.251438286307847,0.0362382));
#1358=CARTESIAN_POINT('',(-0.227011662873318,0.249444378267139,0.02031621));
#1359=CARTESIAN_POINT('',(-0.227011662873318,0.247444378267138,0.02031621));
#1360=CARTESIAN_POINT('',(-0.248224823882465,0.270657624129099,0.02031621));
#1361=CARTESIAN_POINT('',(-0.24623091521784,0.270813599246131,0.0362382));
#1362=CARTESIAN_POINT('',(-0.246268046463114,0.27128826670007,0.0362382));
#1363=CARTESIAN_POINT('',(-0.246689769503568,0.27219202746162,0.0361717270150251));
#1364=CARTESIAN_POINT('',(-0.247594230199405,0.272614403462671,0.0362382));
#1365=CARTESIAN_POINT('',(-0.2480688407898,0.272651532169808,0.0362382));
#1366=CARTESIAN_POINT('',(-0.248224819882465,0.272657624129095,0.02031621));
#1367=CARTESIAN_POINT('',(-0.248224819882465,0.272657624129095,0.0207772));
#1368=CARTESIAN_POINT('',(-0.248224819882465,0.272657624129095,0.02031621));
#1369=CARTESIAN_POINT('',(-0.248224821655949,0.272659256067175,0.020316205));
#1370=CARTESIAN_POINT('',(-0.248224823882465,0.270657624129099,0.0203162));
#1371=CARTESIAN_POINT('',(-0.248223737738054,0.268659257249055,0.020316205));
#1372=CARTESIAN_POINT('',(-0.248224827882465,0.268657624129103,0.02031621));
#1373=CARTESIAN_POINT('',(-0.248224827882465,0.268657624129103,0.0207772));
#1374=CARTESIAN_POINT('',(-0.248224827882465,0.268657624129103,0.02031621));
#1375=CARTESIAN_POINT('',(-0.234082702400898,0.263586528032977,0.02031621));
#1376=CARTESIAN_POINT('',(-0.234082702400898,0.263586528032977,0.02031621));
#1377=CARTESIAN_POINT('',(-0.245763136431701,0.275269184890891,0.020316205));
#1378=CARTESIAN_POINT('',(-0.219938963483427,0.24944599669836,0.020316205));
#1379=CARTESIAN_POINT('',(-0.245764224484342,0.275268096842603,0.02031621));
#1380=CARTESIAN_POINT('',(-0.245764224484342,0.275268096842603,0.0327584));
#1381=CARTESIAN_POINT('',(-0.219940595061466,0.249444364125003,0.0327584));
#1382=CARTESIAN_POINT('',(-0.219940595061466,0.249444364125003,0.0327584));
#1383=CARTESIAN_POINT('',(-0.219940595061466,0.249444364125003,0.02031621));
#1384=CARTESIAN_POINT('',(-0.219940595061466,0.249444364125003,0.0207772));
#1385=CARTESIAN_POINT('',(-0.219940595061466,0.249444364125003,0.02031621));
#1386=CARTESIAN_POINT('',(-0.234082758969441,0.235302256785571,0.02031621));
#1387=CARTESIAN_POINT('',(-0.248224922877414,0.22116014944614,0.0327584));
#1388=CARTESIAN_POINT('',(-0.234083745142622,0.235301270616335,0.0208534019599676));
#1389=CARTESIAN_POINT('',(-0.239740414563484,0.229644623822105,0.0208561009799886));
#1390=CARTESIAN_POINT('',(-0.234083354146672,0.235301661610721,0.0208534));
#1391=CARTESIAN_POINT('',(-0.234083745142622,0.235301270616335,0.0208534019599676));
#1392=CARTESIAN_POINT('',(-0.228439354765706,0.240945638916657,0.020316205));
#1393=CARTESIAN_POINT('',(-0.234082758969441,0.235302256785571,0.0203162));
#1394=CARTESIAN_POINT('',(-0.248224823882465,0.270657624129099,0.02031621));
#1395=CARTESIAN_POINT('',(-0.248380798999497,0.272651532793725,0.0362382));
#1396=CARTESIAN_POINT('',(-0.248855466453436,0.272614401548451,0.0362382));
#1397=CARTESIAN_POINT('',(-0.249759227214985,0.272192678507997,0.0361717270150251));
#1398=CARTESIAN_POINT('',(-0.250181603216037,0.27128821781216,0.0362382));
#1399=CARTESIAN_POINT('',(-0.250218731923174,0.270813607221765,0.0362382));
#1400=CARTESIAN_POINT('',(-0.248224823882465,0.270657624129099,0.02031621));
#1401=CARTESIAN_POINT('',(-0.248222691205434,0.249446597791971,0.0207772));
#1402=CARTESIAN_POINT('',(-0.262364855113409,0.23530449045254,0.0207772));
#1403=CARTESIAN_POINT('',(-0.2715758792408,0.249456545332558,0.0207772));
#1404=CARTESIAN_POINT('',(-0.248222691205434,0.249446597791971,0.0207772));
#1405=CARTESIAN_POINT('',(-0.269435894640988,0.249446640218378,0.0207772));
#1406=CARTESIAN_POINT('',(-0.269435894640988,0.249446640218378,0.0207772));
#1407=CARTESIAN_POINT('',(-0.262364855113409,0.23530449045254,0.0207772));
#1408=CARTESIAN_POINT('',(-0.248222691205434,0.249446597791971,0.0207772));
#1409=CARTESIAN_POINT('',(-0.256711037778606,0.269242497847518,0.0207772));
#1410=CARTESIAN_POINT('',(-0.248222691205434,0.249446597791971,0.0207772));
#1411=CARTESIAN_POINT('',(-0.268024099872463,0.25792948100582,0.0207772));
#1412=CARTESIAN_POINT('',(-0.248222691205434,0.249446597791971,0.0207772));
#1413=CARTESIAN_POINT('',(-0.256711037778606,0.269242497847518,0.0207772));
#1414=CARTESIAN_POINT('',(-0.248222691205434,0.249446597791971,0.0207772));
#1415=CARTESIAN_POINT('',(-0.268024099872463,0.25792948100582,0.0207772));
#1416=CARTESIAN_POINT('',(-0.233990407234182,0.235207932334543,0.0208534019599676));
#1417=CARTESIAN_POINT('',(-0.228346309923722,0.240852007068658,0.0203162));
#1418=CARTESIAN_POINT('',(1.62864630886479E-5,0.000521039547751532,0.0203162));
#1419=CARTESIAN_POINT('',(-0.24822481958269,0.272807511586615,0.0203162));
#1420=CARTESIAN_POINT('',(-0.24822481958269,0.272807511586615,0.02031621));
#1421=CARTESIAN_POINT('',(-0.24822481958269,0.272807511586615,0.0327584));
#1422=CARTESIAN_POINT('',(-0.2715758792408,0.249456545332558,0.0219588));
#1423=CARTESIAN_POINT('',(-0.2715758792408,0.249456545332558,0.0327584));
#1424=CARTESIAN_POINT('',(-0.259903081252613,0.261129296629645,0.0327584));
#1425=CARTESIAN_POINT('',(-0.24822481958269,0.272807511586615,0.0327584));
#1426=CARTESIAN_POINT('',(-0.2715758792408,0.249456545332558,0.0327584));
#1427=CARTESIAN_POINT('',(-0.24822481958269,0.272807511586615,0.0327584));
#1428=CARTESIAN_POINT('',(-0.24822481958269,0.272807511586615,0.0327584));
#1429=CARTESIAN_POINT('',(-0.2715758792408,0.249456545332558,0.0327584));
#1430=CARTESIAN_POINT('',(-0.2715758792408,0.249456545332558,0.0327584));
#1431=CARTESIAN_POINT('',(-0.236543297499247,0.261125942776989,0.0327584));
#1432=CARTESIAN_POINT('',(-0.224861775415803,0.249444373967363,0.0327584));
#1433=CARTESIAN_POINT('',(-0.259898670325524,0.237768361753733,0.0327584));
#1434=CARTESIAN_POINT('',(-0.248223761952067,0.226082480878859,0.0327584));
#1435=CARTESIAN_POINT('',(-0.236543344225428,0.23776285188392,0.0327584));
#1436=MECHANICAL_DESIGN_GEOMETRIC_PRESENTATION_REPRESENTATION('',(#785),
#1437);
#1437=(
GEOMETRIC_REPRESENTATION_CONTEXT(3)
GLOBAL_UNCERTAINTY_ASSIGNED_CONTEXT((#1438))
GLOBAL_UNIT_ASSIGNED_CONTEXT((#1441,#1440,#1439))
REPRESENTATION_CONTEXT('Motor Mount Top FL','TOP_LEVEL_ASSEMBLY_PART')
);
#1438=UNCERTAINTY_MEASURE_WITH_UNIT(LENGTH_MEASURE(2.54264730318121E-5),
#1441,'DISTANCE_ACCURACY_VALUE','Maximum Tolerance applied to model');
#1439=(
NAMED_UNIT(*)
SI_UNIT($,.STERADIAN.)
SOLID_ANGLE_UNIT()
);
#1440=(
NAMED_UNIT(*)
PLANE_ANGLE_UNIT()
SI_UNIT($,.RADIAN.)
);
#1441=(
LENGTH_UNIT()
NAMED_UNIT(*)
SI_UNIT($,.METRE.)
);
#1442=PRODUCT_DEFINITION_SHAPE('','',#1443);
#1443=PRODUCT_DEFINITION('','',#1445,#1444);
#1444=PRODUCT_DEFINITION_CONTEXT('',#1451,'design');
#1445=PRODUCT_DEFINITION_FORMATION_WITH_SPECIFIED_SOURCE('','',#1447,
 .NOT_KNOWN.);
#1446=PRODUCT_RELATED_PRODUCT_CATEGORY('','',(#1447));
#1447=PRODUCT('Motor Mount Top FL','Motor Mount Top FL',
'Motor Mount Top FL',(#1449));
#1448=PRODUCT_CATEGORY('','');
#1449=PRODUCT_CONTEXT('',#1451,'mechanical');
#1450=APPLICATION_PROTOCOL_DEFINITION('international standard',
'ap242_managed_model_based_3d_engineering',2020,#1451);
#1451=APPLICATION_CONTEXT('managed model based 3d engineering');
ENDSEC;
END-ISO-10303-21;
